<svg xmlns="http://www.w3.org/2000/svg" xmlns:xlink="http://www.w3.org/1999/xlink" width="240" zoomAndPan="magnify" viewBox="0 0 180 179.999997" height="240" preserveAspectRatio="xMidYMid meet" version="1.0"><defs><clipPath id="5e6e519d48"><path d="M 159 61 L 178.875 61 L 178.875 81 L 159 81 Z M 159 61 " clip-rule="nonzero"/></clipPath><clipPath id="c1559f2cfd"><path d="M 159 99 L 178.875 99 L 178.875 119 L 159 119 Z M 159 99 " clip-rule="nonzero"/></clipPath><clipPath id="17ece591f7"><path d="M 1.125 61 L 21 61 L 21 81 L 1.125 81 Z M 1.125 61 " clip-rule="nonzero"/></clipPath><clipPath id="8902558b61"><path d="M 1.125 99 L 21 99 L 21 119 L 1.125 119 Z M 1.125 99 " clip-rule="nonzero"/></clipPath></defs><path fill="#085085" d="M 119.15625 124.640625 L 60.738281 124.640625 C 54.726562 124.640625 49.773438 119.683594 49.773438 113.671875 L 49.773438 66.328125 C 49.773438 60.210938 54.726562 55.253906 60.738281 55.253906 L 119.15625 55.253906 C 125.273438 55.253906 130.226562 60.210938 130.226562 66.328125 L 130.226562 113.671875 C 130.226562 119.683594 125.273438 124.640625 119.15625 124.640625 Z M 62.742188 102.707031 C 62.53125 102.707031 62.320312 102.707031 62.109375 102.601562 C 61.160156 102.285156 60.738281 101.230469 61.160156 100.28125 L 64.957031 90.789062 L 64.957031 90.683594 L 71.808594 73.601562 C 71.808594 73.601562 71.808594 73.496094 71.808594 73.496094 C 71.914062 73.285156 72.019531 73.074219 72.230469 72.96875 C 72.335938 72.757812 72.546875 72.652344 72.757812 72.546875 C 72.757812 72.546875 72.757812 72.546875 72.863281 72.546875 C 73.074219 72.441406 73.179688 72.441406 73.390625 72.441406 C 73.601562 72.441406 73.8125 72.441406 74.023438 72.546875 C 74.023438 72.546875 74.128906 72.546875 74.128906 72.546875 C 74.339844 72.652344 74.550781 72.757812 74.65625 72.96875 C 74.867188 73.074219 74.972656 73.285156 75.078125 73.496094 C 75.078125 73.496094 75.078125 73.601562 75.078125 73.601562 L 81.933594 90.683594 L 81.933594 90.789062 L 85.730469 100.28125 C 86.046875 101.230469 85.625 102.285156 84.78125 102.601562 C 83.832031 102.917969 82.777344 102.496094 82.460938 101.652344 L 79.085938 93.214844 L 67.804688 93.214844 L 64.429688 101.652344 C 64.113281 102.285156 63.480469 102.707031 62.742188 102.707031 Z M 102.917969 102.8125 L 93.53125 102.8125 C 92.582031 102.8125 91.84375 102.074219 91.84375 101.125 C 91.84375 100.070312 92.582031 99.332031 93.53125 99.332031 L 101.125 99.332031 L 101.125 75.816406 L 93.53125 75.816406 C 92.582031 75.816406 91.84375 75.078125 91.84375 74.128906 C 91.84375 73.074219 92.582031 72.335938 93.53125 72.335938 L 112.195312 72.335938 C 113.144531 72.335938 113.988281 73.074219 113.988281 74.128906 C 113.988281 75.078125 113.144531 75.816406 112.195312 75.816406 L 104.605469 75.816406 L 104.605469 99.332031 L 112.195312 99.332031 C 113.144531 99.332031 113.988281 100.070312 113.988281 101.125 C 113.988281 102.074219 113.144531 102.8125 112.195312 102.8125 Z M 77.714844 89.632812 L 73.390625 78.980469 L 69.175781 89.632812 Z M 77.714844 89.632812 " fill-opacity="1" fill-rule="evenodd"/><path fill="#085085" d="M 80.667969 58.839844 C 79.71875 58.839844 78.875 57.996094 78.875 57.046875 L 78.875 17.292969 C 78.875 16.34375 79.71875 15.5 80.667969 15.5 C 81.617188 15.5 82.355469 16.34375 82.355469 17.292969 L 82.355469 57.046875 C 82.355469 57.996094 81.617188 58.839844 80.667969 58.839844 Z M 80.667969 58.839844 " fill-opacity="1" fill-rule="evenodd"/><path fill="#085085" d="M 80.667969 19.085938 C 75.394531 19.085938 71.070312 14.761719 71.070312 9.492188 C 71.070312 4.324219 75.394531 0 80.667969 0 C 85.941406 0 90.15625 4.324219 90.15625 9.492188 C 90.15625 14.761719 85.941406 19.085938 80.667969 19.085938 Z M 80.667969 19.085938 " fill-opacity="1" fill-rule="evenodd"/><path fill="#085085" d="M 99.332031 58.839844 C 98.382812 58.839844 97.539062 57.996094 97.539062 57.046875 L 97.539062 40.597656 C 97.539062 39.648438 98.382812 38.804688 99.332031 38.804688 C 100.28125 38.804688 101.125 39.648438 101.125 40.597656 L 101.125 57.046875 C 101.125 57.996094 100.28125 58.839844 99.332031 58.839844 Z M 99.332031 58.839844 " fill-opacity="1" fill-rule="evenodd"/><path fill="#085085" d="M 99.332031 42.390625 C 94.058594 42.390625 89.84375 38.066406 89.84375 32.792969 C 89.84375 27.628906 94.058594 23.304688 99.332031 23.304688 C 104.605469 23.304688 108.824219 27.628906 108.824219 32.792969 C 108.824219 38.066406 104.605469 42.390625 99.332031 42.390625 Z M 99.332031 42.390625 " fill-opacity="1" fill-rule="evenodd"/><path fill="#085085" d="M 117.996094 58.839844 C 117.046875 58.839844 116.203125 57.996094 116.203125 57.046875 L 116.203125 31.316406 C 116.203125 26.152344 120.421875 21.933594 125.589844 21.933594 L 136.765625 21.933594 C 137.714844 21.933594 138.558594 22.777344 138.558594 23.726562 C 138.558594 24.675781 137.714844 25.519531 136.765625 25.519531 L 125.589844 25.519531 C 122.425781 25.519531 119.789062 28.050781 119.789062 31.316406 L 119.789062 57.046875 C 119.789062 57.996094 118.945312 58.839844 117.996094 58.839844 Z M 117.996094 58.839844 " fill-opacity="1" fill-rule="evenodd"/><path fill="#085085" d="M 144.570312 33.214844 C 139.296875 33.214844 134.972656 29 134.972656 23.726562 C 134.972656 18.453125 139.296875 14.234375 144.570312 14.234375 C 149.84375 14.234375 154.058594 18.453125 154.058594 23.726562 C 154.058594 29 149.84375 33.214844 144.570312 33.214844 Z M 144.570312 33.214844 " fill-opacity="1" fill-rule="evenodd"/><path fill="#085085" d="M 62.003906 58.839844 C 60.949219 58.839844 60.210938 57.996094 60.210938 57.046875 L 60.210938 31.316406 C 60.210938 28.050781 57.574219 25.519531 54.410156 25.519531 L 43.234375 25.519531 C 42.179688 25.519531 41.441406 24.675781 41.441406 23.726562 C 41.441406 22.777344 42.179688 21.933594 43.234375 21.933594 L 54.410156 21.933594 C 59.578125 21.933594 63.691406 26.152344 63.691406 31.316406 L 63.691406 57.046875 C 63.691406 57.996094 62.953125 58.839844 62.003906 58.839844 Z M 62.003906 58.839844 " fill-opacity="1" fill-rule="evenodd"/><path fill="#085085" d="M 35.429688 33.214844 C 30.15625 33.214844 25.941406 29 25.941406 23.726562 C 25.941406 18.453125 30.15625 14.234375 35.429688 14.234375 C 40.703125 14.234375 44.921875 18.453125 44.921875 23.726562 C 44.921875 29 40.703125 33.214844 35.429688 33.214844 Z M 35.429688 33.214844 " fill-opacity="1" fill-rule="evenodd"/><path fill="#085085" d="M 161.546875 72.652344 L 128.4375 72.652344 C 127.488281 72.652344 126.644531 71.808594 126.644531 70.859375 C 126.644531 69.914062 127.488281 69.175781 128.4375 69.175781 L 161.546875 69.175781 C 162.496094 69.175781 163.234375 69.914062 163.234375 70.859375 C 163.234375 71.808594 162.496094 72.652344 161.546875 72.652344 Z M 161.546875 72.652344 " fill-opacity="1" fill-rule="evenodd"/><g clip-path="url(#5e6e519d48)"><path fill="#085085" d="M 169.246094 80.457031 C 164.078125 80.457031 159.753906 76.132812 159.753906 70.859375 C 159.753906 65.589844 164.078125 61.371094 169.246094 61.371094 C 174.515625 61.371094 178.839844 65.589844 178.839844 70.859375 C 178.839844 76.132812 174.515625 80.457031 169.246094 80.457031 Z M 169.246094 80.457031 " fill-opacity="1" fill-rule="evenodd"/></g><path fill="#085085" d="M 138.347656 91.738281 L 128.4375 91.738281 C 127.488281 91.738281 126.644531 91 126.644531 89.949219 C 126.644531 89 127.488281 88.261719 128.4375 88.261719 L 138.347656 88.261719 C 139.296875 88.261719 140.035156 89 140.035156 89.949219 C 140.035156 91 139.296875 91.738281 138.347656 91.738281 Z M 138.347656 91.738281 " fill-opacity="1" fill-rule="evenodd"/><path fill="#085085" d="M 146.046875 99.542969 C 140.878906 99.542969 136.554688 95.21875 136.554688 89.949219 C 136.554688 84.78125 140.878906 80.457031 146.046875 80.457031 C 151.316406 80.457031 155.640625 84.78125 155.640625 89.949219 C 155.640625 95.21875 151.316406 99.542969 146.046875 99.542969 Z M 146.046875 99.542969 " fill-opacity="1" fill-rule="evenodd"/><path fill="#085085" d="M 161.546875 110.71875 L 128.4375 110.71875 C 127.488281 110.71875 126.644531 109.980469 126.644531 108.929688 C 126.644531 107.980469 127.488281 107.242188 128.4375 107.242188 L 161.546875 107.242188 C 162.496094 107.242188 163.234375 107.980469 163.234375 108.929688 C 163.234375 109.980469 162.496094 110.71875 161.546875 110.71875 Z M 161.546875 110.71875 " fill-opacity="1" fill-rule="evenodd"/><g clip-path="url(#c1559f2cfd)"><path fill="#085085" d="M 169.246094 118.523438 C 164.078125 118.523438 159.753906 114.199219 159.753906 108.929688 C 159.753906 103.761719 164.078125 99.4375 169.246094 99.4375 C 174.515625 99.4375 178.839844 103.761719 178.839844 108.929688 C 178.839844 114.199219 174.515625 118.523438 169.246094 118.523438 Z M 169.246094 118.523438 " fill-opacity="1" fill-rule="evenodd"/></g><path fill="#085085" d="M 80.667969 164.394531 C 79.71875 164.394531 78.875 163.65625 78.875 162.707031 L 78.875 122.953125 C 78.875 121.898438 79.71875 121.160156 80.667969 121.160156 C 81.617188 121.160156 82.355469 121.898438 82.355469 122.953125 L 82.355469 162.707031 C 82.355469 163.65625 81.617188 164.394531 80.667969 164.394531 Z M 80.667969 164.394531 " fill-opacity="1" fill-rule="evenodd"/><path fill="#085085" d="M 80.667969 180 C 75.394531 180 71.070312 175.675781 71.070312 170.402344 C 71.070312 165.132812 75.394531 160.914062 80.667969 160.914062 C 85.941406 160.914062 90.15625 165.132812 90.15625 170.402344 C 90.15625 175.675781 85.941406 180 80.667969 180 Z M 80.667969 180 " fill-opacity="1" fill-rule="evenodd"/><path fill="#085085" d="M 99.332031 141.089844 C 98.382812 141.089844 97.539062 140.351562 97.539062 139.402344 L 97.539062 122.953125 C 97.539062 121.898438 98.382812 121.160156 99.332031 121.160156 C 100.28125 121.160156 101.125 121.898438 101.125 122.953125 L 101.125 139.402344 C 101.125 140.351562 100.28125 141.089844 99.332031 141.089844 Z M 99.332031 141.089844 " fill-opacity="1" fill-rule="evenodd"/><path fill="#085085" d="M 99.332031 156.695312 C 94.058594 156.695312 89.84375 152.371094 89.84375 147.101562 C 89.84375 141.828125 94.058594 137.609375 99.332031 137.609375 C 104.605469 137.609375 108.824219 141.828125 108.824219 147.101562 C 108.824219 152.371094 104.605469 156.695312 99.332031 156.695312 Z M 99.332031 156.695312 " fill-opacity="1" fill-rule="evenodd"/><path fill="#085085" d="M 136.765625 157.960938 L 125.589844 157.960938 C 120.421875 157.960938 116.203125 153.847656 116.203125 148.683594 L 116.203125 122.953125 C 116.203125 121.898438 117.046875 121.160156 117.996094 121.160156 C 118.945312 121.160156 119.789062 121.898438 119.789062 122.953125 L 119.789062 148.683594 C 119.789062 151.84375 122.425781 154.480469 125.589844 154.480469 L 136.765625 154.480469 C 137.714844 154.480469 138.558594 155.21875 138.558594 156.273438 C 138.558594 157.222656 137.714844 157.960938 136.765625 157.960938 Z M 136.765625 157.960938 " fill-opacity="1" fill-rule="evenodd"/><path fill="#085085" d="M 144.570312 165.765625 C 139.296875 165.765625 134.972656 161.441406 134.972656 156.273438 C 134.972656 151 139.296875 146.679688 144.570312 146.679688 C 149.84375 146.679688 154.058594 151 154.058594 156.273438 C 154.058594 161.441406 149.84375 165.765625 144.570312 165.765625 Z M 144.570312 165.765625 " fill-opacity="1" fill-rule="evenodd"/><path fill="#085085" d="M 54.410156 157.960938 L 43.234375 157.960938 C 42.179688 157.960938 41.441406 157.222656 41.441406 156.273438 C 41.441406 155.21875 42.179688 154.480469 43.234375 154.480469 L 54.410156 154.480469 C 57.574219 154.480469 60.210938 151.84375 60.210938 148.683594 L 60.210938 122.953125 C 60.210938 121.898438 60.949219 121.160156 62.003906 121.160156 C 62.953125 121.160156 63.691406 121.898438 63.691406 122.953125 L 63.691406 148.683594 C 63.691406 153.847656 59.578125 157.960938 54.410156 157.960938 Z M 54.410156 157.960938 " fill-opacity="1" fill-rule="evenodd"/><path fill="#085085" d="M 35.429688 165.765625 C 30.15625 165.765625 25.941406 161.441406 25.941406 156.273438 C 25.941406 151 30.15625 146.679688 35.429688 146.679688 C 40.703125 146.679688 44.921875 151 44.921875 156.273438 C 44.921875 161.441406 40.703125 165.765625 35.429688 165.765625 Z M 35.429688 165.765625 " fill-opacity="1" fill-rule="evenodd"/><path fill="#085085" d="M 51.5625 72.652344 L 18.453125 72.652344 C 17.503906 72.652344 16.660156 71.914062 16.660156 70.964844 C 16.660156 69.914062 17.503906 69.175781 18.453125 69.175781 L 51.5625 69.175781 C 52.511719 69.175781 53.25 69.914062 53.25 70.964844 C 53.25 71.914062 52.511719 72.652344 51.5625 72.652344 Z M 51.5625 72.652344 " fill-opacity="1" fill-rule="evenodd"/><g clip-path="url(#17ece591f7)"><path fill="#085085" d="M 10.648438 80.457031 C 5.484375 80.457031 1.160156 76.238281 1.160156 70.964844 C 1.160156 65.695312 5.484375 61.371094 10.648438 61.371094 C 15.921875 61.371094 20.246094 65.695312 20.246094 70.964844 C 20.246094 76.238281 15.921875 80.457031 10.648438 80.457031 Z M 10.648438 80.457031 " fill-opacity="1" fill-rule="evenodd"/></g><path fill="#085085" d="M 51.5625 91.738281 L 41.652344 91.738281 C 40.703125 91.738281 39.859375 91 39.859375 90.050781 C 39.859375 89.105469 40.703125 88.261719 41.652344 88.261719 L 51.5625 88.261719 C 52.511719 88.261719 53.25 89.105469 53.25 90.050781 C 53.25 91 52.511719 91.738281 51.5625 91.738281 Z M 51.5625 91.738281 " fill-opacity="1" fill-rule="evenodd"/><path fill="#085085" d="M 33.847656 99.542969 C 28.578125 99.542969 24.359375 95.324219 24.359375 90.050781 C 24.359375 84.78125 28.578125 80.457031 33.847656 80.457031 C 39.121094 80.457031 43.445312 84.78125 43.445312 90.050781 C 43.445312 95.324219 39.121094 99.542969 33.847656 99.542969 Z M 33.847656 99.542969 " fill-opacity="1" fill-rule="evenodd"/><path fill="#085085" d="M 51.5625 110.824219 L 18.453125 110.824219 C 17.503906 110.824219 16.660156 109.980469 16.660156 109.035156 C 16.660156 108.085938 17.503906 107.242188 18.453125 107.242188 L 51.5625 107.242188 C 52.511719 107.242188 53.25 108.085938 53.25 109.035156 C 53.25 109.980469 52.511719 110.824219 51.5625 110.824219 Z M 51.5625 110.824219 " fill-opacity="1" fill-rule="evenodd"/><g clip-path="url(#8902558b61)"><path fill="#085085" d="M 10.648438 118.523438 C 5.484375 118.523438 1.160156 114.304688 1.160156 109.035156 C 1.160156 103.761719 5.484375 99.542969 10.648438 99.542969 C 15.921875 99.542969 20.246094 103.761719 20.246094 109.035156 C 20.246094 114.304688 15.921875 118.523438 10.648438 118.523438 Z M 10.648438 118.523438 " fill-opacity="1" fill-rule="evenodd"/></g></svg>