<svg xmlns="http://www.w3.org/2000/svg" xmlns:xlink="http://www.w3.org/1999/xlink" width="100" zoomAndPan="magnify" viewBox="0 0 75 74.999997" height="100" preserveAspectRatio="xMidYMid meet" version="1.2"><defs><clipPath id="eb72ed931e"><path d="M 0 7.5 L 75 7.5 L 75 66.75 L 0 66.75 Z M 0 7.5 "/></clipPath></defs><g id="af7e6ce88b"><rect x="0" width="75" y="0" height="74.999997" style="fill:#ffffff;fill-opacity:1;stroke:none;"/><rect x="0" width="75" y="0" height="74.999997" style="fill:#ffffff;fill-opacity:1;stroke:none;"/><g clip-rule="nonzero" clip-path="url(#eb72ed931e)"><path style=" stroke:none;fill-rule:nonzero;fill:#000000;fill-opacity:1;" d="M 71.242188 17.511719 L 55.527344 17.511719 L 54.996094 13.746094 L 54.585938 11.207031 C 54.421875 10.183594 53.882812 9.332031 53.035156 8.625 C 52.167969 7.898438 51.238281 7.519531 50.21875 7.519531 L 24.660156 7.519531 C 23.640625 7.519531 22.699219 7.886719 21.84375 8.625 C 20.984375 9.363281 20.53125 10.226562 20.375 11.207031 L 19.964844 13.746094 L 19.394531 17.511719 L 3.757812 17.511719 C 1.671875 17.511719 0 19.191406 0 21.199219 L 0 62.976562 C 0 65.0625 1.671875 66.742188 3.757812 66.742188 L 71.242188 66.742188 C 73.324219 66.742188 75 65.0625 75 62.976562 L 75 21.199219 C 75 19.191406 73.324219 17.511719 71.242188 17.511719 Z M 70.46875 62.195312 L 4.492188 62.195312 L 4.492188 22.019531 L 19.394531 22.019531 C 21.640625 22.019531 23.578125 20.34375 23.882812 18.167969 L 24.414062 14.402344 L 24.824219 12.066406 L 50.136719 12.066406 L 50.503906 14.402344 L 51.074219 18.167969 C 51.40625 20.339844 53.363281 22.019531 55.527344 22.019531 L 70.46875 22.019531 Z M 70.46875 62.195312 "/></g><path style=" stroke:none;fill-rule:nonzero;fill:#000000;fill-opacity:1;" d="M 63.199219 32.707031 C 65.160156 32.707031 66.792969 31.03125 66.792969 29.0625 C 66.792969 27.054688 65.203125 25.378906 63.199219 25.378906 C 61.199219 25.378906 59.609375 27.054688 59.609375 29.0625 C 59.609375 31.03125 61.242188 32.707031 63.199219 32.707031 Z M 63.199219 32.707031 "/><path style=" stroke:none;fill-rule:nonzero;fill:#000000;fill-opacity:1;" d="M 37.4375 23.207031 C 32.824219 23.207031 28.824219 24.882812 25.515625 28.203125 C 22.210938 31.519531 20.535156 35.535156 20.535156 40.160156 C 20.535156 44.789062 22.210938 48.804688 25.515625 52.121094 C 28.824219 55.4375 32.824219 57.007812 37.4375 57.078125 C 46.585938 57.210938 54.449219 49.253906 54.339844 40.160156 C 54.285156 35.492188 52.667969 31.519531 49.359375 28.203125 C 46.054688 24.882812 42.09375 23.207031 37.4375 23.207031 Z M 46.175781 48.96875 C 43.765625 51.382812 40.867188 52.570312 37.4375 52.570312 C 34.050781 52.570312 31.152344 51.382812 28.742188 48.96875 C 26.332031 46.550781 25.148438 43.601562 25.148438 40.160156 C 25.148438 36.761719 26.332031 33.8125 28.742188 31.394531 C 31.152344 28.980469 34.050781 27.75 37.4375 27.75 C 40.867188 27.75 43.765625 28.980469 46.175781 31.394531 C 48.585938 33.8125 49.808594 36.761719 49.808594 40.160156 C 49.808594 43.601562 48.585938 46.550781 46.175781 48.96875 Z M 46.175781 48.96875 "/></g></svg>