<svg xmlns="http://www.w3.org/2000/svg" xmlns:xlink="http://www.w3.org/1999/xlink" width="250" zoomAndPan="magnify" viewBox="0 0 187.5 112.499997" height="150" preserveAspectRatio="xMidYMid meet" version="1.0"><defs><clipPath id="e72d6919dc"><path d="M 14 7 L 34 7 L 34 59 L 14 59 Z M 14 7 " clip-rule="nonzero"/></clipPath><clipPath id="8d8d85ca83"><path d="M 55.800781 75.410156 L -0.152344 56.734375 L 18.757812 0.0703125 L 74.710938 18.746094 Z M 55.800781 75.410156 " clip-rule="nonzero"/></clipPath><clipPath id="9ddde01709"><path d="M 55.800781 75.410156 L -0.152344 56.734375 L 18.757812 0.0703125 L 74.710938 18.746094 Z M 55.800781 75.410156 " clip-rule="nonzero"/></clipPath><clipPath id="c9261a734c"><path d="M 6 2 L 29 2 L 29 60 L 6 60 Z M 6 2 " clip-rule="nonzero"/></clipPath><clipPath id="9dc2ae9f56"><path d="M 55.800781 75.410156 L -0.152344 56.734375 L 18.757812 0.0703125 L 74.710938 18.746094 Z M 55.800781 75.410156 " clip-rule="nonzero"/></clipPath><clipPath id="86f385035d"><path d="M 55.800781 75.410156 L -0.152344 56.734375 L 18.757812 0.0703125 L 74.710938 18.746094 Z M 55.800781 75.410156 " clip-rule="nonzero"/></clipPath><clipPath id="f2c3ac4da2"><path d="M 21 12 L 40 12 L 40 58 L 21 58 Z M 21 12 " clip-rule="nonzero"/></clipPath><clipPath id="bc92a60963"><path d="M 55.800781 75.410156 L -0.152344 56.734375 L 18.757812 0.0703125 L 74.710938 18.746094 Z M 55.800781 75.410156 " clip-rule="nonzero"/></clipPath><clipPath id="5f55e3373e"><path d="M 55.800781 75.410156 L -0.152344 56.734375 L 18.757812 0.0703125 L 74.710938 18.746094 Z M 55.800781 75.410156 " clip-rule="nonzero"/></clipPath><clipPath id="6f1d4bb797"><path d="M 28 18 L 45 18 L 45 57 L 28 57 Z M 28 18 " clip-rule="nonzero"/></clipPath><clipPath id="740f1a5565"><path d="M 55.800781 75.410156 L -0.152344 56.734375 L 18.757812 0.0703125 L 74.710938 18.746094 Z M 55.800781 75.410156 " clip-rule="nonzero"/></clipPath><clipPath id="129304763b"><path d="M 55.800781 75.410156 L -0.152344 56.734375 L 18.757812 0.0703125 L 74.710938 18.746094 Z M 55.800781 75.410156 " clip-rule="nonzero"/></clipPath><clipPath id="1d46a0c021"><path d="M 37 23 L 51 23 L 51 56 L 37 56 Z M 37 23 " clip-rule="nonzero"/></clipPath><clipPath id="e09abf25ac"><path d="M 55.800781 75.410156 L -0.152344 56.734375 L 18.757812 0.0703125 L 74.710938 18.746094 Z M 55.800781 75.410156 " clip-rule="nonzero"/></clipPath><clipPath id="2feaa581af"><path d="M 55.800781 75.410156 L -0.152344 56.734375 L 18.757812 0.0703125 L 74.710938 18.746094 Z M 55.800781 75.410156 " clip-rule="nonzero"/></clipPath><clipPath id="605d610481"><path d="M 46 30 L 57 30 L 57 55 L 46 55 Z M 46 30 " clip-rule="nonzero"/></clipPath><clipPath id="1c74e5d555"><path d="M 55.800781 75.410156 L -0.152344 56.734375 L 18.757812 0.0703125 L 74.710938 18.746094 Z M 55.800781 75.410156 " clip-rule="nonzero"/></clipPath><clipPath id="e05b8d974e"><path d="M 55.800781 75.410156 L -0.152344 56.734375 L 18.757812 0.0703125 L 74.710938 18.746094 Z M 55.800781 75.410156 " clip-rule="nonzero"/></clipPath><clipPath id="9208e0553b"><path d="M 53 35 L 63 35 L 63 54 L 53 54 Z M 53 35 " clip-rule="nonzero"/></clipPath><clipPath id="63df0edae4"><path d="M 55.800781 75.410156 L -0.152344 56.734375 L 18.757812 0.0703125 L 74.710938 18.746094 Z M 55.800781 75.410156 " clip-rule="nonzero"/></clipPath><clipPath id="3d19e88a0c"><path d="M 55.800781 75.410156 L -0.152344 56.734375 L 18.757812 0.0703125 L 74.710938 18.746094 Z M 55.800781 75.410156 " clip-rule="nonzero"/></clipPath><clipPath id="0fdda81750"><path d="M 59 39 L 67 39 L 67 53 L 59 53 Z M 59 39 " clip-rule="nonzero"/></clipPath><clipPath id="dff8b906c9"><path d="M 55.800781 75.410156 L -0.152344 56.734375 L 18.757812 0.0703125 L 74.710938 18.746094 Z M 55.800781 75.410156 " clip-rule="nonzero"/></clipPath><clipPath id="11957fee74"><path d="M 55.800781 75.410156 L -0.152344 56.734375 L 18.757812 0.0703125 L 74.710938 18.746094 Z M 55.800781 75.410156 " clip-rule="nonzero"/></clipPath><clipPath id="cb0b542192"><path d="M 124 50 L 181.996094 50 L 181.996094 81 L 124 81 Z M 124 50 " clip-rule="nonzero"/></clipPath><clipPath id="2d7d026311"><path d="M 139 82 L 152 82 L 152 110.851562 L 139 110.851562 Z M 139 82 " clip-rule="nonzero"/></clipPath><clipPath id="289046c2f7"><path d="M 83.664062 39.585938 L 85.808594 39.585938 L 85.808594 41.726562 L 83.664062 41.726562 Z M 83.664062 39.585938 " clip-rule="nonzero"/></clipPath><clipPath id="80d117d91a"><path d="M 84.734375 39.585938 C 84.144531 39.585938 83.664062 40.0625 83.664062 40.65625 C 83.664062 41.246094 84.144531 41.726562 84.734375 41.726562 C 85.328125 41.726562 85.808594 41.246094 85.808594 40.65625 C 85.808594 40.0625 85.328125 39.585938 84.734375 39.585938 Z M 84.734375 39.585938 " clip-rule="nonzero"/></clipPath></defs><g clip-path="url(#e72d6919dc)"><g clip-path="url(#8d8d85ca83)"><g clip-path="url(#9ddde01709)"><path fill="currentColor" d="M 31.90625 7.699219 L 33.796875 9.785156 C 27.265625 15.726562 22.328125 23.308594 19.523438 31.714844 C 16.71875 40.121094 16.109375 49.148438 17.761719 57.824219 L 14.996094 58.351562 C 13.253906 49.203125 13.894531 39.683594 16.851562 30.824219 C 19.808594 21.964844 25.015625 13.96875 31.90625 7.699219 " fill-opacity="1" fill-rule="nonzero"/></g></g></g><g clip-path="url(#c9261a734c)"><g clip-path="url(#9dc2ae9f56)"><g clip-path="url(#86f385035d)"><path fill="currentColor" d="M 26.488281 2.453125 L 28.398438 4.519531 C 21.089844 11.269531 15.554688 19.851562 12.386719 29.332031 C 9.222656 38.816406 8.496094 49.003906 10.28125 58.789062 L 7.515625 59.292969 C 5.640625 49.042969 6.402344 38.375 9.71875 28.441406 C 13.03125 18.511719 18.832031 9.519531 26.488281 2.453125 " fill-opacity="1" fill-rule="nonzero"/></g></g></g><g clip-path="url(#f2c3ac4da2)"><g clip-path="url(#bc92a60963)"><g clip-path="url(#5f55e3373e)"><path fill="currentColor" d="M 37.148438 12.777344 L 39.019531 14.878906 C 33.238281 20.035156 28.886719 26.65625 26.429688 34.019531 C 23.96875 41.382812 23.472656 49.292969 24.996094 56.886719 L 22.238281 57.441406 C 20.617188 49.363281 21.144531 40.957031 23.757812 33.128906 C 26.371094 25.296875 31 18.261719 37.148438 12.777344 " fill-opacity="1" fill-rule="nonzero"/></g></g></g><g clip-path="url(#6f1d4bb797)"><g clip-path="url(#740f1a5565)"><g clip-path="url(#129304763b)"><path fill="currentColor" d="M 42.675781 18.121094 L 44.519531 20.246094 C 39.535156 24.570312 35.792969 30.171875 33.699219 36.445312 C 31.605469 42.722656 31.234375 49.445312 32.621094 55.894531 L 29.867188 56.488281 C 28.375 49.542969 28.773438 42.308594 31.027344 35.554688 C 33.28125 28.804688 37.308594 22.773438 42.675781 18.121094 " fill-opacity="1" fill-rule="nonzero"/></g></g></g><g clip-path="url(#1d46a0c021)"><g clip-path="url(#e09abf25ac)"><g clip-path="url(#2feaa581af)"><path fill="currentColor" d="M 48.75 23.980469 L 50.546875 26.152344 C 46.433594 29.550781 43.363281 34.03125 41.667969 39.105469 C 39.976562 44.183594 39.738281 49.605469 40.984375 54.796875 L 38.246094 55.453125 C 36.875 49.75 37.136719 43.792969 39 38.214844 C 40.859375 32.640625 44.230469 27.71875 48.75 23.980469 " fill-opacity="1" fill-rule="nonzero"/></g></g></g><g clip-path="url(#605d610481)"><g clip-path="url(#1c74e5d555)"><g clip-path="url(#e05b8d974e)"><path fill="currentColor" d="M 55.039062 30.007812 L 56.734375 32.253906 C 53.511719 34.6875 51.128906 38.003906 49.847656 41.835938 C 48.566406 45.671875 48.484375 49.753906 49.597656 53.636719 L 46.890625 54.414062 C 45.617188 49.980469 45.71875 45.320312 47.179688 40.945312 C 48.640625 36.570312 51.355469 32.785156 55.039062 30.007812 " fill-opacity="1" fill-rule="nonzero"/></g></g></g><g clip-path="url(#9208e0553b)"><g clip-path="url(#63df0edae4)"><g clip-path="url(#3d19e88a0c)"><path fill="currentColor" d="M 60.582031 35.234375 L 62.089844 37.613281 C 59.632812 39.171875 57.851562 41.445312 56.929688 44.203125 C 56.011719 46.957031 56.070312 49.847656 57.097656 52.566406 L 54.464844 53.5625 C 53.222656 50.277344 53.148438 46.636719 54.261719 43.308594 C 55.371094 39.980469 57.617188 37.113281 60.582031 35.234375 " fill-opacity="1" fill-rule="nonzero"/></g></g></g><g clip-path="url(#0fdda81750)"><g clip-path="url(#dff8b906c9)"><g clip-path="url(#11957fee74)"><path fill="currentColor" d="M 65.742188 39.859375 L 66.710938 42.5 C 64.976562 43.140625 63.648438 44.503906 63.0625 46.25 C 62.480469 47.992188 62.726562 49.882812 63.730469 51.433594 L 61.367188 52.964844 C 59.894531 50.691406 59.539062 47.917969 60.394531 45.355469 C 61.25 42.792969 63.199219 40.792969 65.742188 39.859375 " fill-opacity="1" fill-rule="nonzero"/></g></g></g><g clip-path="url(#cb0b542192)"><path fill="currentColor" d="M 124.796875 80.683594 C 124.796875 80.683594 131.070312 53.261719 151.886719 52.433594 C 172.699219 51.609375 178.480469 61.355469 182.28125 69.617188 C 182.28125 69.617188 179.84375 49.667969 150.730469 50.289062 C 121.613281 50.90625 124.796875 80.683594 124.796875 80.683594 " fill-opacity="1" fill-rule="nonzero"/></g><path fill="currentColor" d="M 134.5 67.261719 C 134.5 67.261719 144.289062 49.421875 165.71875 58.339844 C 165.71875 58.339844 148.996094 53.136719 134.5 67.261719 " fill-opacity="1" fill-rule="nonzero"/><path fill="currentColor" d="M 131.03125 79.898438 C 131.03125 79.898438 134.746094 54.625 162.625 67.261719 C 162.625 67.261719 139.332031 60.941406 131.03125 79.898438 " fill-opacity="1" fill-rule="nonzero"/><path fill="currentColor" d="M 159.03125 59.582031 C 159.03125 59.582031 174.515625 64.785156 175.632812 83.863281 C 175.632812 83.863281 181.082031 66.890625 159.03125 59.582031 " fill-opacity="1" fill-rule="nonzero"/><path fill="currentColor" d="M 153.484375 71.808594 C 153.484375 71.808594 162.003906 77.421875 168.695312 90.429688 C 168.695312 90.429688 166.765625 74.132812 153.484375 71.808594 " fill-opacity="1" fill-rule="nonzero"/><path fill="currentColor" d="M 141.191406 75.5625 C 141.191406 75.5625 154.105469 73.828125 161.089844 104.429688 C 161.089844 104.429688 162.625 72.960938 141.191406 75.5625 " fill-opacity="1" fill-rule="nonzero"/><g clip-path="url(#2d7d026311)"><path fill="currentColor" d="M 139.207031 82.003906 C 139.207031 82.003906 149.492188 82.253906 150.109375 110.996094 C 150.109375 110.996094 157.542969 85.351562 139.207031 82.003906 " fill-opacity="1" fill-rule="nonzero"/></g><path fill="currentColor" d="M 138.589844 86.464844 C 138.589844 86.464844 144.289062 89.933594 144.78125 98.851562 C 144.78125 98.851562 147.507812 88.449219 138.589844 86.464844 " fill-opacity="1" fill-rule="nonzero"/><path fill="currentColor" d="M 81.597656 37.15625 C 81.597656 37.15625 91.757812 37.15625 97.457031 47.5625 C 103.15625 57.96875 100.675781 71.597656 109.84375 82.003906 C 119.011719 92.410156 127.191406 89.921875 127.191406 89.921875 C 127.191406 89.921875 112.074219 87.644531 108.605469 75.410156 C 105.136719 63.171875 102.660156 51.445312 99.851562 46.65625 C 97.042969 41.863281 91.425781 35.75 81.597656 37.15625 " fill-opacity="1" fill-rule="nonzero"/><path fill="currentColor" d="M 77.054688 41.367188 C 77.054688 41.367188 70.945312 41.039062 73.75 36.082031 C 73.75 36.082031 75.738281 33.851562 75.035156 32.367188 C 74.328125 30.878906 78.460938 33.851562 78.460938 33.851562 C 78.460938 33.851562 78.292969 30.628906 80.523438 30.054688 C 82.753906 29.476562 85.066406 29.640625 85.808594 29.308594 C 86.554688 28.980469 89.113281 28.316406 88.867188 30.796875 C 88.867188 30.796875 91.589844 27.980469 93.574219 28.976562 C 95.558594 29.96875 96.382812 30.132812 96.214844 33.027344 C 96.050781 35.917969 101.667969 38.0625 101.667969 38.0625 C 101.667969 38.0625 105.730469 40.210938 102.292969 43.351562 C 98.859375 46.488281 98.28125 40.542969 98.28125 40.542969 C 98.28125 40.542969 98.859375 37.074219 95.886719 35.503906 C 92.914062 33.9375 89.398438 34.929688 88.34375 31.953125 C 88.34375 31.953125 83.578125 29.476562 79.535156 34.925781 C 79.535156 34.925781 77.46875 37.820312 75.320312 36.953125 C 73.171875 36.082031 74.246094 40.707031 77.054688 41.367188 " fill-opacity="1" fill-rule="nonzero"/><path fill="currentColor" d="M 80.234375 42.359375 C 80.234375 42.359375 75.28125 42.328125 71.6875 44.265625 C 71.6875 44.265625 79.039062 46.324219 81.597656 44.960938 C 84.160156 43.597656 80.234375 42.359375 80.234375 42.359375 " fill-opacity="1" fill-rule="nonzero"/><path fill="currentColor" d="M 78.046875 47.644531 C 78.046875 47.644531 77.714844 51.527344 75.074219 52.929688 C 72.429688 54.335938 72.347656 57.144531 74.660156 58.050781 C 74.660156 58.050781 73.417969 60.449219 75.523438 61.109375 C 75.523438 61.109375 75.238281 63.835938 77.632812 64.496094 C 80.027344 65.15625 82.34375 66.023438 83.910156 63.566406 C 85.480469 61.109375 86.996094 58.960938 88.34375 58.382812 C 89.691406 57.804688 90.382812 53.675781 88.34375 52.519531 C 86.304688 51.363281 84.570312 45.425781 84.570312 45.425781 C 84.570312 45.425781 84.820312 52.355469 86.886719 54.171875 C 88.949219 55.988281 79.613281 61.4375 79.613281 61.4375 C 79.613281 61.4375 81.269531 57.390625 79.613281 56.566406 C 77.964844 55.738281 77.136719 54.75 79.367188 52.433594 C 81.597656 50.121094 78.636719 45.285156 78.046875 47.644531 " fill-opacity="1" fill-rule="nonzero"/><path fill="currentColor" d="M 76.269531 67.261719 C 76.269531 67.261719 55.828125 101.703125 86.679688 102.445312 C 86.679688 102.445312 65.242188 93.15625 76.269531 67.261719 " fill-opacity="1" fill-rule="nonzero"/><path fill="currentColor" d="M 80.605469 75.410156 C 80.605469 75.410156 72.179688 83.863281 78.75 90.800781 C 78.75 90.800781 76.144531 83.308594 80.605469 75.410156 " fill-opacity="1" fill-rule="nonzero"/><path fill="currentColor" d="M 102.292969 91.296875 C 102.292969 91.296875 103.773438 99.96875 112.695312 101.578125 L 110.960938 98.851562 C 110.960938 98.851562 113.5625 102.320312 123.226562 100.714844 L 118.765625 98.234375 C 118.765625 98.234375 123.347656 99.722656 130.039062 98.851562 C 130.039062 98.851562 111.46875 96.625 102.292969 91.296875 " fill-opacity="1" fill-rule="nonzero"/><g clip-path="url(#289046c2f7)"><g clip-path="url(#80d117d91a)"><path fill="currentColor" d="M 83.664062 39.585938 L 85.808594 39.585938 L 85.808594 41.726562 L 83.664062 41.726562 Z M 83.664062 39.585938 " fill-opacity="1" fill-rule="nonzero"/></g></g></svg>