<svg xmlns="http://www.w3.org/2000/svg" xmlns:xlink="http://www.w3.org/1999/xlink" width="250" zoomAndPan="magnify" viewBox="0 0 187.5 112.499997" height="150" preserveAspectRatio="xMidYMid meet" version="1.0"><defs><clipPath id="cf076d5ef8"><path d="M 81 33 L 155.476562 33 L 155.476562 105 L 81 105 Z M 81 33 " clip-rule="nonzero"/></clipPath><clipPath id="293826857a"><path d="M 31.527344 51 L 64 51 L 64 102 L 31.527344 102 Z M 31.527344 51 " clip-rule="nonzero"/></clipPath></defs><path fill="#d46f44" d="M 128.503906 28.078125 C 126.925781 27.578125 125.226562 27.730469 123.574219 27.8125 C 121.917969 27.898438 120.183594 27.894531 118.714844 27.128906 C 118.855469 27.578125 119 28.027344 119.144531 28.476562 C 119.371094 29.195312 119.601562 29.917969 119.636719 30.671875 C 119.671875 31.421875 119.492188 32.210938 118.992188 32.769531 C 118.363281 33.46875 117.355469 33.6875 116.417969 33.730469 C 115.667969 33.769531 114.898438 33.714844 114.203125 33.433594 C 113.359375 33.09375 112.679688 32.445312 112.089844 31.753906 C 110.941406 30.410156 110.042969 28.859375 109.449219 27.195312 C 109.066406 26.113281 108.808594 24.945312 109.035156 23.824219 C 109.257812 22.699219 110.058594 21.632812 111.175781 21.371094 C 111.640625 21.261719 112.125 21.292969 112.605469 21.253906 C 113.21875 21.203125 113.816406 21.035156 114.417969 20.910156 C 118.65625 20.03125 123.09375 21.304688 126.890625 23.386719 " fill-opacity="1" fill-rule="nonzero"/><path fill="#1b120e" d="M 134.527344 26.425781 C 134.167969 26.339844 133.859375 26.496094 133.699219 26.722656 C 133.535156 26.953125 133.476562 27.238281 133.390625 27.503906 C 133.003906 28.675781 131.945312 29.578125 130.757812 29.757812 C 129.570312 29.933594 128.304688 29.378906 127.609375 28.375 C 127.417969 28.101562 127.269531 27.800781 127.074219 27.535156 C 126.878906 27.269531 126.621094 27.03125 126.304688 26.957031 C 126.03125 26.890625 125.742188 26.949219 125.472656 26.871094 C 125.160156 26.777344 124.910156 26.496094 124.855469 26.171875 C 124.792969 25.820312 124.933594 25.429688 124.78125 25.109375 C 124.710938 24.964844 124.59375 24.855469 124.515625 24.71875 C 124.40625 24.539062 124.378906 24.316406 124.390625 24.105469 C 124.410156 23.742188 124.550781 23.386719 124.78125 23.109375 C 124.835938 23.046875 124.894531 22.988281 124.914062 22.90625 C 124.933594 22.832031 124.917969 22.753906 124.90625 22.675781 C 124.796875 21.882812 125.359375 21.050781 126.125 20.882812 C 126.421875 20.816406 126.734375 20.84375 127.03125 20.765625 C 127.445312 20.65625 127.785156 20.355469 128.175781 20.175781 C 128.714844 19.929688 129.359375 19.921875 129.902344 20.164062 C 130.109375 20.253906 130.308594 20.382812 130.535156 20.414062 C 130.785156 20.453125 131.039062 20.363281 131.285156 20.304688 C 131.835938 20.175781 132.429688 20.175781 132.949219 20.402344 C 133.941406 20.839844 134.453125 22 134.570312 23.101562 C 134.683594 24.203125 134.492188 25.316406 134.523438 26.425781 Z M 115.464844 39.6875 C 115.25 40.253906 114.84375 40.738281 114.230469 40.949219 C 113.894531 41.066406 113.519531 41.066406 113.1875 40.933594 C 112.121094 40.507812 112.042969 39.148438 112.082031 38.046875 C 112.117188 36.996094 111.988281 35.699219 111.019531 35.28125 C 110.371094 35 109.570312 35.261719 108.9375 34.941406 C 108.023438 34.476562 108.035156 33.191406 107.578125 32.273438 C 107.121094 31.347656 106.054688 30.765625 105.027344 30.875 C 104.117188 30.96875 103.25 31.554688 102.351562 31.382812 C 101.539062 31.230469 100.976562 30.519531 100.324219 30.019531 C 99.648438 29.503906 98.804688 29.1875 97.953125 29.214844 C 97.105469 29.242188 96.257812 29.640625 95.753906 30.328125 C 93.820312 29.933594 91.808594 30.644531 90.929688 32.140625 C 90.332031 33.160156 90.183594 34.507812 89.226562 35.207031 C 88.734375 35.566406 88.089844 35.699219 87.660156 36.132812 C 87.105469 36.695312 87.089844 37.617188 87.347656 38.363281 C 87.605469 39.113281 88.089844 39.761719 88.445312 40.472656 C 88.800781 41.179688 89.023438 42.027344 88.722656 42.757812 C 88.507812 43.285156 88.042969 43.695312 87.890625 44.246094 C 87.703125 44.914062 88.023438 45.621094 88.445312 46.171875 C 88.964844 46.855469 89.753906 47.445312 90.601562 47.332031 C 91.34375 47.230469 91.933594 46.621094 92.667969 46.488281 C 93.804688 46.28125 94.773438 47.230469 95.726562 47.886719 C 96.703125 48.550781 98.027344 48.945312 99.046875 48.351562 C 99.796875 47.914062 100.273438 47.003906 101.121094 46.820312 C 101.890625 46.65625 102.636719 47.164062 103.417969 47.25 C 104.609375 47.378906 105.796875 46.335938 105.820312 45.136719 C 106.316406 45.644531 106.894531 46.089844 107.570312 46.308594 C 108.246094 46.527344 109.023438 46.496094 109.617188 46.109375 C 110.367188 45.625 110.75 44.652344 111.578125 44.320312 C 112.597656 43.90625 113.746094 44.664062 114.832031 44.496094 C 115.9375 44.328125 116.707031 43.1875 116.757812 42.070312 C 116.792969 41.214844 116.5 40.386719 116.066406 39.640625 C 115.925781 39.394531 115.566406 39.425781 115.464844 39.6875 Z M 115.464844 39.6875 " fill-opacity="1" fill-rule="nonzero"/><path fill="#fe9683" d="M 101.25 36.203125 C 101.25 38.625 99.230469 40.589844 96.742188 40.589844 C 94.25 40.589844 91.804688 39.074219 91.804688 36.652344 C 91.804688 34.230469 93.773438 31.820312 96.742188 31.820312 C 99.230469 31.820312 101.25 33.785156 101.25 36.203125 Z M 92.238281 89.652344 C 91.367188 88.984375 90.28125 88.695312 89.375 88.089844 C 88.410156 87.449219 87.632812 86.570312 87.097656 85.550781 C 87.0625 85.488281 86.980469 85.488281 86.933594 85.53125 C 85.835938 86.511719 84.738281 87.492188 83.640625 88.472656 C 83.390625 88.699219 83.136719 88.925781 82.886719 89.152344 C 82.78125 89.242188 82.695312 89.292969 82.660156 89.421875 C 82.609375 89.609375 82.667969 89.886719 82.648438 90.089844 C 82.621094 90.339844 82.570312 90.585938 82.5 90.828125 C 82.367188 91.285156 82.160156 91.71875 81.914062 92.125 C 81.46875 92.859375 80.875 93.476562 80.21875 94.027344 C 79.523438 94.613281 78.761719 95.121094 78.011719 95.636719 C 77.378906 96.074219 76.699219 96.503906 76.179688 97.078125 C 75.265625 98.085938 75.25 99.683594 76.355469 100.566406 C 76.953125 101.046875 77.75 101.214844 78.492188 101.324219 C 79.234375 101.433594 79.988281 101.457031 80.742188 101.398438 C 82.277344 101.285156 83.789062 100.828125 85.132812 100.066406 C 85.894531 99.636719 86.570312 99.097656 87.222656 98.515625 C 87.914062 97.898438 88.59375 97.25 89.40625 96.792969 C 90.738281 96.042969 92.558594 96.035156 93.519531 94.710938 C 94.59375 93.066406 93.671875 90.753906 92.238281 89.652344 Z M 117.910156 105.574219 C 117.433594 103.976562 116.136719 102.8125 115.09375 101.574219 C 114.464844 100.828125 113.953125 100.039062 113.601562 99.128906 C 113.242188 98.199219 113.003906 97.226562 112.59375 96.316406 C 112.253906 95.5625 111.789062 94.832031 111.128906 94.320312 C 110.859375 94.109375 110.378906 93.699219 110.03125 93.886719 C 108.425781 94.765625 106.832031 95.671875 105.234375 96.5625 C 105.1875 96.589844 105.101562 96.617188 105.0625 96.65625 C 104.890625 96.847656 105.003906 97.421875 105.027344 97.664062 C 105.113281 98.640625 105.417969 99.589844 105.914062 100.433594 C 106.476562 101.386719 107.097656 102.21875 107.3125 103.332031 C 107.519531 104.410156 107.460938 105.515625 107.609375 106.601562 C 107.753906 107.617188 108.0625 108.605469 108.523438 109.523438 C 108.9375 110.347656 109.460938 111.070312 110.324219 111.449219 C 111.140625 111.8125 112.085938 111.910156 112.972656 111.957031 C 113.863281 112.003906 114.8125 111.933594 115.597656 111.46875 C 116.015625 111.222656 116.351562 110.878906 116.660156 110.507812 C 117.761719 109.144531 118.433594 107.316406 117.910156 105.574219 Z M 117.910156 105.574219 " fill-opacity="1" fill-rule="nonzero"/><g clip-path="url(#cf076d5ef8)"><path fill="#d46f44" d="M 101.71875 49.574219 L 101.851562 50.976562 C 100.449219 52.691406 98.019531 53.359375 95.933594 52.734375 C 93.847656 52.113281 92.171875 50.292969 91.523438 48.152344 C 91.203125 47.085938 91.140625 45.839844 91.78125 44.941406 C 91.992188 44.648438 92.261719 44.414062 92.542969 44.195312 C 92.625 43.8125 92.6875 43.421875 92.703125 43.027344 C 92.730469 42.320312 92.597656 41.59375 92.207031 41.007812 C 91.921875 40.582031 91.511719 40.253906 91.207031 39.84375 C 90.890625 39.417969 90.691406 38.90625 90.640625 38.375 C 90.597656 37.984375 90.640625 37.570312 90.839844 37.230469 C 91.039062 36.890625 91.410156 36.636719 91.804688 36.652344 C 92.199219 36.671875 92.574219 37.007812 92.480469 37.382812 C 92.8125 36.25 93.425781 35.175781 94.332031 34.421875 C 95.242188 33.667969 96.460938 33.257812 97.628906 33.441406 C 98.796875 33.621094 99.871094 34.441406 100.242188 35.5625 C 100.46875 36.253906 100.429688 37.007812 100.296875 37.527344 C 100.035156 38.820312 100.675781 40.257812 100.09375 41.4375 C 99.929688 41.769531 99.683594 42.046875 99.453125 42.332031 C 99.261719 42.566406 99.082031 42.808594 98.910156 43.054688 C 99.796875 43.445312 100.570312 44.089844 101.054688 44.945312 C 101.832031 46.3125 101.816406 47.996094 101.71875 49.574219 Z M 136.4375 79.035156 C 136.058594 78.863281 135.019531 79.417969 134.617188 79.53125 C 132.832031 80.03125 131.304688 81.386719 130.519531 83.238281 C 132.265625 85.316406 133.378906 88.957031 132.949219 91.582031 C 133.003906 92.671875 133.703125 92.761719 134.78125 92.910156 C 135.859375 93.0625 136.96875 92.535156 137.675781 91.707031 C 138.382812 90.878906 141.511719 89.226562 140.855469 88.566406 C 138.003906 85.71875 137.027344 81.234375 136.4375 79.035156 Z M 87.074219 85.601562 L 82.832031 89.398438 L 82.832031 89.421875 C 82.890625 90.316406 82.636719 91.191406 82.1875 91.972656 C 81.941406 92.421875 81.628906 92.839844 81.285156 93.222656 C 82.261719 93.433594 83.222656 93.941406 84.171875 94.808594 C 89.046875 90.417969 88.488281 88.589844 89.007812 87.90625 C 88.207031 87.289062 87.539062 86.5 87.074219 85.601562 Z M 112.691406 96.652344 C 112.222656 95.484375 111.445312 94.332031 110.257812 93.917969 L 105.183594 96.75 C 105.117188 97.929688 105.382812 99.128906 105.949219 100.167969 C 106.339844 100.878906 106.859375 101.519531 107.175781 102.265625 C 107.257812 102.464844 107.328125 102.664062 107.378906 102.871094 C 108.160156 103.570312 109.019531 104.183594 109.953125 104.667969 C 110.183594 103.898438 110.808594 103.277344 111.558594 102.984375 C 112.304688 102.6875 113.15625 102.703125 113.917969 102.949219 C 114.0625 102.011719 114.089844 101.054688 114 100.105469 C 113.414062 99.023438 113.15625 97.792969 112.691406 96.652344 Z M 155.308594 41.535156 C 155.117188 40.066406 153.992188 38.914062 152.910156 37.898438 C 152.023438 37.066406 151.117188 36.242188 150.089844 35.59375 C 149.535156 36.890625 148.675781 37.792969 147.988281 38.777344 C 147.496094 39.480469 147.085938 40.234375 146.6875 40.996094 C 146.320312 41.691406 145.957031 42.398438 145.703125 43.144531 C 145.460938 43.867188 145.316406 44.617188 145.085938 45.34375 C 144.355469 47.640625 142.773438 49.570312 141.085938 51.292969 C 142.121094 52.226562 143.164062 53.058594 144.203125 53.902344 C 146.828125 52.898438 149.042969 51.097656 151.074219 49.203125 C 152.238281 48.117188 153.378906 46.96875 154.160156 45.578125 C 154.378906 45.199219 154.566406 44.800781 154.738281 44.398438 C 155.121094 43.492188 155.433594 42.511719 155.308594 41.535156 Z M 155.308594 41.535156 " fill-opacity="1" fill-rule="nonzero"/></g><path fill="#f4e8ac" d="M 129.339844 56.050781 C 133.097656 61.152344 131.355469 68.871094 135.171875 73.925781 C 135.867188 74.847656 136.726562 75.636719 137.425781 76.558594 C 138.125 77.480469 138.671875 78.589844 138.601562 79.742188 C 138.539062 80.75 138 81.6875 137.28125 82.398438 C 136.5625 83.105469 135.671875 83.613281 134.761719 84.058594 C 133.628906 84.613281 132.421875 85.085938 131.160156 85.121094 C 130.390625 85.144531 129.597656 84.992188 128.949219 84.578125 C 127.496094 83.65625 127.105469 81.761719 126.445312 80.171875 C 125.460938 77.800781 123.683594 75.863281 122.183594 73.777344 C 119.050781 69.417969 117.066406 64.246094 116.484375 58.910156 " fill-opacity="1" fill-rule="nonzero"/><path fill="#eb0d08" d="M 74.683594 95.476562 C 74.746094 96.664062 73.664062 97.660156 72.515625 97.96875 C 71.363281 98.277344 70.148438 98.085938 68.960938 97.992188 C 67.511719 97.871094 66.03125 97.898438 64.625 98.277344 C 63.703125 98.53125 62.824219 98.929688 61.886719 99.113281 C 60.601562 99.367188 59.234375 99.203125 58.050781 98.640625 C 57.453125 98.359375 56.832031 97.832031 56.933594 97.179688 C 57.046875 96.484375 57.871094 96.203125 58.546875 96.003906 C 60.058594 95.558594 61.488281 94.824219 62.730469 93.855469 C 63.644531 93.144531 64.496094 92.242188 64.714844 91.109375 C 64.773438 90.804688 64.785156 90.5 64.757812 90.191406 C 64.695312 89.523438 64.457031 88.863281 64.144531 88.253906 C 63.9375 87.84375 63.699219 87.457031 63.433594 87.085938 C 62.722656 86.074219 61.828125 85.199219 60.867188 84.382812 C 59.949219 83.605469 58.964844 82.882812 58.003906 82.167969 C 55.671875 80.429688 53.292969 78.457031 52.339844 75.710938 C 52.144531 75.144531 51.269531 72.605469 50.367188 69.5 C 49.152344 65.300781 47.886719 60.066406 48.183594 57.257812 L 58.777344 54.242188 C 60.058594 56.585938 60.425781 59.308594 60.632812 61.976562 C 60.640625 62.066406 60.648438 62.160156 60.652344 62.253906 C 60.960938 66.492188 60.988281 70.753906 60.390625 75.179688 C 62.460938 75.511719 64.191406 77.011719 65.324219 78.78125 C 65.941406 79.746094 66.40625 80.792969 66.8125 81.867188 C 67.148438 82.757812 67.4375 83.671875 67.738281 84.574219 C 68.078125 85.589844 68.433594 86.609375 68.875 87.582031 C 69.175781 88.25 69.515625 88.890625 69.914062 89.492188 C 70.078125 89.742188 70.253906 89.988281 70.441406 90.222656 C 71.351562 91.378906 72.511719 92.304688 73.527344 93.367188 C 74.09375 93.960938 74.644531 94.65625 74.683594 95.476562 Z M 74.683594 95.476562 " fill-opacity="1" fill-rule="nonzero"/><path fill="#1b120e" d="M 112.113281 95.367188 C 112.03125 95.648438 111.832031 95.878906 111.640625 96.101562 C 111.089844 96.730469 110.519531 97.371094 109.777344 97.757812 C 108.867188 98.226562 107.800781 98.265625 106.777344 98.269531 C 106.214844 98.273438 105.640625 98.269531 105.101562 98.113281 C 104.5625 97.957031 104.046875 97.625 103.796875 97.121094 C 103.597656 96.71875 103.582031 96.253906 103.433594 95.832031 C 103.25 95.316406 102.882812 94.890625 102.640625 94.398438 C 102.398438 93.910156 102.308594 93.273438 102.675781 92.75 C 101.511719 89.414062 98.328125 87.195312 96.664062 84.078125 C 96.183594 83.179688 95.832031 82.214844 95.300781 81.34375 C 94.496094 80.03125 93.316406 79.003906 92.257812 77.886719 C 90.003906 75.511719 88.257812 72.660156 87.171875 69.359375 C 86.113281 71.3125 84.167969 72.589844 82.300781 73.785156 C 82.015625 73.96875 81.714844 74.15625 81.144531 74.210938 C 81.910156 74.652344 82.648438 75.183594 83.167969 75.898438 C 84.460938 77.667969 84.15625 80.117188 84.859375 82.25 C 85.144531 81.871094 85.726562 81.824219 86.160156 82.019531 C 86.59375 82.214844 86.914062 82.59375 87.210938 82.964844 C 87.773438 83.667969 88.335938 84.449219 88.371094 85.347656 C 88.40625 86.328125 87.804688 87.210938 87.144531 87.929688 C 86.007812 89.175781 84.539062 90.21875 82.867188 90.4375 C 81.898438 90.5625 80.742188 90.296875 80.335938 89.410156 C 80.144531 88.996094 80.148438 88.507812 79.925781 88.109375 C 79.699219 87.699219 79.273438 87.453125 78.921875 87.136719 C 78.574219 86.824219 78.28125 86.34375 78.503906 85.941406 C 74.515625 83.199219 70.964844 79.523438 69.421875 74.933594 C 69.121094 74.042969 68.898438 73.101562 68.988281 72.164062 C 69.082031 71.207031 69.496094 70.3125 69.957031 69.472656 C 70.789062 67.957031 71.8125 66.53125 73.078125 65.351562 C 76.179688 62.453125 80.492188 61.207031 83.8125 58.5625 C 85.4375 57.273438 86.855469 55.632812 88.792969 54.890625 C 90.6875 54.167969 92.875 54.4375 94.683594 55.355469 C 96.492188 56.269531 97.890625 57.832031 99.085938 59.382812 C 101.546875 62.578125 102.671875 66.617188 103.140625 70.621094 C 103.484375 73.5625 103.558594 76.699219 105.195312 79.167969 C 105.800781 80.082031 106.59375 80.855469 107.234375 81.75 C 109.140625 84.417969 109.480469 87.863281 109.785156 91.046875 C 110.226562 90.933594 110.738281 90.828125 111.113281 91.089844 C 111.441406 91.320312 111.546875 91.753906 111.625 92.144531 C 111.777344 92.890625 111.925781 93.632812 112.078125 94.375 C 112.144531 94.703125 112.207031 95.046875 112.113281 95.367188 Z M 112.113281 95.367188 " fill-opacity="1" fill-rule="nonzero"/><path fill="#d46f44" d="M 87.070312 41.230469 C 86.414062 43.695312 86.367188 47.492188 85.695312 48.699219 C 88.234375 50.035156 89.171875 52.277344 89.054688 54.503906 C 89.03125 54.921875 88.96875 55.34375 88.765625 55.707031 C 88.59375 56.007812 88.335938 56.25 88.066406 56.460938 C 86.5 57.691406 84.4375 58.101562 82.449219 58.160156 C 81.46875 58.1875 80.480469 58.136719 79.539062 57.871094 C 78.457031 57.820312 77.386719 57.609375 76.378906 57.199219 C 75.761719 56.945312 75.152344 56.601562 74.78125 56.046875 C 74.566406 55.730469 74.445312 55.359375 74.363281 54.980469 C 73.894531 52.746094 74.910156 50.480469 76.070312 48.511719 C 77.230469 46.542969 78.597656 44.597656 78.921875 42.335938 C 78.617188 41.078125 77.867188 40.066406 77.011719 39.191406 C 76.15625 38.3125 75.1875 37.558594 74.277344 36.738281 C 74.082031 36.5625 73.871094 36.304688 73.988281 36.066406 C 74.128906 35.789062 74.542969 35.875 74.824219 36.007812 C 75.769531 36.449219 76.6875 36.953125 77.566406 37.515625 C 77.050781 36.558594 76.371094 35.832031 75.609375 35.199219 C 75.199219 34.863281 74.753906 34.53125 74.550781 34.042969 C 74.511719 33.941406 74.484375 33.832031 74.507812 33.726562 C 74.550781 33.558594 74.738281 33.457031 74.910156 33.453125 C 75.085938 33.449219 75.25 33.523438 75.410156 33.601562 C 76.550781 34.15625 77.578125 34.949219 78.402344 35.917969 C 77.890625 34.710938 77.175781 33.699219 76.351562 32.789062 C 76.078125 32.488281 75.78125 32.175781 75.699219 31.773438 C 75.667969 31.628906 75.691406 31.445312 75.824219 31.375 C 75.90625 31.335938 76.007812 31.355469 76.09375 31.378906 C 76.691406 31.554688 77.167969 31.988281 77.601562 32.433594 C 78.269531 33.121094 78.878906 33.871094 79.417969 34.664062 C 79.238281 33.71875 78.929688 32.867188 78.535156 32.054688 C 78.3125 31.589844 78.050781 31.109375 78.085938 30.597656 C 78.089844 30.539062 78.097656 30.476562 78.140625 30.433594 C 78.1875 30.390625 78.257812 30.382812 78.320312 30.390625 C 78.683594 30.429688 78.941406 30.753906 79.136719 31.058594 C 79.78125 32.050781 80.273438 33.140625 80.589844 34.277344 C 80.742188 34.832031 80.859375 35.402344 81.113281 35.914062 C 81.230469 36.148438 81.425781 36.394531 81.683594 36.382812 C 81.957031 36.367188 82.128906 36.078125 82.195312 35.8125 C 82.410156 35 82.242188 34 82.871094 33.449219 C 82.980469 33.355469 83.117188 33.277344 83.261719 33.277344 C 83.523438 33.277344 83.730469 33.53125 83.777344 33.789062 C 83.820312 34.046875 83.75 34.3125 83.695312 34.566406 C 83.492188 35.511719 83.488281 36.5 83.675781 37.449219 C 84 36.445312 84.832031 35.628906 85.324219 34.671875 C 86.042969 33.265625 86.007812 31.601562 85.808594 30.035156 C 85.769531 29.726562 85.777344 29.316406 86.074219 29.210938 C 86.386719 29.09375 86.664062 29.453125 86.789062 29.761719 C 87.214844 30.828125 87.332031 32.015625 87.121094 33.144531 C 87.578125 31.945312 87.800781 30.660156 87.777344 29.378906 C 87.769531 29.101562 87.753906 28.820312 87.839844 28.5625 C 87.921875 28.300781 88.136719 28.058594 88.410156 28.035156 C 88.683594 28.011719 88.964844 28.289062 88.875 28.546875 C 88.921875 28.226562 89.058594 27.820312 89.382812 27.816406 C 89.695312 27.8125 89.851562 28.191406 89.90625 28.496094 C 90.207031 30.167969 90.089844 31.914062 89.566406 33.53125 C 90.667969 32.253906 90.703125 30.566406 91.148438 29.074219 C 91.1875 28.945312 91.238281 28.808594 91.351562 28.738281 C 91.503906 28.644531 91.714844 28.71875 91.828125 28.859375 C 91.9375 28.996094 91.976562 29.179688 92 29.355469 C 92.296875 31.515625 91.300781 33.640625 90.144531 35.488281 C 88.992188 37.339844 87.632812 39.125 87.070312 41.230469 Z M 48.09375 53.0625 C 47.632812 52.636719 47.003906 52.355469 46.382812 52.4375 C 45.816406 52.511719 45.335938 52.871094 44.882812 53.21875 L 43.914062 54.300781 C 43.261719 55.332031 42.871094 56.527344 42.722656 57.75 C 42.066406 57.941406 41.496094 58.359375 40.964844 58.792969 C 40.738281 58.980469 40.503906 59.191406 40.425781 59.476562 C 40.40625 59.542969 40.398438 59.613281 40.414062 59.679688 C 40.453125 59.8125 40.597656 59.898438 40.738281 59.902344 C 40.878906 59.910156 41.011719 59.855469 41.136719 59.792969 C 41.847656 59.449219 42.4375 58.867188 43.203125 58.570312 C 42.589844 59.601562 41.960938 60.703125 42.011719 61.898438 C 42.015625 62.082031 42.0625 62.296875 42.230469 62.367188 C 42.40625 62.441406 42.601562 62.316406 42.726562 62.175781 C 42.910156 61.96875 43.042969 61.71875 43.1875 61.484375 C 43.710938 60.648438 44.445312 59.976562 45.199219 59.34375 C 45.953125 58.710938 46.738281 58.109375 47.398438 57.378906 C 48.054688 56.644531 48.582031 55.761719 48.707031 54.785156 C 48.75 54.472656 48.746094 54.152344 48.644531 53.851562 C 48.539062 53.546875 48.332031 53.28125 48.09375 53.0625 Z M 48.09375 53.0625 " fill-opacity="1" fill-rule="nonzero"/><path fill="#f4e8ac" d="M 107.753906 60.992188 C 107.09375 61.566406 106.265625 61.917969 105.425781 62.179688 C 104.414062 62.5 103.304688 62.691406 102.304688 62.339844 C 101.75 62.148438 101.261719 61.796875 100.75 61.511719 C 100.234375 61.226562 99.65625 60.996094 99.074219 61.078125 C 98.351562 61.179688 97.785156 61.726562 97.140625 62.070312 C 96.238281 62.546875 95.132812 62.613281 94.171875 62.277344 C 93.203125 61.941406 92.386719 61.21875 91.90625 60.316406 C 91.027344 60.796875 89.8125 60.953125 88.761719 60.59375 C 87.707031 60.234375 86.839844 59.375 86.472656 58.328125 C 85.972656 56.894531 86.394531 55.324219 86.59375 53.820312 C 86.828125 52.0625 86.714844 50.152344 85.695312 48.699219 C 85.746094 48.507812 85.953125 48.214844 86.214844 48.035156 C 86.472656 47.859375 86.785156 47.765625 87.078125 47.644531 C 87.8125 47.34375 88.460938 46.851562 89.089844 46.339844 C 90.0625 45.558594 91 44.730469 92.203125 44.492188 C 93.496094 45.9375 94.664062 47.535156 96.261719 48.628906 C 97.859375 49.71875 99.992188 50.222656 101.761719 49.433594 C 102.546875 50.035156 103.011719 50.910156 103.347656 51.851562 C 103.363281 51.894531 103.382812 51.9375 103.394531 51.984375 C 103.582031 52.523438 103.730469 53.085938 103.882812 53.628906 C 103.976562 53.984375 104.078125 54.332031 104.191406 54.679688 C 104.261719 54.90625 104.339844 55.132812 104.421875 55.351562 C 104.605469 55.863281 104.824219 56.367188 105.085938 56.84375 C 105.167969 56.996094 105.253906 57.140625 105.351562 57.289062 C 105.871094 58.117188 106.550781 58.847656 107.398438 59.335938 C 107.742188 59.535156 108.160156 59.757812 108.207031 60.152344 C 108.253906 60.480469 108.007812 60.777344 107.753906 60.992188 Z M 107.753906 60.992188 " fill-opacity="1" fill-rule="nonzero"/><path fill="#d46f44" d="M 99.9375 38.53125 C 100.027344 38.261719 100.15625 38.007812 100.320312 37.78125 C 100.507812 37.523438 100.792969 37.277344 101.109375 37.328125 C 101.347656 37.367188 101.53125 37.574219 101.605469 37.800781 C 101.679688 38.03125 101.660156 38.277344 101.617188 38.515625 C 101.5 39.210938 101.199219 39.875 100.753906 40.421875 C 100.472656 40.761719 100.085938 41.078125 99.644531 41.050781 " fill-opacity="1" fill-rule="nonzero"/><path fill="#1b120e" d="M 67.144531 26.023438 C 66.929688 27.605469 66.007812 29.085938 64.660156 29.941406 C 63.3125 30.796875 61.5625 31.003906 60.066406 30.445312 C 59.355469 30.179688 58.679688 29.726562 58.304688 29.0625 C 57.933594 28.410156 57.808594 27.535156 57.148438 27.1875 C 56.746094 26.972656 56.257812 27.03125 55.820312 26.914062 C 55.0625 26.714844 54.507812 25.964844 54.484375 25.183594 C 54.457031 24.402344 54.925781 23.640625 55.609375 23.265625 C 55.367188 22.328125 55.882812 21.199219 56.746094 20.621094 C 57.609375 20.042969 58.746094 19.964844 59.746094 20.25 C 60.089844 20.351562 60.425781 20.488281 60.777344 20.558594 C 61.167969 20.636719 61.578125 20.625 61.964844 20.53125 C 62.292969 20.449219 62.601562 20.308594 62.9375 20.257812 C 63.546875 20.164062 64.195312 20.398438 64.605469 20.863281 C 65.011719 21.328125 65.164062 22.003906 64.992188 22.59375 C 65.636719 22.800781 66.230469 23.027344 66.703125 23.429688 C 67.175781 23.832031 67.515625 24.4375 67.453125 25.054688 " fill-opacity="1" fill-rule="nonzero"/><g clip-path="url(#293826857a)"><path fill="#d93223" d="M 62.789062 57.070312 C 62.601562 58.171875 62.3125 59.265625 61.800781 60.257812 C 61.484375 60.878906 61.082031 61.445312 60.632812 61.976562 C 59.933594 62.796875 59.113281 63.519531 58.265625 64.195312 C 55.789062 66.175781 53.0625 67.8125 50.367188 69.5 C 47.894531 71.046875 45.449219 72.636719 43.25 74.550781 C 45.488281 76.714844 45.6875 80.195312 46.824219 83.171875 C 46.839844 83.207031 46.851562 83.242188 46.867188 83.277344 C 47.367188 84.554688 48.046875 85.726562 48.835938 86.832031 C 49.480469 87.738281 50.199219 88.597656 50.949219 89.433594 C 52.140625 90.761719 53.421875 92.027344 54.632812 93.324219 C 55.761719 94.53125 56.941406 96.082031 56.128906 97.734375 C 55.78125 98.433594 55.136719 98.933594 54.398438 99.199219 C 52.6875 99.820312 50.960938 99.347656 49.234375 99.203125 C 47.230469 99.03125 45.191406 99.304688 43.304688 99.996094 C 42.128906 100.425781 41.015625 101.015625 39.839844 101.421875 C 38.65625 101.832031 37.359375 102.058594 36.152344 101.734375 C 35.675781 101.601562 35.191406 101.375 35.207031 100.597656 C 35.214844 100.1875 35.378906 99.800781 35.636719 99.484375 C 36.746094 98.105469 38.289062 97.183594 39.800781 96.285156 C 41.210938 95.449219 42.644531 94.59375 43.730469 93.375 C 43.742188 93.359375 43.753906 93.347656 43.765625 93.339844 C 44.191406 92.855469 44.464844 92.292969 44.589844 91.699219 C 44.832031 90.53125 45.480469 88.996094 44.570312 88.101562 C 44.277344 87.816406 43.875 87.554688 43.4375 87.296875 C 42.5625 86.789062 41.546875 86.300781 40.976562 85.683594 C 39.113281 83.660156 37.269531 81.550781 35.378906 79.738281 C 33.644531 78.070312 31.789062 76.160156 31.675781 73.753906 C 31.558594 71.292969 33.308594 69.179688 35.003906 67.390625 C 39.453125 62.710938 44.269531 58.378906 49.394531 54.449219 L 62.796875 51.585938 C 63.148438 53.390625 63.097656 55.257812 62.789062 57.070312 Z M 62.789062 57.070312 " fill-opacity="1" fill-rule="nonzero"/></g><path fill="#fe9683" d="M 138.335938 49.820312 C 138.125 50.792969 138.09375 51.789062 137.96875 52.773438 C 137.824219 53.9375 137.550781 55.085938 137.15625 56.191406 C 136.703125 57.46875 136.078125 58.699219 135.160156 59.695312 C 134.246094 60.6875 133.011719 61.429688 131.667969 61.585938 C 130.878906 61.675781 130.078125 61.566406 129.3125 61.363281 C 127.671875 60.925781 126.15625 60.066406 124.875 58.953125 C 121.90625 56.386719 120.195312 52.433594 120.351562 48.515625 C 120.503906 46.570312 120.894531 44.519531 121.453125 42.515625 C 121.1875 41.351562 120.980469 40.175781 120.832031 38.996094 C 118.238281 38.125 115.675781 36.855469 113.269531 35.320312 C 112.9375 35.105469 112.769531 34.710938 112.835938 34.324219 C 113.429688 30.960938 115.214844 27.910156 117.800781 25.859375 C 118.101562 25.621094 118.515625 25.570312 118.855469 25.75 C 120.316406 26.535156 121.429688 27.800781 122.894531 28.414062 C 124.359375 29.027344 126.097656 28.953125 127.414062 29.847656 C 128.71875 28.683594 130.363281 27.949219 132.050781 27.84375 C 133.738281 27.734375 135.460938 28.253906 136.804688 29.28125 C 138.550781 29.128906 140.25 28.902344 141.878906 29.265625 C 143.945312 29.726562 145.675781 31.082031 147.398438 32.316406 C 148.792969 33.3125 150.316406 34.277344 151.972656 34.617188 C 152.578125 34.742188 152.914062 35.398438 152.667969 35.964844 C 151.824219 37.914062 150.742188 39.582031 149.386719 41.023438 C 147.824219 42.6875 145.878906 44.035156 143.691406 44.683594 C 143.515625 44.738281 143.328125 44.738281 143.148438 44.6875 C 142.226562 44.40625 141.300781 43.921875 140.570312 43.230469 C 140.207031 45.570312 138.8125 47.585938 138.332031 49.820312 Z M 138.335938 49.820312 " fill-opacity="1" fill-rule="nonzero"/><path fill="#f4e8ac" d="M 127.757812 62.007812 C 128.195312 62.851562 127.773438 63.878906 127.265625 64.683594 C 126.679688 65.613281 125.960938 66.480469 125.050781 67.097656 C 124.140625 67.714844 123.019531 68.0625 121.929688 67.90625 C 120.570312 67.710938 119.425781 66.765625 118.5625 65.695312 C 117.699219 64.625 117.039062 63.402344 116.164062 62.339844 C 115.050781 60.988281 113.628906 59.9375 112.265625 58.839844 C 110.902344 57.746094 109.558594 56.5625 108.679688 55.050781 C 107.804688 53.535156 107.457031 51.621094 108.171875 50.023438 C 108.648438 48.957031 109.554688 48.117188 110.59375 47.582031 C 111.628906 47.042969 112.792969 46.785156 113.953125 46.660156 C 118.078125 46.222656 122.359375 47.488281 125.578125 50.105469 C 128.800781 52.722656 130.917969 56.652344 131.25 60.828125 C 130.785156 60.917969 130.070312 62.167969 127.757812 62.007812 Z M 63.683594 30.980469 C 62.914062 30.621094 62.042969 30.550781 61.203125 30.699219 C 60.742188 30.78125 60.285156 30.925781 59.867188 31.128906 C 59.253906 31.417969 58.6875 31.820312 58.046875 32.023438 C 56.847656 32.40625 55.542969 32.070312 54.289062 32.171875 C 52.484375 32.3125 50.785156 33.433594 49.898438 35.007812 C 49.890625 35.023438 49.878906 35.039062 49.871094 35.054688 C 49.808594 35.054688 49.746094 35.054688 49.679688 35.058594 C 47.800781 35.101562 45.964844 36.066406 44.875 37.597656 C 44.511719 38.109375 44.222656 38.683594 43.761719 39.113281 C 43.109375 39.726562 42.199219 39.964844 41.355469 40.265625 C 39.4375 40.941406 37.671875 42.046875 36.21875 43.46875 C 35.230469 44.4375 34.375 45.578125 33.929688 46.894531 C 33.488281 48.207031 33.496094 49.707031 34.148438 50.929688 C 34.46875 51.53125 34.9375 52.046875 35.464844 52.480469 C 37.292969 53.988281 39.921875 54.457031 42.195312 53.464844 C 41.996094 53.886719 41.949219 54.390625 42.101562 54.832031 C 42.25 55.273438 42.609375 55.652344 43.058594 55.789062 C 43.488281 55.921875 43.957031 55.835938 44.386719 55.699219 C 45.117188 55.46875 45.804688 55.089844 46.308594 54.378906 C 46.324219 54.363281 46.332031 54.347656 46.34375 54.332031 C 46.679688 55.28125 47.738281 55.832031 48.746094 55.871094 C 49.757812 55.914062 50.734375 55.542969 51.667969 55.152344 C 52.597656 54.761719 53.542969 54.335938 54.550781 54.257812 C 56.105469 54.140625 57.597656 54.859375 59.144531 55.09375 C 61.066406 55.378906 63.1875 54.8125 64.433594 53.324219 C 65.410156 52.15625 65.753906 50.570312 65.738281 49.054688 C 65.730469 47.574219 65.070312 48.054688 67.339844 41.722656 C 67.34375 41.722656 67.339844 41.71875 67.339844 41.71875 C 67.90625 40.140625 66.398438 36.710938 66.226562 35.046875 C 66.058594 33.382812 65.203125 31.6875 63.683594 30.980469 Z M 63.683594 30.980469 " fill-opacity="1" fill-rule="nonzero"/><path fill="#d46f44" d="M 56.550781 34.023438 C 56.617188 33.792969 56.6875 33.558594 56.671875 33.320312 C 56.660156 33.078125 56.546875 32.832031 56.335938 32.71875 C 56.234375 32.664062 56.117188 32.644531 56.003906 32.632812 C 55.738281 32.597656 55.472656 32.578125 55.21875 32.496094 C 54.964844 32.417969 54.71875 32.265625 54.59375 32.035156 C 54.394531 31.667969 54.527344 31.222656 54.605469 30.8125 C 54.6875 30.363281 54.691406 29.894531 54.617188 29.441406 C 55.148438 29.429688 55.582031 29.324219 55.953125 29.105469 C 56.324219 28.886719 56.632812 28.554688 56.796875 28.160156 C 56.347656 28.5 55.742188 28.539062 55.175781 28.5 C 54.960938 28.484375 54.71875 28.445312 54.585938 28.269531 C 54.777344 28.046875 54.675781 27.675781 54.511719 27.402344 C 54.347656 27.128906 54.125 26.867188 54.097656 26.550781 C 54.070312 26.261719 54.226562 25.964844 54.476562 25.824219 C 54.675781 25.710938 54.910156 25.695312 55.136719 25.675781 C 55.617188 25.636719 56.160156 25.535156 56.425781 25.128906 C 56.53125 24.964844 56.574219 24.773438 56.636719 24.589844 C 56.78125 24.144531 57.042969 23.71875 57.4375 23.464844 C 57.96875 23.121094 58.648438 23.140625 59.277344 23.207031 C 59.90625 23.273438 60.5625 23.375 61.15625 23.160156 C 61.375 23.902344 61.269531 24.742188 60.933594 25.480469 C 60.78125 25.820312 60.582031 26.136719 60.429688 26.476562 C 60.125 27.160156 60.03125 27.933594 60.15625 28.671875 C 60.648438 28.625 61.132812 28.605469 61.511719 28.351562 C 61.789062 28.164062 61.972656 27.878906 62.160156 27.605469 C 62.421875 27.234375 62.710938 26.867188 63.097656 26.625 C 63.484375 26.386719 63.992188 26.292969 64.402344 26.488281 C 64.8125 26.683594 65.066406 27.21875 64.847656 27.585938 C 64.59375 28.738281 63.917969 29.792969 62.972656 30.503906 C 62.648438 30.746094 62.289062 30.957031 62.058594 31.289062 C 61.953125 31.445312 61.878906 31.625 61.78125 31.785156 C 61.546875 32.175781 61.175781 32.484375 60.746094 32.636719 C 60.351562 32.777344 59.921875 32.789062 59.503906 32.820312 C 58.433594 32.894531 57.292969 33.136719 56.550781 34.023438 Z M 56.550781 34.023438 " fill-opacity="1" fill-rule="nonzero"/><path fill="#f4e8ac" d="M 81.617188 13.339844 C 81.792969 13.730469 81.957031 14.132812 82.007812 14.5625 C 82.105469 15.367188 81.769531 16.1875 81.222656 16.789062 C 80.675781 17.390625 79.9375 17.789062 79.164062 18.046875 C 79.265625 20.347656 78.546875 22.628906 77.292969 24.566406 C 76.539062 25.734375 75.601562 26.769531 74.6875 27.820312 C 73.332031 29.378906 72.007812 31 71.160156 32.882812 C 70.296875 34.789062 69.953125 36.898438 69.113281 38.816406 C 68.421875 40.402344 67.398438 41.84375 66.125 43.015625 C 65.0625 43.996094 63.609375 44.828125 62.21875 44.417969 C 61.054688 44.070312 60.292969 42.949219 59.820312 41.828125 C 58.21875 38.039062 58.921875 33.378906 61.570312 30.234375 C 62.65625 28.941406 64.035156 27.886719 64.902344 26.441406 C 65.246094 25.867188 65.503906 25.242188 65.84375 24.664062 C 66.605469 23.378906 67.796875 22.355469 69.183594 21.800781 C 69.542969 19.917969 70.417969 17.988281 71.742188 16.4375 C 72.359375 15.707031 73.078125 15.0625 73.894531 14.558594 C 73.921875 13.660156 74.144531 12.722656 74.660156 11.957031 C 75.175781 11.191406 76 10.613281 76.914062 10.503906 C 77.375 10.445312 77.835938 10.503906 78.289062 10.578125 C 78.980469 10.6875 79.703125 10.851562 80.222656 11.320312 C 81.0625 12.070312 81.339844 12.714844 81.617188 13.339844 Z M 81.617188 13.339844 " fill-opacity="1" fill-rule="nonzero"/><path fill="#d46f44" d="M 131.722656 68.988281 C 132.089844 70.015625 132.230469 71.152344 131.929688 72.199219 C 131.632812 73.25 130.84375 74.1875 129.800781 74.5 C 128.753906 74.8125 127.488281 74.382812 126.984375 73.414062 C 126.285156 70.851562 124.351562 68.640625 121.898438 67.476562 C 121.839844 65.464844 122.667969 63.601562 124.082031 62.398438 C 124.402344 62.132812 124.773438 61.886719 125.1875 61.878906 C 126.640625 63.636719 128.347656 65.128906 130.269531 66.242188 C 131.074219 66.710938 131.351562 67.964844 131.722656 68.988281 Z M 146.933594 58.75 C 144.933594 55.367188 146.238281 53.582031 144.996094 50.777344 L 142.628906 49.636719 C 140.96875 52.027344 136.886719 50.507812 135.550781 51.054688 C 135.082031 51.25 135.082031 51.933594 135.53125 52.171875 C 138.144531 53.550781 139.902344 51.679688 139.574219 56.820312 C 139.675781 58.277344 139.292969 59.878906 139.730469 61.28125 C 139.792969 61.484375 139.941406 61.660156 140.140625 61.738281 C 140.960938 62.054688 141.160156 60.320312 141.226562 59.542969 C 141.164062 60.21875 141.566406 62.824219 142.414062 62.5 C 142.632812 62.417969 142.75 62.183594 142.738281 61.949219 C 142.6875 60.675781 142.898438 59.921875 142.816406 58.796875 C 142.96875 59.445312 143.402344 62.992188 144.363281 61.835938 C 144.753906 61.273438 144.011719 58.011719 144.5625 56.109375 C 144.664062 56.816406 146.117188 60.292969 146.886719 59.484375 C 147.074219 59.289062 147.070312 58.984375 146.933594 58.75 Z M 134.65625 25.621094 C 134.640625 25.203125 134.480469 24.792969 134.175781 24.503906 C 134.082031 24.414062 133.972656 24.332031 133.847656 24.296875 C 133.574219 24.21875 133.277344 24.359375 133.082031 24.566406 C 132.617188 25.0625 132.609375 25.820312 132.613281 26.625 L 132.605469 26.621094 C 132.164062 26.496094 131.839844 26.117188 131.785156 25.660156 C 131.722656 25.183594 131.6875 24.703125 131.609375 24.230469 C 131.546875 23.835938 131.441406 23.433594 131.273438 23.082031 C 130.988281 22.484375 130.316406 22.152344 129.671875 22.3125 C 129.433594 22.371094 129.203125 22.464844 128.984375 22.578125 C 128.472656 22.851562 128.027344 23.234375 127.546875 23.5625 C 127.0625 23.890625 126.523438 24.171875 125.882812 24.292969 C 126.058594 24.835938 126.035156 25.421875 126.074219 25.988281 C 126.117188 26.558594 126.238281 27.160156 126.675781 27.566406 C 126.6875 28.296875 126.707031 29.050781 126.996094 29.722656 C 127.328125 30.503906 127.984375 31.082031 128.65625 31.589844 C 128.875 31.753906 129.117188 31.878906 129.363281 32 C 130.210938 32.410156 130.308594 33.375 130.355469 34.199219 C 131.011719 34.050781 131.546875 33.566406 131.9375 33.015625 C 132.328125 32.46875 132.597656 31.84375 132.929688 31.257812 C 133.449219 30.347656 134.121094 29.53125 134.910156 28.847656 C 134.683594 28.511719 134.453125 28.074219 134.195312 27.664062 C 134.566406 27.0625 134.679688 26.316406 134.65625 25.621094 Z M 134.65625 25.621094 " fill-opacity="1" fill-rule="nonzero"/><path fill="#1b120e" d="M 126.496094 81.632812 C 127.050781 79.75 127.285156 77.710938 126.726562 75.832031 C 126.582031 75.34375 126.382812 74.847656 126.445312 74.34375 C 126.535156 73.644531 127.109375 73.105469 127.710938 72.738281 C 128.554688 72.222656 129.523438 71.914062 130.507812 71.847656 C 130.144531 70.40625 129.96875 69.03125 130.039062 67.667969 C 130.070312 67.035156 130.171875 66.367188 130.589844 65.890625 C 131.476562 65.820312 132.707031 65.914062 133.910156 66.136719 C 134.683594 66.28125 135.480469 66.492188 136.082031 67.003906 C 136.410156 67.359375 136.453125 67.835938 136.433594 68.289062 C 136.363281 69.804688 135.65625 71.273438 134.515625 72.269531 C 134.601562 74.519531 134.238281 76.839844 133.429688 79 C 133.203125 79.601562 132.945312 80.191406 132.609375 80.742188 C 131.984375 81.761719 131.117188 82.609375 130.21875 83.402344 C 129.671875 83.886719 129.078125 84.367188 128.371094 84.550781 C 127.660156 84.734375 126.800781 84.542969 126.417969 83.917969 C 126.007812 83.246094 126.273438 82.386719 126.496094 81.632812 Z M 143.433594 90.371094 C 142.691406 89.394531 141.847656 88.5 141.136719 87.957031 C 140.511719 88.03125 139.984375 88.460938 139.539062 88.90625 C 138.570312 89.871094 137.78125 91.007812 137.082031 92.320312 C 136.304688 91.707031 135.382812 91.285156 134.410156 91.105469 C 133.71875 90.972656 132.929688 90.988281 132.394531 91.449219 C 132.007812 91.777344 131.824219 92.277344 131.605469 92.738281 C 130.753906 94.507812 129.214844 95.863281 127.539062 96.882812 C 126.867188 97.292969 126.097656 97.753906 125.949219 98.527344 C 125.8125 99.246094 126.320312 99.96875 126.972656 100.304688 C 127.621094 100.644531 128.382812 100.683594 129.113281 100.695312 C 130.3125 100.710938 131.523438 100.664062 132.667969 100.324219 C 133.285156 100.140625 133.878906 99.878906 134.449219 99.582031 C 136.496094 98.523438 138.324219 97.046875 139.769531 95.320312 C 141.28125 95.347656 142.796875 94.734375 143.863281 93.660156 C 144.179688 93.335938 144.472656 92.953125 144.464844 92.46875 C 144.363281 91.6875 143.914062 90.996094 143.433594 90.371094 Z M 70.441406 90.222656 C 70.253906 89.988281 70.078125 89.742188 69.914062 89.492188 C 69.515625 88.890625 69.175781 88.25 68.875 87.582031 C 67.085938 87.3125 65.261719 87.171875 63.433594 87.085938 C 63.699219 87.457031 63.9375 87.84375 64.144531 88.253906 C 64.457031 88.863281 64.695312 89.523438 64.757812 90.191406 C 64.785156 90.5 64.773438 90.804688 64.714844 91.109375 C 64.496094 92.242188 63.644531 93.144531 62.730469 93.855469 C 61.488281 94.824219 60.058594 95.558594 58.546875 96.003906 C 57.871094 96.203125 57.046875 96.484375 56.933594 97.179688 C 56.832031 97.832031 57.453125 98.359375 58.050781 98.640625 C 59.234375 99.203125 60.601562 99.367188 61.886719 99.113281 C 62.824219 98.929688 63.703125 98.53125 64.625 98.277344 C 66.03125 97.898438 67.511719 97.871094 68.960938 97.992188 C 70.148438 98.085938 71.363281 98.277344 72.515625 97.96875 C 73.664062 97.660156 74.746094 96.664062 74.683594 95.476562 C 74.644531 94.65625 74.09375 93.960938 73.527344 93.367188 C 72.511719 92.304688 71.351562 91.378906 70.441406 90.222656 Z M 50.949219 89.433594 C 50.199219 88.597656 49.480469 87.738281 48.835938 86.832031 C 47.023438 86.878906 45.21875 87.011719 43.4375 87.296875 C 43.875 87.554688 44.277344 87.816406 44.570312 88.101562 C 45.480469 88.996094 44.832031 90.53125 44.589844 91.699219 C 44.464844 92.292969 44.191406 92.855469 43.765625 93.339844 C 43.753906 93.347656 43.742188 93.359375 43.730469 93.375 C 42.644531 94.59375 41.210938 95.449219 39.800781 96.285156 C 38.289062 97.183594 36.746094 98.105469 35.636719 99.484375 C 35.378906 99.800781 35.214844 100.1875 35.207031 100.597656 C 35.191406 101.375 35.675781 101.601562 36.152344 101.734375 C 37.359375 102.058594 38.65625 101.832031 39.839844 101.421875 C 41.015625 101.015625 42.128906 100.425781 43.304688 99.996094 C 45.191406 99.304688 47.230469 99.03125 49.234375 99.203125 C 50.960938 99.347656 52.6875 99.820312 54.398438 99.199219 C 55.136719 98.933594 55.78125 98.433594 56.128906 97.734375 C 56.941406 96.082031 55.761719 94.53125 54.632812 93.324219 C 53.421875 92.027344 52.140625 90.761719 50.949219 89.433594 Z M 50.949219 89.433594 " fill-opacity="1" fill-rule="nonzero"/><path fill="#d93223" d="M 107.753906 60.992188 C 107.09375 61.566406 106.265625 61.917969 105.425781 62.179688 C 104.414062 62.5 103.304688 62.691406 102.304688 62.339844 C 101.75 62.148438 101.261719 61.796875 100.75 61.511719 C 100.234375 61.226562 99.65625 60.996094 99.074219 61.078125 C 98.351562 61.179688 97.785156 61.726562 97.140625 62.070312 C 96.238281 62.546875 95.132812 62.613281 94.171875 62.277344 C 93.203125 61.941406 92.386719 61.21875 91.90625 60.316406 C 91.027344 60.796875 89.8125 60.953125 88.761719 60.59375 C 87.707031 60.234375 86.839844 59.375 86.472656 58.328125 C 85.972656 56.894531 86.394531 55.324219 86.59375 53.820312 C 86.828125 52.0625 86.714844 50.152344 85.695312 48.699219 C 85.746094 48.507812 85.953125 48.214844 86.214844 48.035156 C 86.472656 47.859375 86.785156 47.765625 87.078125 47.644531 C 87.8125 47.34375 88.460938 46.851562 89.089844 46.339844 C 89.386719 46.757812 89.527344 47.273438 89.421875 47.757812 C 89.300781 48.300781 88.96875 48.761719 88.5 49.109375 C 88.109375 49.402344 87.980469 49.921875 88.136719 50.382812 C 88.136719 50.386719 88.136719 50.390625 88.140625 50.394531 C 88.242188 50.703125 88.289062 51.042969 88.300781 51.371094 C 88.332031 52.296875 88.15625 53.214844 88.125 54.140625 C 88.09375 55.066406 88.230469 56.046875 88.808594 56.773438 C 89.261719 57.347656 89.976562 57.6875 90.652344 57.738281 C 91.164062 57.773438 91.636719 57.4375 91.765625 56.941406 C 91.765625 56.941406 91.769531 56.9375 91.769531 56.933594 C 91.835938 56.679688 91.882812 56.414062 91.960938 56.167969 C 92.148438 55.582031 92.550781 55.035156 93.195312 54.902344 C 93.390625 54.863281 93.601562 54.875 93.789062 54.949219 C 94.472656 55.21875 94.550781 55.976562 94.488281 56.621094 C 94.449219 57.023438 94.371094 57.417969 94.253906 57.796875 C 94.082031 58.351562 94.398438 58.949219 94.949219 59.140625 C 95.214844 59.234375 95.492188 59.296875 95.773438 59.332031 C 96.222656 59.378906 96.695312 59.347656 97.105469 59.15625 C 97.414062 59.011719 97.671875 58.785156 97.925781 58.523438 C 98.195312 58.242188 98.292969 57.835938 98.1875 57.457031 C 98.105469 57.171875 98.039062 56.878906 97.992188 56.585938 C 97.953125 56.363281 97.929688 56.136719 97.964844 55.921875 C 98.054688 55.339844 98.59375 54.882812 99.175781 54.832031 C 99.757812 54.785156 100.339844 55.121094 100.636719 55.628906 C 100.773438 55.863281 100.847656 56.121094 100.902344 56.386719 C 101 56.851562 101.023438 57.328125 100.976562 57.773438 C 100.9375 58.167969 101.078125 58.566406 101.40625 58.789062 C 101.804688 59.0625 102.292969 59.210938 102.777344 59.210938 C 103.152344 59.210938 103.523438 59.125 103.855469 58.9375 C 104.507812 58.574219 104.929688 57.917969 105.351562 57.285156 C 105.871094 58.117188 106.550781 58.847656 107.398438 59.335938 C 107.742188 59.535156 108.160156 59.753906 108.207031 60.152344 C 108.253906 60.480469 108.011719 60.777344 107.757812 60.992188 Z M 107.753906 60.992188 " fill-opacity="1" fill-rule="nonzero"/><path fill="#d46f44" d="M 90.664062 5.003906 C 90.496094 5.105469 90.296875 5.132812 90.105469 5.167969 C 88.613281 5.429688 87.269531 6.195312 85.847656 7.019531 C 86.839844 6.859375 87.839844 6.765625 88.839844 6.742188 C 89.183594 6.738281 89.53125 6.835938 89.792969 7.058594 C 89.847656 7.105469 89.894531 7.160156 89.914062 7.226562 C 89.960938 7.375 89.867188 7.535156 89.734375 7.617188 C 89.601562 7.695312 89.441406 7.710938 89.289062 7.722656 C 88.300781 7.800781 87.285156 7.785156 86.371094 8.167969 C 85.269531 8.632812 84.46875 9.617188 83.519531 10.1875 C 83.183594 10.386719 82.867188 10.609375 82.59375 10.886719 C 82.0625 11.417969 81.574219 11.992188 81.132812 12.601562 C 80.953125 12.847656 80.777344 13.105469 80.644531 13.382812 C 80.445312 13.792969 80.316406 14.273438 79.941406 14.535156 C 79.652344 14.734375 79.277344 14.757812 78.929688 14.726562 C 78.238281 14.660156 77.554688 14.386719 77.058594 13.902344 C 76.800781 13.648438 76.601562 13.335938 76.488281 12.984375 C 76.320312 12.46875 76.472656 11.898438 76.863281 11.519531 C 77.742188 10.671875 78.527344 9.722656 79.191406 8.695312 C 79.375 8.414062 79.554688 8.117188 79.640625 7.789062 C 79.785156 7.238281 79.660156 6.648438 79.765625 6.089844 C 79.878906 5.488281 80.25 4.964844 80.433594 4.378906 C 80.605469 3.824219 80.597656 3.226562 80.511719 2.648438 C 80.453125 2.265625 80.363281 1.871094 80.527344 1.5 C 80.621094 1.296875 80.796875 1.136719 81.015625 1.109375 C 81.480469 1.050781 81.742188 1.558594 81.824219 1.992188 C 81.898438 2.371094 81.921875 2.757812 81.894531 3.140625 C 81.863281 3.636719 81.761719 4.195312 82.011719 4.632812 C 83.125 3.511719 84.316406 2.460938 85.570312 1.496094 C 86.441406 0.824219 87.382812 0.171875 88.488281 0.03125 C 88.722656 0.00390625 88.96875 0.113281 89.054688 0.332031 C 89.191406 0.679688 88.828125 0.929688 88.53125 1.089844 C 87.152344 1.816406 85.90625 2.789062 84.738281 4.175781 C 86.085938 3.371094 87.4375 2.566406 88.875 1.933594 C 89.386719 1.707031 90 1.511719 90.484375 1.789062 C 90.550781 1.828125 90.617188 1.875 90.652344 1.945312 C 90.714844 2.070312 90.664062 2.226562 90.566406 2.332031 C 90.472656 2.433594 90.339844 2.492188 90.210938 2.546875 C 88.515625 3.300781 86.9375 4.320312 85.457031 5.609375 C 86.453125 5.160156 87.472656 4.765625 88.507812 4.425781 C 89.140625 4.21875 89.816406 4.035156 90.457031 4.195312 C 90.636719 4.242188 90.828125 4.332031 90.886719 4.507812 C 90.949219 4.691406 90.828125 4.898438 90.664062 5.003906 Z M 46.824219 83.171875 C 46.109375 83.183594 45.398438 83.277344 44.703125 83.460938 C 43.304688 83.824219 41.988281 84.574219 40.976562 85.683594 C 42.769531 87.628906 45.117188 89.195312 44.589844 91.699219 C 45.964844 91.953125 47.359375 91.886719 48.5625 91.207031 C 49.425781 90.71875 50.113281 89.953125 50.949219 89.433594 C 49.273438 87.570312 47.773438 85.59375 46.867188 83.277344 C 46.851562 83.242188 46.839844 83.207031 46.824219 83.171875 Z M 66.8125 81.867188 C 65.222656 81.882812 63.636719 82.363281 62.328125 83.277344 C 61.828125 83.628906 61.367188 84.035156 60.867188 84.382812 C 62.183594 85.496094 63.363281 86.730469 64.144531 88.253906 C 64.457031 88.863281 64.695312 89.523438 64.757812 90.191406 C 66.425781 90.910156 68.476562 90.601562 69.914062 89.492188 C 68.925781 88 68.308594 86.28125 67.738281 84.574219 C 67.4375 83.671875 67.148438 82.757812 66.8125 81.867188 Z M 66.8125 81.867188 " fill-opacity="1" fill-rule="nonzero"/><path fill="#fe9683" d="M 65.738281 49.054688 C 65.753906 50.570312 65.410156 52.15625 64.433594 53.324219 C 63.1875 54.8125 61.066406 55.378906 59.144531 55.09375 C 57.597656 54.859375 56.105469 54.140625 54.550781 54.257812 C 53.542969 54.335938 52.597656 54.761719 51.667969 55.152344 C 50.734375 55.542969 49.757812 55.914062 48.746094 55.871094 C 47.738281 55.832031 46.679688 55.28125 46.34375 54.332031 C 46.332031 54.347656 46.324219 54.363281 46.308594 54.378906 C 46.070312 53.921875 45.25 52.144531 45.515625 49.789062 C 45.515625 49.789062 42.816406 47.226562 44.914062 42.074219 C 46.652344 37.796875 48.949219 35.660156 49.679688 35.058594 C 49.828125 34.933594 49.914062 34.875 49.914062 34.875 C 49.914062 34.875 49.910156 34.921875 49.898438 35.007812 C 49.839844 35.558594 49.644531 37.75 50.09375 39.238281 C 50.140625 39.277344 50.199219 39.308594 50.261719 39.328125 C 50.628906 39.433594 50.976562 39.136719 51.234375 38.855469 C 51.832031 38.195312 52.382812 37.496094 52.878906 36.757812 C 53.089844 37.136719 53.382812 37.476562 53.722656 37.75 C 54.046875 36.734375 54.675781 35.808594 55.503906 35.125 C 55.703125 34.964844 55.925781 34.808594 56.179688 34.796875 C 56.511719 35.761719 57 36.675781 57.636719 37.472656 C 57.765625 37.628906 57.925781 37.796875 58.128906 37.808594 C 58.339844 37.824219 58.519531 37.664062 58.660156 37.511719 C 58.773438 37.382812 58.882812 37.25 58.980469 37.109375 C 59.117188 36.917969 59.238281 36.714844 59.339844 36.503906 C 59.339844 36.503906 59.125 43.839844 67.339844 41.722656 C 65.070312 48.054688 65.730469 47.574219 65.738281 49.054688 Z M 65.738281 49.054688 " fill-opacity="1" fill-rule="nonzero"/><path fill="#1b120e" d="M 59.140625 26.785156 C 58.953125 26.691406 58.816406 26.472656 58.714844 26.300781 C 58.609375 26.125 58.515625 25.941406 58.390625 25.78125 C 58.273438 25.632812 58.121094 25.492188 57.925781 25.460938 C 57.707031 25.425781 57.496094 25.53125 57.320312 25.648438 C 57.171875 25.75 57.03125 25.507812 57.179688 25.40625 C 57.390625 25.265625 57.640625 25.152344 57.898438 25.171875 C 58.128906 25.1875 58.328125 25.296875 58.488281 25.457031 C 58.65625 25.617188 58.773438 25.816406 58.890625 26.015625 C 58.949219 26.113281 59.007812 26.210938 59.078125 26.304688 C 59.148438 26.402344 59.234375 26.472656 59.316406 26.558594 C 59.425781 26.683594 59.285156 26.863281 59.140625 26.789062 Z M 59.140625 26.785156 " fill-opacity="1" fill-rule="nonzero"/><path fill="#d93223" d="M 93.207031 91.414062 C 92.714844 92.667969 91.765625 93.71875 90.566406 94.332031 C 89.964844 94.636719 89.328125 94.777344 88.679688 94.945312 C 88.019531 95.117188 87.433594 95.394531 86.898438 95.816406 C 85.910156 96.59375 85.136719 97.605469 84.085938 98.304688 C 82.0625 99.65625 79.257812 100.039062 76.988281 99.09375 C 76.816406 99.023438 76.882812 98.746094 77.066406 98.808594 C 78.355469 99.273438 79.714844 99.425781 81.070312 99.183594 C 82.265625 98.96875 83.417969 98.480469 84.375 97.722656 C 85.324219 96.972656 86.070312 95.992188 87.082031 95.316406 C 87.632812 94.949219 88.234375 94.75 88.875 94.59375 C 89.492188 94.445312 90.089844 94.277344 90.648438 93.960938 C 91.679688 93.378906 92.507812 92.449219 92.949219 91.34375 C 93.011719 91.1875 93.273438 91.253906 93.207031 91.417969 Z M 116.96875 104.726562 C 116.847656 106.15625 116.351562 107.613281 115.246094 108.582031 C 114.75 109.015625 114.148438 109.332031 113.5 109.457031 C 112.777344 109.589844 112.042969 109.457031 111.363281 109.203125 C 110.558594 108.898438 109.824219 108.429688 109.101562 107.960938 C 108.945312 107.859375 108.796875 108.113281 108.953125 108.214844 C 110.25 109.058594 111.738281 109.976562 113.351562 109.769531 C 114.792969 109.582031 115.976562 108.519531 116.589844 107.242188 C 116.96875 106.453125 117.160156 105.59375 117.234375 104.726562 C 117.25 104.558594 116.984375 104.558594 116.96875 104.726562 Z M 116.96875 104.726562 " fill-opacity="1" fill-rule="nonzero"/><path fill="#1b120e" d="M 59.003906 26.382812 C 59.042969 26.515625 59.019531 26.664062 58.964844 26.792969 C 58.90625 26.921875 58.820312 27.035156 58.734375 27.148438 C 58.699219 27.195312 58.65625 27.246094 58.601562 27.277344 C 58.535156 27.308594 58.457031 27.308594 58.382812 27.292969 C 58.078125 27.234375 57.832031 27.023438 57.601562 26.816406 C 57.585938 26.796875 57.566406 26.78125 57.558594 26.753906 C 57.550781 26.726562 57.5625 26.699219 57.574219 26.671875 C 57.660156 26.457031 57.75 26.238281 57.882812 26.046875 C 58.015625 25.859375 58.195312 25.691406 58.417969 25.625 C 58.570312 25.644531 58.628906 25.8125 58.707031 25.9375 C 58.800781 26.089844 58.949219 26.210938 59.003906 26.382812 Z M 59.027344 24.0625 C 58.640625 24.007812 58.214844 24.015625 57.890625 24.234375 C 57.871094 24.25 57.847656 24.269531 57.835938 24.292969 C 57.820312 24.335938 57.847656 24.386719 57.890625 24.410156 C 57.929688 24.433594 57.980469 24.4375 58.027344 24.4375 C 58.703125 24.460938 59.433594 24.609375 59.878906 25.121094 C 59.996094 25.253906 60.117188 25.425781 60.292969 25.433594 C 60.433594 25.4375 60.566406 25.328125 60.597656 25.191406 C 60.632812 25.054688 60.597656 24.890625 60.34375 24.640625 C 60 24.296875 59.511719 24.132812 59.03125 24.0625 Z M 96.421875 36.066406 C 96.1875 35.90625 95.902344 35.832031 95.625 35.792969 C 94.945312 35.691406 94.1875 35.800781 93.71875 36.296875 C 93.671875 36.34375 93.628906 36.398438 93.613281 36.460938 C 93.601562 36.527344 93.621094 36.601562 93.675781 36.632812 C 93.742188 36.671875 93.828125 36.636719 93.898438 36.605469 C 94.574219 36.300781 95.351562 36.378906 96.089844 36.472656 C 96.226562 36.492188 96.378906 36.507812 96.492188 36.429688 C 96.609375 36.351562 96.601562 36.191406 96.421875 36.066406 Z M 100.3125 36.613281 C 99.984375 36.402344 99.597656 36.28125 99.210938 36.265625 C 98.972656 36.253906 98.722656 36.285156 98.523438 36.414062 C 98.460938 36.453125 98.402344 36.507812 98.371094 36.578125 C 98.34375 36.644531 98.351562 36.734375 98.410156 36.78125 C 98.492188 36.851562 98.613281 36.8125 98.714844 36.785156 C 99.105469 36.671875 99.53125 36.765625 99.902344 36.9375 C 100.015625 36.992188 100.148438 37.054688 100.265625 37 C 100.378906 36.949219 100.484375 36.722656 100.3125 36.613281 Z M 95.273438 37.445312 C 94.933594 37.511719 94.605469 37.746094 94.269531 37.660156 C 94.214844 37.644531 94.164062 37.625 94.109375 37.625 C 94.054688 37.625 93.992188 37.660156 93.988281 37.714844 C 93.984375 37.738281 93.992188 37.761719 94 37.785156 C 94.074219 37.964844 94.277344 38.0625 94.472656 38.070312 C 94.667969 38.082031 94.855469 38.019531 95.046875 37.972656 C 95.234375 37.925781 95.4375 37.890625 95.621094 37.949219 C 95.761719 37.992188 95.886719 38.085938 96.03125 38.109375 C 96.128906 38.125 96.253906 38.089844 96.273438 37.789062 C 96.03125 37.507812 95.636719 37.371094 95.273438 37.445312 Z M 99.878906 37.800781 C 99.792969 37.828125 99.726562 37.886719 99.644531 37.917969 C 99.445312 37.984375 99.242188 37.859375 99.042969 37.800781 C 98.699219 37.707031 98.300781 37.828125 98.074219 38.105469 C 98.132812 38.292969 98.296875 38.410156 98.457031 38.394531 C 98.566406 38.382812 98.664062 38.320312 98.773438 38.296875 C 98.996094 38.25 99.210938 38.382812 99.4375 38.386719 C 99.6875 38.390625 99.921875 38.234375 100.054688 38.027344 C 100.078125 37.984375 100.101562 37.9375 100.09375 37.890625 C 100.078125 37.804688 99.960938 37.777344 99.878906 37.800781 Z M 131.203125 24.351562 C 130.429688 24.113281 129.542969 24.304688 128.9375 24.835938 C 128.816406 24.945312 128.695312 25.082031 128.683594 25.246094 C 128.671875 25.410156 128.820312 25.589844 128.980469 25.546875 C 129.050781 25.527344 129.105469 25.472656 129.160156 25.417969 C 129.5625 25.03125 130.125 24.808594 130.683594 24.808594 C 130.808594 24.808594 130.941406 24.820312 131.050781 24.769531 C 131.164062 24.714844 131.246094 24.570312 131.203125 24.351562 Z M 127.34375 26.097656 C 127.433594 26.125 127.527344 26.15625 127.617188 26.128906 C 127.738281 26.089844 127.792969 25.921875 127.652344 25.640625 C 127.085938 25.425781 126.433594 25.464844 125.898438 25.742188 C 125.824219 25.78125 125.75 25.828125 125.695312 25.894531 C 125.640625 25.960938 125.613281 26.050781 125.636719 26.132812 C 125.648438 26.175781 125.683594 26.21875 125.726562 26.234375 C 125.789062 26.253906 125.851562 26.222656 125.910156 26.195312 C 126.355469 25.992188 126.875 25.957031 127.34375 26.097656 Z M 130.761719 25.671875 C 130.472656 25.617188 130.164062 25.667969 129.917969 25.832031 C 129.703125 25.972656 129.496094 26.214844 129.449219 26.472656 C 129.4375 26.546875 129.46875 26.625 129.550781 26.648438 C 129.628906 26.671875 129.695312 26.621094 129.726562 26.546875 C 129.796875 26.363281 129.890625 26.195312 130.0625 26.078125 C 130.242188 25.953125 130.472656 25.902344 130.6875 25.941406 C 130.761719 25.953125 130.839844 25.921875 130.859375 25.84375 C 130.878906 25.777344 130.835938 25.6875 130.761719 25.671875 Z M 127.738281 26.792969 C 127.507812 26.738281 127.257812 26.6875 127.027344 26.757812 C 126.929688 26.789062 126.839844 26.835938 126.761719 26.902344 C 126.6875 26.96875 126.613281 27.066406 126.59375 27.164062 C 126.582031 27.238281 126.617188 27.316406 126.691406 27.335938 C 126.773438 27.359375 126.835938 27.308594 126.863281 27.238281 C 126.867188 27.234375 126.875 27.207031 126.875 27.203125 C 126.882812 27.1875 126.890625 27.171875 126.902344 27.160156 C 126.90625 27.152344 126.90625 27.152344 126.90625 27.148438 C 126.914062 27.144531 126.917969 27.136719 126.921875 27.132812 C 126.933594 27.121094 126.949219 27.105469 126.960938 27.09375 C 126.964844 27.09375 126.964844 27.089844 126.96875 27.089844 C 126.976562 27.085938 126.984375 27.078125 126.992188 27.074219 C 127.007812 27.0625 127.023438 27.054688 127.039062 27.046875 C 127.046875 27.042969 127.058594 27.039062 127.066406 27.035156 C 127.054688 27.039062 127.058594 27.039062 127.074219 27.03125 C 127.089844 27.027344 127.109375 27.019531 127.128906 27.015625 C 127.304688 26.96875 127.492188 27.015625 127.664062 27.054688 C 127.738281 27.070312 127.8125 27.035156 127.832031 26.960938 C 127.851562 26.890625 127.808594 26.808594 127.738281 26.792969 Z M 127.738281 26.792969 " fill-opacity="1" fill-rule="nonzero"/><path fill="#f4e8ac" d="M 130.339844 29.109375 C 130.144531 29.359375 129.914062 29.597656 129.625 29.730469 C 129.347656 29.855469 129.03125 29.882812 128.730469 29.84375 C 128.53125 29.820312 128.335938 29.769531 128.171875 29.65625 C 128.011719 29.542969 127.890625 29.355469 127.898438 29.15625 C 127.898438 29.132812 127.902344 29.105469 127.917969 29.085938 C 127.945312 29.042969 128 29.039062 128.050781 29.039062 C 128.996094 29.011719 129.917969 28.558594 130.519531 27.828125 C 130.667969 27.90625 130.695312 27.976562 130.710938 28.039062 C 130.792969 28.421875 130.578125 28.800781 130.339844 29.109375 Z M 98.199219 40.347656 C 97.824219 40.457031 97.421875 40.472656 97.035156 40.425781 C 96.652344 40.378906 96.277344 40.277344 95.910156 40.160156 C 95.703125 40.097656 95.503906 40.28125 95.558594 40.488281 C 95.625 40.734375 95.734375 40.964844 95.890625 41.160156 C 96.144531 41.476562 96.53125 41.6875 96.925781 41.679688 C 97.3125 41.671875 97.675781 41.464844 97.949219 41.183594 C 98.117188 41.007812 98.257812 40.808594 98.382812 40.59375 C 98.457031 40.464844 98.339844 40.308594 98.199219 40.347656 Z M 92.351562 42.460938 C 92.085938 42.53125 91.84375 42.648438 91.566406 42.675781 C 91.324219 42.695312 91.082031 42.660156 90.875 42.535156 C 90.503906 42.308594 90.304688 41.878906 90.304688 41.457031 C 90.300781 40.539062 91.171875 39.859375 92.058594 40.09375 C 92.234375 40.136719 92.308594 39.867188 92.136719 39.820312 C 91.328125 39.605469 90.445312 40.015625 90.128906 40.792969 C 89.820312 41.550781 90.097656 42.546875 90.886719 42.878906 C 91.132812 42.984375 91.398438 43 91.664062 42.96875 C 91.929688 42.933594 92.226562 42.859375 92.460938 42.726562 C 92.605469 42.644531 92.507812 42.421875 92.351562 42.460938 Z M 100.703125 40.042969 C 100.527344 39.996094 100.453125 40.265625 100.628906 40.316406 C 101.265625 40.492188 101.636719 41.171875 101.425781 41.800781 C 101.320312 42.113281 101.085938 42.375 100.78125 42.5 C 100.621094 42.566406 100.453125 42.59375 100.285156 42.59375 C 100.089844 42.597656 99.925781 42.535156 99.742188 42.503906 C 99.589844 42.476562 99.480469 42.679688 99.632812 42.765625 C 99.914062 42.925781 100.328125 42.925781 100.636719 42.859375 C 100.957031 42.789062 101.246094 42.613281 101.453125 42.355469 C 101.84375 41.863281 101.894531 41.160156 101.53125 40.636719 C 101.328125 40.347656 101.039062 40.136719 100.703125 40.042969 Z M 100.703125 40.042969 " fill-opacity="1" fill-rule="nonzero"/><path fill="#1b120e" d="M 99.648438 43.222656 C 98.347656 42.855469 96.953125 42.8125 95.628906 43.058594 C 94.964844 43.183594 94.316406 43.367188 93.695312 43.632812 C 93.398438 43.757812 93.109375 43.902344 92.828125 44.0625 C 92.570312 44.210938 92.320312 44.429688 92.035156 44.523438 C 91.890625 44.570312 91.824219 44.390625 91.902344 44.292969 C 92.101562 44.035156 92.472656 43.867188 92.753906 43.714844 C 93.039062 43.554688 93.335938 43.414062 93.636719 43.289062 C 94.28125 43.023438 94.957031 42.824219 95.648438 42.71875 C 97.015625 42.511719 98.378906 42.632812 99.695312 43.054688 C 99.800781 43.085938 99.757812 43.253906 99.648438 43.222656 Z M 88.773438 28.519531 C 88.761719 29.539062 88.660156 30.554688 88.488281 31.5625 C 88.332031 32.46875 88.128906 33.324219 87.648438 34.121094 C 87.542969 34.296875 87.804688 34.4375 87.917969 34.277344 C 88.464844 33.527344 88.644531 32.539062 88.78125 31.644531 C 88.941406 30.609375 89 29.566406 88.996094 28.519531 C 88.996094 28.375 88.773438 28.375 88.769531 28.519531 Z M 83.398438 37.496094 C 83.195312 39.121094 82.652344 40.730469 81.90625 42.1875 C 81.152344 43.660156 80.109375 44.945312 79.191406 46.3125 C 77.546875 48.757812 75.628906 51.996094 76.652344 55.046875 C 77.109375 56.410156 78.15625 57.488281 79.476562 58.039062 C 79.679688 58.125 79.769531 57.792969 79.570312 57.710938 C 78.324219 57.191406 77.339844 56.128906 76.945312 54.835938 C 76.476562 53.316406 76.796875 51.691406 77.390625 50.253906 C 77.992188 48.789062 78.84375 47.40625 79.742188 46.109375 C 80.628906 44.828125 81.589844 43.597656 82.28125 42.191406 C 83.011719 40.710938 83.414062 39.132812 83.597656 37.496094 C 83.609375 37.367188 83.414062 37.371094 83.398438 37.496094 Z M 78.933594 34.335938 C 79.140625 34.625 79.339844 34.921875 79.503906 35.238281 C 79.59375 35.417969 79.675781 35.601562 79.746094 35.789062 C 79.804688 35.9375 79.828125 36.105469 79.96875 36.199219 C 80.015625 36.230469 80.101562 36.210938 80.125 36.15625 C 80.191406 36 80.125 35.855469 80.070312 35.699219 C 80.003906 35.515625 79.925781 35.335938 79.839844 35.160156 C 79.667969 34.808594 79.453125 34.480469 79.21875 34.167969 C 78.738281 33.53125 78.183594 32.953125 77.675781 32.335938 C 77.597656 32.238281 77.464844 32.378906 77.539062 32.472656 C 78.015625 33.085938 78.476562 33.710938 78.933594 34.335938 Z M 78.625 36.9375 C 78.707031 37.09375 78.929688 36.957031 78.859375 36.800781 C 78.460938 35.917969 77.800781 35.191406 77.074219 34.570312 C 77 34.503906 76.890625 34.613281 76.964844 34.679688 C 77.675781 35.300781 78.191406 36.105469 78.621094 36.9375 Z M 85.917969 47.433594 C 85.789062 48.195312 85.554688 48.941406 85.269531 49.660156 C 85.128906 50.015625 84.964844 50.367188 84.785156 50.707031 C 84.691406 50.886719 84.59375 51.058594 84.492188 51.230469 C 84.394531 51.390625 84.273438 51.542969 84.21875 51.722656 C 84.175781 51.867188 84.355469 51.945312 84.457031 51.859375 C 84.601562 51.738281 84.691406 51.5625 84.785156 51.402344 C 84.886719 51.230469 84.984375 51.054688 85.078125 50.878906 C 85.257812 50.535156 85.417969 50.179688 85.5625 49.816406 C 85.851562 49.066406 86.03125 48.292969 86.152344 47.496094 C 86.175781 47.347656 85.945312 47.277344 85.917969 47.433594 Z M 60.710938 61.785156 C 59.074219 63.15625 57.363281 64.445312 55.621094 65.683594 C 54.78125 66.277344 53.933594 66.867188 53.078125 67.4375 C 52.183594 68.035156 51.253906 68.578125 50.367188 69.179688 C 50.191406 69.296875 50.34375 69.570312 50.53125 69.464844 C 51.464844 68.941406 52.359375 68.324219 53.25 67.730469 C 54.140625 67.132812 55.023438 66.519531 55.886719 65.878906 C 57.585938 64.617188 59.222656 63.28125 60.828125 61.898438 C 60.90625 61.832031 60.792969 61.71875 60.710938 61.785156 Z M 60.269531 75.089844 C 59.609375 75.144531 58.957031 75.296875 58.34375 75.550781 C 58.042969 75.671875 57.753906 75.8125 57.480469 75.980469 C 57.335938 76.066406 57.199219 76.15625 57.0625 76.25 C 56.9375 76.339844 56.789062 76.425781 56.703125 76.554688 C 56.648438 76.636719 56.742188 76.777344 56.839844 76.734375 C 56.976562 76.675781 57.082031 76.570312 57.199219 76.484375 C 57.324219 76.390625 57.453125 76.304688 57.585938 76.222656 C 57.851562 76.058594 58.128906 75.914062 58.414062 75.792969 C 59.003906 75.539062 59.628906 75.386719 60.269531 75.335938 C 60.425781 75.320312 60.425781 75.074219 60.269531 75.089844 Z M 37.6875 72.304688 C 38.195312 72.339844 38.6875 72.316406 39.191406 72.40625 C 39.671875 72.492188 40.144531 72.632812 40.597656 72.8125 C 41.535156 73.1875 42.398438 73.777344 43.074219 74.527344 C 43.171875 74.632812 43.328125 74.476562 43.234375 74.367188 C 42.53125 73.570312 41.679688 72.9375 40.703125 72.515625 C 40.21875 72.308594 39.714844 72.160156 39.195312 72.066406 C 38.699219 71.980469 38.144531 71.90625 37.644531 71.988281 C 37.457031 72.019531 37.519531 72.292969 37.6875 72.304688 Z M 141.339844 54.75 C 141.296875 55.683594 141.21875 56.613281 141.183594 57.546875 C 141.167969 58.011719 141.152344 58.480469 141.140625 58.945312 C 141.132812 59.160156 141.125 59.375 141.121094 59.589844 C 141.113281 59.8125 141.066406 60.0625 141.148438 60.269531 C 141.179688 60.363281 141.332031 60.414062 141.382812 60.300781 C 141.46875 60.109375 141.449219 59.910156 141.457031 59.699219 C 141.464844 59.484375 141.472656 59.269531 141.476562 59.054688 C 141.492188 58.570312 141.503906 58.085938 141.519531 57.601562 C 141.542969 56.648438 141.519531 55.699219 141.535156 54.75 C 141.535156 54.625 141.347656 54.625 141.339844 54.75 Z M 143.265625 54.71875 C 143.277344 54.605469 143.078125 54.578125 143.0625 54.691406 C 142.945312 55.546875 142.8125 56.40625 142.769531 57.269531 C 142.746094 57.699219 142.734375 58.125 142.734375 58.550781 C 142.734375 58.78125 142.738281 59.011719 142.742188 59.242188 C 142.746094 59.433594 142.714844 59.632812 142.824219 59.792969 C 142.875 59.867188 142.984375 59.875 143.03125 59.792969 C 143.128906 59.621094 143.085938 59.4375 143.082031 59.242188 C 143.078125 59.046875 143.078125 58.847656 143.074219 58.652344 C 143.074219 58.207031 143.082031 57.761719 143.101562 57.320312 C 143.132812 56.449219 143.160156 55.582031 143.265625 54.71875 Z M 115.332031 24.011719 C 114.941406 23.785156 114.53125 23.578125 114.113281 23.402344 C 113.882812 23.304688 113.652344 23.21875 113.417969 23.136719 C 113.210938 23.066406 112.96875 22.960938 112.746094 22.972656 C 112.636719 22.976562 112.601562 23.113281 112.691406 23.171875 C 112.859375 23.28125 113.082031 23.320312 113.269531 23.382812 C 113.492188 23.457031 113.714844 23.539062 113.929688 23.625 C 114.367188 23.804688 114.789062 24.011719 115.199219 24.242188 C 116 24.707031 116.75 25.269531 117.40625 25.921875 C 117.507812 26.023438 117.660156 25.871094 117.5625 25.769531 C 116.894531 25.085938 116.15625 24.492188 115.332031 24.011719 Z M 96.023438 39.242188 C 95.914062 39.191406 95.855469 39.0625 95.816406 38.957031 C 95.78125 38.851562 95.640625 38.847656 95.605469 38.957031 C 95.488281 39.304688 95.828125 39.546875 96.136719 39.574219 C 96.234375 39.585938 96.328125 39.578125 96.417969 39.628906 C 96.476562 39.664062 96.519531 39.710938 96.566406 39.757812 C 96.660156 39.855469 96.757812 39.953125 96.886719 39.996094 C 97.03125 40.042969 97.175781 40.011719 97.300781 39.933594 C 97.367188 39.890625 97.421875 39.835938 97.492188 39.796875 C 97.574219 39.75 97.664062 39.753906 97.757812 39.753906 C 97.914062 39.757812 98.066406 39.75 98.203125 39.664062 C 98.332031 39.585938 98.421875 39.460938 98.464844 39.320312 C 98.503906 39.199219 98.316406 39.148438 98.277344 39.265625 C 98.234375 39.390625 98.132812 39.492188 98.003906 39.523438 C 97.863281 39.554688 97.722656 39.503906 97.582031 39.511719 C 97.453125 39.519531 97.34375 39.570312 97.234375 39.628906 C 97.140625 39.683594 97.058594 39.746094 96.949219 39.691406 C 96.765625 39.59375 96.652344 39.402344 96.449219 39.332031 C 96.3125 39.28125 96.152344 39.304688 96.023438 39.242188 Z M 129.136719 27.726562 C 128.824219 27.859375 128.640625 28.253906 128.289062 28.308594 C 127.890625 28.375 127.964844 27.835938 127.96875 27.589844 C 127.984375 26.820312 127.921875 26.070312 127.632812 25.347656 C 127.585938 25.234375 127.402344 25.28125 127.445312 25.402344 C 127.597656 25.835938 127.644531 26.304688 127.65625 26.765625 C 127.660156 26.984375 127.660156 27.207031 127.652344 27.425781 C 127.648438 27.628906 127.625 27.835938 127.648438 28.039062 C 127.6875 28.40625 127.9375 28.699219 128.335938 28.640625 C 128.519531 28.613281 128.679688 28.507812 128.816406 28.386719 C 128.96875 28.246094 129.171875 28.078125 129.257812 27.890625 C 129.292969 27.816406 129.234375 27.6875 129.136719 27.730469 Z M 82.664062 5.777344 C 82.464844 5.480469 82.269531 5.1875 82.132812 4.851562 C 81.996094 4.515625 81.917969 4.164062 81.898438 3.800781 C 81.894531 3.695312 81.730469 3.695312 81.730469 3.800781 C 81.738281 4.554688 81.929688 5.378906 82.40625 5.976562 C 82.523438 6.125 82.769531 5.933594 82.664062 5.777344 Z M 80.03125 11.117188 C 81.253906 12.109375 83.101562 12.597656 84.433594 11.511719 C 85.105469 10.96875 85.433594 10.066406 85.230469 9.21875 C 85.175781 9.007812 84.847656 9.097656 84.898438 9.3125 C 85.109375 10.183594 84.636719 11.066406 83.863281 11.488281 C 83.085938 11.910156 82.144531 11.859375 81.34375 11.527344 C 80.539062 11.1875 79.734375 10.570312 79.34375 9.773438 C 79.003906 9.085938 78.679688 7.726562 79.410156 7.164062 C 79.496094 7.097656 79.414062 6.949219 79.320312 7.015625 C 78.710938 7.449219 78.675781 8.292969 78.761719 8.972656 C 78.871094 9.847656 79.355469 10.566406 80.03125 11.117188 Z M 84.320312 4.855469 C 84.667969 4.640625 84.992188 4.363281 85.328125 4.128906 C 85.667969 3.886719 86.007812 3.652344 86.355469 3.425781 C 87.050781 2.972656 87.765625 2.554688 88.511719 2.1875 C 88.582031 2.148438 88.519531 2.046875 88.449219 2.078125 C 87.6875 2.441406 86.933594 2.820312 86.203125 3.238281 C 85.839844 3.441406 85.488281 3.65625 85.140625 3.878906 C 84.796875 4.101562 84.425781 4.328125 84.125 4.601562 C 83.988281 4.722656 84.164062 4.949219 84.320312 4.855469 Z M 84.703125 5.84375 C 84.519531 5.953125 84.679688 6.214844 84.867188 6.128906 C 85.636719 5.773438 86.378906 5.367188 87.164062 5.042969 C 87.933594 4.726562 88.71875 4.457031 89.519531 4.230469 C 89.613281 4.203125 89.574219 4.054688 89.476562 4.078125 C 88.644531 4.285156 87.820312 4.53125 87.011719 4.828125 C 86.234375 5.113281 85.417969 5.421875 84.703125 5.84375 Z M 88.847656 6.710938 C 88.195312 6.703125 87.546875 6.773438 86.898438 6.863281 C 86.574219 6.910156 86.25 6.964844 85.929688 7.015625 C 85.628906 7.066406 85.25 7.074219 84.980469 7.214844 C 84.855469 7.28125 84.925781 7.445312 85.042969 7.457031 C 85.328125 7.480469 85.65625 7.359375 85.929688 7.296875 C 86.25 7.226562 86.566406 7.15625 86.886719 7.089844 C 87.535156 6.957031 88.1875 6.855469 88.847656 6.84375 C 88.933594 6.84375 88.933594 6.714844 88.847656 6.714844 Z M 89.9375 30.257812 C 89.976562 30.953125 89.886719 31.632812 89.722656 32.304688 C 89.640625 32.628906 89.542969 32.945312 89.425781 33.257812 C 89.363281 33.414062 89.300781 33.570312 89.226562 33.722656 C 89.160156 33.867188 89.074219 33.988281 89.105469 34.148438 C 89.125 34.230469 89.214844 34.246094 89.28125 34.21875 C 89.433594 34.15625 89.484375 33.976562 89.550781 33.832031 C 89.625 33.671875 89.691406 33.511719 89.753906 33.347656 C 89.871094 33.023438 89.964844 32.691406 90.03125 32.355469 C 90.160156 31.664062 90.167969 30.957031 90.109375 30.257812 C 90.097656 30.152344 89.929688 30.148438 89.9375 30.257812 Z M 94.875 35.277344 C 95.582031 34.988281 96.15625 34.472656 96.527344 33.8125 C 96.53125 34.046875 96.503906 34.28125 96.445312 34.511719 C 96.402344 34.675781 96.34375 34.835938 96.265625 34.988281 C 96.183594 35.144531 96.074219 35.277344 95.988281 35.429688 C 95.953125 35.496094 96.03125 35.59375 96.097656 35.539062 C 96.246094 35.429688 96.351562 35.265625 96.4375 35.109375 C 96.535156 34.941406 96.613281 34.757812 96.664062 34.570312 C 96.769531 34.199219 96.773438 33.804688 96.6875 33.429688 C 96.664062 33.328125 96.53125 33.347656 96.496094 33.429688 C 96.199219 34.191406 95.566406 34.820312 94.824219 35.15625 C 94.753906 35.1875 94.804688 35.308594 94.875 35.277344 Z M 97.671875 34.433594 C 97.714844 34.585938 97.746094 34.738281 97.769531 34.894531 C 97.789062 35.042969 97.765625 35.222656 97.832031 35.359375 C 97.851562 35.40625 97.929688 35.40625 97.953125 35.359375 C 98.019531 35.21875 97.980469 35.03125 97.960938 34.878906 C 97.9375 34.710938 97.902344 34.546875 97.851562 34.382812 C 97.75 34.0625 97.597656 33.753906 97.402344 33.480469 C 97.34375 33.394531 97.203125 33.472656 97.261719 33.5625 C 97.445312 33.828125 97.582031 34.121094 97.671875 34.433594 Z M 98.675781 34.574219 C 98.761719 34.691406 98.859375 34.796875 98.96875 34.890625 C 99.019531 34.933594 99.074219 34.976562 99.132812 35.015625 C 99.1875 35.058594 99.265625 35.125 99.335938 35.117188 C 99.402344 35.109375 99.441406 35.050781 99.410156 34.988281 C 99.378906 34.929688 99.296875 34.902344 99.242188 34.863281 C 99.1875 34.828125 99.132812 34.789062 99.082031 34.746094 C 98.980469 34.65625 98.886719 34.558594 98.796875 34.457031 C 98.617188 34.246094 98.472656 34.007812 98.351562 33.757812 C 98.316406 33.6875 98.210938 33.75 98.242188 33.824219 C 98.363281 34.085938 98.5 34.34375 98.675781 34.574219 Z M 131.566406 31.144531 C 131.351562 31.351562 131.171875 31.597656 130.902344 31.734375 C 130.636719 31.871094 130.347656 31.863281 130.058594 31.839844 C 129.984375 31.832031 129.957031 31.945312 130.019531 31.980469 C 130.316406 32.140625 130.691406 32.09375 130.988281 31.953125 C 131.292969 31.808594 131.53125 31.539062 131.707031 31.253906 C 131.761719 31.167969 131.636719 31.078125 131.566406 31.144531 Z M 43.3125 90.191406 C 43.160156 90.25 43.046875 90.375 42.953125 90.507812 C 42.4375 91.257812 42.476562 92.246094 42.226562 93.121094 C 41.882812 94.308594 41.003906 95.265625 40.082031 96.09375 C 39.160156 96.921875 38.15625 97.683594 37.441406 98.691406 L 44.648438 93.1875 C 44.890625 92.347656 44.742188 91.402344 44.253906 90.675781 C 44.039062 90.359375 43.667969 90.058594 43.3125 90.191406 Z M 62.066406 94.554688 L 60.4375 95.804688 C 61.035156 95.46875 61.597656 95.050781 62.066406 94.554688 Z M 64.050781 89.257812 C 63.933594 89.203125 63.796875 89.171875 63.671875 89.203125 C 63.449219 89.261719 63.320312 89.496094 63.269531 89.71875 C 63.152344 90.234375 63.308594 90.765625 63.347656 91.289062 C 63.414062 92.230469 63.097656 93.179688 62.554688 93.957031 C 62.40625 94.167969 62.242188 94.367188 62.066406 94.554688 L 65.304688 92.066406 C 65.28125 91.386719 65.109375 90.710938 64.808594 90.101562 C 64.636719 89.757812 64.402344 89.414062 64.050781 89.257812 Z M 64.050781 89.257812 " fill-opacity="1" fill-rule="nonzero"/><path fill="#fe9683" d="M 50.027344 38.589844 C 50.097656 38.949219 50.242188 39.304688 50.289062 39.667969 C 50.308594 39.820312 50.078125 39.867188 50.007812 39.742188 C 49.820312 39.414062 49.753906 38.972656 49.683594 38.601562 C 49.613281 38.238281 49.566406 37.867188 49.550781 37.496094 C 49.515625 36.722656 49.605469 35.9375 49.761719 35.179688 C 49.789062 35.039062 50 35.101562 49.972656 35.238281 C 49.828125 35.984375 49.804688 36.738281 49.871094 37.496094 C 49.902344 37.863281 49.953125 38.230469 50.027344 38.59375 Z M 53.902344 37.710938 C 53.785156 37.582031 53.671875 37.445312 53.5625 37.308594 C 53.335938 37.015625 53.136719 36.703125 52.957031 36.378906 C 52.605469 35.730469 52.339844 35.054688 52.230469 34.320312 C 52.214844 34.222656 52.039062 34.242188 52.054688 34.34375 C 52.148438 35.089844 52.339844 35.835938 52.667969 36.511719 C 52.835938 36.851562 53.035156 37.171875 53.261719 37.472656 C 53.375 37.621094 53.496094 37.769531 53.621094 37.90625 C 53.734375 38.035156 53.871094 38.230469 54.042969 38.269531 C 54.148438 38.292969 54.242188 38.207031 54.214844 38.101562 C 54.175781 37.941406 54.011719 37.828125 53.902344 37.710938 Z M 44.417969 51.824219 C 44.300781 51.808594 44.234375 51.917969 44.164062 51.992188 C 43.910156 52.273438 43.640625 52.527344 43.332031 52.746094 C 42.992188 52.988281 42.617188 53.203125 42.222656 53.347656 C 42.042969 53.414062 42.117188 53.699219 42.300781 53.632812 C 43.023438 53.378906 43.675781 52.988281 44.214844 52.4375 C 44.273438 52.375 44.335938 52.3125 44.390625 52.246094 C 44.453125 52.175781 44.554688 52.078125 44.554688 51.980469 C 44.554688 51.894531 44.496094 51.832031 44.417969 51.824219 Z M 46.910156 38.214844 C 45.660156 40.089844 44.539062 42.105469 44.074219 44.328125 C 43.875 45.292969 43.78125 46.320312 44.066406 47.273438 C 44.054688 47.277344 44.046875 47.28125 44.035156 47.289062 C 42.9375 48.210938 41.589844 49.019531 40.109375 49.042969 C 39.492188 49.050781 38.867188 48.917969 38.320312 48.632812 C 38.050781 48.496094 37.800781 48.320312 37.582031 48.109375 C 37.367188 47.894531 37.222656 47.632812 37.027344 47.40625 C 36.933594 47.296875 36.761719 47.414062 36.796875 47.542969 C 36.949219 48.136719 37.589844 48.628906 38.105469 48.90625 C 38.6875 49.214844 39.355469 49.375 40.015625 49.371094 C 41.589844 49.367188 42.984375 48.46875 44.136719 47.46875 C 44.160156 47.535156 44.179688 47.597656 44.207031 47.664062 C 44.40625 48.132812 44.699219 48.554688 44.925781 49.011719 C 45.226562 49.609375 45.25 50.199219 45.269531 50.851562 C 45.300781 52.152344 45.632812 53.417969 46.222656 54.578125 C 46.324219 54.773438 46.617188 54.601562 46.519531 54.40625 C 45.984375 53.359375 45.667969 52.210938 45.613281 51.039062 C 45.589844 50.507812 45.625 49.96875 45.472656 49.457031 C 45.332031 48.984375 45.070312 48.566406 44.832031 48.140625 C 44.222656 47.070312 44.128906 45.96875 44.308594 44.765625 C 44.46875 43.667969 44.808594 42.597656 45.25 41.582031 C 45.75 40.433594 46.375 39.347656 47.050781 38.296875 C 47.109375 38.210938 46.96875 38.128906 46.910156 38.214844 Z M 56.484375 33.886719 C 56.054688 33.957031 55.636719 34.128906 55.28125 34.382812 C 54.914062 34.640625 54.644531 34.96875 54.402344 35.339844 C 54.3125 35.472656 54.546875 35.605469 54.613281 35.464844 C 54.789062 35.101562 55.09375 34.789062 55.421875 34.5625 C 55.757812 34.324219 56.136719 34.164062 56.539062 34.09375 C 56.675781 34.066406 56.617188 33.863281 56.484375 33.886719 Z M 71.925781 21.183594 C 71.808594 21.183594 71.6875 21.1875 71.570312 21.195312 C 71.3125 21.214844 71.058594 21.25 70.804688 21.296875 C 70.300781 21.394531 69.816406 21.542969 69.347656 21.746094 C 69.214844 21.804688 69.308594 22.039062 69.445312 21.984375 C 69.890625 21.796875 70.355469 21.65625 70.828125 21.574219 C 71.066406 21.53125 71.304688 21.503906 71.546875 21.488281 C 71.664062 21.480469 71.78125 21.476562 71.898438 21.472656 C 72.015625 21.46875 72.136719 21.496094 72.234375 21.425781 C 72.285156 21.390625 72.320312 21.296875 72.257812 21.25 C 72.15625 21.171875 72.050781 21.183594 71.925781 21.183594 Z M 123.558594 68.636719 C 122.894531 69.101562 122.019531 69.601562 121.214844 69.179688 C 120.605469 68.859375 120.136719 68.214844 119.78125 67.648438 C 119.429688 67.085938 119.140625 66.484375 118.816406 65.902344 C 118.660156 65.621094 118.496094 65.339844 118.3125 65.074219 C 118.140625 64.820312 117.953125 64.515625 117.699219 64.339844 C 117.570312 64.253906 117.421875 64.421875 117.492188 64.546875 C 117.679688 64.871094 117.964844 65.148438 118.164062 65.464844 C 118.355469 65.765625 118.527344 66.074219 118.691406 66.390625 C 119.046875 67.046875 119.382812 67.722656 119.832031 68.324219 C 120.242188 68.867188 120.816406 69.46875 121.523438 69.574219 C 122.3125 69.695312 123.042969 69.242188 123.652344 68.792969 C 123.742188 68.726562 123.65625 68.570312 123.558594 68.636719 Z M 128.3125 60.945312 C 127.855469 59.839844 126.875 59.0625 125.925781 58.398438 C 125.328125 57.984375 124.714844 57.597656 124.105469 57.210938 C 123.488281 56.816406 122.785156 56.464844 122.230469 55.988281 C 121.769531 55.59375 121.527344 54.976562 121.113281 54.53125 C 120.703125 54.089844 120.226562 53.710938 119.722656 53.378906 C 119.082031 52.953125 118.390625 52.601562 117.710938 52.238281 C 117.335938 52.039062 116.960938 51.84375 116.601562 51.621094 C 116.289062 51.429688 115.800781 51.183594 115.722656 50.789062 C 117.238281 51.003906 118.289062 52.238281 119.5 53.058594 C 119.558594 53.101562 119.65625 53.0625 119.671875 52.992188 C 119.84375 52.179688 119.257812 51.414062 118.757812 50.832031 C 118.195312 50.175781 117.503906 49.640625 116.738281 49.242188 C 116.667969 49.203125 116.601562 49.3125 116.675781 49.351562 C 117.328125 49.703125 117.921875 50.15625 118.417969 50.710938 C 118.882812 51.230469 119.523438 52.003906 119.472656 52.757812 C 118.265625 51.886719 117.175781 50.660156 115.605469 50.566406 C 115.550781 50.5625 115.5 50.613281 115.5 50.667969 C 115.53125 51.1875 115.992188 51.476562 116.386719 51.742188 C 116.964844 52.132812 117.570312 52.476562 118.179688 52.816406 C 119.320312 53.453125 120.519531 54.140625 121.296875 55.222656 C 121.460938 55.453125 121.589844 55.710938 121.75 55.945312 C 121.917969 56.1875 122.144531 56.355469 122.390625 56.519531 C 122.992188 56.914062 123.605469 57.296875 124.210938 57.683594 C 125.324219 58.394531 126.535156 59.085938 127.414062 60.089844 C 127.890625 60.636719 128.25 61.304688 128.246094 62.042969 C 128.246094 62.847656 127.851562 63.578125 127.449219 64.25 C 127.367188 64.382812 127.574219 64.5 127.660156 64.371094 C 128.34375 63.347656 128.8125 62.148438 128.3125 60.945312 Z M 76.59375 18.417969 C 76.410156 18.296875 76.230469 18.160156 76.058594 18.015625 C 75.722656 17.738281 75.421875 17.421875 75.148438 17.082031 C 74.59375 16.390625 74.175781 15.585938 73.957031 14.726562 C 73.925781 14.59375 73.722656 14.648438 73.753906 14.78125 C 73.953125 15.6875 74.335938 16.542969 74.894531 17.28125 C 75.164062 17.636719 75.476562 17.96875 75.820312 18.257812 C 75.988281 18.402344 76.164062 18.535156 76.347656 18.660156 C 76.511719 18.773438 76.753906 18.992188 76.960938 18.976562 C 77.066406 18.96875 77.128906 18.867188 77.078125 18.769531 C 76.992188 18.605469 76.746094 18.519531 76.59375 18.417969 Z M 66.9375 33.972656 C 66.265625 34.855469 65.644531 35.773438 65.09375 36.734375 C 64.558594 37.664062 64.027344 38.640625 63.664062 39.648438 C 63.617188 39.78125 63.835938 39.875 63.894531 39.746094 C 64.34375 38.746094 64.753906 37.746094 65.285156 36.789062 C 65.8125 35.835938 66.40625 34.917969 67.058594 34.042969 C 67.113281 33.972656 66.992188 33.902344 66.9375 33.972656 Z M 59.8125 32.710938 C 59.351562 34.085938 59.035156 35.550781 59 37.003906 C 58.992188 37.199219 59.285156 37.195312 59.300781 37.003906 C 59.402344 35.5625 59.625 34.160156 60.078125 32.785156 C 60.136719 32.613281 59.867188 32.542969 59.8125 32.710938 Z M 59.8125 32.710938 " fill-opacity="1" fill-rule="nonzero"/><path fill="#d93223" d="M 149.734375 34.160156 C 149.398438 36.375 147.972656 38.210938 146.34375 39.667969 C 145.425781 40.496094 144.421875 41.222656 143.289062 41.734375 C 142.769531 41.96875 142.226562 42.164062 141.675781 42.316406 C 141.242188 42.429688 140.726562 42.589844 140.25 42.597656 C 140.359375 42.824219 140.464844 43.054688 140.570312 43.28125 C 140.660156 43.476562 140.371094 43.648438 140.277344 43.453125 C 140.136719 43.144531 139.988281 42.835938 139.84375 42.53125 C 139.835938 42.53125 139.832031 42.53125 139.824219 42.527344 C 139.316406 42.324219 138.871094 42.019531 138.449219 41.679688 C 138.0625 41.363281 137.699219 41.023438 137.324219 40.695312 C 137.226562 40.613281 137.132812 40.519531 137.023438 40.453125 C 136.917969 40.394531 136.71875 40.339844 136.761719 40.539062 C 136.8125 40.761719 137.070312 40.964844 137.222656 41.117188 C 137.582031 41.484375 137.96875 41.820312 138.386719 42.117188 C 138.804688 42.414062 139.253906 42.644531 139.6875 42.90625 C 139.835938 42.996094 139.738281 43.265625 139.566406 43.199219 C 138.960938 42.964844 138.402344 42.554688 137.902344 42.144531 C 137.460938 41.777344 137.015625 41.359375 136.683594 40.886719 C 136.566406 40.722656 136.460938 40.464844 136.609375 40.289062 C 136.765625 40.109375 137.007812 40.160156 137.183594 40.273438 C 137.414062 40.425781 137.617188 40.632812 137.816406 40.820312 C 138.023438 41.011719 138.230469 41.207031 138.441406 41.394531 C 138.835938 41.746094 139.257812 42.066406 139.734375 42.296875 C 139.222656 41.207031 138.75 40.097656 138.625 38.886719 C 138.464844 37.328125 138.824219 35.757812 139.464844 34.339844 C 139.503906 34.253906 139.628906 34.328125 139.59375 34.417969 C 138.976562 35.828125 138.761719 37.394531 138.957031 38.921875 C 139.109375 40.113281 139.589844 41.203125 140.097656 42.28125 C 140.335938 42.21875 140.589844 42.207031 140.828125 42.160156 C 141.101562 42.109375 141.375 42.042969 141.644531 41.96875 C 142.203125 41.816406 142.753906 41.613281 143.28125 41.363281 C 144.355469 40.855469 145.3125 40.152344 146.199219 39.367188 C 147.773438 37.976562 149.203125 36.242188 149.554688 34.113281 C 149.574219 33.992188 149.753906 34.046875 149.734375 34.160156 Z M 120.558594 37.316406 C 120.414062 36.664062 120.265625 35.992188 120.429688 35.324219 C 120.453125 35.226562 120.304688 35.1875 120.28125 35.285156 C 120.109375 35.917969 120.179688 36.566406 120.273438 37.207031 C 120.324219 37.558594 120.378906 37.910156 120.4375 38.261719 C 120.46875 38.441406 120.5 38.617188 120.53125 38.792969 C 120.558594 38.953125 120.570312 39.128906 120.65625 39.273438 C 120.714844 39.367188 120.894531 39.363281 120.914062 39.238281 C 120.964844 38.953125 120.839844 38.609375 120.78125 38.328125 C 120.710938 37.988281 120.636719 37.65625 120.558594 37.316406 Z M 120.683594 27.558594 C 120.773438 27.46875 120.636719 27.332031 120.542969 27.417969 C 119.253906 28.609375 118.34375 30.167969 117.636719 31.761719 C 116.890625 33.441406 116.300781 35.285156 116.71875 37.132812 C 116.765625 37.34375 117.09375 37.253906 117.046875 37.039062 C 116.636719 35.207031 117.285156 33.378906 118 31.710938 C 118.65625 30.179688 119.460938 28.710938 120.683594 27.558594 Z M 129.9375 35.46875 C 129.453125 36.722656 129.082031 38.019531 128.84375 39.34375 C 128.613281 40.628906 128.585938 41.917969 128.476562 43.214844 C 128.367188 44.515625 127.988281 45.71875 127.511719 46.925781 C 127.054688 48.089844 126.5625 49.25 126.335938 50.484375 C 126.296875 50.699219 126.625 50.792969 126.667969 50.578125 C 127.117188 48.125 128.546875 45.984375 128.792969 43.476562 C 128.925781 42.125 128.929688 40.769531 129.140625 39.425781 C 129.351562 38.09375 129.695312 36.792969 130.160156 35.53125 C 130.214844 35.390625 129.988281 35.332031 129.9375 35.46875 Z M 85.445312 65.976562 C 85.042969 65.5 84.59375 65.066406 84.105469 64.679688 C 83.886719 64.503906 83.65625 64.335938 83.421875 64.183594 C 83.179688 64.023438 82.898438 63.804688 82.613281 63.738281 C 82.511719 63.714844 82.417969 63.847656 82.503906 63.925781 C 82.707031 64.109375 82.988281 64.21875 83.222656 64.367188 C 83.476562 64.527344 83.71875 64.699219 83.957031 64.886719 C 84.414062 65.246094 84.835938 65.652344 85.214844 66.089844 C 86 67 86.605469 68.054688 86.984375 69.195312 C 87.027344 69.324219 87.230469 69.269531 87.191406 69.136719 C 86.820312 67.980469 86.226562 66.90625 85.445312 65.976562 Z M 109.1875 91.347656 C 108.808594 92.234375 107.921875 92.761719 106.992188 92.894531 C 106.433594 92.976562 105.855469 92.914062 105.304688 92.789062 C 105.039062 92.726562 104.777344 92.648438 104.515625 92.5625 C 104.25 92.472656 103.980469 92.332031 103.703125 92.304688 C 103.554688 92.289062 103.542969 92.480469 103.636719 92.550781 C 103.878906 92.738281 104.234375 92.820312 104.527344 92.910156 C 104.835938 93.007812 105.152344 93.089844 105.46875 93.144531 C 106.042969 93.246094 106.636719 93.269531 107.207031 93.144531 C 108.152344 92.941406 109.019531 92.351562 109.386719 91.433594 C 109.429688 91.320312 109.234375 91.234375 109.1875 91.347656 Z M 84.4375 82.785156 C 84.371094 83.824219 83.488281 84.484375 82.679688 84.996094 C 81.828125 85.53125 80.886719 85.953125 79.867188 85.691406 C 79.671875 85.644531 79.597656 85.925781 79.785156 85.992188 C 80.875 86.378906 82.003906 85.796875 82.898438 85.199219 C 83.742188 84.632812 84.597656 83.878906 84.625 82.785156 C 84.628906 82.664062 84.445312 82.664062 84.4375 82.785156 Z M 137.027344 29.425781 C 136.988281 29.339844 136.84375 29.382812 136.851562 29.472656 C 136.875 29.875 136.933594 30.261719 136.898438 30.664062 C 136.863281 31.089844 136.757812 31.511719 136.609375 31.914062 C 136.316406 32.695312 135.84375 33.394531 135.347656 34.054688 C 134.4375 35.269531 133.414062 36.429688 132.15625 37.289062 C 131.988281 36.300781 131.683594 35.164062 130.828125 34.566406 C 130.683594 34.46875 130.535156 34.683594 130.648438 34.800781 C 131.007812 35.183594 131.304688 35.5625 131.496094 36.054688 C 131.695312 36.554688 131.796875 37.085938 131.878906 37.617188 C 131.894531 37.71875 132.039062 37.769531 132.117188 37.714844 C 133.554688 36.785156 134.6875 35.484375 135.695312 34.117188 C 136.203125 33.429688 136.667969 32.699219 136.949219 31.882812 C 137.207031 31.132812 137.367188 30.171875 137.023438 29.425781 Z M 126.699219 36.488281 C 127.121094 35.863281 127.59375 35.277344 128.117188 34.734375 C 128.238281 34.609375 128.363281 34.484375 128.488281 34.363281 C 128.667969 34.1875 128.808594 34.027344 129.085938 34.167969 C 129.386719 34.320312 129.515625 34.621094 129.777344 34.800781 C 129.832031 34.839844 129.910156 34.789062 129.910156 34.722656 C 129.902344 34.378906 129.515625 34.066406 129.230469 33.921875 C 128.839844 33.71875 128.621094 33.851562 128.320312 34.125 C 127.722656 34.660156 127.199219 35.273438 126.730469 35.921875 C 126.753906 35.144531 126.820312 34.367188 126.949219 33.597656 C 127.023438 33.160156 127.109375 32.722656 127.210938 32.292969 C 127.316406 31.859375 127.476562 31.421875 127.527344 30.976562 C 127.535156 30.910156 127.433594 30.890625 127.398438 30.945312 C 127.171875 31.324219 127.066406 31.792969 126.953125 32.21875 C 126.832031 32.683594 126.730469 33.148438 126.652344 33.621094 C 126.496094 34.542969 126.421875 35.476562 126.417969 36.414062 C 126.417969 36.570312 126.621094 36.609375 126.699219 36.488281 Z M 65.460938 45.71875 C 65.0625 45.714844 64.671875 45.738281 64.277344 45.710938 C 64.308594 45.613281 64.339844 45.515625 64.371094 45.414062 C 64.441406 45.207031 64.503906 45 64.570312 44.789062 C 64.683594 44.417969 64.839844 44.003906 64.777344 43.605469 C 64.765625 43.535156 64.65625 43.542969 64.640625 43.605469 C 64.589844 43.792969 64.554688 43.984375 64.496094 44.171875 C 64.433594 44.363281 64.371094 44.550781 64.304688 44.742188 C 64.238281 44.941406 64.167969 45.140625 64.101562 45.339844 C 64.070312 45.441406 64.035156 45.539062 64.003906 45.640625 C 64 45.65625 63.992188 45.671875 63.988281 45.683594 C 63.570312 45.628906 63.160156 45.535156 62.761719 45.402344 C 62.40625 45.285156 62.058594 45.132812 61.726562 44.957031 C 61.738281 44.929688 61.753906 44.90625 61.769531 44.878906 C 61.8125 44.800781 61.855469 44.722656 61.898438 44.644531 C 61.984375 44.488281 62.066406 44.328125 62.140625 44.164062 C 62.289062 43.847656 62.429688 43.515625 62.472656 43.164062 C 62.484375 43.070312 62.347656 43.066406 62.320312 43.144531 C 62.199219 43.46875 62.085938 43.789062 61.929688 44.097656 C 61.851562 44.246094 61.773438 44.394531 61.691406 44.542969 C 61.648438 44.617188 61.609375 44.6875 61.566406 44.761719 C 61.550781 44.789062 61.535156 44.820312 61.515625 44.847656 C 61.148438 44.632812 60.796875 44.390625 60.472656 44.113281 C 60.109375 43.796875 59.78125 43.4375 59.492188 43.046875 C 59.515625 43.042969 59.535156 43.035156 59.554688 43.023438 C 59.621094 42.988281 59.671875 42.917969 59.722656 42.867188 C 59.828125 42.753906 59.933594 42.636719 60.035156 42.523438 C 60.132812 42.410156 60.234375 42.296875 60.328125 42.179688 C 60.378906 42.117188 60.429688 42.054688 60.476562 41.988281 C 60.523438 41.925781 60.558594 41.855469 60.601562 41.792969 C 60.640625 41.730469 60.550781 41.664062 60.5 41.714844 C 60.449219 41.765625 60.390625 41.804688 60.339844 41.855469 C 60.292969 41.90625 60.246094 41.953125 60.199219 42.003906 C 60.101562 42.105469 60.007812 42.214844 59.90625 42.316406 C 59.8125 42.417969 59.714844 42.519531 59.617188 42.617188 C 59.570312 42.667969 59.523438 42.714844 59.476562 42.761719 C 59.4375 42.800781 59.394531 42.828125 59.355469 42.863281 C 58.664062 41.871094 58.21875 40.695312 58.085938 39.507812 C 58.078125 39.4375 57.96875 39.433594 57.972656 39.507812 C 58.035156 41.390625 58.851562 43.144531 60.292969 44.375 C 60.988281 44.972656 61.800781 45.429688 62.675781 45.71875 C 63.113281 45.863281 63.5625 45.964844 64.019531 46.019531 C 64.492188 46.078125 65.039062 46.140625 65.496094 45.980469 C 65.632812 45.929688 65.617188 45.722656 65.460938 45.71875 Z M 52.296875 51.292969 C 52.042969 50.714844 51.820312 50.117188 51.636719 49.507812 C 51.261719 48.285156 51.046875 47.015625 51.015625 45.734375 C 50.953125 43.207031 51.679688 40.804688 52.960938 38.640625 C 53 38.578125 52.90625 38.5 52.859375 38.558594 C 50.351562 41.734375 50.207031 46.292969 51.449219 50 C 51.8125 51.078125 52.269531 52.242188 52.9375 53.171875 C 53.035156 53.3125 53.238281 53.195312 53.164062 53.039062 C 52.890625 52.449219 52.558594 51.890625 52.296875 51.292969 Z M 60.847656 52.304688 C 60.609375 52.796875 60.371094 53.28125 60.027344 53.714844 C 59.863281 53.921875 59.683594 54.117188 59.492188 54.300781 C 59.300781 54.484375 59.0625 54.648438 58.90625 54.859375 C 58.871094 54.902344 58.929688 54.960938 58.976562 54.949219 C 59.230469 54.882812 59.472656 54.675781 59.664062 54.503906 C 59.878906 54.316406 60.074219 54.105469 60.253906 53.882812 C 60.601562 53.441406 60.910156 52.9375 61.054688 52.390625 C 61.085938 52.269531 60.90625 52.183594 60.847656 52.304688 Z M 49.960938 54.886719 C 49.882812 54.839844 49.808594 54.792969 49.738281 54.742188 C 49.59375 54.648438 49.457031 54.546875 49.324219 54.4375 C 49.191406 54.328125 49.066406 54.207031 48.941406 54.085938 C 48.878906 54.027344 48.8125 53.964844 48.753906 53.902344 C 48.695312 53.839844 48.636719 53.757812 48.5625 53.722656 C 48.488281 53.683594 48.414062 53.742188 48.425781 53.824219 C 48.445312 53.917969 48.523438 54 48.582031 54.074219 C 48.632812 54.144531 48.6875 54.214844 48.75 54.28125 C 48.875 54.421875 49.023438 54.550781 49.171875 54.667969 C 49.316406 54.785156 49.472656 54.898438 49.636719 54.988281 C 49.71875 55.035156 49.800781 55.078125 49.886719 55.117188 C 49.972656 55.160156 50.074219 55.210938 50.164062 55.152344 C 50.207031 55.128906 50.214844 55.070312 50.179688 55.035156 C 50.117188 54.976562 50.035156 54.933594 49.960938 54.886719 Z M 84.785156 14.027344 C 84.9375 14.117188 85.125 14.019531 85.140625 13.84375 L 85.257812 12.59375 C 85.285156 12.304688 85.28125 11.949219 85.03125 11.800781 C 84.792969 11.652344 84.457031 11.824219 84.335938 12.074219 C 84.210938 12.328125 84.246094 12.628906 84.300781 12.90625 L 84.269531 12.851562 C 84.210938 12.539062 83.871094 12.308594 83.5625 12.371094 C 83.25 12.433594 83.023438 12.777344 83.089844 13.085938 C 83.230469 13.75 84.191406 13.691406 84.785156 14.027344 Z M 103.882812 53.628906 C 103.730469 53.085938 103.582031 52.523438 103.394531 51.984375 C 103.382812 51.9375 103.363281 51.894531 103.347656 51.851562 C 102.015625 50.976562 100.511719 52.367188 101.933594 53.503906 C 102.429688 53.898438 103.558594 54.21875 104.191406 54.679688 C 104.078125 54.332031 103.976562 53.984375 103.882812 53.628906 Z M 96.792969 52.046875 C 96.390625 50.234375 93.828125 50.3125 94.402344 52.351562 C 94.652344 53.226562 95.453125 54.148438 96.113281 55 C 96.300781 55.242188 96.667969 55.234375 96.851562 54.988281 C 97.128906 54.617188 97.429688 54.355469 97.839844 54.042969 C 98.339844 53.664062 98.929688 53.050781 98.933594 52.394531 C 98.945312 51.085938 97.328125 51.058594 96.792969 52.046875 Z M 92.214844 47.867188 C 92.734375 46.71875 91.433594 45.546875 90.601562 46.6875 C 90.078125 47.40625 90.222656 48.5 90.25 49.328125 C 90.253906 49.503906 90.390625 49.644531 90.566406 49.644531 C 91.558594 49.648438 93.160156 50.175781 93.675781 49.171875 C 94.160156 48.226562 93 47.5625 92.214844 47.867188 Z M 92.214844 47.867188 " fill-opacity="1" fill-rule="nonzero"/></svg>