<svg xmlns="http://www.w3.org/2000/svg" xmlns:xlink="http://www.w3.org/1999/xlink" width="240" zoomAndPan="magnify" viewBox="0 0 180 179.999997" height="240" preserveAspectRatio="xMidYMid meet" version="1.0"><defs><clipPath id="0d91b3d250"><path d="M 18 0 L 162 0 L 162 180 L 18 180 Z M 18 0 " clip-rule="nonzero"/></clipPath></defs><g clip-path="url(#0d91b3d250)"><path fill="currentColor" d="M 117.582031 0.164062 L 42.148438 0.164062 C 28.816406 0.164062 17.96875 11.011719 17.96875 24.34375 L 17.96875 155.65625 C 17.96875 168.988281 28.816406 179.835938 42.148438 179.835938 L 137.855469 179.835938 C 151.183594 179.835938 162.03125 168.992188 162.03125 155.65625 L 162.03125 49.84375 Z M 121.105469 23.214844 L 141.410156 45.910156 L 121.105469 45.910156 Z M 137.851562 167.09375 L 42.148438 167.09375 C 35.84375 167.09375 30.714844 161.964844 30.714844 155.65625 L 30.714844 24.34375 C 30.714844 18.035156 35.84375 12.90625 42.148438 12.90625 L 108.359375 12.90625 L 108.359375 58.652344 L 149.289062 58.652344 L 149.289062 155.65625 C 149.285156 161.964844 144.15625 167.09375 137.851562 167.09375 Z M 137.851562 167.09375 " fill-opacity="1" fill-rule="nonzero"/></g><path fill="currentColor" d="M 44.390625 128.976562 L 135.605469 128.976562 L 135.605469 141.71875 L 44.390625 141.71875 Z M 44.390625 128.976562 " fill-opacity="1" fill-rule="nonzero"/><path fill="currentColor" d="M 44.390625 101.285156 L 135.605469 101.285156 L 135.605469 114.027344 L 44.390625 114.027344 Z M 44.390625 101.285156 " fill-opacity="1" fill-rule="nonzero"/><path fill="currentColor" d="M 44.390625 73.597656 L 135.605469 73.597656 L 135.605469 86.339844 L 44.390625 86.339844 Z M 44.390625 73.597656 " fill-opacity="1" fill-rule="nonzero"/></svg>