<svg xmlns="http://www.w3.org/2000/svg" xmlns:xlink="http://www.w3.org/1999/xlink" width="100" zoomAndPan="magnify" viewBox="0 0 75 74.999997" height="100" preserveAspectRatio="xMidYMid meet" version="1.0"><defs><g/><clipPath id="413ff4a83d"><path d="M 0.664062 0 L 75 0 L 75 74.335938 L 0.664062 74.335938 Z M 0.664062 0 " clip-rule="nonzero"/></clipPath><clipPath id="f71e2cde2b"><path d="M 37.832031 0 C 17.304688 0 0.664062 16.640625 0.664062 37.167969 C 0.664062 57.695312 17.304688 74.335938 37.832031 74.335938 C 58.359375 74.335938 75 57.695312 75 37.167969 C 75 16.640625 58.359375 0 37.832031 0 Z M 37.832031 0 " clip-rule="nonzero"/></clipPath></defs><g clip-path="url(#413ff4a83d)"><g clip-path="url(#f71e2cde2b)"><path fill="#2680e3" d="M 0.664062 0 L 75 0 L 75 74.335938 L 0.664062 74.335938 Z M 0.664062 0 " fill-opacity="1" fill-rule="nonzero"/></g></g><g fill="#ffffff" fill-opacity="1"><g transform="translate(16.062154, 41.999996)"><g><path d="M 6.3125 -12.640625 C 6.3125 -12.523438 6.300781 -12.425781 6.28125 -12.34375 C 6.269531 -12.269531 6.253906 -12.207031 6.234375 -12.15625 C 6.222656 -12.113281 6.203125 -12.082031 6.171875 -12.0625 C 6.148438 -12.050781 6.117188 -12.046875 6.078125 -12.046875 C 6.035156 -12.046875 5.976562 -12.0625 5.90625 -12.09375 C 5.84375 -12.125 5.757812 -12.15625 5.65625 -12.1875 C 5.5625 -12.226562 5.445312 -12.257812 5.3125 -12.28125 C 5.1875 -12.3125 5.035156 -12.328125 4.859375 -12.328125 C 4.617188 -12.328125 4.410156 -12.285156 4.234375 -12.203125 C 4.066406 -12.128906 3.929688 -12.007812 3.828125 -11.84375 C 3.722656 -11.6875 3.644531 -11.472656 3.59375 -11.203125 C 3.550781 -10.941406 3.53125 -10.625 3.53125 -10.25 L 3.53125 -9.28125 L 5.5 -9.28125 C 5.550781 -9.28125 5.59375 -9.269531 5.625 -9.25 C 5.664062 -9.226562 5.695312 -9.1875 5.71875 -9.125 C 5.75 -9.070312 5.773438 -9.003906 5.796875 -8.921875 C 5.816406 -8.835938 5.828125 -8.734375 5.828125 -8.609375 C 5.828125 -8.378906 5.796875 -8.210938 5.734375 -8.109375 C 5.671875 -8.003906 5.59375 -7.953125 5.5 -7.953125 L 3.53125 -7.953125 L 3.53125 -0.25 C 3.53125 -0.195312 3.515625 -0.148438 3.484375 -0.109375 C 3.460938 -0.078125 3.421875 -0.046875 3.359375 -0.015625 C 3.296875 0.00390625 3.210938 0.0195312 3.109375 0.03125 C 3.003906 0.0507812 2.875 0.0625 2.71875 0.0625 C 2.5625 0.0625 2.429688 0.0507812 2.328125 0.03125 C 2.222656 0.0195312 2.140625 0.00390625 2.078125 -0.015625 C 2.023438 -0.046875 1.984375 -0.078125 1.953125 -0.109375 C 1.929688 -0.148438 1.921875 -0.195312 1.921875 -0.25 L 1.921875 -7.953125 L 0.671875 -7.953125 C 0.566406 -7.953125 0.488281 -8.003906 0.4375 -8.109375 C 0.382812 -8.210938 0.359375 -8.378906 0.359375 -8.609375 C 0.359375 -8.734375 0.363281 -8.835938 0.375 -8.921875 C 0.394531 -9.003906 0.414062 -9.070312 0.4375 -9.125 C 0.46875 -9.1875 0.5 -9.226562 0.53125 -9.25 C 0.570312 -9.269531 0.617188 -9.28125 0.671875 -9.28125 L 1.921875 -9.28125 L 1.921875 -10.203125 C 1.921875 -10.804688 1.972656 -11.328125 2.078125 -11.765625 C 2.191406 -12.210938 2.363281 -12.570312 2.59375 -12.84375 C 2.832031 -13.125 3.128906 -13.332031 3.484375 -13.46875 C 3.847656 -13.601562 4.269531 -13.671875 4.75 -13.671875 C 4.976562 -13.671875 5.195312 -13.648438 5.40625 -13.609375 C 5.625 -13.566406 5.789062 -13.519531 5.90625 -13.46875 C 6.019531 -13.425781 6.097656 -13.382812 6.140625 -13.34375 C 6.179688 -13.300781 6.210938 -13.25 6.234375 -13.1875 C 6.265625 -13.125 6.285156 -13.046875 6.296875 -12.953125 C 6.304688 -12.867188 6.3125 -12.765625 6.3125 -12.640625 Z M 6.3125 -12.640625 "/></g></g></g><g fill="#ffffff" fill-opacity="1"><g transform="translate(21.772756, 41.999996)"><g><path d="M 8.109375 -0.234375 C 8.109375 -0.160156 8.082031 -0.101562 8.03125 -0.0625 C 7.976562 -0.0195312 7.90625 0.0078125 7.8125 0.03125 C 7.726562 0.0507812 7.597656 0.0625 7.421875 0.0625 C 7.253906 0.0625 7.117188 0.0507812 7.015625 0.03125 C 6.910156 0.0078125 6.835938 -0.0195312 6.796875 -0.0625 C 6.753906 -0.101562 6.734375 -0.160156 6.734375 -0.234375 L 6.734375 -1.109375 C 6.347656 -0.703125 5.914062 -0.382812 5.4375 -0.15625 C 4.96875 0.0703125 4.472656 0.1875 3.953125 0.1875 C 3.484375 0.1875 3.0625 0.125 2.6875 0 C 2.3125 -0.113281 1.992188 -0.285156 1.734375 -0.515625 C 1.472656 -0.742188 1.269531 -1.023438 1.125 -1.359375 C 0.976562 -1.691406 0.90625 -2.066406 0.90625 -2.484375 C 0.90625 -2.984375 1.003906 -3.414062 1.203125 -3.78125 C 1.398438 -4.144531 1.6875 -4.445312 2.0625 -4.6875 C 2.445312 -4.925781 2.910156 -5.101562 3.453125 -5.21875 C 4.003906 -5.34375 4.617188 -5.40625 5.296875 -5.40625 L 6.515625 -5.40625 L 6.515625 -6.09375 C 6.515625 -6.4375 6.476562 -6.738281 6.40625 -7 C 6.332031 -7.257812 6.21875 -7.472656 6.0625 -7.640625 C 5.90625 -7.816406 5.695312 -7.945312 5.4375 -8.03125 C 5.1875 -8.125 4.875 -8.171875 4.5 -8.171875 C 4.101562 -8.171875 3.742188 -8.117188 3.421875 -8.015625 C 3.109375 -7.921875 2.832031 -7.816406 2.59375 -7.703125 C 2.363281 -7.597656 2.164062 -7.492188 2 -7.390625 C 1.84375 -7.296875 1.726562 -7.25 1.65625 -7.25 C 1.601562 -7.25 1.554688 -7.257812 1.515625 -7.28125 C 1.472656 -7.3125 1.4375 -7.351562 1.40625 -7.40625 C 1.382812 -7.457031 1.363281 -7.523438 1.34375 -7.609375 C 1.332031 -7.691406 1.328125 -7.78125 1.328125 -7.875 C 1.328125 -8.039062 1.335938 -8.171875 1.359375 -8.265625 C 1.378906 -8.359375 1.429688 -8.445312 1.515625 -8.53125 C 1.609375 -8.613281 1.765625 -8.710938 1.984375 -8.828125 C 2.203125 -8.941406 2.445312 -9.046875 2.71875 -9.140625 C 3 -9.234375 3.304688 -9.3125 3.640625 -9.375 C 3.972656 -9.4375 4.3125 -9.46875 4.65625 -9.46875 C 5.28125 -9.46875 5.8125 -9.394531 6.25 -9.25 C 6.695312 -9.113281 7.054688 -8.90625 7.328125 -8.625 C 7.609375 -8.351562 7.804688 -8.007812 7.921875 -7.59375 C 8.046875 -7.1875 8.109375 -6.707031 8.109375 -6.15625 Z M 6.515625 -4.25 L 5.140625 -4.25 C 4.691406 -4.25 4.304688 -4.210938 3.984375 -4.140625 C 3.660156 -4.066406 3.390625 -3.953125 3.171875 -3.796875 C 2.960938 -3.648438 2.804688 -3.472656 2.703125 -3.265625 C 2.597656 -3.066406 2.546875 -2.832031 2.546875 -2.5625 C 2.546875 -2.113281 2.691406 -1.753906 2.984375 -1.484375 C 3.273438 -1.210938 3.679688 -1.078125 4.203125 -1.078125 C 4.617188 -1.078125 5.007812 -1.179688 5.375 -1.390625 C 5.738281 -1.609375 6.117188 -1.941406 6.515625 -2.390625 Z M 6.515625 -4.25 "/></g></g></g><g fill="#ffffff" fill-opacity="1"><g transform="translate(31.349091, 41.999996)"><g><path d="M 7.015625 -2.640625 C 7.015625 -2.191406 6.929688 -1.789062 6.765625 -1.4375 C 6.597656 -1.082031 6.359375 -0.785156 6.046875 -0.546875 C 5.742188 -0.304688 5.378906 -0.125 4.953125 0 C 4.535156 0.125 4.070312 0.1875 3.5625 0.1875 C 3.25 0.1875 2.953125 0.160156 2.671875 0.109375 C 2.390625 0.0664062 2.132812 0.0078125 1.90625 -0.0625 C 1.6875 -0.144531 1.5 -0.226562 1.34375 -0.3125 C 1.1875 -0.394531 1.070312 -0.46875 1 -0.53125 C 0.925781 -0.59375 0.875 -0.679688 0.84375 -0.796875 C 0.8125 -0.921875 0.796875 -1.082031 0.796875 -1.28125 C 0.796875 -1.40625 0.800781 -1.507812 0.8125 -1.59375 C 0.820312 -1.675781 0.835938 -1.742188 0.859375 -1.796875 C 0.878906 -1.847656 0.90625 -1.882812 0.9375 -1.90625 C 0.976562 -1.925781 1.019531 -1.9375 1.0625 -1.9375 C 1.132812 -1.9375 1.238281 -1.894531 1.375 -1.8125 C 1.519531 -1.726562 1.691406 -1.632812 1.890625 -1.53125 C 2.097656 -1.425781 2.34375 -1.328125 2.625 -1.234375 C 2.90625 -1.148438 3.226562 -1.109375 3.59375 -1.109375 C 3.863281 -1.109375 4.109375 -1.132812 4.328125 -1.1875 C 4.554688 -1.25 4.75 -1.335938 4.90625 -1.453125 C 5.070312 -1.566406 5.195312 -1.710938 5.28125 -1.890625 C 5.375 -2.066406 5.421875 -2.273438 5.421875 -2.515625 C 5.421875 -2.753906 5.359375 -2.957031 5.234375 -3.125 C 5.109375 -3.300781 4.941406 -3.453125 4.734375 -3.578125 C 4.523438 -3.710938 4.289062 -3.828125 4.03125 -3.921875 C 3.769531 -4.023438 3.5 -4.132812 3.21875 -4.25 C 2.9375 -4.363281 2.664062 -4.488281 2.40625 -4.625 C 2.144531 -4.757812 1.910156 -4.925781 1.703125 -5.125 C 1.492188 -5.332031 1.320312 -5.578125 1.1875 -5.859375 C 1.0625 -6.140625 1 -6.472656 1 -6.859375 C 1 -7.210938 1.066406 -7.546875 1.203125 -7.859375 C 1.335938 -8.171875 1.535156 -8.445312 1.796875 -8.6875 C 2.066406 -8.925781 2.398438 -9.113281 2.796875 -9.25 C 3.203125 -9.394531 3.671875 -9.46875 4.203125 -9.46875 C 4.441406 -9.46875 4.675781 -9.445312 4.90625 -9.40625 C 5.144531 -9.375 5.359375 -9.328125 5.546875 -9.265625 C 5.734375 -9.210938 5.894531 -9.148438 6.03125 -9.078125 C 6.164062 -9.003906 6.265625 -8.941406 6.328125 -8.890625 C 6.398438 -8.835938 6.445312 -8.789062 6.46875 -8.75 C 6.488281 -8.71875 6.503906 -8.675781 6.515625 -8.625 C 6.523438 -8.582031 6.535156 -8.523438 6.546875 -8.453125 C 6.554688 -8.378906 6.5625 -8.289062 6.5625 -8.1875 C 6.5625 -8.070312 6.554688 -7.972656 6.546875 -7.890625 C 6.535156 -7.816406 6.519531 -7.753906 6.5 -7.703125 C 6.476562 -7.648438 6.453125 -7.609375 6.421875 -7.578125 C 6.390625 -7.554688 6.351562 -7.546875 6.3125 -7.546875 C 6.25 -7.546875 6.160156 -7.582031 6.046875 -7.65625 C 5.941406 -7.726562 5.800781 -7.804688 5.625 -7.890625 C 5.445312 -7.972656 5.238281 -8.046875 5 -8.109375 C 4.769531 -8.179688 4.5 -8.21875 4.1875 -8.21875 C 3.914062 -8.21875 3.675781 -8.1875 3.46875 -8.125 C 3.257812 -8.0625 3.085938 -7.972656 2.953125 -7.859375 C 2.816406 -7.753906 2.710938 -7.625 2.640625 -7.46875 C 2.578125 -7.3125 2.546875 -7.140625 2.546875 -6.953125 C 2.546875 -6.703125 2.609375 -6.488281 2.734375 -6.3125 C 2.867188 -6.144531 3.039062 -5.992188 3.25 -5.859375 C 3.457031 -5.734375 3.691406 -5.617188 3.953125 -5.515625 C 4.222656 -5.410156 4.5 -5.300781 4.78125 -5.1875 C 5.0625 -5.070312 5.332031 -4.945312 5.59375 -4.8125 C 5.863281 -4.675781 6.101562 -4.507812 6.3125 -4.3125 C 6.519531 -4.125 6.6875 -3.890625 6.8125 -3.609375 C 6.945312 -3.335938 7.015625 -3.015625 7.015625 -2.640625 Z M 7.015625 -2.640625 "/></g></g></g><g fill="#ffffff" fill-opacity="1"><g transform="translate(38.943744, 41.999996)"><g><path d="M 6.0625 -0.890625 C 6.0625 -0.703125 6.046875 -0.550781 6.015625 -0.4375 C 5.992188 -0.332031 5.957031 -0.253906 5.90625 -0.203125 C 5.851562 -0.148438 5.773438 -0.0976562 5.671875 -0.046875 C 5.566406 -0.00390625 5.445312 0.03125 5.3125 0.0625 C 5.1875 0.09375 5.046875 0.117188 4.890625 0.140625 C 4.742188 0.160156 4.59375 0.171875 4.4375 0.171875 C 3.988281 0.171875 3.597656 0.109375 3.265625 -0.015625 C 2.941406 -0.140625 2.675781 -0.320312 2.46875 -0.5625 C 2.257812 -0.800781 2.109375 -1.109375 2.015625 -1.484375 C 1.921875 -1.859375 1.875 -2.300781 1.875 -2.8125 L 1.875 -7.953125 L 0.640625 -7.953125 C 0.546875 -7.953125 0.46875 -8.003906 0.40625 -8.109375 C 0.351562 -8.210938 0.328125 -8.378906 0.328125 -8.609375 C 0.328125 -8.734375 0.332031 -8.835938 0.34375 -8.921875 C 0.363281 -9.003906 0.382812 -9.070312 0.40625 -9.125 C 0.4375 -9.1875 0.472656 -9.226562 0.515625 -9.25 C 0.554688 -9.269531 0.601562 -9.28125 0.65625 -9.28125 L 1.875 -9.28125 L 1.875 -11.375 C 1.875 -11.425781 1.882812 -11.46875 1.90625 -11.5 C 1.925781 -11.539062 1.96875 -11.578125 2.03125 -11.609375 C 2.09375 -11.640625 2.175781 -11.660156 2.28125 -11.671875 C 2.382812 -11.679688 2.515625 -11.6875 2.671875 -11.6875 C 2.835938 -11.6875 2.972656 -11.679688 3.078125 -11.671875 C 3.179688 -11.660156 3.257812 -11.640625 3.3125 -11.609375 C 3.375 -11.578125 3.414062 -11.539062 3.4375 -11.5 C 3.46875 -11.46875 3.484375 -11.425781 3.484375 -11.375 L 3.484375 -9.28125 L 5.75 -9.28125 C 5.800781 -9.28125 5.84375 -9.269531 5.875 -9.25 C 5.914062 -9.226562 5.953125 -9.1875 5.984375 -9.125 C 6.015625 -9.070312 6.035156 -9.003906 6.046875 -8.921875 C 6.054688 -8.835938 6.0625 -8.734375 6.0625 -8.609375 C 6.0625 -8.378906 6.03125 -8.210938 5.96875 -8.109375 C 5.914062 -8.003906 5.84375 -7.953125 5.75 -7.953125 L 3.484375 -7.953125 L 3.484375 -3.046875 C 3.484375 -2.441406 3.570312 -1.984375 3.75 -1.671875 C 3.9375 -1.367188 4.257812 -1.21875 4.71875 -1.21875 C 4.863281 -1.21875 4.992188 -1.226562 5.109375 -1.25 C 5.234375 -1.28125 5.335938 -1.3125 5.421875 -1.34375 C 5.515625 -1.375 5.59375 -1.40625 5.65625 -1.4375 C 5.726562 -1.46875 5.789062 -1.484375 5.84375 -1.484375 C 5.875 -1.484375 5.90625 -1.472656 5.9375 -1.453125 C 5.96875 -1.441406 5.988281 -1.410156 6 -1.359375 C 6.019531 -1.316406 6.035156 -1.253906 6.046875 -1.171875 C 6.054688 -1.097656 6.0625 -1.003906 6.0625 -0.890625 Z M 6.0625 -0.890625 "/></g></g></g><g fill="#ffffff" fill-opacity="1"><g transform="translate(45.396266, 41.999996)"><g><path d="M 8.109375 -0.234375 C 8.109375 -0.160156 8.082031 -0.101562 8.03125 -0.0625 C 7.976562 -0.0195312 7.90625 0.0078125 7.8125 0.03125 C 7.726562 0.0507812 7.597656 0.0625 7.421875 0.0625 C 7.253906 0.0625 7.117188 0.0507812 7.015625 0.03125 C 6.910156 0.0078125 6.835938 -0.0195312 6.796875 -0.0625 C 6.753906 -0.101562 6.734375 -0.160156 6.734375 -0.234375 L 6.734375 -1.109375 C 6.347656 -0.703125 5.914062 -0.382812 5.4375 -0.15625 C 4.96875 0.0703125 4.472656 0.1875 3.953125 0.1875 C 3.484375 0.1875 3.0625 0.125 2.6875 0 C 2.3125 -0.113281 1.992188 -0.285156 1.734375 -0.515625 C 1.472656 -0.742188 1.269531 -1.023438 1.125 -1.359375 C 0.976562 -1.691406 0.90625 -2.066406 0.90625 -2.484375 C 0.90625 -2.984375 1.003906 -3.414062 1.203125 -3.78125 C 1.398438 -4.144531 1.6875 -4.445312 2.0625 -4.6875 C 2.445312 -4.925781 2.910156 -5.101562 3.453125 -5.21875 C 4.003906 -5.34375 4.617188 -5.40625 5.296875 -5.40625 L 6.515625 -5.40625 L 6.515625 -6.09375 C 6.515625 -6.4375 6.476562 -6.738281 6.40625 -7 C 6.332031 -7.257812 6.21875 -7.472656 6.0625 -7.640625 C 5.90625 -7.816406 5.695312 -7.945312 5.4375 -8.03125 C 5.1875 -8.125 4.875 -8.171875 4.5 -8.171875 C 4.101562 -8.171875 3.742188 -8.117188 3.421875 -8.015625 C 3.109375 -7.921875 2.832031 -7.816406 2.59375 -7.703125 C 2.363281 -7.597656 2.164062 -7.492188 2 -7.390625 C 1.84375 -7.296875 1.726562 -7.25 1.65625 -7.25 C 1.601562 -7.25 1.554688 -7.257812 1.515625 -7.28125 C 1.472656 -7.3125 1.4375 -7.351562 1.40625 -7.40625 C 1.382812 -7.457031 1.363281 -7.523438 1.34375 -7.609375 C 1.332031 -7.691406 1.328125 -7.78125 1.328125 -7.875 C 1.328125 -8.039062 1.335938 -8.171875 1.359375 -8.265625 C 1.378906 -8.359375 1.429688 -8.445312 1.515625 -8.53125 C 1.609375 -8.613281 1.765625 -8.710938 1.984375 -8.828125 C 2.203125 -8.941406 2.445312 -9.046875 2.71875 -9.140625 C 3 -9.234375 3.304688 -9.3125 3.640625 -9.375 C 3.972656 -9.4375 4.3125 -9.46875 4.65625 -9.46875 C 5.28125 -9.46875 5.8125 -9.394531 6.25 -9.25 C 6.695312 -9.113281 7.054688 -8.90625 7.328125 -8.625 C 7.609375 -8.351562 7.804688 -8.007812 7.921875 -7.59375 C 8.046875 -7.1875 8.109375 -6.707031 8.109375 -6.15625 Z M 6.515625 -4.25 L 5.140625 -4.25 C 4.691406 -4.25 4.304688 -4.210938 3.984375 -4.140625 C 3.660156 -4.066406 3.390625 -3.953125 3.171875 -3.796875 C 2.960938 -3.648438 2.804688 -3.472656 2.703125 -3.265625 C 2.597656 -3.066406 2.546875 -2.832031 2.546875 -2.5625 C 2.546875 -2.113281 2.691406 -1.753906 2.984375 -1.484375 C 3.273438 -1.210938 3.679688 -1.078125 4.203125 -1.078125 C 4.617188 -1.078125 5.007812 -1.179688 5.375 -1.390625 C 5.738281 -1.609375 6.117188 -1.941406 6.515625 -2.390625 Z M 6.515625 -4.25 "/></g></g></g><g fill="#ffffff" fill-opacity="1"><g transform="translate(54.972601, 41.999996)"><g><path d="M 3.109375 -0.25 C 3.109375 -0.195312 3.09375 -0.148438 3.0625 -0.109375 C 3.039062 -0.078125 3 -0.046875 2.9375 -0.015625 C 2.882812 0.00390625 2.804688 0.0195312 2.703125 0.03125 C 2.597656 0.0507812 2.460938 0.0625 2.296875 0.0625 C 2.140625 0.0625 2.007812 0.0507812 1.90625 0.03125 C 1.800781 0.0195312 1.71875 0.00390625 1.65625 -0.015625 C 1.59375 -0.046875 1.550781 -0.078125 1.53125 -0.109375 C 1.507812 -0.148438 1.5 -0.195312 1.5 -0.25 L 1.5 -9.03125 C 1.5 -9.082031 1.507812 -9.125 1.53125 -9.15625 C 1.550781 -9.195312 1.59375 -9.226562 1.65625 -9.25 C 1.71875 -9.28125 1.800781 -9.300781 1.90625 -9.3125 C 2.007812 -9.332031 2.140625 -9.34375 2.296875 -9.34375 C 2.460938 -9.34375 2.597656 -9.332031 2.703125 -9.3125 C 2.804688 -9.300781 2.882812 -9.28125 2.9375 -9.25 C 3 -9.226562 3.039062 -9.195312 3.0625 -9.15625 C 3.09375 -9.125 3.109375 -9.082031 3.109375 -9.03125 Z M 3.296875 -12 C 3.296875 -11.625 3.222656 -11.367188 3.078125 -11.234375 C 2.929688 -11.097656 2.664062 -11.03125 2.28125 -11.03125 C 1.90625 -11.03125 1.644531 -11.09375 1.5 -11.21875 C 1.363281 -11.351562 1.296875 -11.609375 1.296875 -11.984375 C 1.296875 -12.359375 1.367188 -12.613281 1.515625 -12.75 C 1.660156 -12.882812 1.925781 -12.953125 2.3125 -12.953125 C 2.6875 -12.953125 2.941406 -12.882812 3.078125 -12.75 C 3.222656 -12.625 3.296875 -12.375 3.296875 -12 Z M 3.296875 -12 "/></g></g></g></svg>