<svg xmlns="http://www.w3.org/2000/svg" xmlns:xlink="http://www.w3.org/1999/xlink" width="240" zoomAndPan="magnify" viewBox="0 0 180 179.999997" height="240" preserveAspectRatio="xMidYMid meet" version="1.0"><path fill="currentColor" d="M 90 0 C 40.292969 0 0 40.292969 0 90 C 0 139.707031 40.292969 180 90 180 C 139.707031 180 180 139.707031 180 90 C 180 40.292969 139.707031 0 90 0 Z M 90 173.183594 C 44.058594 173.183594 6.816406 135.941406 6.816406 90 C 6.816406 44.058594 44.058594 6.816406 90 6.816406 C 135.941406 6.816406 173.183594 44.058594 173.183594 90 C 173.183594 135.941406 135.941406 173.183594 90 173.183594 Z M 90 173.183594 " fill-opacity="1" fill-rule="nonzero"/><path fill="currentColor" d="M 79.4375 134.117188 C 77.179688 134.332031 75.375 134.582031 73.566406 134.664062 C 63.296875 135.152344 55.695312 131.101562 51.082031 121.664062 C 49.617188 118.65625 47.734375 115.820312 45.777344 113.09375 C 44.601562 111.460938 42.957031 110.144531 41.433594 108.78125 L 41.414062 108.765625 C 40.476562 107.9375 40.890625 106.390625 42.125 106.183594 C 43.578125 105.9375 44.929688 106.199219 46.246094 106.535156 C 50.375 107.585938 53.027344 110.515625 55.136719 114.015625 C 59.914062 121.933594 68.136719 125.234375 77.03125 122.875 C 78.539062 122.476562 79.207031 121.824219 79.535156 120.179688 C 79.917969 118.257812 80.4375 116.367188 81 114.4375 C 81.082031 114.152344 81.132812 113.863281 81.15625 113.566406 C 81.183594 113.273438 81.175781 112.976562 81.140625 112.683594 C 81.101562 112.390625 81.039062 112.101562 80.941406 111.824219 C 80.847656 111.542969 80.726562 111.273438 80.578125 111.019531 C 80.425781 110.761719 80.253906 110.527344 80.054688 110.304688 C 79.859375 110.085938 79.640625 109.886719 79.402344 109.710938 C 79.164062 109.535156 78.914062 109.382812 78.644531 109.261719 C 78.375 109.136719 78.097656 109.039062 77.808594 108.972656 L 77.757812 108.960938 C 68.53125 106.75 60.5625 102.640625 55.425781 94.207031 C 52.679688 89.699219 51.320312 84.734375 51.390625 79.558594 C 51.46875 73.6875 51.988281 67.804688 52.664062 61.964844 C 53.136719 57.855469 55.039062 54.214844 57.996094 51.257812 C 59.027344 50.226562 59.113281 49.363281 58.617188 48.03125 C 56.582031 42.570312 56.933594 37.09375 58.742188 31.621094 C 59.25 30.078125 59.976562 29.855469 61.453125 30.320312 C 66.023438 31.761719 69.4375 34.734375 72.433594 38.296875 L 72.464844 38.335938 C 72.839844 38.789062 73.277344 39.175781 73.769531 39.496094 C 74.261719 39.820312 74.789062 40.0625 75.355469 40.226562 C 75.921875 40.386719 76.5 40.464844 77.085938 40.457031 C 77.675781 40.445312 78.25 40.351562 78.808594 40.167969 C 88.296875 37.058594 102.691406 37.015625 111.640625 40.09375 C 112.203125 40.285156 112.78125 40.390625 113.375 40.40625 C 113.96875 40.421875 114.550781 40.347656 115.121094 40.1875 C 115.695312 40.027344 116.230469 39.785156 116.726562 39.460938 C 117.226562 39.140625 117.664062 38.75 118.046875 38.292969 L 118.074219 38.261719 C 121.078125 34.699219 124.503906 31.746094 129.070312 30.304688 C 130.605469 29.820312 131.257812 30.1875 131.742188 31.675781 C 133.527344 37.152344 133.828125 42.59375 131.902344 48.113281 C 131.628906 48.890625 131.640625 50.242188 132.125 50.734375 C 136.222656 54.886719 138.015625 60.046875 138.46875 65.636719 C 138.910156 71.035156 139.386719 76.527344 138.882812 81.890625 C 137.578125 95.835938 129.101562 103.957031 116.207031 107.996094 C 115.105469 108.339844 113.984375 108.628906 112.839844 108.902344 C 112.542969 108.972656 112.253906 109.070312 111.976562 109.203125 C 111.699219 109.332031 111.441406 109.488281 111.199219 109.675781 C 110.953125 109.859375 110.734375 110.070312 110.535156 110.300781 C 110.332031 110.53125 110.160156 110.78125 110.011719 111.050781 C 109.867188 111.316406 109.75 111.597656 109.660156 111.890625 C 109.570312 112.183594 109.515625 112.480469 109.488281 112.785156 C 109.464844 113.089844 109.46875 113.394531 109.507812 113.699219 C 109.546875 114.003906 109.617188 114.296875 109.714844 114.585938 C 111.472656 119.675781 111.203125 125.113281 111.175781 130.515625 C 111.171875 131.757812 111.167969 133 111.164062 134.246094 C 111.160156 135.273438 111.058594 136.292969 110.855469 137.300781 C 110.652344 138.308594 110.355469 139.289062 109.960938 140.238281 C 109.566406 141.1875 109.082031 142.089844 108.507812 142.941406 C 107.9375 143.796875 107.285156 144.589844 106.558594 145.316406 C 105.828125 146.039062 105.039062 146.691406 104.179688 147.261719 C 103.324219 147.832031 102.421875 148.3125 101.472656 148.707031 C 100.523438 149.097656 99.542969 149.394531 98.53125 149.597656 C 97.523438 149.796875 96.503906 149.898438 95.476562 149.894531 L 95.125 149.894531 C 94.09375 149.894531 93.074219 149.796875 92.0625 149.59375 C 91.054688 149.394531 90.070312 149.097656 89.121094 148.703125 C 88.167969 148.308594 87.265625 147.824219 86.410156 147.253906 C 85.550781 146.679688 84.757812 146.03125 84.03125 145.300781 C 83.304688 144.574219 82.652344 143.78125 82.082031 142.925781 C 81.507812 142.066406 81.023438 141.164062 80.628906 140.210938 C 80.238281 139.261719 79.9375 138.28125 79.738281 137.269531 C 79.535156 136.257812 79.4375 135.238281 79.4375 134.210938 Z M 79.4375 134.117188 " fill-opacity="1" fill-rule="nonzero"/></svg>