<svg xmlns="http://www.w3.org/2000/svg" xmlns:xlink="http://www.w3.org/1999/xlink" width="240" zoomAndPan="magnify" viewBox="0 0 180 179.999997" height="240" preserveAspectRatio="xMidYMid meet" version="1.0"><defs><clipPath id="e4e0c546b6"><path d="M 0.0078125 15.636719 L 179.996094 15.636719 L 179.996094 45.460938 L 0.0078125 45.460938 Z M 0.0078125 15.636719 " clip-rule="nonzero"/></clipPath><clipPath id="c1ee54b66b"><path d="M 0.0078125 75 L 179.996094 75 L 179.996094 105 L 0.0078125 105 Z M 0.0078125 75 " clip-rule="nonzero"/></clipPath><clipPath id="75a7873417"><path d="M 0.0078125 134.242188 L 179.996094 134.242188 L 179.996094 164.136719 L 0.0078125 164.136719 Z M 0.0078125 134.242188 " clip-rule="nonzero"/></clipPath></defs><g clip-path="url(#e4e0c546b6)"><path fill="currentColor" d="M 165.121094 45.34375 L 14.882812 45.34375 C 6.667969 45.34375 0.0078125 38.695312 0.0078125 30.492188 C 0.0078125 22.289062 6.667969 15.640625 14.882812 15.640625 L 165.121094 15.640625 C 173.335938 15.640625 179.996094 22.289062 179.996094 30.492188 C 179.996094 38.695312 173.335938 45.34375 165.121094 45.34375 " fill-opacity="1" fill-rule="nonzero"/></g><g clip-path="url(#c1ee54b66b)"><path fill="currentColor" d="M 165.121094 104.753906 L 14.882812 104.753906 C 6.667969 104.753906 0.0078125 98.105469 0.0078125 89.902344 C 0.0078125 81.699219 6.667969 75.046875 14.882812 75.046875 L 165.121094 75.046875 C 173.335938 75.046875 179.996094 81.699219 179.996094 89.902344 C 179.996094 98.105469 173.335938 104.753906 165.121094 104.753906 " fill-opacity="1" fill-rule="nonzero"/></g><g clip-path="url(#75a7873417)"><path fill="currentColor" d="M 165.121094 164.164062 L 14.882812 164.164062 C 6.667969 164.164062 0.0078125 157.515625 0.0078125 149.3125 C 0.0078125 141.109375 6.667969 134.460938 14.882812 134.460938 L 165.121094 134.460938 C 173.335938 134.460938 179.996094 141.109375 179.996094 149.3125 C 179.996094 157.515625 173.335938 164.164062 165.121094 164.164062 " fill-opacity="1" fill-rule="nonzero"/></g></svg>