<svg xmlns="http://www.w3.org/2000/svg" xmlns:xlink="http://www.w3.org/1999/xlink" width="100" zoomAndPan="magnify" viewBox="0 0 75 74.999997" height="100" preserveAspectRatio="xMidYMid meet" version="1.0"><defs><g/><clipPath id="39e7fea82e"><path d="M 0.664062 0 L 75 0 L 75 74.335938 L 0.664062 74.335938 Z M 0.664062 0 " clip-rule="nonzero"/></clipPath><clipPath id="614dadedee"><path d="M 37.832031 0 C 17.304688 0 0.664062 16.640625 0.664062 37.167969 C 0.664062 57.695312 17.304688 74.335938 37.832031 74.335938 C 58.359375 74.335938 75 57.695312 75 37.167969 C 75 16.640625 58.359375 0 37.832031 0 Z M 37.832031 0 " clip-rule="nonzero"/></clipPath></defs><g clip-path="url(#39e7fea82e)"><g clip-path="url(#614dadedee)"><path fill="#ffffff" d="M 0.664062 0 L 75 0 L 75 74.335938 L 0.664062 74.335938 Z M 0.664062 0 " fill-opacity="1" fill-rule="nonzero"/></g></g><path fill="#ffd21e" d="M 37.519531 44.363281 C 38.160156 44.363281 38.796875 44.332031 39.429688 44.273438 C 40.066406 44.210938 40.695312 44.117188 41.320312 43.996094 C 41.945312 43.871094 42.566406 43.71875 43.175781 43.535156 C 43.785156 43.351562 44.386719 43.140625 44.976562 42.898438 C 45.566406 42.660156 46.140625 42.390625 46.703125 42.09375 C 47.265625 41.792969 47.8125 41.472656 48.34375 41.121094 C 48.875 40.769531 49.386719 40.394531 49.878906 39.996094 C 50.371094 39.59375 50.84375 39.171875 51.292969 38.726562 C 51.746094 38.28125 52.171875 37.816406 52.578125 37.328125 C 52.984375 36.839844 53.363281 36.335938 53.71875 35.808594 C 54.070312 35.285156 54.398438 34.746094 54.699219 34.191406 C 55 33.632812 55.273438 33.066406 55.515625 32.480469 C 55.761719 31.898438 55.976562 31.308594 56.160156 30.703125 C 56.347656 30.101562 56.5 29.488281 56.625 28.871094 C 56.75 28.253906 56.84375 27.628906 56.90625 27.003906 C 56.96875 26.375 57 25.746094 57 25.117188 C 57 24.484375 56.96875 23.855469 56.90625 23.230469 C 56.84375 22.601562 56.75 21.980469 56.625 21.359375 C 56.5 20.742188 56.347656 20.132812 56.160156 19.527344 C 55.976562 18.925781 55.761719 18.332031 55.515625 17.75 C 55.273438 17.167969 55 16.597656 54.699219 16.042969 C 54.398438 15.488281 54.070312 14.945312 53.71875 14.421875 C 53.363281 13.898438 52.984375 13.390625 52.578125 12.90625 C 52.171875 12.417969 51.746094 11.953125 51.292969 11.503906 C 50.84375 11.058594 50.371094 10.636719 49.878906 10.238281 C 49.386719 9.835938 48.875 9.460938 48.34375 9.113281 C 47.8125 8.761719 47.265625 8.4375 46.703125 8.140625 C 46.140625 7.84375 45.566406 7.574219 44.976562 7.332031 C 44.386719 7.089844 43.785156 6.878906 43.175781 6.695312 C 42.566406 6.511719 41.945312 6.359375 41.320312 6.238281 C 40.695312 6.113281 40.066406 6.023438 39.429688 5.960938 C 38.796875 5.898438 38.160156 5.867188 37.519531 5.867188 C 36.882812 5.867188 36.246094 5.898438 35.613281 5.960938 C 34.976562 6.023438 34.347656 6.113281 33.722656 6.238281 C 33.09375 6.359375 32.476562 6.511719 31.867188 6.695312 C 31.257812 6.878906 30.65625 7.089844 30.066406 7.332031 C 29.476562 7.574219 28.902344 7.84375 28.339844 8.140625 C 27.777344 8.4375 27.230469 8.761719 26.699219 9.113281 C 26.167969 9.460938 25.65625 9.835938 25.164062 10.238281 C 24.671875 10.636719 24.199219 11.058594 23.75 11.503906 C 23.296875 11.953125 22.871094 12.417969 22.464844 12.90625 C 22.058594 13.390625 21.679688 13.898438 21.324219 14.421875 C 20.972656 14.945312 20.644531 15.488281 20.34375 16.042969 C 20.042969 16.597656 19.769531 17.167969 19.527344 17.75 C 19.28125 18.332031 19.066406 18.925781 18.882812 19.527344 C 18.695312 20.132812 18.542969 20.742188 18.417969 21.359375 C 18.292969 21.980469 18.199219 22.601562 18.136719 23.230469 C 18.074219 23.855469 18.042969 24.484375 18.042969 25.117188 C 18.042969 25.746094 18.074219 26.375 18.136719 27.003906 C 18.199219 27.628906 18.292969 28.253906 18.417969 28.871094 C 18.542969 29.488281 18.695312 30.101562 18.882812 30.703125 C 19.066406 31.308594 19.28125 31.898438 19.527344 32.480469 C 19.769531 33.066406 20.042969 33.632812 20.34375 34.191406 C 20.644531 34.746094 20.972656 35.285156 21.324219 35.808594 C 21.679688 36.335938 22.058594 36.839844 22.464844 37.328125 C 22.871094 37.816406 23.296875 38.28125 23.75 38.726562 C 24.199219 39.171875 24.671875 39.59375 25.164062 39.996094 C 25.65625 40.394531 26.167969 40.769531 26.699219 41.121094 C 27.230469 41.472656 27.777344 41.792969 28.339844 42.09375 C 28.902344 42.390625 29.476562 42.660156 30.066406 42.898438 C 30.65625 43.140625 31.257812 43.351562 31.867188 43.535156 C 32.476562 43.71875 33.097656 43.871094 33.722656 43.996094 C 34.347656 44.117188 34.976562 44.210938 35.613281 44.273438 C 36.246094 44.332031 36.882812 44.363281 37.519531 44.363281 Z M 37.519531 44.363281 " fill-opacity="1" fill-rule="nonzero"/><path fill="#ff9d0b" d="M 57 25.117188 C 57 24.484375 56.96875 23.855469 56.90625 23.230469 C 56.84375 22.601562 56.75 21.980469 56.625 21.359375 C 56.5 20.742188 56.347656 20.132812 56.160156 19.527344 C 55.976562 18.925781 55.761719 18.332031 55.515625 17.75 C 55.273438 17.167969 55 16.597656 54.699219 16.042969 C 54.398438 15.488281 54.070312 14.945312 53.71875 14.421875 C 53.363281 13.898438 52.984375 13.390625 52.578125 12.90625 C 52.171875 12.417969 51.746094 11.953125 51.292969 11.503906 C 50.84375 11.058594 50.371094 10.636719 49.878906 10.238281 C 49.386719 9.835938 48.875 9.460938 48.34375 9.113281 C 47.8125 8.761719 47.265625 8.4375 46.703125 8.140625 C 46.140625 7.84375 45.566406 7.574219 44.976562 7.332031 C 44.386719 7.089844 43.785156 6.878906 43.175781 6.695312 C 42.566406 6.511719 41.945312 6.359375 41.320312 6.238281 C 40.695312 6.113281 40.066406 6.023438 39.429688 5.960938 C 38.796875 5.898438 38.160156 5.867188 37.519531 5.867188 C 36.882812 5.867188 36.246094 5.898438 35.613281 5.960938 C 34.976562 6.023438 34.347656 6.113281 33.722656 6.238281 C 33.09375 6.359375 32.476562 6.511719 31.867188 6.695312 C 31.257812 6.878906 30.65625 7.089844 30.066406 7.332031 C 29.476562 7.574219 28.902344 7.84375 28.339844 8.140625 C 27.777344 8.4375 27.230469 8.761719 26.699219 9.113281 C 26.167969 9.460938 25.65625 9.835938 25.164062 10.238281 C 24.671875 10.636719 24.199219 11.058594 23.75 11.503906 C 23.296875 11.953125 22.871094 12.417969 22.464844 12.90625 C 22.058594 13.390625 21.679688 13.898438 21.324219 14.421875 C 20.972656 14.945312 20.644531 15.488281 20.34375 16.042969 C 20.042969 16.597656 19.769531 17.167969 19.527344 17.75 C 19.28125 18.332031 19.066406 18.925781 18.882812 19.527344 C 18.695312 20.132812 18.542969 20.742188 18.417969 21.359375 C 18.292969 21.980469 18.199219 22.601562 18.136719 23.230469 C 18.074219 23.855469 18.042969 24.484375 18.042969 25.117188 C 18.042969 25.746094 18.074219 26.375 18.136719 27.003906 C 18.199219 27.628906 18.292969 28.253906 18.417969 28.871094 C 18.542969 29.488281 18.695312 30.101562 18.882812 30.703125 C 19.066406 31.308594 19.28125 31.898438 19.527344 32.480469 C 19.769531 33.066406 20.042969 33.632812 20.34375 34.191406 C 20.644531 34.746094 20.972656 35.285156 21.324219 35.808594 C 21.679688 36.335938 22.058594 36.839844 22.464844 37.328125 C 22.871094 37.816406 23.296875 38.28125 23.75 38.726562 C 24.199219 39.171875 24.671875 39.59375 25.164062 39.996094 C 25.65625 40.394531 26.167969 40.769531 26.699219 41.121094 C 27.230469 41.472656 27.777344 41.792969 28.339844 42.09375 C 28.902344 42.390625 29.476562 42.660156 30.066406 42.898438 C 30.65625 43.140625 31.257812 43.351562 31.867188 43.535156 C 32.476562 43.71875 33.097656 43.871094 33.722656 43.996094 C 34.347656 44.117188 34.976562 44.210938 35.613281 44.273438 C 36.246094 44.332031 36.882812 44.363281 37.519531 44.363281 C 38.160156 44.363281 38.796875 44.332031 39.429688 44.273438 C 40.066406 44.210938 40.695312 44.117188 41.320312 43.996094 C 41.945312 43.871094 42.566406 43.71875 43.175781 43.535156 C 43.785156 43.351562 44.386719 43.140625 44.976562 42.898438 C 45.566406 42.660156 46.140625 42.390625 46.703125 42.09375 C 47.265625 41.792969 47.8125 41.472656 48.34375 41.121094 C 48.875 40.769531 49.386719 40.394531 49.878906 39.996094 C 50.371094 39.59375 50.84375 39.171875 51.292969 38.726562 C 51.746094 38.28125 52.171875 37.816406 52.578125 37.328125 C 52.984375 36.839844 53.363281 36.335938 53.71875 35.808594 C 54.070312 35.285156 54.398438 34.746094 54.699219 34.191406 C 55 33.632812 55.273438 33.066406 55.515625 32.480469 C 55.761719 31.898438 55.976562 31.308594 56.160156 30.703125 C 56.347656 30.101562 56.5 29.488281 56.625 28.871094 C 56.75 28.253906 56.84375 27.628906 56.90625 27.003906 C 56.96875 26.375 57 25.746094 57 25.117188 Z M 15.800781 25.117188 C 15.800781 24.414062 15.835938 23.710938 15.90625 23.011719 C 15.976562 22.3125 16.078125 21.617188 16.21875 20.929688 C 16.355469 20.238281 16.53125 19.558594 16.734375 18.886719 C 16.941406 18.210938 17.183594 17.550781 17.453125 16.902344 C 17.726562 16.253906 18.03125 15.617188 18.367188 14.996094 C 18.699219 14.378906 19.066406 13.777344 19.460938 13.191406 C 19.855469 12.605469 20.28125 12.042969 20.730469 11.5 C 21.183594 10.957031 21.660156 10.4375 22.164062 9.9375 C 22.664062 9.441406 23.191406 8.96875 23.742188 8.523438 C 24.292969 8.078125 24.863281 7.660156 25.453125 7.269531 C 26.046875 6.878906 26.65625 6.519531 27.28125 6.1875 C 27.910156 5.855469 28.550781 5.554688 29.210938 5.285156 C 29.867188 5.015625 30.535156 4.78125 31.214844 4.578125 C 31.898438 4.371094 32.585938 4.203125 33.285156 4.0625 C 33.980469 3.925781 34.683594 3.824219 35.390625 3.753906 C 36.101562 3.6875 36.808594 3.652344 37.519531 3.652344 C 38.234375 3.652344 38.941406 3.6875 39.648438 3.753906 C 40.359375 3.824219 41.0625 3.925781 41.757812 4.0625 C 42.457031 4.203125 43.144531 4.371094 43.828125 4.578125 C 44.507812 4.78125 45.175781 5.015625 45.832031 5.285156 C 46.492188 5.554688 47.132812 5.855469 47.761719 6.1875 C 48.386719 6.519531 48.996094 6.878906 49.589844 7.269531 C 50.179688 7.660156 50.75 8.078125 51.300781 8.523438 C 51.851562 8.96875 52.378906 9.441406 52.878906 9.9375 C 53.382812 10.4375 53.859375 10.957031 54.3125 11.5 C 54.761719 12.042969 55.1875 12.605469 55.582031 13.191406 C 55.976562 13.777344 56.339844 14.378906 56.675781 14.996094 C 57.011719 15.617188 57.316406 16.253906 57.589844 16.902344 C 57.859375 17.550781 58.101562 18.210938 58.304688 18.886719 C 58.511719 19.558594 58.6875 20.238281 58.824219 20.929688 C 58.964844 21.617188 59.066406 22.3125 59.136719 23.011719 C 59.207031 23.710938 59.242188 24.414062 59.242188 25.117188 C 59.242188 25.820312 59.207031 26.519531 59.136719 27.21875 C 59.066406 27.917969 58.964844 28.613281 58.824219 29.304688 C 58.6875 29.992188 58.511719 30.675781 58.304688 31.347656 C 58.101562 32.019531 57.859375 32.679688 57.589844 33.332031 C 57.316406 33.980469 57.011719 34.613281 56.675781 35.234375 C 56.339844 35.855469 55.976562 36.457031 55.582031 37.042969 C 55.1875 37.625 54.761719 38.191406 54.3125 38.734375 C 53.859375 39.277344 53.382812 39.796875 52.878906 40.292969 C 52.378906 40.789062 51.851562 41.261719 51.300781 41.707031 C 50.75 42.152344 50.179688 42.574219 49.589844 42.964844 C 48.996094 43.355469 48.386719 43.714844 47.761719 44.046875 C 47.132812 44.378906 46.492188 44.675781 45.832031 44.945312 C 45.175781 45.214844 44.507812 45.453125 43.828125 45.65625 C 43.144531 45.859375 42.457031 46.03125 41.757812 46.167969 C 41.0625 46.304688 40.359375 46.40625 39.648438 46.476562 C 38.941406 46.546875 38.234375 46.582031 37.519531 46.582031 C 36.808594 46.582031 36.101562 46.546875 35.390625 46.476562 C 34.683594 46.40625 33.980469 46.304688 33.285156 46.167969 C 32.585938 46.03125 31.898438 45.859375 31.214844 45.65625 C 30.535156 45.453125 29.867188 45.214844 29.210938 44.945312 C 28.550781 44.675781 27.910156 44.378906 27.28125 44.046875 C 26.65625 43.714844 26.046875 43.355469 25.453125 42.964844 C 24.863281 42.574219 24.292969 42.152344 23.742188 41.707031 C 23.191406 41.261719 22.664062 40.789062 22.164062 40.292969 C 21.660156 39.796875 21.183594 39.277344 20.730469 38.734375 C 20.28125 38.191406 19.855469 37.625 19.460938 37.042969 C 19.066406 36.457031 18.699219 35.855469 18.367188 35.234375 C 18.03125 34.613281 17.726562 33.980469 17.453125 33.332031 C 17.183594 32.679688 16.941406 32.019531 16.734375 31.347656 C 16.53125 30.675781 16.355469 29.992188 16.21875 29.304688 C 16.078125 28.613281 15.976562 27.917969 15.90625 27.21875 C 15.835938 26.519531 15.800781 25.820312 15.800781 25.117188 Z M 15.800781 25.117188 " fill-opacity="1" fill-rule="nonzero"/><path fill="#3a3b45" d="M 43.851562 19.882812 C 44.566406 20.125 44.847656 21.578125 45.570312 21.199219 C 45.898438 21.027344 46.179688 20.800781 46.417969 20.515625 C 46.65625 20.234375 46.828125 19.917969 46.9375 19.566406 C 47.042969 19.214844 47.082031 18.855469 47.046875 18.488281 C 47.011719 18.125 46.90625 17.777344 46.730469 17.453125 C 46.558594 17.128906 46.328125 16.851562 46.039062 16.617188 C 45.753906 16.382812 45.433594 16.214844 45.078125 16.105469 C 44.722656 16 44.359375 15.960938 43.988281 15.996094 C 43.617188 16.03125 43.269531 16.136719 42.941406 16.308594 C 42.613281 16.480469 42.332031 16.707031 42.09375 16.992188 C 41.859375 17.273438 41.683594 17.59375 41.578125 17.941406 C 41.46875 18.292969 41.429688 18.652344 41.464844 19.019531 C 41.503906 19.382812 41.605469 19.730469 41.78125 20.054688 C 42.125 20.691406 43.210938 19.65625 43.855469 19.875 Z M 30.648438 19.882812 C 29.933594 20.125 29.644531 21.578125 28.929688 21.199219 C 28.601562 21.027344 28.316406 20.800781 28.082031 20.515625 C 27.84375 20.234375 27.671875 19.917969 27.5625 19.566406 C 27.453125 19.214844 27.417969 18.855469 27.453125 18.488281 C 27.488281 18.125 27.59375 17.777344 27.765625 17.453125 C 27.941406 17.128906 28.171875 16.851562 28.460938 16.617188 C 28.746094 16.382812 29.066406 16.214844 29.421875 16.105469 C 29.777344 16 30.140625 15.960938 30.511719 15.996094 C 30.878906 16.03125 31.230469 16.136719 31.558594 16.308594 C 31.886719 16.480469 32.167969 16.707031 32.40625 16.992188 C 32.640625 17.273438 32.8125 17.59375 32.921875 17.941406 C 33.03125 18.292969 33.066406 18.652344 33.03125 19.019531 C 32.996094 19.382812 32.890625 19.730469 32.71875 20.054688 C 32.375 20.691406 31.28125 19.65625 30.644531 19.875 Z M 30.648438 19.882812 " fill-opacity="1" fill-rule="nonzero"/><path fill="#ff323d" d="M 37.382812 33.171875 C 42.890625 33.171875 44.667969 28.316406 44.667969 25.824219 C 44.667969 24.527344 43.789062 24.9375 42.375 25.625 C 41.070312 26.261719 39.316406 27.144531 37.386719 27.144531 C 33.355469 27.144531 30.101562 23.332031 30.101562 25.824219 C 30.101562 28.316406 31.871094 33.171875 37.386719 33.171875 Z M 37.382812 33.171875 " fill-opacity="1" fill-rule="nonzero"/><path fill="#3a3b45" d="M 33.160156 31.902344 C 33.460938 31.300781 33.867188 30.785156 34.382812 30.351562 C 34.902344 29.921875 35.484375 29.605469 36.132812 29.414062 C 36.355469 29.347656 36.585938 29.730469 36.828125 30.125 C 37.050781 30.5 37.285156 30.882812 37.519531 30.882812 C 37.773438 30.882812 38.027344 30.503906 38.265625 30.132812 C 38.519531 29.746094 38.765625 29.371094 39.007812 29.441406 C 40.257812 29.835938 41.195312 30.605469 41.808594 31.753906 C 43.898438 30.125 44.667969 27.464844 44.667969 25.824219 C 44.667969 24.527344 43.789062 24.9375 42.375 25.625 L 42.296875 25.664062 C 41.003906 26.300781 39.277344 27.144531 37.382812 27.144531 C 35.488281 27.144531 33.765625 26.300781 32.464844 25.664062 C 31.007812 24.949219 30.09375 24.5 30.09375 25.824219 C 30.09375 27.515625 30.914062 30.289062 33.160156 31.902344 Z M 33.160156 31.902344 " fill-opacity="1" fill-rule="evenodd"/><path fill="#ff9d0b" d="M 50.695312 22.484375 C 50.933594 22.484375 51.167969 22.4375 51.390625 22.347656 C 51.613281 22.257812 51.8125 22.125 51.980469 21.957031 C 52.152344 21.789062 52.285156 21.59375 52.375 21.375 C 52.46875 21.152344 52.515625 20.921875 52.515625 20.683594 C 52.515625 20.445312 52.46875 20.214844 52.375 19.996094 C 52.285156 19.777344 52.152344 19.582031 51.980469 19.410156 C 51.8125 19.242188 51.613281 19.113281 51.390625 19.023438 C 51.167969 18.929688 50.933594 18.882812 50.695312 18.882812 C 50.453125 18.882812 50.21875 18.929688 49.996094 19.023438 C 49.773438 19.113281 49.578125 19.242188 49.40625 19.410156 C 49.234375 19.582031 49.101562 19.777344 49.011719 19.996094 C 48.917969 20.214844 48.871094 20.445312 48.871094 20.683594 C 48.871094 20.921875 48.917969 21.152344 49.011719 21.375 C 49.101562 21.59375 49.234375 21.789062 49.40625 21.957031 C 49.578125 22.125 49.773438 22.257812 49.996094 22.347656 C 50.21875 22.4375 50.453125 22.484375 50.695312 22.484375 Z M 24.628906 22.484375 C 24.871094 22.484375 25.101562 22.4375 25.328125 22.347656 C 25.550781 22.257812 25.746094 22.125 25.917969 21.957031 C 26.089844 21.789062 26.21875 21.59375 26.3125 21.375 C 26.40625 21.152344 26.449219 20.921875 26.449219 20.683594 C 26.449219 20.445312 26.40625 20.214844 26.3125 19.996094 C 26.21875 19.777344 26.089844 19.582031 25.917969 19.410156 C 25.746094 19.242188 25.550781 19.113281 25.328125 19.023438 C 25.101562 18.929688 24.871094 18.882812 24.628906 18.882812 C 24.386719 18.882812 24.15625 18.929688 23.933594 19.023438 C 23.707031 19.113281 23.511719 19.242188 23.339844 19.410156 C 23.171875 19.582031 23.039062 19.777344 22.945312 19.996094 C 22.855469 20.214844 22.808594 20.445312 22.808594 20.683594 C 22.808594 20.921875 22.855469 21.152344 22.945312 21.375 C 23.039062 21.59375 23.171875 21.789062 23.339844 21.957031 C 23.511719 22.125 23.707031 22.257812 23.933594 22.347656 C 24.15625 22.4375 24.386719 22.484375 24.628906 22.484375 Z M 20.878906 28.578125 C 19.972656 28.578125 19.164062 28.945312 18.597656 29.613281 C 18.101562 30.222656 17.851562 30.914062 17.851562 31.695312 C 17.496094 31.589844 17.136719 31.535156 16.765625 31.53125 C 15.894531 31.53125 15.113281 31.855469 14.558594 32.449219 C 14.308594 32.703125 14.109375 32.992188 13.957031 33.308594 C 13.804688 33.628906 13.707031 33.964844 13.667969 34.3125 C 13.628906 34.664062 13.644531 35.011719 13.71875 35.355469 C 13.796875 35.699219 13.925781 36.023438 14.109375 36.328125 C 13.597656 36.738281 13.265625 37.257812 13.105469 37.890625 C 12.96875 38.386719 12.835938 39.441406 13.554688 40.515625 C 13.28125 40.929688 13.125 41.386719 13.089844 41.878906 C 13.050781 42.375 13.136719 42.84375 13.347656 43.296875 C 13.917969 44.582031 15.347656 45.589844 18.121094 46.675781 C 19.84375 47.351562 21.421875 47.78125 21.433594 47.789062 C 23.4375 48.335938 25.480469 48.632812 27.5625 48.675781 C 30.84375 48.675781 33.195312 47.675781 34.546875 45.714844 C 36.71875 42.566406 36.410156 39.679688 33.59375 36.898438 C 32.039062 35.359375 31.003906 33.09375 30.789062 32.59375 C 30.351562 31.121094 29.199219 29.480469 27.285156 29.480469 C 26.769531 29.488281 26.285156 29.613281 25.828125 29.855469 C 25.375 30.09375 25 30.425781 24.707031 30.84375 C 24.148438 30.144531 23.597656 29.597656 23.105469 29.28125 C 22.433594 28.832031 21.691406 28.597656 20.878906 28.578125 Z M 20.878906 30.792969 C 21.164062 30.792969 21.519531 30.914062 21.898438 31.152344 C 23.097656 31.90625 25.402344 35.824219 26.25 37.347656 C 26.53125 37.855469 27.015625 38.074219 27.449219 38.074219 C 28.316406 38.074219 28.988281 37.226562 27.53125 36.144531 C 25.335938 34.523438 26.101562 31.867188 27.152344 31.707031 C 27.195312 31.695312 27.246094 31.695312 27.285156 31.695312 C 28.238281 31.695312 28.660156 33.320312 28.660156 33.320312 C 28.660156 33.320312 29.894531 36.378906 32.011719 38.472656 C 34.125 40.558594 34.238281 42.238281 32.695312 44.46875 C 31.640625 45.992188 29.628906 46.453125 27.5625 46.453125 C 25.425781 46.453125 23.226562 45.953125 22 45.644531 C 21.9375 45.628906 14.460938 43.539062 15.410156 41.765625 C 15.566406 41.46875 15.828125 41.347656 16.160156 41.347656 C 17.492188 41.347656 19.914062 43.308594 20.964844 43.308594 C 21.191406 43.308594 21.355469 43.210938 21.429688 42.972656 C 21.871094 41.394531 14.667969 40.730469 15.273438 38.449219 C 15.386719 38.042969 15.671875 37.882812 16.082031 37.882812 C 17.839844 37.882812 21.796875 40.945312 22.628906 40.945312 C 22.691406 40.945312 22.742188 40.929688 22.761719 40.890625 C 23.175781 40.226562 22.949219 39.761719 20.015625 38.011719 C 17.097656 36.261719 15.039062 35.207031 16.203125 33.953125 C 16.339844 33.808594 16.53125 33.742188 16.765625 33.742188 C 18.542969 33.742188 22.742188 37.519531 22.742188 37.519531 C 22.742188 37.519531 23.871094 38.679688 24.5625 38.679688 C 24.71875 38.679688 24.851562 38.625 24.941406 38.472656 C 25.425781 37.664062 20.425781 33.917969 20.144531 32.371094 C 19.953125 31.320312 20.28125 30.792969 20.878906 30.792969 Z M 20.878906 30.792969 " fill-opacity="1" fill-rule="nonzero"/><path fill="#ffd21e" d="M 32.695312 44.46875 C 34.238281 42.230469 34.125 40.554688 32.011719 38.464844 C 29.894531 36.378906 28.660156 33.3125 28.660156 33.3125 C 28.660156 33.3125 28.199219 31.542969 27.152344 31.707031 C 26.101562 31.875 25.335938 34.523438 27.53125 36.144531 C 29.722656 37.769531 27.09375 38.871094 26.25 37.347656 C 25.410156 35.824219 23.097656 31.90625 21.898438 31.152344 C 20.707031 30.40625 19.863281 30.820312 20.144531 32.371094 C 20.425781 33.917969 25.429688 37.664062 24.941406 38.464844 C 24.457031 39.28125 22.742188 37.519531 22.742188 37.519531 C 22.742188 37.519531 17.375 32.695312 16.203125 33.953125 C 15.039062 35.207031 17.097656 36.261719 20.015625 38.011719 C 22.949219 39.761719 23.175781 40.226562 22.761719 40.890625 C 22.34375 41.554688 15.878906 36.167969 15.273438 38.453125 C 14.667969 40.730469 21.871094 41.390625 21.429688 42.96875 C 20.980469 44.546875 16.351562 39.988281 15.410156 41.761719 C 14.457031 43.539062 21.9375 45.628906 22 45.644531 C 24.410156 46.265625 30.546875 47.578125 32.695312 44.46875 Z M 32.695312 44.46875 " fill-opacity="1" fill-rule="nonzero"/><path fill="#ff9d0b" d="M 54.445312 28.578125 C 55.351562 28.578125 56.164062 28.945312 56.726562 29.613281 C 57.222656 30.222656 57.472656 30.914062 57.46875 31.695312 C 57.828125 31.589844 58.191406 31.535156 58.5625 31.53125 C 59.433594 31.53125 60.21875 31.855469 60.773438 32.449219 C 61.019531 32.703125 61.21875 32.992188 61.371094 33.308594 C 61.523438 33.628906 61.621094 33.964844 61.660156 34.3125 C 61.699219 34.664062 61.683594 35.011719 61.609375 35.355469 C 61.53125 35.699219 61.402344 36.023438 61.21875 36.328125 C 61.726562 36.738281 62.058594 37.261719 62.21875 37.890625 C 62.351562 38.386719 62.488281 39.441406 61.769531 40.515625 C 62.042969 40.929688 62.199219 41.386719 62.234375 41.878906 C 62.273438 42.375 62.1875 42.84375 61.976562 43.296875 C 61.40625 44.582031 59.976562 45.589844 57.207031 46.675781 C 55.480469 47.351562 53.898438 47.78125 53.890625 47.789062 C 51.882812 48.335938 49.84375 48.632812 47.761719 48.675781 C 44.476562 48.675781 42.128906 47.675781 40.777344 45.714844 C 38.601562 42.566406 38.910156 39.679688 41.730469 36.898438 C 43.289062 35.359375 44.328125 33.09375 44.539062 32.59375 C 44.976562 31.121094 46.125 29.480469 48.035156 29.480469 C 48.554688 29.488281 49.039062 29.613281 49.492188 29.855469 C 49.949219 30.09375 50.320312 30.425781 50.617188 30.84375 C 51.175781 30.144531 51.726562 29.597656 52.222656 29.28125 C 52.894531 28.832031 53.632812 28.597656 54.445312 28.578125 Z M 54.445312 30.792969 C 54.15625 30.792969 53.808594 30.914062 53.421875 31.152344 C 52.230469 31.90625 49.921875 35.824219 49.074219 37.347656 C 48.957031 37.566406 48.792969 37.742188 48.578125 37.875 C 48.359375 38.003906 48.125 38.070312 47.875 38.074219 C 47.011719 38.074219 46.332031 37.226562 47.796875 36.144531 C 49.988281 34.523438 49.21875 31.867188 48.171875 31.707031 C 48.125 31.699219 48.082031 31.695312 48.035156 31.695312 C 47.085938 31.695312 46.664062 33.320312 46.664062 33.320312 C 46.664062 33.320312 45.429688 36.378906 43.316406 38.472656 C 41.199219 40.558594 41.085938 42.238281 42.632812 44.46875 C 43.679688 45.992188 45.699219 46.453125 47.761719 46.453125 C 49.902344 46.453125 52.09375 45.953125 53.328125 45.644531 C 53.382812 45.628906 60.867188 43.539062 59.921875 41.765625 C 59.757812 41.46875 59.5 41.347656 59.167969 41.347656 C 57.835938 41.347656 55.40625 43.308594 54.363281 43.308594 C 54.128906 43.308594 53.96875 43.210938 53.898438 42.972656 C 53.453125 41.394531 60.65625 40.730469 60.050781 38.449219 C 59.941406 38.042969 59.65625 37.882812 59.242188 37.882812 C 57.480469 37.882812 53.523438 40.945312 52.695312 40.945312 C 52.640625 40.945312 52.589844 40.929688 52.566406 40.890625 C 52.152344 40.226562 52.375 39.761719 55.300781 38.011719 C 58.234375 36.261719 60.289062 35.207031 59.113281 33.953125 C 58.984375 33.808594 58.792969 33.742188 58.5625 33.742188 C 56.78125 33.742188 52.582031 37.519531 52.582031 37.519531 C 52.582031 37.519531 51.449219 38.679688 50.765625 38.679688 C 50.59375 38.6875 50.46875 38.617188 50.386719 38.472656 C 49.898438 37.664062 54.898438 33.917969 55.179688 32.371094 C 55.367188 31.320312 55.042969 30.792969 54.445312 30.792969 Z M 54.445312 30.792969 " fill-opacity="1" fill-rule="nonzero"/><path fill="#ffd21e" d="M 42.632812 44.46875 C 41.09375 42.230469 41.199219 40.554688 43.316406 38.464844 C 45.429688 36.378906 46.664062 33.3125 46.664062 33.3125 C 46.664062 33.3125 47.125 31.542969 48.175781 31.707031 C 49.21875 31.875 49.988281 34.523438 47.796875 36.144531 C 45.597656 37.769531 48.234375 38.871094 49.074219 37.347656 C 49.921875 35.824219 52.230469 31.90625 53.421875 31.152344 C 54.617188 30.40625 55.464844 30.820312 55.179688 32.371094 C 54.898438 33.917969 49.898438 37.664062 50.386719 38.464844 C 50.867188 39.28125 52.582031 37.519531 52.582031 37.519531 C 52.582031 37.519531 57.953125 32.695312 59.117188 33.953125 C 60.285156 35.207031 58.234375 36.261719 55.308594 38.011719 C 52.375 39.761719 52.152344 40.226562 52.558594 40.890625 C 52.980469 41.554688 59.445312 36.167969 60.050781 38.453125 C 60.65625 40.730469 53.457031 41.390625 53.898438 42.96875 C 54.347656 44.546875 58.972656 39.988281 59.921875 41.761719 C 60.867188 43.539062 53.390625 45.628906 53.328125 45.644531 C 50.914062 46.265625 44.773438 47.578125 42.632812 44.46875 Z M 42.632812 44.46875 " fill-opacity="1" fill-rule="nonzero"/><g fill="#000000" fill-opacity="1"><g transform="translate(9.930595, 58.324773)"><g><path d="M 4.109375 0 L 4.109375 -2.234375 L 1.921875 -2.234375 L 1.921875 0 L 0.671875 0 L 0.671875 -5.5625 L 1.921875 -5.5625 L 1.921875 -3.421875 L 4.109375 -3.421875 L 4.109375 -5.5625 L 5.359375 -5.5625 L 5.359375 0 Z M 4.109375 0 "/></g></g></g><g fill="#000000" fill-opacity="1"><g transform="translate(15.95743, 58.324773)"><g><path d="M 2.265625 0.109375 C 1.722656 0.109375 1.296875 -0.0546875 0.984375 -0.390625 C 0.679688 -0.734375 0.53125 -1.195312 0.53125 -1.78125 L 0.53125 -4.171875 L 1.734375 -4.171875 L 1.734375 -1.890625 C 1.734375 -1.585938 1.804688 -1.347656 1.953125 -1.171875 C 2.097656 -1.003906 2.296875 -0.921875 2.546875 -0.921875 C 2.816406 -0.921875 3.035156 -1.015625 3.203125 -1.203125 C 3.367188 -1.398438 3.453125 -1.664062 3.453125 -2 L 3.453125 -4.171875 L 4.65625 -4.171875 L 4.65625 0 L 3.765625 0 L 3.640625 -0.46875 C 3.472656 -0.269531 3.269531 -0.125 3.03125 -0.03125 C 2.789062 0.0625 2.535156 0.109375 2.265625 0.109375 Z M 2.265625 0.109375 "/></g></g></g><g fill="#000000" fill-opacity="1"><g transform="translate(21.215046, 58.324773)"><g><path d="M 2.640625 1.765625 C 2.035156 1.765625 1.539062 1.625 1.15625 1.34375 C 0.78125 1.070312 0.566406 0.695312 0.515625 0.21875 L 1.6875 0.21875 C 1.726562 0.394531 1.828125 0.53125 1.984375 0.625 C 2.148438 0.726562 2.359375 0.78125 2.609375 0.78125 C 3.273438 0.78125 3.609375 0.441406 3.609375 -0.234375 L 3.609375 -0.53125 C 3.441406 -0.394531 3.25 -0.289062 3.03125 -0.21875 C 2.8125 -0.144531 2.578125 -0.109375 2.328125 -0.109375 C 1.929688 -0.109375 1.582031 -0.195312 1.28125 -0.375 C 0.976562 -0.550781 0.738281 -0.796875 0.5625 -1.109375 C 0.394531 -1.429688 0.3125 -1.796875 0.3125 -2.203125 C 0.3125 -2.609375 0.394531 -2.96875 0.5625 -3.28125 C 0.738281 -3.59375 0.976562 -3.835938 1.28125 -4.015625 C 1.582031 -4.191406 1.929688 -4.28125 2.328125 -4.28125 C 2.617188 -4.28125 2.890625 -4.226562 3.140625 -4.125 C 3.398438 -4.03125 3.617188 -3.890625 3.796875 -3.703125 L 3.921875 -4.171875 L 4.8125 -4.171875 L 4.8125 -0.234375 C 4.8125 0.179688 4.722656 0.535156 4.546875 0.828125 C 4.367188 1.128906 4.113281 1.359375 3.78125 1.515625 C 3.457031 1.679688 3.078125 1.765625 2.640625 1.765625 Z M 1.5 -2.203125 C 1.5 -1.878906 1.597656 -1.613281 1.796875 -1.40625 C 2.003906 -1.207031 2.265625 -1.109375 2.578125 -1.109375 C 2.898438 -1.109375 3.160156 -1.207031 3.359375 -1.40625 C 3.566406 -1.613281 3.671875 -1.878906 3.671875 -2.203125 C 3.671875 -2.515625 3.566406 -2.769531 3.359375 -2.96875 C 3.160156 -3.175781 2.898438 -3.28125 2.578125 -3.28125 C 2.265625 -3.28125 2.003906 -3.175781 1.796875 -2.96875 C 1.597656 -2.769531 1.5 -2.515625 1.5 -2.203125 Z M 1.5 -2.203125 "/></g></g></g><g fill="#000000" fill-opacity="1"><g transform="translate(26.639191, 58.324773)"><g><path d="M 2.640625 1.765625 C 2.035156 1.765625 1.539062 1.625 1.15625 1.34375 C 0.78125 1.070312 0.566406 0.695312 0.515625 0.21875 L 1.6875 0.21875 C 1.726562 0.394531 1.828125 0.53125 1.984375 0.625 C 2.148438 0.726562 2.359375 0.78125 2.609375 0.78125 C 3.273438 0.78125 3.609375 0.441406 3.609375 -0.234375 L 3.609375 -0.53125 C 3.441406 -0.394531 3.25 -0.289062 3.03125 -0.21875 C 2.8125 -0.144531 2.578125 -0.109375 2.328125 -0.109375 C 1.929688 -0.109375 1.582031 -0.195312 1.28125 -0.375 C 0.976562 -0.550781 0.738281 -0.796875 0.5625 -1.109375 C 0.394531 -1.429688 0.3125 -1.796875 0.3125 -2.203125 C 0.3125 -2.609375 0.394531 -2.96875 0.5625 -3.28125 C 0.738281 -3.59375 0.976562 -3.835938 1.28125 -4.015625 C 1.582031 -4.191406 1.929688 -4.28125 2.328125 -4.28125 C 2.617188 -4.28125 2.890625 -4.226562 3.140625 -4.125 C 3.398438 -4.03125 3.617188 -3.890625 3.796875 -3.703125 L 3.921875 -4.171875 L 4.8125 -4.171875 L 4.8125 -0.234375 C 4.8125 0.179688 4.722656 0.535156 4.546875 0.828125 C 4.367188 1.128906 4.113281 1.359375 3.78125 1.515625 C 3.457031 1.679688 3.078125 1.765625 2.640625 1.765625 Z M 1.5 -2.203125 C 1.5 -1.878906 1.597656 -1.613281 1.796875 -1.40625 C 2.003906 -1.207031 2.265625 -1.109375 2.578125 -1.109375 C 2.898438 -1.109375 3.160156 -1.207031 3.359375 -1.40625 C 3.566406 -1.613281 3.671875 -1.878906 3.671875 -2.203125 C 3.671875 -2.515625 3.566406 -2.769531 3.359375 -2.96875 C 3.160156 -3.175781 2.898438 -3.28125 2.578125 -3.28125 C 2.265625 -3.28125 2.003906 -3.175781 1.796875 -2.96875 C 1.597656 -2.769531 1.5 -2.515625 1.5 -2.203125 Z M 1.5 -2.203125 "/></g></g></g><g fill="#000000" fill-opacity="1"><g transform="translate(32.063336, 58.324773)"><g><path d="M 0.609375 0 L 0.609375 -4.171875 L 1.8125 -4.171875 L 1.8125 0 Z M 0.421875 -5.515625 C 0.421875 -5.734375 0.492188 -5.910156 0.640625 -6.046875 C 0.785156 -6.191406 0.972656 -6.265625 1.203125 -6.265625 C 1.441406 -6.265625 1.628906 -6.191406 1.765625 -6.046875 C 1.910156 -5.910156 1.984375 -5.734375 1.984375 -5.515625 C 1.984375 -5.296875 1.910156 -5.113281 1.765625 -4.96875 C 1.628906 -4.832031 1.441406 -4.765625 1.203125 -4.765625 C 0.972656 -4.765625 0.785156 -4.832031 0.640625 -4.96875 C 0.492188 -5.113281 0.421875 -5.296875 0.421875 -5.515625 Z M 0.421875 -5.515625 "/></g></g></g><g fill="#000000" fill-opacity="1"><g transform="translate(34.474069, 58.324773)"><g><path d="M 0.609375 0 L 0.609375 -4.171875 L 1.5 -4.171875 L 1.625 -3.703125 C 1.789062 -3.898438 1.992188 -4.046875 2.234375 -4.140625 C 2.484375 -4.234375 2.742188 -4.28125 3.015625 -4.28125 C 3.554688 -4.28125 3.984375 -4.109375 4.296875 -3.765625 C 4.609375 -3.429688 4.765625 -2.972656 4.765625 -2.390625 L 4.765625 0 L 3.5625 0 L 3.5625 -2.265625 C 3.5625 -2.578125 3.488281 -2.816406 3.34375 -2.984375 C 3.195312 -3.160156 2.992188 -3.25 2.734375 -3.25 C 2.453125 -3.25 2.226562 -3.148438 2.0625 -2.953125 C 1.894531 -2.765625 1.8125 -2.507812 1.8125 -2.1875 L 1.8125 0 Z M 0.609375 0 "/></g></g></g><g fill="#000000" fill-opacity="1"><g transform="translate(39.755472, 58.324773)"><g><path d="M 2.640625 1.765625 C 2.035156 1.765625 1.539062 1.625 1.15625 1.34375 C 0.78125 1.070312 0.566406 0.695312 0.515625 0.21875 L 1.6875 0.21875 C 1.726562 0.394531 1.828125 0.53125 1.984375 0.625 C 2.148438 0.726562 2.359375 0.78125 2.609375 0.78125 C 3.273438 0.78125 3.609375 0.441406 3.609375 -0.234375 L 3.609375 -0.53125 C 3.441406 -0.394531 3.25 -0.289062 3.03125 -0.21875 C 2.8125 -0.144531 2.578125 -0.109375 2.328125 -0.109375 C 1.929688 -0.109375 1.582031 -0.195312 1.28125 -0.375 C 0.976562 -0.550781 0.738281 -0.796875 0.5625 -1.109375 C 0.394531 -1.429688 0.3125 -1.796875 0.3125 -2.203125 C 0.3125 -2.609375 0.394531 -2.96875 0.5625 -3.28125 C 0.738281 -3.59375 0.976562 -3.835938 1.28125 -4.015625 C 1.582031 -4.191406 1.929688 -4.28125 2.328125 -4.28125 C 2.617188 -4.28125 2.890625 -4.226562 3.140625 -4.125 C 3.398438 -4.03125 3.617188 -3.890625 3.796875 -3.703125 L 3.921875 -4.171875 L 4.8125 -4.171875 L 4.8125 -0.234375 C 4.8125 0.179688 4.722656 0.535156 4.546875 0.828125 C 4.367188 1.128906 4.113281 1.359375 3.78125 1.515625 C 3.457031 1.679688 3.078125 1.765625 2.640625 1.765625 Z M 1.5 -2.203125 C 1.5 -1.878906 1.597656 -1.613281 1.796875 -1.40625 C 2.003906 -1.207031 2.265625 -1.109375 2.578125 -1.109375 C 2.898438 -1.109375 3.160156 -1.207031 3.359375 -1.40625 C 3.566406 -1.613281 3.671875 -1.878906 3.671875 -2.203125 C 3.671875 -2.515625 3.566406 -2.769531 3.359375 -2.96875 C 3.160156 -3.175781 2.898438 -3.28125 2.578125 -3.28125 C 2.265625 -3.28125 2.003906 -3.175781 1.796875 -2.96875 C 1.597656 -2.769531 1.5 -2.515625 1.5 -2.203125 Z M 1.5 -2.203125 "/></g></g></g><g fill="#000000" fill-opacity="1"><g transform="translate(45.179617, 58.324773)"><g/></g></g><g fill="#000000" fill-opacity="1"><g transform="translate(46.78934, 58.324773)"><g><path d="M 1.015625 -4.5 C 1.015625 -4.988281 1.144531 -5.363281 1.40625 -5.625 C 1.675781 -5.894531 2.0625 -6.03125 2.5625 -6.03125 L 3.484375 -6.03125 L 3.484375 -5.078125 L 2.828125 -5.078125 C 2.609375 -5.078125 2.445312 -5.023438 2.34375 -4.921875 C 2.25 -4.816406 2.203125 -4.65625 2.203125 -4.4375 L 2.203125 -4.171875 L 3.4375 -4.171875 L 3.4375 -3.1875 L 2.21875 -3.1875 L 2.21875 0 L 1.015625 0 L 1.015625 -3.1875 L 0.1875 -3.1875 L 0.1875 -4.171875 L 1.015625 -4.171875 Z M 1.015625 -4.5 "/></g></g></g><g fill="#000000" fill-opacity="1"><g transform="translate(50.167477, 58.324773)"><g><path d="M 2 0.078125 C 1.5 0.078125 1.101562 -0.0351562 0.8125 -0.265625 C 0.53125 -0.492188 0.390625 -0.8125 0.390625 -1.21875 C 0.390625 -1.601562 0.519531 -1.910156 0.78125 -2.140625 C 1.039062 -2.367188 1.382812 -2.484375 1.8125 -2.484375 L 3.328125 -2.484375 L 3.328125 -2.671875 C 3.328125 -2.878906 3.25 -3.046875 3.09375 -3.171875 C 2.945312 -3.296875 2.757812 -3.359375 2.53125 -3.359375 C 2.332031 -3.359375 2.160156 -3.3125 2.015625 -3.21875 C 1.878906 -3.132812 1.796875 -3.015625 1.765625 -2.859375 L 0.609375 -2.859375 C 0.679688 -3.316406 0.882812 -3.664062 1.21875 -3.90625 C 1.550781 -4.15625 1.984375 -4.28125 2.515625 -4.28125 C 3.140625 -4.28125 3.628906 -4.117188 3.984375 -3.796875 C 4.335938 -3.484375 4.515625 -3.054688 4.515625 -2.515625 L 4.515625 0 L 3.609375 0 L 3.484375 -0.484375 C 3.109375 -0.109375 2.613281 0.078125 2 0.078125 Z M 1.59375 -1.265625 C 1.59375 -1.117188 1.648438 -1 1.765625 -0.90625 C 1.890625 -0.820312 2.054688 -0.78125 2.265625 -0.78125 C 2.566406 -0.78125 2.816406 -0.867188 3.015625 -1.046875 C 3.210938 -1.222656 3.316406 -1.453125 3.328125 -1.734375 L 2.1875 -1.734375 C 2.007812 -1.734375 1.863281 -1.6875 1.75 -1.59375 C 1.644531 -1.507812 1.59375 -1.398438 1.59375 -1.265625 Z M 1.59375 -1.265625 "/></g></g></g><g fill="#000000" fill-opacity="1"><g transform="translate(55.195119, 58.324773)"><g><path d="M 2.59375 0.109375 C 2.144531 0.109375 1.75 0.015625 1.40625 -0.171875 C 1.0625 -0.359375 0.789062 -0.613281 0.59375 -0.9375 C 0.40625 -1.269531 0.3125 -1.65625 0.3125 -2.09375 C 0.3125 -2.519531 0.40625 -2.894531 0.59375 -3.21875 C 0.789062 -3.550781 1.0625 -3.8125 1.40625 -4 C 1.75 -4.1875 2.144531 -4.28125 2.59375 -4.28125 C 2.976562 -4.28125 3.328125 -4.207031 3.640625 -4.0625 C 3.953125 -3.925781 4.210938 -3.726562 4.421875 -3.46875 C 4.628906 -3.21875 4.765625 -2.921875 4.828125 -2.578125 L 3.671875 -2.578125 C 3.566406 -2.785156 3.421875 -2.945312 3.234375 -3.0625 C 3.046875 -3.1875 2.835938 -3.25 2.609375 -3.25 C 2.285156 -3.25 2.019531 -3.140625 1.8125 -2.921875 C 1.601562 -2.710938 1.5 -2.4375 1.5 -2.09375 C 1.5 -1.75 1.601562 -1.46875 1.8125 -1.25 C 2.019531 -1.03125 2.285156 -0.921875 2.609375 -0.921875 C 2.859375 -0.921875 3.078125 -0.988281 3.265625 -1.125 C 3.460938 -1.257812 3.601562 -1.441406 3.6875 -1.671875 L 4.859375 -1.671875 C 4.785156 -1.304688 4.644531 -0.988281 4.4375 -0.71875 C 4.226562 -0.457031 3.960938 -0.253906 3.640625 -0.109375 C 3.328125 0.0351562 2.976562 0.109375 2.59375 0.109375 Z M 2.59375 0.109375 "/></g></g></g><g fill="#000000" fill-opacity="1"><g transform="translate(60.349641, 58.324773)"><g><path d="M 2.578125 0.109375 C 2.128906 0.109375 1.734375 0.0195312 1.390625 -0.15625 C 1.046875 -0.34375 0.78125 -0.601562 0.59375 -0.9375 C 0.40625 -1.269531 0.3125 -1.65625 0.3125 -2.09375 C 0.3125 -2.519531 0.40625 -2.894531 0.59375 -3.21875 C 0.789062 -3.550781 1.054688 -3.8125 1.390625 -4 C 1.734375 -4.1875 2.132812 -4.28125 2.59375 -4.28125 C 3.0625 -4.28125 3.46875 -4.171875 3.8125 -3.953125 C 4.164062 -3.742188 4.429688 -3.445312 4.609375 -3.0625 C 4.796875 -2.6875 4.875 -2.242188 4.84375 -1.734375 L 1.515625 -1.734375 C 1.566406 -1.453125 1.691406 -1.234375 1.890625 -1.078125 C 2.085938 -0.929688 2.320312 -0.859375 2.59375 -0.859375 C 2.789062 -0.859375 2.972656 -0.894531 3.140625 -0.96875 C 3.304688 -1.050781 3.441406 -1.160156 3.546875 -1.296875 L 4.765625 -1.296875 C 4.585938 -0.859375 4.304688 -0.515625 3.921875 -0.265625 C 3.535156 -0.015625 3.085938 0.109375 2.578125 0.109375 Z M 1.515625 -2.5 L 3.6875 -2.5 C 3.613281 -2.75 3.484375 -2.945312 3.296875 -3.09375 C 3.109375 -3.238281 2.875 -3.3125 2.59375 -3.3125 C 2.332031 -3.3125 2.101562 -3.238281 1.90625 -3.09375 C 1.71875 -2.945312 1.585938 -2.75 1.515625 -2.5 Z M 1.515625 -2.5 "/></g></g></g></svg>