<svg xmlns="http://www.w3.org/2000/svg" xmlns:xlink="http://www.w3.org/1999/xlink" width="100" zoomAndPan="magnify" viewBox="0 0 75 74.999997" height="100" preserveAspectRatio="xMidYMid meet" version="1.0"><defs><clipPath id="695c36af17"><path d="M 37.75 0 C 16.902344 0 0 16.902344 0 37.75 C 0 58.597656 16.902344 75.496094 37.75 75.496094 C 58.597656 75.496094 75.496094 58.597656 75.496094 37.75 C 75.496094 16.902344 58.597656 0 37.75 0 Z M 37.75 0 " clip-rule="nonzero"/></clipPath><clipPath id="4d1118e81b"><path d="M 5.160156 37 L 28 37 L 28 60.226562 L 5.160156 60.226562 Z M 5.160156 37 " clip-rule="nonzero"/></clipPath><clipPath id="105b8cd773"><path d="M 16 4.726562 L 61 4.726562 L 61 50 L 16 50 Z M 16 4.726562 " clip-rule="nonzero"/></clipPath><clipPath id="30132c71ac"><path d="M 60 50 L 65.160156 50 L 65.160156 60 L 60 60 Z M 60 50 " clip-rule="nonzero"/></clipPath></defs><g clip-path="url(#695c36af17)"><rect x="-7.5" width="90" fill="#ffffff" y="-7.5" height="89.999996" fill-opacity="1"/></g><g clip-path="url(#4d1118e81b)"><path fill="#e15617" d="M 17.644531 53.894531 C 19.429688 53.429688 20.8125 52.152344 21.339844 50.480469 C 22.234375 47.660156 20.714844 44.753906 17.890625 43.875 C 17.445312 43.738281 17.230469 43.714844 16.394531 43.71875 C 15.523438 43.722656 15.363281 43.746094 14.867188 43.914062 C 14.558594 44.019531 14.089844 44.234375 13.820312 44.390625 C 13.242188 44.734375 12.320312 45.644531 11.988281 46.210938 C 11.335938 47.316406 11.109375 48.824219 11.414062 50.027344 C 11.953125 52.175781 13.585938 53.664062 15.769531 54.007812 C 16.203125 54.074219 17.179688 54.019531 17.644531 53.894531 Z M 12.152344 59.800781 L 11.039062 59.335938 L 11.042969 58.953125 C 11.042969 58.742188 11.070312 58.070312 11.101562 57.453125 L 11.160156 56.335938 L 10.675781 55.9375 C 10.191406 55.539062 9.695312 55.039062 9.289062 54.535156 L 9.066406 54.265625 L 7.667969 54.351562 C 6.472656 54.429688 6.25 54.429688 6.175781 54.34375 C 6.039062 54.199219 5.289062 52.253906 5.324219 52.152344 C 5.34375 52.105469 5.808594 51.683594 6.359375 51.21875 L 7.363281 50.371094 L 7.339844 47.550781 L 6.285156 46.644531 C 5.707031 46.144531 5.203125 45.703125 5.164062 45.664062 C 5.089844 45.589844 5.855469 43.597656 6.023438 43.414062 C 6.09375 43.339844 6.371094 43.34375 7.53125 43.417969 L 8.953125 43.511719 L 9.160156 43.296875 C 9.277344 43.179688 9.558594 42.878906 9.785156 42.628906 C 10.015625 42.375 10.390625 42.011719 10.613281 41.816406 L 11.023438 41.464844 L 10.933594 39.914062 C 10.855469 38.582031 10.855469 38.355469 10.941406 38.304688 C 11.179688 38.152344 12.984375 37.464844 13.089844 37.484375 C 13.15625 37.496094 13.640625 38.015625 14.167969 38.636719 L 15.125 39.769531 L 16.074219 39.730469 C 16.59375 39.707031 17.210938 39.71875 17.4375 39.757812 C 17.667969 39.796875 17.902344 39.800781 17.960938 39.769531 C 18.019531 39.738281 18.457031 39.242188 18.933594 38.667969 C 19.414062 38.089844 19.84375 37.605469 19.894531 37.582031 C 19.976562 37.546875 22.039062 38.328125 22.152344 38.441406 C 22.183594 38.46875 22.160156 39.179688 22.105469 40.019531 L 22 41.550781 L 22.644531 42.179688 C 23 42.523438 23.429688 42.972656 23.601562 43.171875 C 23.886719 43.503906 23.9375 43.53125 24.15625 43.503906 C 24.664062 43.4375 26.929688 43.320312 26.988281 43.355469 C 27.023438 43.375 27.25 43.886719 27.492188 44.488281 L 27.933594 45.582031 L 27.625 45.867188 C 27.457031 46.027344 26.921875 46.492188 26.4375 46.902344 L 25.554688 47.648438 L 25.53125 48.890625 C 25.515625 49.574219 25.519531 50.167969 25.542969 50.210938 C 25.5625 50.253906 26.046875 50.6875 26.621094 51.171875 C 27.195312 51.660156 27.6875 52.097656 27.710938 52.144531 C 27.753906 52.21875 26.960938 54.28125 26.84375 54.394531 C 26.820312 54.421875 26.144531 54.402344 25.347656 54.355469 L 23.902344 54.265625 L 22.878906 55.292969 L 21.851562 56.320312 L 21.929688 57.515625 C 21.972656 58.171875 21.996094 58.835938 21.984375 58.988281 L 21.960938 59.261719 L 20.886719 59.695312 C 20.292969 59.929688 19.777344 60.109375 19.738281 60.09375 C 19.699219 60.078125 19.265625 59.585938 18.777344 59.003906 L 17.886719 57.945312 L 16.550781 57.960938 C 15.601562 57.976562 15.191406 58.007812 15.136719 58.066406 C 15.09375 58.113281 14.691406 58.59375 14.238281 59.128906 C 13.785156 59.667969 13.382812 60.140625 13.339844 60.1875 C 13.285156 60.246094 12.980469 60.148438 12.152344 59.800781 Z M 12.152344 59.800781 " fill-opacity="1" fill-rule="nonzero"/></g><g clip-path="url(#105b8cd773)"><path fill="#000000" d="M 37.691406 49.035156 C 37.636719 48.949219 37.414062 48.328125 37.199219 47.65625 C 36.984375 46.984375 36.769531 46.398438 36.722656 46.355469 C 36.675781 46.308594 36.296875 46.222656 35.875 46.15625 C 35.453125 46.09375 34.804688 45.964844 34.429688 45.875 C 34.058594 45.78125 33.710938 45.722656 33.664062 45.742188 C 33.617188 45.765625 33.171875 46.269531 32.675781 46.863281 C 32.175781 47.460938 31.746094 47.960938 31.714844 47.980469 C 31.621094 48.039062 29.5 47.15625 29.457031 47.039062 C 29.433594 46.980469 29.457031 46.289062 29.503906 45.5 C 29.589844 44.128906 29.585938 44.0625 29.464844 43.972656 C 29.394531 43.921875 29.023438 43.691406 28.640625 43.453125 C 28.257812 43.21875 27.671875 42.828125 27.34375 42.585938 C 27.011719 42.34375 26.691406 42.144531 26.628906 42.144531 C 26.566406 42.144531 26.015625 42.394531 25.40625 42.703125 C 24.792969 43.007812 24.253906 43.261719 24.203125 43.261719 C 24.089844 43.261719 22.484375 41.648438 22.484375 41.53125 C 22.484375 41.484375 22.75 40.910156 23.078125 40.257812 L 23.671875 39.066406 L 23.296875 38.566406 C 22.839844 37.960938 22.136719 36.890625 21.878906 36.410156 L 21.6875 36.0625 L 20.675781 36.121094 C 20.121094 36.152344 19.460938 36.179688 19.214844 36.179688 L 18.761719 36.179688 L 18.332031 35.132812 C 18.097656 34.558594 17.898438 34.050781 17.898438 34.003906 C 17.894531 33.957031 18.320312 33.550781 18.847656 33.101562 C 19.375 32.65625 19.863281 32.234375 19.933594 32.167969 C 20.058594 32.050781 20.058594 32.023438 19.882812 31.253906 C 19.78125 30.816406 19.652344 30.148438 19.589844 29.761719 C 19.53125 29.378906 19.453125 29.035156 19.414062 28.996094 C 19.375 28.957031 18.746094 28.722656 18.011719 28.472656 L 16.675781 28.019531 L 16.675781 25.519531 L 19.457031 24.589844 L 19.601562 23.722656 C 19.683594 23.246094 19.816406 22.566406 19.898438 22.207031 C 19.980469 21.847656 20.046875 21.515625 20.046875 21.460938 C 20.046875 21.410156 19.5625 20.953125 18.96875 20.449219 C 18.375 19.941406 17.890625 19.492188 17.894531 19.449219 C 17.894531 19.40625 18.089844 18.898438 18.328125 18.324219 L 18.761719 17.277344 L 19.320312 17.277344 C 19.625 17.277344 20.296875 17.292969 20.808594 17.3125 L 21.742188 17.347656 L 22.191406 16.613281 C 22.4375 16.210938 22.832031 15.621094 23.066406 15.300781 C 23.300781 14.980469 23.53125 14.660156 23.582031 14.589844 C 23.660156 14.480469 23.597656 14.3125 23.078125 13.273438 C 22.75 12.617188 22.484375 12.042969 22.484375 11.996094 C 22.484375 11.878906 24.089844 10.265625 24.203125 10.265625 C 24.253906 10.265625 24.828125 10.535156 25.480469 10.863281 C 26.515625 11.382812 26.6875 11.449219 26.792969 11.371094 C 27.796875 10.632812 28.410156 10.214844 28.96875 9.882812 L 29.648438 9.480469 L 29.648438 9.089844 C 29.648438 8.875 29.617188 8.257812 29.578125 7.722656 C 29.523438 6.957031 29.527344 6.734375 29.59375 6.671875 C 29.71875 6.558594 31.585938 5.800781 31.738281 5.800781 C 31.808594 5.800781 32.207031 6.214844 32.714844 6.820312 C 33.695312 7.984375 33.453125 7.894531 34.796875 7.59375 C 35.234375 7.496094 35.863281 7.378906 36.1875 7.335938 C 36.511719 7.292969 36.816406 7.226562 36.863281 7.1875 C 36.90625 7.148438 37.121094 6.585938 37.335938 5.933594 L 37.730469 4.753906 L 40.175781 4.792969 L 40.566406 5.945312 C 40.777344 6.578125 40.976562 7.132812 41.007812 7.175781 C 41.035156 7.222656 41.238281 7.277344 41.457031 7.304688 C 41.976562 7.363281 43.859375 7.742188 44.09375 7.828125 C 44.324219 7.917969 44.308594 7.929688 45.207031 6.871094 C 45.605469 6.398438 45.976562 6.011719 46.03125 6.011719 C 46.082031 6.011719 46.597656 6.203125 47.171875 6.441406 L 48.222656 6.867188 L 48.214844 7.398438 C 48.210938 7.691406 48.1875 8.242188 48.164062 8.625 C 48.125 9.1875 48.136719 9.339844 48.222656 9.429688 C 48.28125 9.492188 48.65625 9.742188 49.0625 9.980469 C 49.464844 10.222656 50.117188 10.652344 50.507812 10.941406 L 51.222656 11.46875 L 52.394531 10.867188 C 53.039062 10.535156 53.609375 10.265625 53.660156 10.265625 C 53.78125 10.265625 55.386719 11.875 55.386719 11.996094 C 55.386719 12.042969 55.136719 12.582031 54.832031 13.195312 C 54.527344 13.808594 54.273438 14.371094 54.273438 14.445312 C 54.273438 14.519531 54.347656 14.667969 54.4375 14.777344 C 54.699219 15.089844 55.613281 16.460938 55.914062 16.988281 L 56.1875 17.46875 L 57.265625 17.410156 C 57.859375 17.378906 58.46875 17.351562 58.621094 17.351562 L 58.902344 17.347656 L 59.332031 18.394531 C 59.566406 18.96875 59.761719 19.488281 59.765625 19.546875 C 59.769531 19.601562 59.332031 20.023438 58.796875 20.476562 C 58.195312 20.988281 57.824219 21.351562 57.824219 21.429688 C 57.824219 21.5 57.898438 21.878906 57.996094 22.269531 C 58.089844 22.664062 58.21875 23.332031 58.277344 23.757812 C 58.339844 24.183594 58.414062 24.578125 58.441406 24.632812 C 58.46875 24.6875 59.023438 24.910156 59.671875 25.125 L 60.847656 25.519531 L 60.886719 28.019531 L 59.667969 28.425781 C 58.640625 28.769531 58.445312 28.855469 58.417969 28.984375 C 58.398438 29.066406 58.320312 29.523438 58.242188 29.992188 C 58.167969 30.464844 58.039062 31.105469 57.964844 31.414062 C 57.886719 31.726562 57.824219 32.015625 57.824219 32.058594 C 57.824219 32.101562 58.261719 32.511719 58.796875 32.964844 C 59.332031 33.417969 59.769531 33.824219 59.773438 33.871094 C 59.773438 34.019531 58.910156 36.070312 58.835938 36.09375 C 58.796875 36.109375 58.230469 36.082031 57.578125 36.039062 C 56.929688 35.996094 56.359375 35.976562 56.3125 35.992188 C 56.265625 36.007812 56.019531 36.371094 55.765625 36.796875 C 55.507812 37.226562 55.070312 37.894531 54.789062 38.285156 C 54.503906 38.675781 54.273438 39.042969 54.273438 39.105469 C 54.273438 39.167969 54.527344 39.71875 54.832031 40.332031 C 55.136719 40.945312 55.386719 41.5 55.386719 41.570312 C 55.386719 41.730469 53.859375 43.261719 53.699219 43.261719 C 53.632812 43.261719 53.078125 43.007812 52.464844 42.703125 C 51.855469 42.394531 51.304688 42.144531 51.246094 42.144531 C 51.183594 42.144531 50.789062 42.394531 50.367188 42.703125 C 49.945312 43.007812 49.320312 43.421875 48.984375 43.617188 C 48.644531 43.8125 48.332031 44.015625 48.285156 44.070312 C 48.222656 44.144531 48.222656 44.484375 48.289062 45.5 C 48.335938 46.234375 48.347656 46.855469 48.316406 46.886719 C 48.257812 46.9375 46.179688 47.792969 46.109375 47.792969 C 46.089844 47.792969 45.675781 47.324219 45.191406 46.75 C 44.703125 46.171875 44.265625 45.703125 44.222656 45.703125 C 44.175781 45.703125 43.828125 45.777344 43.449219 45.871094 C 43.070312 45.964844 42.417969 46.09375 41.996094 46.15625 C 41.574219 46.222656 41.199219 46.304688 41.160156 46.339844 C 41.125 46.375 40.886719 47.023438 40.632812 47.78125 L 40.175781 49.15625 L 38.984375 49.175781 C 37.8125 49.191406 37.792969 49.191406 37.691406 49.035156 Z M 41.371094 36.734375 C 41.78125 36.628906 42.613281 36.289062 43.226562 35.988281 C 45.75 34.734375 47.46875 32.722656 48.386719 29.945312 C 48.730469 28.90625 48.765625 28.664062 48.773438 27.078125 C 48.78125 25.617188 48.738281 25.1875 48.496094 24.351562 C 47.667969 21.460938 45.726562 19.144531 43.101562 17.90625 C 41.488281 17.144531 40.542969 16.933594 38.777344 16.9375 C 37.214844 16.941406 36.355469 17.101562 34.992188 17.65625 C 33.714844 18.171875 32.878906 18.75 31.671875 19.957031 C 30.625 21 30.417969 21.28125 29.859375 22.433594 C 28.992188 24.210938 28.785156 25.105469 28.789062 27.015625 C 28.789062 28.226562 28.847656 28.773438 29.058594 29.519531 C 30.140625 33.367188 33.234375 36.222656 37.082031 36.925781 C 37.929688 37.082031 40.507812 36.96875 41.371094 36.734375 Z M 41.371094 36.734375 " fill-opacity="1" fill-rule="nonzero"/></g><path fill="#000000" d="M 34.535156 56.777344 C 34.535156 57.144531 34.488281 57.488281 34.390625 57.816406 C 34.300781 58.140625 34.144531 58.425781 33.925781 58.667969 C 33.714844 58.914062 33.441406 59.109375 33.097656 59.253906 C 32.757812 59.394531 32.34375 59.464844 31.855469 59.464844 C 31.34375 59.464844 30.917969 59.398438 30.578125 59.269531 C 30.238281 59.136719 29.949219 58.980469 29.714844 58.792969 L 30.285156 57.59375 C 30.488281 57.726562 30.710938 57.851562 30.957031 57.972656 C 31.207031 58.097656 31.464844 58.15625 31.722656 58.15625 C 32.113281 58.15625 32.425781 58.054688 32.660156 57.851562 C 32.902344 57.640625 33.027344 57.253906 33.027344 56.691406 L 33.027344 52.992188 L 30.503906 52.992188 L 30.503906 51.75 L 34.535156 51.75 Z M 34.535156 56.777344 " fill-opacity="1" fill-rule="nonzero"/><path fill="#000000" d="M 41.035156 56.421875 C 41.035156 56.878906 40.972656 57.292969 40.839844 57.667969 C 40.710938 58.035156 40.527344 58.351562 40.292969 58.621094 C 40.058594 58.890625 39.773438 59.097656 39.441406 59.242188 C 39.117188 59.390625 38.75 59.464844 38.347656 59.464844 C 37.941406 59.464844 37.570312 59.390625 37.238281 59.242188 C 36.914062 59.097656 36.628906 58.890625 36.386719 58.621094 C 36.152344 58.351562 35.96875 58.035156 35.839844 57.667969 C 35.707031 57.292969 35.644531 56.878906 35.644531 56.421875 C 35.644531 55.976562 35.707031 55.570312 35.839844 55.203125 C 35.976562 54.828125 36.164062 54.511719 36.398438 54.25 C 36.640625 53.980469 36.929688 53.777344 37.261719 53.640625 C 37.59375 53.492188 37.957031 53.421875 38.347656 53.421875 C 38.742188 53.421875 39.105469 53.492188 39.429688 53.640625 C 39.761719 53.777344 40.046875 53.980469 40.28125 54.25 C 40.523438 54.511719 40.710938 54.828125 40.839844 55.203125 C 40.972656 55.570312 41.035156 55.976562 41.035156 56.421875 Z M 37.164062 56.4375 C 37.164062 56.949219 37.253906 57.363281 37.433594 57.679688 C 37.621094 58 37.914062 58.15625 38.320312 58.15625 C 38.710938 58.15625 39.003906 58 39.199219 57.679688 C 39.402344 57.363281 39.503906 56.949219 39.503906 56.4375 C 39.503906 55.921875 39.410156 55.511719 39.222656 55.203125 C 39.042969 54.886719 38.75 54.726562 38.347656 54.726562 C 37.957031 54.726562 37.660156 54.886719 37.457031 55.203125 C 37.261719 55.511719 37.164062 55.921875 37.164062 56.4375 Z M 37.164062 56.4375 " fill-opacity="1" fill-rule="nonzero"/><path fill="#000000" d="M 45.578125 56.398438 C 45.578125 55.863281 45.488281 55.453125 45.308594 55.167969 C 45.140625 54.882812 44.875 54.738281 44.519531 54.738281 C 44.355469 54.738281 44.195312 54.761719 44.03125 54.8125 C 43.878906 54.851562 43.742188 54.90625 43.628906 54.972656 L 43.628906 58.082031 C 43.742188 58.109375 43.859375 58.125 43.984375 58.132812 C 44.113281 58.140625 44.222656 58.144531 44.3125 58.144531 C 44.699219 58.144531 45.007812 58.015625 45.238281 57.753906 C 45.464844 57.484375 45.578125 57.035156 45.578125 56.398438 Z M 47.097656 56.4375 C 47.097656 56.890625 47.039062 57.308594 46.917969 57.679688 C 46.792969 58.046875 46.617188 58.359375 46.378906 58.621094 C 46.144531 58.882812 45.855469 59.085938 45.515625 59.230469 C 45.175781 59.371094 44.785156 59.4375 44.347656 59.4375 C 43.957031 59.4375 43.558594 59.410156 43.15625 59.351562 C 42.75 59.296875 42.40625 59.222656 42.132812 59.132812 L 42.132812 51.089844 L 43.628906 50.832031 L 43.628906 53.703125 C 43.839844 53.605469 44.042969 53.539062 44.238281 53.507812 C 44.433594 53.464844 44.628906 53.445312 44.824219 53.445312 C 45.195312 53.445312 45.523438 53.519531 45.808594 53.664062 C 46.09375 53.804688 46.328125 54.007812 46.515625 54.273438 C 46.710938 54.535156 46.855469 54.847656 46.953125 55.214844 C 47.050781 55.582031 47.097656 55.988281 47.097656 56.4375 Z M 47.097656 56.4375 " fill-opacity="1" fill-rule="nonzero"/><path fill="#e15617" d="M 52.949219 59.074219 C 52.925781 59.089844 52.867188 59.117188 52.777344 59.160156 C 52.695312 59.199219 52.585938 59.246094 52.449219 59.292969 C 52.3125 59.335938 52.140625 59.371094 51.9375 59.402344 C 51.742188 59.4375 51.519531 59.453125 51.269531 59.453125 C 50.578125 59.453125 50.074219 59.25 49.757812 58.84375 C 49.441406 58.425781 49.285156 57.824219 49.285156 57.035156 L 49.285156 52.164062 L 47.703125 52.164062 L 47.703125 50.917969 L 50.78125 50.917969 L 50.78125 57.144531 C 50.78125 57.535156 50.859375 57.800781 51.011719 57.9375 C 51.167969 58.078125 51.363281 58.144531 51.597656 58.144531 C 51.898438 58.144531 52.148438 58.105469 52.351562 58.023438 C 52.554688 57.941406 52.6875 57.890625 52.753906 57.867188 Z M 52.949219 59.074219 " fill-opacity="1" fill-rule="nonzero"/><path fill="#e15617" d="M 56.808594 51.933594 C 56.808594 52.226562 56.714844 52.457031 56.527344 52.628906 C 56.339844 52.800781 56.117188 52.886719 55.859375 52.886719 C 55.597656 52.886719 55.375 52.800781 55.1875 52.628906 C 55.011719 52.457031 54.921875 52.226562 54.921875 51.933594 C 54.921875 51.632812 55.011719 51.394531 55.1875 51.226562 C 55.375 51.054688 55.597656 50.96875 55.859375 50.96875 C 56.117188 50.96875 56.339844 51.054688 56.527344 51.226562 C 56.714844 51.394531 56.808594 51.632812 56.808594 51.933594 Z M 59.035156 59.074219 C 58.726562 59.21875 58.433594 59.316406 58.160156 59.367188 C 57.890625 59.421875 57.644531 59.453125 57.417969 59.453125 C 57.027344 59.453125 56.699219 59.394531 56.429688 59.28125 C 56.171875 59.167969 55.960938 59.003906 55.796875 58.792969 C 55.644531 58.574219 55.535156 58.308594 55.46875 58 C 55.402344 57.691406 55.371094 57.335938 55.371094 56.9375 L 55.371094 54.824219 L 53.789062 54.824219 L 53.789062 53.582031 L 56.867188 53.582031 L 56.867188 57.132812 C 56.867188 57.476562 56.929688 57.730469 57.050781 57.902344 C 57.179688 58.066406 57.390625 58.144531 57.683594 58.144531 C 57.820312 58.144531 57.988281 58.128906 58.183594 58.097656 C 58.378906 58.054688 58.597656 57.980469 58.839844 57.867188 Z M 59.035156 59.074219 " fill-opacity="1" fill-rule="nonzero"/><g clip-path="url(#30132c71ac)"><path fill="#e15617" d="M 63.636719 56.414062 C 63.636719 55.875 63.546875 55.464844 63.371094 55.179688 C 63.199219 54.894531 62.933594 54.753906 62.578125 54.753906 C 62.414062 54.753906 62.253906 54.777344 62.089844 54.824219 C 61.9375 54.867188 61.804688 54.917969 61.691406 54.984375 L 61.691406 58.097656 C 61.804688 58.121094 61.921875 58.136719 62.042969 58.144531 C 62.171875 58.152344 62.28125 58.160156 62.371094 58.160156 C 62.761719 58.160156 63.070312 58.027344 63.296875 57.769531 C 63.523438 57.5 63.636719 57.046875 63.636719 56.414062 Z M 65.160156 56.449219 C 65.160156 56.90625 65.097656 57.320312 64.976562 57.695312 C 64.855469 58.0625 64.675781 58.375 64.441406 58.632812 C 64.207031 58.894531 63.917969 59.097656 63.578125 59.246094 C 63.234375 59.382812 62.847656 59.453125 62.40625 59.453125 C 62.019531 59.453125 61.621094 59.421875 61.214844 59.367188 C 60.808594 59.308594 60.46875 59.238281 60.191406 59.148438 L 60.191406 51.101562 L 61.691406 50.847656 L 61.691406 53.714844 C 61.902344 53.617188 62.101562 53.550781 62.296875 53.519531 C 62.492188 53.480469 62.6875 53.457031 62.882812 53.457031 C 63.257812 53.457031 63.585938 53.53125 63.867188 53.679688 C 64.152344 53.816406 64.386719 54.019531 64.574219 54.289062 C 64.769531 54.550781 64.914062 54.863281 65.011719 55.230469 C 65.109375 55.59375 65.160156 56 65.160156 56.449219 Z M 65.160156 56.449219 " fill-opacity="1" fill-rule="nonzero"/></g></svg>