<svg xmlns="http://www.w3.org/2000/svg" xmlns:xlink="http://www.w3.org/1999/xlink" width="100" zoomAndPan="magnify" viewBox="0 0 75 74.999997" height="100" preserveAspectRatio="xMidYMid meet" version="1.0"><defs><clipPath id="b2d3a36783"><path d="M 0.664062 0 L 75 0 L 75 74.335938 L 0.664062 74.335938 Z M 0.664062 0 " clip-rule="nonzero"/></clipPath><clipPath id="d7a5daaacb"><path d="M 37.832031 0 C 17.304688 0 0.664062 16.640625 0.664062 37.167969 C 0.664062 57.695312 17.304688 74.335938 37.832031 74.335938 C 58.359375 74.335938 75 57.695312 75 37.167969 C 75 16.640625 58.359375 0 37.832031 0 Z M 37.832031 0 " clip-rule="nonzero"/></clipPath><clipPath id="546233649d"><path d="M 19.03125 7.5 L 55.78125 7.5 L 55.78125 42.75 L 19.03125 42.75 Z M 19.03125 7.5 " clip-rule="nonzero"/></clipPath></defs><g clip-path="url(#b2d3a36783)"><g clip-path="url(#d7a5daaacb)"><path fill="#ffffff" d="M 0.664062 0 L 75 0 L 75 74.335938 L 0.664062 74.335938 Z M 0.664062 0 " fill-opacity="1" fill-rule="nonzero"/></g></g><g clip-path="url(#546233649d)"><path fill="#7f03a8" d="M 51.945312 18.085938 C 51.863281 16.523438 51.515625 14.441406 51.140625 13.21875 C 50.8125 12.148438 50.460938 11.492188 49.972656 11.003906 C 49.367188 10.390625 48.816406 10.160156 46.554688 9.554688 C 45.484375 9.273438 44.425781 8.964844 44.199219 8.871094 C 43.789062 8.699219 42.996094 8.183594 42.433594 7.71875 C 42.15625 7.488281 42.128906 7.476562 41.8125 7.527344 C 41.503906 7.574219 41.414062 7.640625 40.632812 8.464844 C 39.660156 9.488281 38.609375 10.300781 37.429688 10.953125 C 36.035156 11.734375 35.9375 11.792969 35.960938 11.824219 C 35.996094 11.882812 37.054688 11.609375 37.691406 11.386719 C 38.894531 10.960938 40.160156 10.21875 41.175781 9.328125 L 41.8125 8.78125 L 42.027344 8.988281 C 43.097656 10.019531 44.9375 10.84375 46.777344 11.125 C 47.75 11.277344 48.632812 11.515625 48.96875 11.71875 C 49.46875 12.03125 50.097656 13.09375 50.566406 14.417969 C 50.78125 15.042969 51.21875 16.605469 51.613281 18.167969 C 51.859375 19.152344 51.902344 19.265625 51.9375 19.019531 C 51.964844 18.863281 51.964844 18.441406 51.945312 18.085938 Z M 38.75 9.457031 C 37.347656 8.75 35.355469 8.003906 34.105469 7.714844 C 33.007812 7.464844 32.257812 7.4375 31.589844 7.609375 C 30.753906 7.828125 30.277344 8.1875 28.617188 9.832031 C 27.839844 10.609375 27.039062 11.363281 26.84375 11.515625 C 26.488281 11.78125 25.644531 12.203125 24.957031 12.457031 C 24.613281 12.582031 24.589844 12.597656 24.480469 12.898438 C 24.367188 13.183594 24.378906 13.296875 24.707031 14.378906 C 25.109375 15.726562 25.292969 17.039062 25.273438 18.378906 C 25.257812 19.972656 25.257812 20.082031 25.300781 20.078125 C 25.367188 20.078125 25.660156 19.027344 25.78125 18.371094 C 26.011719 17.125 26 15.664062 25.730469 14.34375 L 25.570312 13.519531 L 25.859375 13.4375 C 27.292969 13.035156 28.929688 11.863281 30.097656 10.425781 C 30.714844 9.664062 31.367188 9.019531 31.710938 8.835938 C 32.230469 8.558594 33.476562 8.550781 34.863281 8.808594 C 35.515625 8.933594 37.097656 9.34375 38.652344 9.785156 C 39.636719 10.0625 39.753906 10.085938 39.558594 9.925781 C 39.433594 9.828125 39.066406 9.617188 38.75 9.457031 Z M 24.628906 16.492188 C 23.308594 17.347656 21.667969 18.6875 20.789062 19.621094 C 20.023438 20.4375 19.625 21.070312 19.441406 21.734375 C 19.210938 22.5625 19.285156 23.148438 19.890625 25.398438 C 20.179688 26.460938 20.4375 27.523438 20.46875 27.765625 C 20.527344 28.207031 20.472656 29.144531 20.347656 29.863281 C 20.285156 30.21875 20.289062 30.25 20.492188 30.492188 C 20.6875 30.734375 20.789062 30.78125 21.898438 31.039062 C 23.277344 31.367188 24.507812 31.863281 25.667969 32.550781 C 27.046875 33.363281 27.148438 33.414062 27.164062 33.378906 C 27.195312 33.320312 26.425781 32.542969 25.917969 32.109375 C 24.945312 31.289062 23.664062 30.570312 22.378906 30.136719 L 21.582031 29.867188 L 21.65625 29.578125 C 22.019531 28.140625 21.816406 26.144531 21.148438 24.421875 C 20.792969 23.511719 20.558594 22.628906 20.566406 22.242188 C 20.589844 21.65625 21.199219 20.578125 22.121094 19.515625 C 22.554688 19.019531 23.703125 17.859375 24.867188 16.742188 C 25.601562 16.035156 25.679688 15.945312 25.445312 16.035156 C 25.296875 16.089844 24.925781 16.300781 24.628906 16.492188 Z M 23.703125 32.164062 C 23.789062 33.726562 24.136719 35.808594 24.507812 37.03125 C 24.839844 38.101562 25.1875 38.757812 25.675781 39.246094 C 26.285156 39.859375 26.832031 40.089844 29.097656 40.691406 C 30.164062 40.976562 31.222656 41.285156 31.449219 41.378906 C 31.863281 41.550781 32.652344 42.066406 33.21875 42.53125 C 33.496094 42.761719 33.523438 42.773438 33.839844 42.722656 C 34.144531 42.675781 34.238281 42.609375 35.019531 41.785156 C 35.992188 40.761719 37.039062 39.949219 38.21875 39.296875 C 39.617188 38.515625 39.714844 38.457031 39.6875 38.425781 C 39.652344 38.367188 38.59375 38.640625 37.957031 38.863281 C 36.757812 39.289062 35.492188 40.03125 34.472656 40.921875 L 33.835938 41.46875 L 33.621094 41.261719 C 32.550781 40.230469 30.710938 39.40625 28.875 39.125 C 27.902344 38.972656 27.015625 38.734375 26.683594 38.53125 C 26.179688 38.21875 25.550781 37.15625 25.085938 35.832031 C 24.867188 35.207031 24.429688 33.644531 24.039062 32.082031 C 23.789062 31.097656 23.75 30.984375 23.710938 31.230469 C 23.6875 31.386719 23.6875 31.808594 23.703125 32.164062 Z M 36.898438 40.792969 C 38.304688 41.5 40.292969 42.246094 41.542969 42.535156 C 42.640625 42.785156 43.390625 42.8125 44.0625 42.640625 C 44.898438 42.421875 45.375 42.0625 47.03125 40.417969 C 47.8125 39.640625 48.609375 38.886719 48.804688 38.734375 C 49.160156 38.46875 50.003906 38.046875 50.695312 37.792969 C 51.035156 37.667969 51.058594 37.652344 51.171875 37.351562 C 51.285156 37.066406 51.273438 36.953125 50.941406 35.871094 C 50.539062 34.523438 50.355469 33.210938 50.375 31.871094 C 50.394531 30.277344 50.390625 30.167969 50.351562 30.171875 C 50.285156 30.171875 49.992188 31.222656 49.867188 31.878906 C 49.636719 33.125 49.652344 34.585938 49.917969 35.90625 L 50.078125 36.730469 L 49.789062 36.8125 C 48.355469 37.214844 46.71875 38.386719 45.550781 39.824219 C 44.933594 40.585938 44.285156 41.230469 43.9375 41.414062 C 43.417969 41.691406 42.175781 41.699219 40.789062 41.441406 C 40.136719 41.316406 38.554688 40.90625 36.996094 40.464844 C 36.015625 40.1875 35.894531 40.164062 36.089844 40.324219 C 36.214844 40.421875 36.582031 40.632812 36.898438 40.792969 Z M 51.019531 33.757812 C 52.339844 32.902344 53.980469 31.5625 54.859375 30.628906 C 55.628906 29.8125 56.027344 29.179688 56.210938 28.515625 C 56.4375 27.6875 56.363281 27.101562 55.761719 24.851562 C 55.472656 23.789062 55.210938 22.726562 55.179688 22.484375 C 55.125 22.042969 55.179688 21.105469 55.300781 20.386719 C 55.363281 20.03125 55.359375 20 55.15625 19.757812 C 54.960938 19.515625 54.859375 19.46875 53.75 19.210938 C 52.375 18.882812 51.140625 18.386719 49.980469 17.699219 C 48.601562 16.886719 48.503906 16.835938 48.488281 16.871094 C 48.453125 16.929688 49.222656 17.707031 49.734375 18.140625 C 50.707031 18.960938 51.984375 19.679688 53.269531 20.113281 L 54.066406 20.382812 L 53.992188 20.671875 C 53.628906 22.109375 53.832031 24.105469 54.503906 25.828125 C 54.859375 26.738281 55.09375 27.621094 55.082031 28.007812 C 55.0625 28.59375 54.449219 29.671875 53.527344 30.734375 C 53.09375 31.230469 51.945312 32.390625 50.785156 33.507812 C 50.050781 34.214844 49.96875 34.304688 50.207031 34.214844 C 50.355469 34.15625 50.722656 33.949219 51.019531 33.757812 Z M 51.019531 33.757812 " fill-opacity="1" fill-rule="nonzero"/></g><path fill="#cc4878" d="M 42.414062 33.644531 C 45.273438 35.042969 47.265625 36.054688 47.753906 36.375 C 48.097656 36.585938 48.417969 36.769531 48.464844 36.777344 C 48.605469 36.804688 49.019531 36.125 49.121094 35.738281 C 49.199219 35.433594 49.179688 35.359375 48.910156 35.066406 C 48.332031 34.421875 47.292969 32.40625 46.808594 31 C 46.066406 28.824219 45.511719 27.816406 44.472656 26.769531 C 43.304688 25.578125 41.988281 24.839844 40.625 24.601562 C 40.296875 24.550781 39.867188 24.53125 39.675781 24.558594 C 38.875 24.699219 37.679688 25.359375 37.21875 25.929688 C 37.011719 26.175781 37.011719 26.1875 37.207031 26.089844 C 39.152344 25.125 39.839844 25.035156 41.15625 25.621094 C 42.285156 26.109375 43.863281 27.757812 44.414062 29.007812 C 44.558594 29.34375 44.859375 30.3125 45.078125 31.164062 C 45.300781 32 45.621094 33.015625 45.789062 33.390625 C 46.101562 34.082031 46.101562 34.082031 45.847656 33.992188 C 42.871094 32.96875 42.472656 32.792969 41.863281 32.28125 C 41.351562 31.855469 41.207031 31.679688 40.851562 31.066406 C 40.253906 30.035156 40.21875 29.996094 40.285156 30.464844 C 40.316406 30.683594 40.511719 31.242188 40.710938 31.703125 C 41.054688 32.488281 41.117188 32.5625 41.664062 33.050781 C 41.984375 33.332031 42.324219 33.601562 42.414062 33.644531 Z M 42.414062 33.644531 " fill-opacity="1" fill-rule="nonzero"/><path fill="#f99640" d="M 47.542969 25.4375 C 50.195312 23.675781 52.074219 22.46875 52.597656 22.207031 C 52.949219 22.015625 53.273438 21.835938 53.304688 21.796875 C 53.394531 21.691406 53.011719 20.992188 52.722656 20.710938 C 52.496094 20.492188 52.425781 20.472656 52.03125 20.558594 C 51.183594 20.734375 48.90625 20.621094 47.4375 20.332031 C 45.167969 19.882812 44.015625 19.859375 42.582031 20.226562 C 40.957031 20.636719 39.65625 21.398438 38.769531 22.453125 C 38.558594 22.710938 38.328125 23.070312 38.257812 23.25 C 37.980469 24.011719 37.957031 25.367188 38.226562 26.050781 C 38.335938 26.347656 38.34375 26.355469 38.359375 26.136719 C 38.488281 23.984375 38.753906 23.347656 39.921875 22.503906 C 40.914062 21.78125 43.136719 21.246094 44.503906 21.398438 C 44.867188 21.441406 45.867188 21.667969 46.714844 21.902344 C 47.558594 22.132812 48.601562 22.363281 49.011719 22.40625 C 49.769531 22.480469 49.769531 22.480469 49.566406 22.65625 C 47.183594 24.703125 46.835938 24.960938 46.082031 25.230469 C 45.457031 25.457031 45.230469 25.492188 44.519531 25.488281 C 43.320312 25.492188 43.265625 25.5 43.710938 25.679688 C 43.914062 25.761719 44.5 25.871094 45 25.929688 C 45.859375 26.027344 45.953125 26.007812 46.65625 25.785156 C 47.058594 25.648438 47.464844 25.492188 47.542969 25.4375 Z M 47.542969 25.4375 " fill-opacity="1" fill-rule="nonzero"/><path fill="#cc4878" d="M 42.957031 16.917969 C 42.746094 13.757812 42.632812 11.539062 42.667969 10.957031 C 42.675781 10.554688 42.679688 10.1875 42.664062 10.140625 C 42.617188 10.011719 41.816406 9.992188 41.429688 10.097656 C 41.121094 10.183594 41.070312 10.238281 40.949219 10.617188 C 40.675781 11.4375 39.4375 13.335938 38.453125 14.460938 C 36.925781 16.1875 36.328125 17.164062 35.933594 18.585938 C 35.480469 20.183594 35.492188 21.683594 35.964844 22.976562 C 36.085938 23.289062 36.285156 23.664062 36.40625 23.816406 C 36.929688 24.433594 38.101562 25.132812 38.832031 25.242188 C 39.148438 25.300781 39.15625 25.292969 38.976562 25.171875 C 37.160156 23.984375 36.738281 23.4375 36.589844 22.011719 C 36.453125 20.796875 37.101562 18.617188 37.914062 17.515625 C 38.132812 17.222656 38.832031 16.480469 39.460938 15.863281 C 40.082031 15.253906 40.804688 14.472656 41.046875 14.136719 C 41.492188 13.527344 41.492188 13.527344 41.542969 13.789062 C 42.136719 16.863281 42.183594 17.289062 42.046875 18.070312 C 41.929688 18.726562 41.847656 18.9375 41.488281 19.550781 C 40.890625 20.582031 40.871094 20.628906 41.25 20.339844 C 41.425781 20.203125 41.8125 19.753906 42.117188 19.351562 C 42.625 18.664062 42.660156 18.574219 42.816406 17.855469 C 42.898438 17.441406 42.964844 17.015625 42.957031 16.917969 Z M 42.957031 16.917969 " fill-opacity="1" fill-rule="nonzero"/><path fill="#f99640" d="M 33.238281 16.605469 C 30.375 15.207031 28.386719 14.195312 27.894531 13.875 C 27.550781 13.664062 27.234375 13.480469 27.183594 13.472656 C 27.046875 13.445312 26.628906 14.125 26.527344 14.511719 C 26.449219 14.816406 26.46875 14.890625 26.742188 15.183594 C 27.320312 15.828125 28.355469 17.84375 28.839844 19.25 C 29.582031 21.425781 30.140625 22.433594 31.179688 23.480469 C 32.347656 24.671875 33.660156 25.410156 35.023438 25.648438 C 35.355469 25.699219 35.78125 25.71875 35.976562 25.691406 C 36.777344 25.550781 37.96875 24.890625 38.429688 24.320312 C 38.636719 24.074219 38.636719 24.0625 38.441406 24.160156 C 36.5 25.125 35.8125 25.214844 34.492188 24.628906 C 33.367188 24.140625 31.789062 22.492188 31.238281 21.242188 C 31.089844 20.90625 30.792969 19.9375 30.570312 19.085938 C 30.347656 18.25 30.027344 17.234375 29.859375 16.859375 C 29.546875 16.167969 29.546875 16.167969 29.800781 16.257812 C 32.777344 17.28125 33.175781 17.457031 33.785156 17.96875 C 34.296875 18.394531 34.441406 18.570312 34.796875 19.183594 C 35.398438 20.214844 35.429688 20.253906 35.367188 19.785156 C 35.335938 19.566406 35.136719 19.007812 34.9375 18.546875 C 34.59375 17.761719 34.53125 17.6875 33.984375 17.199219 C 33.664062 16.917969 33.328125 16.648438 33.238281 16.605469 Z M 33.238281 16.605469 " fill-opacity="1" fill-rule="nonzero"/><path fill="#cc4878" d="M 28.105469 24.8125 C 25.453125 26.574219 23.578125 27.78125 23.054688 28.042969 C 22.699219 28.234375 22.378906 28.414062 22.34375 28.453125 C 22.253906 28.558594 22.636719 29.257812 22.925781 29.539062 C 23.152344 29.757812 23.226562 29.777344 23.617188 29.691406 C 24.46875 29.515625 26.742188 29.628906 28.214844 29.917969 C 30.480469 30.367188 31.636719 30.390625 33.070312 30.023438 C 34.691406 29.613281 35.992188 28.851562 36.882812 27.796875 C 37.089844 27.539062 37.320312 27.179688 37.394531 27 C 37.671875 26.238281 37.691406 24.882812 37.425781 24.199219 C 37.316406 23.902344 37.304688 23.894531 37.292969 24.109375 C 37.164062 26.265625 36.898438 26.902344 35.726562 27.746094 C 34.734375 28.46875 32.511719 29.003906 31.148438 28.851562 C 30.78125 28.808594 29.785156 28.582031 28.933594 28.347656 C 28.09375 28.117188 27.050781 27.886719 26.636719 27.84375 C 25.878906 27.769531 25.878906 27.769531 26.082031 27.59375 C 28.464844 25.546875 28.816406 25.289062 29.566406 25.019531 C 30.195312 24.792969 30.421875 24.757812 31.132812 24.761719 C 32.332031 24.757812 32.382812 24.75 31.941406 24.570312 C 31.734375 24.488281 31.148438 24.378906 30.648438 24.320312 C 29.792969 24.222656 29.695312 24.242188 28.996094 24.464844 C 28.589844 24.601562 28.1875 24.757812 28.105469 24.8125 Z M 28.105469 24.8125 " fill-opacity="1" fill-rule="nonzero"/><path fill="#f99640" d="M 32.691406 33.332031 C 32.902344 36.492188 33.015625 38.710938 32.984375 39.292969 C 32.972656 39.695312 32.96875 40.0625 32.988281 40.109375 C 33.035156 40.238281 33.832031 40.257812 34.222656 40.152344 C 34.527344 40.066406 34.582031 40.011719 34.703125 39.632812 C 34.972656 38.8125 36.210938 36.914062 37.195312 35.789062 C 38.722656 34.0625 39.320312 33.085938 39.714844 31.664062 C 40.171875 30.066406 40.15625 28.566406 39.683594 27.273438 C 39.5625 26.960938 39.367188 26.585938 39.242188 26.433594 C 38.71875 25.816406 37.546875 25.117188 36.820312 25.007812 C 36.503906 24.949219 36.492188 24.957031 36.675781 25.078125 C 38.488281 26.265625 38.910156 26.8125 39.058594 28.238281 C 39.195312 29.453125 38.550781 31.632812 37.734375 32.734375 C 37.515625 33.027344 36.816406 33.769531 36.1875 34.386719 C 35.566406 34.996094 34.847656 35.777344 34.601562 36.113281 C 34.15625 36.722656 34.15625 36.722656 34.105469 36.460938 C 33.511719 33.386719 33.464844 32.960938 33.605469 32.179688 C 33.722656 31.523438 33.804688 31.3125 34.160156 30.699219 C 34.757812 29.667969 34.777344 29.621094 34.398438 29.910156 C 34.222656 30.046875 33.835938 30.496094 33.535156 30.898438 C 33.023438 31.585938 32.988281 31.675781 32.835938 32.394531 C 32.75 32.808594 32.683594 33.234375 32.691406 33.332031 Z M 32.691406 33.332031 " fill-opacity="1" fill-rule="nonzero"/><path fill="#4d02a2" d="M 9.8125 58.800781 L 9.8125 43.109375 L 11.78125 42.167969 L 11.882812 42.167969 L 11.882812 57.859375 L 9.914062 58.800781 Z M 9.8125 58.800781 " fill-opacity="1" fill-rule="nonzero"/><path fill="#4d02a2" d="M 15.121094 44.5625 C 14.882812 44.3125 14.761719 44.011719 14.761719 43.664062 C 14.761719 43.308594 14.882812 43.003906 15.121094 42.753906 C 15.363281 42.503906 15.65625 42.375 16.003906 42.375 C 16.347656 42.375 16.640625 42.503906 16.882812 42.753906 C 17.125 43.003906 17.246094 43.308594 17.246094 43.664062 C 17.246094 44.011719 17.125 44.3125 16.882812 44.5625 C 16.640625 44.8125 16.347656 44.9375 16.003906 44.9375 C 15.65625 44.9375 15.363281 44.8125 15.121094 44.5625 Z M 14.96875 58.800781 L 14.96875 47.398438 L 16.9375 46.457031 L 17.039062 46.457031 L 17.039062 57.859375 L 15.070312 58.800781 Z M 14.96875 58.800781 " fill-opacity="1" fill-rule="nonzero"/><path fill="#4d02a2" d="M 22.195312 55.117188 C 22.195312 55.921875 22.410156 56.507812 22.839844 56.886719 C 23.273438 57.253906 23.800781 57.441406 24.425781 57.441406 C 25.046875 57.441406 25.570312 57.253906 26 56.886719 C 26.433594 56.507812 26.652344 55.921875 26.652344 55.117188 L 26.652344 50.136719 C 26.652344 49.335938 26.433594 48.75 26 48.382812 C 25.570312 48.003906 25.046875 47.816406 24.425781 47.816406 C 23.800781 47.816406 23.273438 48.003906 22.839844 48.382812 C 22.410156 48.75 22.195312 49.335938 22.195312 50.136719 Z M 20.125 54.40625 L 20.125 43.109375 L 22.09375 42.167969 L 22.195312 42.167969 L 22.195312 47.554688 C 22.722656 46.960938 23.464844 46.664062 24.425781 46.664062 C 25.621094 46.664062 26.625 47.058594 27.441406 47.847656 C 28.296875 48.683594 28.726562 49.683594 28.726562 50.851562 L 28.726562 54.40625 C 28.726562 55.558594 28.296875 56.558594 27.441406 57.410156 C 26.636719 58.195312 25.632812 58.589844 24.425781 58.589844 C 23.230469 58.589844 22.222656 58.195312 21.410156 57.410156 C 20.550781 56.570312 20.125 55.570312 20.125 54.40625 Z M 20.125 54.40625 " fill-opacity="1" fill-rule="nonzero"/><path fill="#aa2396" d="M 30.773438 58.800781 L 30.773438 50.851562 C 30.773438 49.699219 31.199219 48.699219 32.058594 47.847656 C 32.859375 47.058594 33.863281 46.664062 35.074219 46.664062 L 36.472656 46.664062 L 36.472656 46.769531 L 35.972656 47.816406 L 35.074219 47.816406 C 34.453125 47.816406 33.921875 48.003906 33.488281 48.382812 C 33.058594 48.75 32.84375 49.335938 32.84375 50.136719 L 32.84375 57.859375 L 30.875 58.800781 Z M 30.773438 58.800781 " fill-opacity="1" fill-rule="nonzero"/><path fill="#aa2396" d="M 37.171875 54.40625 L 37.171875 50.851562 C 37.171875 49.699219 37.601562 48.699219 38.457031 47.847656 C 39.257812 47.058594 40.265625 46.664062 41.472656 46.664062 C 42.667969 46.664062 43.671875 47.058594 44.488281 47.847656 C 45.34375 48.683594 45.773438 49.683594 45.773438 50.851562 L 45.773438 54.40625 C 45.773438 55.558594 45.34375 56.558594 44.488281 57.410156 C 43.6875 58.195312 42.683594 58.589844 41.472656 58.589844 C 40.277344 58.589844 39.273438 58.195312 38.457031 57.410156 C 37.601562 56.570312 37.171875 55.570312 37.171875 54.40625 Z M 39.246094 55.117188 C 39.246094 55.921875 39.460938 56.507812 39.886719 56.886719 C 40.324219 57.253906 40.851562 57.441406 41.472656 57.441406 C 42.09375 57.441406 42.621094 57.253906 43.046875 56.886719 C 43.484375 56.507812 43.699219 55.921875 43.699219 55.117188 L 43.699219 50.136719 C 43.699219 49.335938 43.484375 48.75 43.046875 48.382812 C 42.621094 48.003906 42.09375 47.816406 41.472656 47.816406 C 40.851562 47.816406 40.324219 48.003906 39.886719 48.382812 C 39.460938 48.75 39.246094 49.335938 39.246094 50.136719 Z M 39.246094 55.117188 " fill-opacity="1" fill-rule="nonzero"/><path fill="#aa2396" d="M 47.511719 54.6875 L 49.480469 53.746094 L 49.582031 53.746094 L 49.582031 55.085938 C 49.582031 55.867188 49.808594 56.460938 50.257812 56.863281 C 50.683594 57.25 51.203125 57.441406 51.8125 57.441406 C 52.515625 57.441406 53.066406 57.214844 53.457031 56.761719 C 53.875 56.292969 54.082031 55.621094 54.082031 54.742188 C 54.082031 53.941406 53.859375 53.363281 53.417969 53.015625 C 53.039062 52.714844 52.5 52.566406 51.800781 52.566406 C 50.46875 52.566406 49.472656 52.296875 48.816406 51.761719 C 48.234375 51.285156 47.945312 50.636719 47.945312 49.8125 C 47.945312 48.84375 48.382812 48.042969 49.261719 47.410156 C 49.945312 46.914062 50.796875 46.664062 51.8125 46.664062 C 52.785156 46.664062 53.632812 46.972656 54.351562 47.585938 C 54.902344 48.066406 55.246094 48.625 55.375 49.261719 L 53.40625 50.203125 L 53.304688 50.203125 L 53.304688 49.394531 C 53.304688 49.046875 53.199219 48.738281 52.992188 48.464844 C 52.660156 48.03125 52.1875 47.816406 51.574219 47.816406 C 51.082031 47.816406 50.679688 47.96875 50.371094 48.277344 C 50.066406 48.589844 49.914062 49.082031 49.914062 49.75 C 49.914062 50.457031 50.101562 50.9375 50.472656 51.195312 C 50.679688 51.339844 51.125 51.414062 51.800781 51.414062 C 53.265625 51.414062 54.363281 51.726562 55.097656 52.347656 C 55.773438 52.917969 56.113281 53.746094 56.113281 54.824219 C 56.113281 55.730469 55.714844 56.597656 54.917969 57.417969 C 54.167969 58.199219 53.128906 58.589844 51.8125 58.589844 C 50.617188 58.589844 49.609375 58.257812 48.796875 57.585938 C 47.9375 56.882812 47.511719 55.917969 47.511719 54.6875 Z M 47.511719 54.6875 " fill-opacity="1" fill-rule="nonzero"/><path fill="#aa2396" d="M 65.722656 57.859375 L 63.753906 58.800781 L 63.652344 58.800781 L 63.652344 57.703125 C 63.097656 58.292969 62.355469 58.589844 61.421875 58.589844 C 60.132812 58.589844 59.125 58.195312 58.40625 57.410156 C 57.6875 56.621094 57.332031 55.691406 57.332031 54.617188 C 57.332031 53.5 57.71875 52.550781 58.5 51.769531 C 59.253906 51.015625 60.226562 50.640625 61.421875 50.640625 C 62.273438 50.640625 63.015625 50.9375 63.652344 51.53125 C 63.652344 50.296875 63.4375 49.367188 63.007812 48.746094 C 62.582031 48.125 62.050781 47.816406 61.421875 47.816406 L 58.90625 47.816406 L 58.90625 47.710938 L 59.390625 46.664062 L 61.421875 46.664062 C 62.632812 46.664062 63.636719 47.058594 64.4375 47.847656 C 65.296875 48.691406 65.722656 49.691406 65.722656 50.851562 Z M 59.359375 54.617188 C 59.359375 55.703125 59.546875 56.449219 59.921875 56.855469 C 60.28125 57.246094 60.785156 57.441406 61.433594 57.441406 C 62.125 57.441406 62.648438 57.242188 63.007812 56.84375 C 63.402344 56.410156 63.601562 55.652344 63.601562 54.5625 C 63.601562 53.546875 63.390625 52.820312 62.96875 52.386719 C 62.554688 51.992188 62.039062 51.792969 61.421875 51.792969 C 60.78125 51.792969 60.277344 51.996094 59.910156 52.410156 C 59.542969 52.820312 59.359375 53.554688 59.359375 54.617188 Z M 59.359375 54.617188 " fill-opacity="1" fill-rule="nonzero"/></svg>