<svg xmlns="http://www.w3.org/2000/svg" xmlns:xlink="http://www.w3.org/1999/xlink" width="240" zoomAndPan="magnify" viewBox="0 0 180 179.999997" height="240" preserveAspectRatio="xMidYMid meet" version="1.0"><path fill="currentColor" d="M 180 180 L 144 180 L 144 117.007812 C 144 99.726562 136.378906 90.085938 122.707031 90.085938 C 107.832031 90.085938 99 100.132812 99 117.007812 L 99 180 L 63 180 L 63 63 L 99 63 L 99 76.15625 C 99 76.15625 110.296875 56.339844 135.746094 56.339844 C 161.207031 56.339844 180 71.875 180 104.027344 Z M 21.976562 44.289062 C 9.839844 44.289062 0 34.371094 0 22.140625 C 0 9.917969 9.839844 0 21.976562 0 C 34.109375 0 43.945312 9.917969 43.945312 22.140625 C 43.957031 34.371094 34.109375 44.289062 21.976562 44.289062 Z M 0 180 L 45 180 L 45 63 L 0 63 Z M 0 180 " fill-opacity="1" fill-rule="evenodd"/></svg>