<svg xmlns="http://www.w3.org/2000/svg" xmlns:xlink="http://www.w3.org/1999/xlink" width="250" zoomAndPan="magnify" viewBox="0 0 187.5 112.499997" height="150" preserveAspectRatio="xMidYMid meet" version="1.0"><defs><clipPath id="bc875ae8c7"><path d="M 28.761719 0 L 157.9375 0 L 157.9375 112 L 28.761719 112 Z M 28.761719 0 " clip-rule="nonzero"/></clipPath></defs><path fill="currentColor" d="M 50.96875 45.667969 C 53.550781 45.667969 55.957031 44.65625 57.769531 42.839844 C 59.582031 41.027344 60.570312 38.59375 60.570312 36.023438 C 60.570312 30.714844 56.25 26.417969 50.96875 26.417969 C 50.96875 26.417969 50.953125 26.417969 50.953125 26.417969 C 45.65625 26.417969 41.351562 30.75 41.367188 36.058594 C 41.367188 41.351562 45.671875 45.667969 50.96875 45.667969 Z M 50.953125 29.160156 C 54.746094 29.160156 57.820312 32.242188 57.835938 36.042969 C 57.835938 37.875 57.121094 39.605469 55.839844 40.921875 C 54.539062 42.222656 52.816406 42.945312 50.988281 42.945312 C 50.988281 42.945312 50.988281 42.945312 50.96875 42.945312 C 47.195312 42.945312 44.101562 39.859375 44.101562 36.058594 C 44.085938 32.257812 47.160156 29.160156 50.953125 29.160156 Z M 50.953125 29.160156 " fill-opacity="1" fill-rule="nonzero"/><path fill="currentColor" d="M 46.765625 37.550781 L 49.464844 37.550781 L 49.464844 40.253906 L 52.472656 40.253906 L 52.472656 37.550781 L 55.171875 37.550781 L 55.171875 34.519531 L 52.472656 34.535156 L 52.457031 31.828125 L 49.449219 31.828125 L 49.449219 34.535156 L 46.75 34.535156 Z M 46.765625 37.550781 " fill-opacity="1" fill-rule="nonzero"/><g clip-path="url(#bc875ae8c7)"><path fill="currentColor" d="M 157.097656 18.660156 C 156.996094 17.992188 156.433594 17.496094 155.765625 17.496094 L 152.023438 17.445312 L 151.992188 15.203125 C 151.992188 14.84375 151.835938 14.5 151.582031 14.242188 C 151.324219 13.984375 150.964844 13.847656 150.605469 13.847656 L 146.351562 13.898438 C 145.277344 13.917969 144.25 14.34375 143.5 15.132812 C 142.746094 15.902344 142.335938 16.929688 142.355469 18.027344 L 142.371094 19.601562 C 142.390625 20.679688 142.816406 21.710938 143.601562 22.460938 C 144.371094 23.214844 145.363281 23.609375 146.4375 23.609375 C 146.453125 23.609375 146.472656 23.609375 146.488281 23.609375 L 150.742188 23.558594 C 151.496094 23.542969 152.109375 22.925781 152.09375 22.171875 L 152.074219 20.183594 L 154.554688 20.21875 C 155.03125 24.910156 156.246094 42.804688 148.042969 54.398438 C 145.960938 57.34375 142.832031 59.332031 141.125 60.257812 C 140.917969 59.84375 140.644531 59.46875 140.320312 59.144531 C 139.554688 58.390625 138.527344 57.980469 137.433594 57.996094 L 129.78125 58.097656 C 128.242188 58.117188 126.910156 59.007812 126.242188 60.289062 C 124.742188 59.519531 121.136719 57.449219 118.796875 54.160156 C 110.59375 42.582031 111.808594 24.671875 112.285156 19.980469 L 114.761719 19.945312 L 114.746094 21.933594 C 114.730469 22.683594 115.34375 23.300781 116.097656 23.320312 L 120.351562 23.371094 C 120.367188 23.371094 120.382812 23.371094 120.402344 23.371094 C 121.460938 23.371094 122.46875 22.960938 123.238281 22.222656 C 124.007812 21.46875 124.449219 20.441406 124.46875 19.363281 L 124.484375 17.789062 C 124.519531 15.542969 122.707031 13.695312 120.46875 13.660156 L 116.214844 13.609375 C 115.855469 13.609375 115.496094 13.746094 115.242188 14.003906 C 114.984375 14.261719 114.832031 14.601562 114.832031 14.960938 L 114.796875 17.207031 L 111.054688 17.257812 C 110.390625 17.273438 109.824219 17.753906 109.722656 18.421875 C 109.6875 18.660156 108.886719 24.226562 109.296875 31.625 C 109.6875 38.492188 111.261719 48.253906 116.558594 55.734375 C 119.835938 60.375 125.097656 62.808594 125.78125 63.117188 C 125.902344 65.257812 127.679688 66.933594 129.832031 66.933594 C 129.847656 66.933594 129.867188 66.933594 129.882812 66.933594 L 132.515625 66.902344 L 132.515625 92.160156 C 132.515625 96.011719 129.386719 99.148438 125.542969 99.148438 L 116.882812 99.148438 C 113.039062 99.148438 109.910156 96.011719 109.910156 92.160156 L 109.910156 51.746094 C 109.910156 47.839844 107.585938 44.449219 104.257812 42.910156 L 104.257812 19.515625 C 104.257812 15.132812 100.703125 11.554688 96.3125 11.554688 L 85.632812 11.554688 C 84.402344 10.011719 82.4375 9.019531 80.21875 9.019531 L 77.230469 9.019531 C 76.597656 3.949219 72.257812 0.0273438 67.011719 0.0273438 C 61.765625 0.0273438 57.425781 3.949219 56.761719 9.019531 L 52.78125 9.019531 C 50.578125 9.019531 48.613281 10.011719 47.363281 11.554688 L 36.703125 11.554688 C 32.3125 11.554688 28.761719 15.132812 28.761719 19.515625 L 28.761719 104.011719 C 28.761719 108.394531 32.3125 111.972656 36.703125 111.972656 L 96.363281 111.972656 C 100.738281 111.972656 104.308594 108.410156 104.308594 104.011719 L 104.308594 46.078125 C 106.066406 47.34375 107.230469 49.417969 107.230469 51.746094 L 107.230469 92.160156 C 107.230469 97.519531 111.585938 101.886719 116.933594 101.886719 L 125.59375 101.886719 C 130.941406 101.886719 135.300781 97.519531 135.300781 92.160156 L 135.300781 66.847656 L 137.570312 66.816406 C 138.648438 66.796875 139.671875 66.371094 140.425781 65.582031 C 141.089844 64.898438 141.484375 64.042969 141.550781 63.097656 C 143.105469 62.347656 147.429688 59.984375 150.28125 55.957031 C 155.578125 48.476562 157.148438 38.714844 157.542969 31.847656 C 157.9375 24.464844 157.132812 18.882812 157.097656 18.660156 Z M 146.4375 20.871094 C 146.078125 20.871094 145.753906 20.734375 145.5 20.492188 C 145.242188 20.253906 145.105469 19.910156 145.105469 19.550781 L 145.089844 17.976562 C 145.089844 17.617188 145.226562 17.289062 145.464844 17.035156 C 145.703125 16.777344 146.046875 16.640625 146.402344 16.640625 L 149.292969 16.605469 L 149.34375 20.835938 Z M 117.546875 16.347656 L 120.433594 16.382812 C 120.792969 16.382812 121.117188 16.539062 121.375 16.777344 C 121.613281 17.035156 121.75 17.359375 121.75 17.71875 L 121.734375 19.292969 C 121.734375 19.652344 121.578125 19.980469 121.339844 20.238281 C 121.085938 20.476562 120.761719 20.613281 120.417969 20.613281 C 120.417969 20.613281 120.402344 20.613281 120.402344 20.613281 L 117.515625 20.578125 Z M 96.347656 14.292969 C 99.214844 14.292969 101.558594 16.640625 101.558594 19.515625 L 101.558594 42.105469 C 101.128906 42.054688 100.6875 42.019531 100.242188 42.019531 L 98.6875 42.019531 L 98.6875 20.066406 C 98.6875 19.3125 98.070312 18.695312 97.320312 18.695312 L 87.050781 18.695312 L 87.050781 15.390625 C 87.050781 15.011719 87.019531 14.652344 86.949219 14.3125 L 96.347656 14.3125 Z M 46.03125 21.433594 C 46.152344 22.070312 46.714844 22.53125 47.363281 22.53125 L 85.667969 22.53125 C 86.335938 22.53125 86.882812 22.050781 87 21.433594 L 95.9375 21.433594 L 95.9375 42.121094 C 91.289062 42.839844 87.703125 46.882812 87.703125 51.746094 L 87.703125 61.882812 C 83.789062 62.535156 80.816406 65.941406 80.816406 70.050781 C 80.816406 74.625 84.523438 78.339844 89.066406 78.339844 C 91.9375 78.339844 94.46875 76.867188 95.953125 74.640625 L 95.953125 102.589844 L 36.601562 102.589844 L 36.601562 21.433594 Z M 89.066406 64.503906 C 92.109375 64.503906 94.605469 66.988281 94.605469 70.035156 C 94.605469 73.082031 92.125 75.582031 89.066406 75.582031 C 86.027344 75.582031 83.550781 73.101562 83.550781 70.035156 C 83.550781 66.96875 86.011719 64.503906 89.066406 64.503906 Z M 95.9375 65.460938 C 94.6875 63.597656 92.722656 62.261719 90.417969 61.882812 L 90.417969 51.746094 C 90.417969 48.390625 92.777344 45.597656 95.9375 44.914062 Z M 52.78125 11.757812 L 58.042969 11.757812 C 58.792969 11.757812 59.410156 11.144531 59.410156 10.390625 C 59.410156 6.175781 62.828125 2.769531 67.011719 2.769531 C 71.214844 2.769531 74.613281 6.195312 74.613281 10.390625 C 74.613281 11.144531 75.230469 11.757812 75.980469 11.757812 L 80.253906 11.757812 C 82.472656 11.757812 84.300781 13.386719 84.300781 15.371094 L 84.300781 19.792969 L 48.730469 19.792969 L 48.730469 15.390625 C 48.730469 13.386719 50.558594 11.757812 52.78125 11.757812 Z M 101.558594 104.011719 C 101.558594 106.886719 99.214844 109.234375 96.347656 109.234375 L 36.703125 109.234375 C 33.835938 109.214844 31.492188 106.886719 31.492188 104.011719 L 31.492188 19.515625 C 31.492188 16.640625 33.835938 14.292969 36.703125 14.292969 L 46.117188 14.292969 C 46.050781 14.652344 46.015625 15.011719 46.015625 15.371094 L 46.015625 18.695312 L 35.234375 18.695312 C 34.484375 18.695312 33.867188 19.3125 33.867188 20.066406 L 33.867188 103.941406 C 33.867188 104.695312 34.484375 105.3125 35.234375 105.3125 L 97.320312 105.3125 C 98.070312 105.3125 98.6875 104.695312 98.6875 103.941406 L 98.6875 44.757812 L 100.242188 44.757812 C 100.6875 44.757812 101.128906 44.808594 101.558594 44.878906 Z M 138.441406 63.679688 C 138.203125 63.9375 137.863281 64.074219 137.519531 64.074219 L 129.867188 64.179688 C 129.867188 64.179688 129.847656 64.179688 129.847656 64.179688 C 129.132812 64.179688 128.535156 63.597656 128.535156 62.875 L 128.515625 62.15625 C 128.5 61.421875 129.097656 60.820312 129.816406 60.820312 L 137.46875 60.71875 C 137.46875 60.71875 137.484375 60.71875 137.484375 60.71875 C 137.828125 60.71875 138.152344 60.855469 138.410156 61.09375 C 138.664062 61.335938 138.800781 61.679688 138.800781 62.019531 L 138.816406 62.738281 C 138.816406 63.097656 138.679688 63.425781 138.441406 63.679688 Z M 138.441406 63.679688 " fill-opacity="1" fill-rule="nonzero"/></g><path fill="currentColor" d="M 69.59375 29.242188 L 84.644531 29.242188 L 84.644531 31.984375 L 69.59375 31.984375 Z M 69.59375 29.242188 " fill-opacity="1" fill-rule="nonzero"/><path fill="currentColor" d="M 63.03125 34.671875 L 84.644531 34.671875 L 84.644531 37.414062 L 63.03125 37.414062 Z M 63.03125 34.671875 " fill-opacity="1" fill-rule="nonzero"/><path fill="currentColor" d="M 63.03125 40.1875 L 84.644531 40.1875 L 84.644531 42.925781 L 63.03125 42.925781 Z M 63.03125 40.1875 " fill-opacity="1" fill-rule="nonzero"/><path fill="currentColor" d="M 44.359375 55.238281 L 73.027344 55.238281 L 73.027344 57.980469 L 44.359375 57.980469 Z M 44.359375 55.238281 " fill-opacity="1" fill-rule="nonzero"/><path fill="currentColor" d="M 44.359375 60.394531 L 73.027344 60.394531 L 73.027344 63.132812 L 44.359375 63.132812 Z M 44.359375 60.394531 " fill-opacity="1" fill-rule="nonzero"/><path fill="currentColor" d="M 43.46875 71.59375 L 72.136719 71.59375 L 72.136719 74.332031 L 43.46875 74.332031 Z M 43.46875 71.59375 " fill-opacity="1" fill-rule="nonzero"/><path fill="currentColor" d="M 43.46875 76.746094 L 72.136719 76.746094 L 72.136719 79.488281 L 43.46875 79.488281 Z M 43.46875 76.746094 " fill-opacity="1" fill-rule="nonzero"/><path fill="currentColor" d="M 43.46875 87.929688 L 72.136719 87.929688 L 72.136719 90.667969 L 43.46875 90.667969 Z M 43.46875 87.929688 " fill-opacity="1" fill-rule="nonzero"/><path fill="currentColor" d="M 43.46875 93.085938 L 72.136719 93.085938 L 72.136719 95.824219 L 43.46875 95.824219 Z M 43.46875 93.085938 " fill-opacity="1" fill-rule="nonzero"/><path fill="currentColor" d="M 67.183594 14.671875 C 69.867188 14.671875 72.035156 12.496094 72.035156 9.808594 C 72.035156 7.117188 69.867188 4.945312 67.183594 4.945312 C 64.5 4.945312 62.332031 7.117188 62.332031 9.808594 C 62.332031 12.496094 64.519531 14.671875 67.183594 14.671875 Z M 67.183594 7.683594 C 68.34375 7.683594 69.300781 8.644531 69.300781 9.808594 C 69.300781 10.972656 68.34375 11.929688 67.183594 11.929688 C 66.019531 11.929688 65.066406 10.972656 65.066406 9.808594 C 65.066406 8.644531 66.019531 7.683594 67.183594 7.683594 Z M 67.183594 7.683594 " fill-opacity="1" fill-rule="nonzero"/></svg>