<svg xmlns="http://www.w3.org/2000/svg" xmlns:xlink="http://www.w3.org/1999/xlink" width="250" zoomAndPan="magnify" viewBox="0 0 187.5 112.499997" height="150" preserveAspectRatio="xMidYMid meet" version="1.0"><defs><clipPath id="7cdc51e2c2"><path d="M 37.5 0 L 149.503906 0 L 149.503906 112 L 37.5 112 Z M 37.5 0 " clip-rule="nonzero"/></clipPath></defs><g clip-path="url(#7cdc51e2c2)"><path fill="currentColor" d="M 137.558594 56 C 137.558594 31.671875 117.828125 11.945312 93.5 11.945312 C 69.171875 11.945312 49.441406 31.671875 49.441406 56.003906 C 49.441406 77.488281 64.835938 95.386719 85.191406 99.277344 L 85.191406 96.234375 C 66.492188 92.390625 52.425781 75.835938 52.425781 56.003906 C 52.425781 33.320312 70.820312 14.925781 93.5 14.925781 C 116.175781 14.925781 134.574219 33.320312 134.574219 56.003906 C 134.574219 75.90625 120.40625 92.503906 101.609375 96.269531 L 101.609375 99.316406 C 122.0625 95.503906 137.558594 77.558594 137.558594 56 Z M 81.78125 38.199219 C 81.34375 38.625 81.664062 39.117188 82.410156 38.703125 L 88.015625 35.628906 C 88.441406 35.363281 88.898438 35.214844 89.394531 35.183594 C 93.625 35.394531 96.871094 35.859375 99.140625 36.5625 L 98.707031 33.976562 C 96.535156 33.40625 93.5 33.09375 89.601562 33.027344 C 88.503906 32.929688 87.386719 33.382812 86.238281 34.402344 Z M 89.945312 37.386719 C 89.101562 37.417969 88.386719 37.65625 87.800781 38.109375 L 82.351562 42.304688 C 81.460938 42.96875 82.09375 43.796875 82.976562 43.222656 L 89.398438 40.066406 C 89.886719 39.863281 90.371094 39.773438 90.851562 39.796875 C 94.0625 39.949219 97.097656 40.265625 99.964844 40.726562 L 99.414062 38.121094 C 97.238281 37.695312 94.082031 37.449219 89.945312 37.386719 Z M 88.601562 42.347656 L 83.148438 46.546875 C 82.253906 47.214844 82.894531 48.039062 83.777344 47.464844 L 90.195312 44.308594 C 90.683594 44.105469 91.171875 44.011719 91.648438 44.035156 C 94.863281 44.191406 97.894531 44.503906 100.761719 44.96875 L 100.210938 42.367188 C 98.035156 41.9375 94.882812 41.691406 90.746094 41.628906 C 89.902344 41.65625 89.1875 41.898438 88.601562 42.347656 Z M 91.542969 45.871094 C 90.699219 45.898438 89.984375 46.140625 89.398438 46.589844 L 83.949219 50.785156 C 83.054688 51.449219 83.691406 52.277344 84.578125 51.707031 L 90.996094 48.550781 C 91.484375 48.347656 91.96875 48.253906 92.449219 48.277344 C 95.660156 48.429688 98.699219 48.742188 101.5625 49.207031 L 101.007812 46.605469 C 98.832031 46.175781 95.679688 45.929688 91.542969 45.871094 Z M 92.34375 50.109375 C 91.5 50.140625 90.785156 50.378906 90.199219 50.832031 L 84.75 55.027344 C 83.855469 55.691406 84.492188 56.515625 85.375 55.945312 L 91.792969 52.789062 C 92.285156 52.585938 92.769531 52.496094 93.246094 52.515625 C 96.460938 52.671875 99.496094 52.984375 102.359375 53.449219 L 101.808594 50.84375 C 99.632812 50.414062 96.480469 50.167969 92.34375 50.109375 Z M 105.28125 57.914062 L 110.566406 58.824219 C 111.976562 59.359375 113.167969 56.910156 110.382812 56.375 L 104.917969 55.394531 Z M 93.144531 54.347656 C 92.296875 54.378906 91.585938 54.617188 90.996094 55.070312 L 85.546875 59.265625 C 84.652344 59.9375 85.292969 60.757812 86.175781 60.183594 L 92.59375 57.027344 C 93.082031 56.828125 93.566406 56.738281 94.046875 56.753906 C 97.257812 56.914062 100.296875 57.226562 103.15625 57.691406 L 102.609375 55.082031 C 100.433594 54.65625 97.277344 54.414062 93.144531 54.347656 Z M 104.484375 53.671875 L 109.765625 54.585938 C 111.175781 55.117188 112.371094 52.667969 109.582031 52.132812 L 104.113281 51.152344 Z M 103.6875 49.429688 L 108.96875 50.34375 C 110.378906 50.878906 111.570312 48.425781 108.78125 47.890625 L 103.316406 46.914062 Z M 102.882812 45.1875 L 108.171875 46.105469 C 109.578125 46.636719 110.769531 44.1875 107.984375 43.652344 L 102.519531 42.675781 Z M 102.085938 40.949219 L 107.371094 41.863281 C 108.777344 42.394531 109.972656 39.949219 107.1875 39.414062 L 101.71875 38.433594 Z M 88.476562 75.691406 L 88.476562 75.695312 C 92.628906 74.433594 94.820312 70.984375 95.042969 65.347656 C 94.925781 62.996094 97.382812 63.078125 97.34375 65.316406 C 97.691406 69.253906 97.019531 72.441406 95.320312 74.863281 C 98.386719 73.75 99.90625 70.773438 99.863281 65.929688 C 99.390625 63.039062 102.398438 63.089844 102.226562 65.929688 C 102.484375 69.300781 101.738281 72.273438 99.984375 74.863281 C 103.054688 73.347656 104.488281 70.363281 104.28125 65.902344 C 103.949219 63.703125 106.613281 63.351562 106.648438 65.871094 C 106.863281 69.839844 106.15625 72.789062 104.53125 74.710938 C 107.597656 72.910156 109.027344 70.003906 108.824219 65.992188 C 108.601562 63.800781 111.136719 64.023438 111.25 66.300781 C 111.683594 69.644531 110.636719 72.726562 108.121094 75.539062 C 112.914062 73.082031 114.667969 68.703125 113.382812 62.402344 C 107.488281 61.074219 100.195312 60.84375 91.507812 61.722656 C 92.648438 68.984375 91.636719 73.636719 88.476562 75.691406 Z M 90.820312 92.21875 C 93.535156 91.855469 94.945312 90.789062 95.042969 89.015625 L 95.042969 83.246094 C 96.222656 82.039062 97.292969 82.058594 98.269531 83.304688 L 98.269531 88.984375 C 98.21875 90.320312 97.628906 91.273438 96.503906 91.851562 C 99.300781 91.820312 100.667969 90.894531 100.597656 89.078125 L 100.597656 82.601562 C 99.597656 80.066406 94.007812 79.871094 92.648438 82.691406 L 92.648438 89.230469 C 92.578125 90.058594 91.964844 91.050781 90.820312 92.21875 Z M 93.195312 107.648438 C 93.195312 108.105469 93.21875 108.660156 93.199219 109.011719 C 93.300781 109.011719 93.398438 109.015625 93.5 109.015625 C 94.429688 109.015625 95.355469 108.992188 96.273438 108.941406 L 96.273438 93.644531 L 93.195312 93.644531 Z M 98.066406 108.816406 C 125.203125 106.5 146.511719 83.738281 146.511719 56.003906 C 146.511719 26.726562 122.773438 2.984375 93.5 2.984375 C 64.222656 2.984375 40.484375 26.726562 40.484375 56.003906 C 40.484375 83.671875 61.695312 106.390625 88.734375 108.800781 L 88.734375 93.261719 C 87.132812 92.625 85.980469 91.769531 85.28125 90.703125 C 81.574219 90 81.246094 85.640625 83.839844 83.828125 L 83.839844 79.988281 C 77.871094 79.648438 74.550781 76.347656 73.871094 70.085938 L 73.757812 69.21875 L 77.542969 66.796875 C 78.042969 66.476562 78.191406 65.800781 77.867188 65.296875 C 77.542969 64.792969 76.871094 64.644531 76.367188 64.964844 L 73.453125 66.832031 C 73.363281 66.128906 73.277344 65.429688 73.195312 64.742188 L 76.835938 62.410156 C 77.335938 62.082031 77.484375 61.410156 77.164062 60.90625 C 76.839844 60.402344 76.164062 60.253906 75.664062 60.578125 L 72.910156 62.339844 C 72.835938 61.699219 72.765625 61.066406 72.691406 60.4375 L 76.527344 57.984375 C 77.027344 57.660156 77.175781 56.988281 76.855469 56.480469 C 76.53125 55.980469 75.855469 55.832031 75.355469 56.15625 L 72.4375 58.023438 C 72.359375 57.320312 72.289062 56.628906 72.222656 55.941406 L 76.035156 53.5 C 76.539062 53.179688 76.6875 52.503906 76.363281 52 C 76.042969 51.5 75.367188 51.351562 74.863281 51.671875 L 71.992188 53.511719 C 71.925781 52.78125 71.863281 52.0625 71.804688 51.351562 L 75.652344 48.890625 C 76.15625 48.566406 76.300781 47.890625 75.980469 47.390625 C 75.660156 46.886719 74.984375 46.738281 74.480469 47.0625 L 71.613281 48.894531 C 71.558594 48.175781 71.507812 47.464844 71.464844 46.773438 L 75.160156 44.40625 C 75.667969 44.089844 75.8125 43.410156 75.488281 42.90625 C 75.167969 42.40625 74.492188 42.253906 73.988281 42.578125 L 71.324219 44.285156 L 71.316406 44.074219 C 71.039062 41.355469 71.359375 39.203125 72.269531 37.628906 C 74.140625 34.121094 77.710938 30.671875 82.976562 27.28125 C 84.019531 26.339844 85.140625 25.765625 86.351562 25.5625 C 87.375 25.453125 88.652344 25.441406 90.195312 25.535156 C 96.167969 26.027344 101.242188 27.089844 105.417969 28.726562 C 107.890625 29.621094 109.421875 31.1875 109.996094 33.421875 C 110.769531 36.175781 111.464844 38.867188 112.082031 41.496094 L 115.230469 60.558594 C 116.382812 66.339844 115.726562 70.886719 113.25 74.1875 C 112.222656 75.304688 110.710938 76.359375 108.703125 77.351562 C 106.742188 78.378906 104.570312 79.273438 102.183594 80.03125 L 102.183594 90.308594 C 102.070312 92.300781 100.695312 93.410156 98.066406 93.628906 Z M 86.085938 83.5625 C 90.058594 85.191406 89.367188 89.800781 85.933594 90.578125 C 87.554688 90.847656 88.8125 90.398438 89.71875 89.214844 C 90.289062 88.316406 90.449219 87.257812 90.207031 86.046875 C 89.601562 84.238281 88.226562 83.414062 86.085938 83.5625 Z M 88.214844 31.199219 C 96.441406 31.226562 103.167969 32.402344 108.417969 34.738281 C 107.925781 32.472656 106.417969 30.980469 103.886719 30.261719 C 100.664062 28.9375 96.070312 28.050781 90.097656 27.601562 C 88.398438 27.359375 86.914062 27.5 85.652344 28.019531 C 79.582031 31.109375 75.542969 35.058594 73.523438 39.867188 C 77.027344 34.765625 80.972656 31.601562 85.375 30.386719 C 86.785156 29.976562 87.734375 30.246094 88.214844 31.199219 Z M 106.6875 38.1875 C 108.09375 38.8125 109.292969 36.445312 106.507812 35.71875 L 101.035156 34.371094 L 101.402344 36.910156 Z M 149.503906 56 C 149.503906 25.082031 124.425781 0 93.5 0 C 62.578125 0 37.5 25.082031 37.5 56.003906 C 37.5 86.921875 62.578125 112 93.5 112 C 124.425781 112 149.503906 86.921875 149.503906 56.003906 Z M 93.5 8.957031 C 67.523438 8.957031 46.453125 30.027344 46.453125 56.003906 C 46.453125 79.144531 63.175781 98.386719 85.191406 102.316406 L 85.191406 105.339844 C 61.519531 101.378906 43.472656 80.792969 43.472656 56.003906 C 43.472656 28.375 65.875 5.972656 93.5 5.972656 C 121.125 5.972656 143.527344 28.375 143.527344 56.003906 C 143.527344 80.867188 125.382812 101.496094 101.609375 105.371094 L 101.609375 102.347656 C 123.722656 98.503906 140.542969 79.210938 140.542969 56.003906 C 140.542969 30.027344 119.476562 8.957031 93.496094 8.957031 Z M 93.5 8.957031 " fill-opacity="1" fill-rule="evenodd"/></g></svg>