<svg xmlns="http://www.w3.org/2000/svg" xmlns:xlink="http://www.w3.org/1999/xlink" width="100" zoomAndPan="magnify" viewBox="0 0 75 74.999997" height="100" preserveAspectRatio="xMidYMid meet" version="1.0"><defs><clipPath id="e6d8560a56"><path d="M 37.5 0 C 16.789062 0 0 16.789062 0 37.5 C 0 58.210938 16.789062 75 37.5 75 C 58.210938 75 75 58.210938 75 37.5 C 75 16.789062 58.210938 0 37.5 0 Z M 37.5 0 " clip-rule="nonzero"/></clipPath></defs><g clip-path="url(#e6d8560a56)"><rect x="-7.5" width="90" fill="#130754" y="-7.5" height="89.999996" fill-opacity="1"/></g><path fill="#ffffff" d="M 16.140625 57.800781 C 15.097656 57.800781 14.035156 57.367188 13.371094 56.515625 L 13.371094 61.101562 L 11.285156 61.101562 L 11.285156 49.78125 L 13.171875 49.78125 L 13.242188 51.027344 C 13.890625 50.070312 15.039062 49.566406 16.136719 49.566406 C 18.242188 49.566406 19.789062 51.335938 19.789062 53.683594 C 19.789062 56.03125 18.242188 57.800781 16.140625 57.800781 Z M 15.492188 51.121094 C 14.269531 51.121094 13.28125 52.078125 13.28125 53.683594 C 13.28125 55.289062 14.269531 56.25 15.492188 56.25 C 16.714844 56.25 17.703125 55.292969 17.703125 53.6875 C 17.703125 52.078125 16.714844 51.121094 15.492188 51.121094 Z M 15.492188 51.121094 " fill-opacity="1" fill-rule="nonzero"/><path fill="#ffffff" d="M 27.660156 57.585938 L 27.585938 56.339844 C 26.9375 57.296875 25.789062 57.800781 24.691406 57.800781 C 22.585938 57.800781 21.039062 56.03125 21.039062 53.683594 C 21.039062 51.339844 22.585938 49.566406 24.691406 49.570312 C 25.789062 49.570312 26.9375 50.078125 27.585938 51.03125 L 27.660156 49.785156 L 29.550781 49.785156 L 29.550781 57.585938 Z M 25.339844 51.121094 C 24.117188 51.121094 23.128906 52.078125 23.128906 53.683594 C 23.125 55.292969 24.117188 56.25 25.339844 56.25 C 26.5625 56.25 27.550781 55.292969 27.550781 53.6875 C 27.550781 52.078125 26.5625 51.121094 25.339844 51.121094 Z M 25.339844 51.121094 " fill-opacity="1" fill-rule="nonzero"/><path fill="#ffffff" d="M 36.84375 57.585938 L 36.84375 53.269531 C 36.84375 51.753906 36.324219 51.25 35.371094 51.25 C 34.378906 51.25 33.300781 52.152344 33.300781 53.234375 L 33.300781 57.585938 L 31.214844 57.585938 L 31.214844 49.785156 L 33.121094 49.785156 L 33.210938 51.230469 C 33.734375 50.238281 34.902344 49.570312 36.089844 49.570312 C 38.15625 49.570312 38.929688 51.015625 38.929688 52.945312 L 38.929688 57.585938 Z M 36.84375 57.585938 " fill-opacity="1" fill-rule="nonzero"/><path fill="#ffffff" d="M 46.574219 57.585938 L 46.503906 56.339844 C 45.855469 57.296875 44.703125 57.804688 43.609375 57.804688 C 41.503906 57.804688 39.957031 56.035156 39.957031 53.6875 C 39.957031 51.339844 41.5 49.570312 43.609375 49.570312 C 44.652344 49.570312 45.710938 50.003906 46.375 50.851562 L 46.375 46.753906 L 48.464844 46.753906 L 48.464844 57.585938 Z M 44.257812 51.125 C 43.039062 51.125 42.042969 52.082031 42.042969 53.6875 C 42.042969 55.292969 43.03125 56.25 44.257812 56.25 C 45.480469 56.25 46.46875 55.292969 46.46875 53.6875 C 46.46875 52.078125 45.480469 51.125 44.257812 51.125 Z M 44.257812 51.125 " fill-opacity="1" fill-rule="nonzero"/><path fill="#ffffff" d="M 56.300781 57.589844 L 56.226562 56.34375 C 55.578125 57.300781 54.429688 57.804688 53.332031 57.804688 C 51.226562 57.804688 49.679688 56.035156 49.679688 53.6875 C 49.679688 51.339844 51.226562 49.570312 53.332031 49.570312 C 54.429688 49.570312 55.578125 50.082031 56.226562 51.035156 L 56.300781 49.789062 L 58.1875 49.789062 L 58.1875 57.585938 Z M 53.980469 51.125 C 52.761719 51.125 51.769531 52.082031 51.769531 53.6875 C 51.765625 55.296875 52.757812 56.25 53.980469 56.25 C 55.203125 56.25 56.191406 55.292969 56.191406 53.6875 C 56.191406 52.078125 55.203125 51.125 53.980469 51.125 Z M 53.980469 51.125 " fill-opacity="1" fill-rule="nonzero"/><path fill="#ffffff" d="M 62.808594 57.84375 C 61.691406 57.832031 60.652344 57.539062 59.695312 56.957031 L 60.039062 55.511719 C 60.667969 55.890625 61.621094 56.378906 62.769531 56.378906 C 63.597656 56.378906 64.175781 56.128906 64.175781 55.476562 C 64.175781 54.917969 63.582031 54.71875 62.519531 54.464844 C 60.613281 54.050781 59.929688 53.039062 59.929688 51.9375 C 59.929688 50.710938 60.882812 49.554688 62.988281 49.554688 C 64.265625 49.554688 65.378906 50.113281 65.625 50.261719 L 65.285156 51.632812 C 64.59375 51.214844 63.84375 50.996094 63.039062 50.980469 C 62.191406 50.980469 61.777344 51.269531 61.777344 51.742188 C 61.777344 52.261719 62.320312 52.5 63.144531 52.695312 C 65.195312 53.128906 66.023438 54.085938 66.023438 55.132812 C 66.027344 56.8125 64.804688 57.84375 62.808594 57.84375 Z M 62.808594 57.84375 " fill-opacity="1" fill-rule="nonzero"/><path fill="#ffffff" d="M 32.484375 12.90625 L 35.785156 12.90625 L 35.785156 19.816406 L 32.484375 19.816406 Z M 32.484375 12.90625 " fill-opacity="1" fill-rule="nonzero"/><path fill="#ffffff" d="M 32.484375 27.097656 L 35.785156 27.097656 L 35.785156 34.007812 L 32.484375 34.007812 Z M 32.484375 27.097656 " fill-opacity="1" fill-rule="nonzero"/><path fill="#ffca00" d="M 32.484375 21.832031 L 35.785156 21.832031 L 35.785156 25.089844 L 32.484375 25.089844 Z M 32.484375 21.832031 " fill-opacity="1" fill-rule="nonzero"/><path fill="#ffffff" d="M 27.179688 18.585938 L 30.480469 18.585938 L 30.480469 41.554688 L 27.179688 41.554688 Z M 27.179688 18.585938 " fill-opacity="1" fill-rule="nonzero"/><path fill="#ffffff" d="M 37.679688 32.800781 L 40.984375 32.800781 L 40.984375 39.707031 L 37.679688 39.707031 Z M 37.679688 32.800781 " fill-opacity="1" fill-rule="nonzero"/><path fill="#ffffff" d="M 37.679688 18.59375 L 40.984375 18.59375 L 40.984375 25.503906 L 37.679688 25.503906 Z M 37.679688 18.59375 " fill-opacity="1" fill-rule="nonzero"/><path fill="#e70488" d="M 37.679688 27.519531 L 40.984375 27.519531 L 40.984375 30.78125 L 37.679688 30.78125 Z M 37.679688 27.519531 " fill-opacity="1" fill-rule="nonzero"/><path fill="#ffffff" d="M 42.875 11.105469 L 46.179688 11.105469 L 46.179688 34.074219 L 42.875 34.074219 Z M 42.875 11.105469 " fill-opacity="1" fill-rule="nonzero"/></svg>