<svg xmlns="http://www.w3.org/2000/svg" xmlns:xlink="http://www.w3.org/1999/xlink" width="100" zoomAndPan="magnify" viewBox="0 0 75 74.999997" height="100" preserveAspectRatio="xMidYMid meet" version="1.2"><defs><clipPath id="95438a216d"><path d="M 0 9.515625 L 75 9.515625 L 75 65.765625 L 0 65.765625 Z M 0 9.515625 "/></clipPath><clipPath id="fbca57395d"><path d="M 0.0546875 36.242188 L 48.9375 36.242188 L 48.9375 65.765625 L 0.0546875 65.765625 Z M 0.0546875 36.242188 "/></clipPath></defs><g id="2b217edc85"><rect x="0" width="75" y="0" height="74.999997" style="fill:#ffffff;fill-opacity:1;stroke:none;"/><rect x="0" width="75" y="0" height="74.999997" style="fill:#ffffff;fill-opacity:1;stroke:none;"/><g clip-rule="nonzero" clip-path="url(#95438a216d)"><path style=" stroke:none;fill-rule:nonzero;fill:#000000;fill-opacity:1;" d="M 3.035156 11.578125 C 2.523438 11.578125 2.109375 12 2.109375 12.511719 L 2.109375 62.769531 C 2.109375 63.285156 2.523438 63.703125 3.035156 63.703125 L 71.859375 63.703125 C 72.375 63.703125 72.789062 63.285156 72.789062 62.769531 L 72.789062 12.511719 C 72.789062 12 72.375 11.578125 71.859375 11.578125 Z M 71.859375 65.769531 L 3.035156 65.769531 C 1.390625 65.769531 0.0546875 64.425781 0.0546875 62.769531 L 0.0546875 12.511719 C 0.0546875 10.859375 1.390625 9.515625 3.035156 9.515625 L 71.859375 9.515625 C 73.503906 9.515625 74.84375 10.859375 74.84375 12.511719 L 74.84375 62.769531 C 74.84375 64.425781 73.503906 65.769531 71.859375 65.769531 "/></g><path style=" stroke:none;fill-rule:nonzero;fill:#000000;fill-opacity:1;" d="M 73.816406 55.660156 C 73.550781 55.660156 73.28125 55.554688 73.082031 55.347656 L 53.460938 35.121094 L 36.246094 52.871094 C 35.847656 53.277344 35.199219 53.285156 34.792969 52.886719 C 34.386719 52.492188 34.378906 51.835938 34.773438 51.429688 L 52.726562 32.921875 C 52.917969 32.722656 53.183594 32.609375 53.460938 32.609375 C 53.738281 32.609375 54.003906 32.722656 54.195312 32.921875 L 74.550781 53.90625 C 74.945312 54.316406 74.9375 54.96875 74.53125 55.367188 C 74.332031 55.5625 74.074219 55.660156 73.816406 55.660156 "/><g clip-rule="nonzero" clip-path="url(#fbca57395d)"><path style=" stroke:none;fill-rule:nonzero;fill:#000000;fill-opacity:1;" d="M 47.882812 65.769531 C 47.617188 65.769531 47.351562 65.664062 47.152344 65.460938 L 34.78125 52.875 L 20.898438 38.75 L 1.816406 58.425781 C 1.421875 58.832031 0.769531 58.839844 0.363281 58.445312 C -0.0429688 58.046875 -0.0507812 57.394531 0.347656 56.984375 L 20.15625 36.558594 C 20.351562 36.359375 20.613281 36.246094 20.890625 36.246094 C 20.890625 36.246094 20.890625 36.246094 20.894531 36.246094 C 21.167969 36.246094 21.429688 36.355469 21.625 36.554688 L 36.242188 51.425781 L 48.613281 64.011719 C 49.011719 64.417969 49.007812 65.070312 48.601562 65.46875 C 48.402344 65.667969 48.140625 65.769531 47.882812 65.769531 "/></g><path style=" stroke:none;fill-rule:nonzero;fill:#000000;fill-opacity:1;" d="M 31.296875 20.6875 C 28.640625 20.6875 26.480469 22.859375 26.480469 25.53125 C 26.480469 28.199219 28.640625 30.371094 31.296875 30.371094 C 33.953125 30.371094 36.113281 28.199219 36.113281 25.53125 C 36.113281 22.859375 33.953125 20.6875 31.296875 20.6875 Z M 31.296875 32.4375 C 27.507812 32.4375 24.425781 29.335938 24.425781 25.53125 C 24.425781 21.722656 27.507812 18.625 31.296875 18.625 C 35.085938 18.625 38.167969 21.722656 38.167969 25.53125 C 38.167969 29.335938 35.085938 32.4375 31.296875 32.4375 "/></g></svg>