<svg xmlns="http://www.w3.org/2000/svg" xmlns:xlink="http://www.w3.org/1999/xlink" width="100" zoomAndPan="magnify" viewBox="0 0 75 74.999997" height="100" preserveAspectRatio="xMidYMid meet" version="1.0"><defs><g/><clipPath id="d29a36a2f7"><path d="M 37.75 0 C 16.902344 0 0 16.902344 0 37.75 C 0 58.597656 16.902344 75.496094 37.75 75.496094 C 58.597656 75.496094 75.496094 58.597656 75.496094 37.75 C 75.496094 16.902344 58.597656 0 37.75 0 Z M 37.75 0 " clip-rule="nonzero"/></clipPath><clipPath id="6526e47504"><path d="M 13.238281 4.105469 L 61.988281 4.105469 L 61.988281 47.605469 L 13.238281 47.605469 Z M 13.238281 4.105469 " clip-rule="nonzero"/></clipPath></defs><g clip-path="url(#d29a36a2f7)"><rect x="-7.5" width="90" fill="#ffffff" y="-7.5" height="89.999996" fill-opacity="1"/></g><g clip-path="url(#6526e47504)"><path fill="#00d8ff" d="M 53.320312 18.1875 C 52.800781 18.011719 52.277344 17.847656 51.75 17.695312 C 51.839844 17.332031 51.921875 16.972656 51.992188 16.621094 C 53.179688 10.84375 52.402344 6.191406 49.75 4.65625 C 47.210938 3.1875 43.050781 4.71875 38.851562 8.382812 C 38.4375 8.746094 38.03125 9.117188 37.636719 9.5 C 37.371094 9.246094 37.101562 8.996094 36.828125 8.75 C 32.425781 4.835938 28.015625 3.183594 25.367188 4.722656 C 22.824219 6.195312 22.074219 10.570312 23.140625 16.046875 C 23.25 16.589844 23.367188 17.128906 23.503906 17.664062 C 22.878906 17.839844 22.277344 18.03125 21.699219 18.230469 C 16.539062 20.035156 13.242188 22.859375 13.242188 25.792969 C 13.242188 28.816406 16.78125 31.855469 22.15625 33.695312 C 22.589844 33.84375 23.03125 33.980469 23.472656 34.109375 C 23.328125 34.6875 23.203125 35.265625 23.089844 35.851562 C 22.070312 41.230469 22.867188 45.503906 25.402344 46.96875 C 28.019531 48.480469 32.410156 46.925781 36.6875 43.179688 C 37.035156 42.875 37.371094 42.5625 37.703125 42.242188 C 38.132812 42.65625 38.570312 43.054688 39.023438 43.445312 C 43.164062 47.015625 47.253906 48.460938 49.785156 46.992188 C 52.402344 45.476562 53.25 40.886719 52.148438 35.300781 C 52.0625 34.863281 51.964844 34.429688 51.855469 33.996094 C 52.164062 33.90625 52.46875 33.8125 52.761719 33.710938 C 58.351562 31.859375 61.984375 28.859375 61.984375 25.792969 C 61.984375 22.851562 58.582031 20.003906 53.320312 18.1875 Z M 52.105469 31.730469 C 51.839844 31.820312 51.566406 31.90625 51.289062 31.988281 C 50.671875 30.03125 49.839844 27.953125 48.820312 25.800781 C 49.792969 23.703125 50.59375 21.648438 51.191406 19.703125 C 51.691406 19.847656 52.175781 20 52.640625 20.164062 C 57.152344 21.71875 59.902344 24.019531 59.902344 25.792969 C 59.902344 27.679688 56.933594 30.128906 52.105469 31.730469 Z M 50.105469 35.707031 C 50.59375 38.175781 50.664062 40.410156 50.339844 42.152344 C 50.050781 43.722656 49.464844 44.765625 48.742188 45.1875 C 47.207031 46.078125 43.921875 44.917969 40.378906 41.863281 C 39.960938 41.5 39.550781 41.128906 39.152344 40.742188 C 40.527344 39.238281 41.898438 37.488281 43.238281 35.546875 C 45.597656 35.335938 47.824219 34.992188 49.839844 34.527344 C 49.9375 34.917969 50.027344 35.3125 50.105469 35.707031 Z M 29.859375 45.03125 C 28.359375 45.5625 27.164062 45.578125 26.441406 45.160156 C 24.902344 44.273438 24.265625 40.84375 25.136719 36.242188 C 25.238281 35.695312 25.359375 35.15625 25.492188 34.621094 C 27.488281 35.0625 29.699219 35.378906 32.0625 35.570312 C 33.410156 37.472656 34.820312 39.222656 36.246094 40.753906 C 35.941406 41.046875 35.632812 41.332031 35.316406 41.609375 C 33.425781 43.265625 31.53125 44.441406 29.859375 45.03125 Z M 22.828125 31.722656 C 20.453125 30.90625 18.488281 29.847656 17.144531 28.695312 C 15.933594 27.65625 15.324219 26.625 15.324219 25.792969 C 15.324219 24.011719 17.972656 21.746094 22.382812 20.203125 C 22.917969 20.015625 23.480469 19.839844 24.0625 19.671875 C 24.671875 21.660156 25.472656 23.738281 26.4375 25.84375 C 25.460938 27.976562 24.648438 30.085938 24.03125 32.097656 C 23.628906 31.980469 23.226562 31.855469 22.828125 31.722656 Z M 25.1875 15.644531 C 24.269531 10.953125 24.878906 7.414062 26.410156 6.527344 C 28.039062 5.582031 31.644531 6.929688 35.445312 10.3125 C 35.695312 10.53125 35.9375 10.757812 36.179688 10.988281 C 34.761719 12.511719 33.363281 14.246094 32.027344 16.136719 C 29.734375 16.351562 27.539062 16.691406 25.519531 17.148438 C 25.398438 16.652344 25.285156 16.148438 25.1875 15.644531 Z M 46.210938 20.847656 C 45.734375 20.023438 45.242188 19.207031 44.730469 18.40625 C 46.285156 18.601562 47.773438 18.863281 49.175781 19.183594 C 48.753906 20.53125 48.230469 21.941406 47.613281 23.390625 C 47.164062 22.53125 46.695312 21.683594 46.210938 20.847656 Z M 37.636719 12.480469 C 38.597656 13.523438 39.558594 14.6875 40.507812 15.949219 C 38.585938 15.859375 36.664062 15.859375 34.746094 15.949219 C 35.691406 14.695312 36.660156 13.535156 37.636719 12.480469 Z M 29.007812 20.863281 C 28.53125 21.691406 28.070312 22.535156 27.632812 23.386719 C 27.027344 21.945312 26.507812 20.527344 26.082031 19.160156 C 27.472656 18.847656 28.957031 18.59375 30.503906 18.402344 C 29.984375 19.210938 29.488281 20.03125 29.007812 20.863281 Z M 30.546875 33.332031 C 28.949219 33.152344 27.445312 32.910156 26.054688 32.605469 C 26.484375 31.214844 27.015625 29.765625 27.632812 28.292969 C 28.074219 29.148438 28.535156 29.988281 29.015625 30.820312 C 29.511719 31.675781 30.023438 32.515625 30.546875 33.332031 Z M 37.695312 39.25 C 36.707031 38.183594 35.722656 37.003906 34.761719 35.734375 C 35.695312 35.769531 36.648438 35.789062 37.613281 35.789062 C 38.609375 35.789062 39.589844 35.765625 40.554688 35.722656 C 39.605469 37.015625 38.648438 38.199219 37.695312 39.25 Z M 47.632812 28.21875 C 48.285156 29.707031 48.835938 31.148438 49.269531 32.515625 C 47.855469 32.839844 46.332031 33.097656 44.722656 33.292969 C 45.238281 32.472656 45.738281 31.644531 46.21875 30.808594 C 46.710938 29.957031 47.183594 29.09375 47.632812 28.21875 Z M 44.417969 29.765625 C 43.679688 31.050781 42.898438 32.3125 42.078125 33.546875 C 40.59375 33.652344 39.105469 33.703125 37.613281 33.703125 C 36.097656 33.703125 34.621094 33.65625 33.199219 33.5625 C 32.359375 32.332031 31.566406 31.070312 30.820312 29.777344 C 30.074219 28.492188 29.382812 27.179688 28.738281 25.839844 C 29.378906 24.503906 30.070312 23.191406 30.8125 21.902344 C 31.550781 20.617188 32.339844 19.359375 33.175781 18.132812 C 34.625 18.023438 36.113281 17.964844 37.613281 17.964844 C 39.125 17.964844 40.613281 18.023438 42.0625 18.136719 C 42.886719 19.359375 43.671875 20.613281 44.410156 21.894531 C 45.152344 23.175781 45.851562 24.480469 46.511719 25.8125 C 45.859375 27.152344 45.160156 28.472656 44.417969 29.765625 Z M 48.710938 6.464844 C 50.34375 7.410156 50.980469 11.210938 49.953125 16.199219 C 49.886719 16.519531 49.8125 16.84375 49.734375 17.171875 C 47.710938 16.703125 45.515625 16.355469 43.214844 16.140625 C 41.878906 14.226562 40.488281 12.492188 39.097656 10.988281 C 39.460938 10.632812 39.835938 10.289062 40.21875 9.957031 C 43.816406 6.820312 47.179688 5.578125 48.710938 6.464844 Z M 37.613281 21.429688 C 40.019531 21.429688 41.964844 23.382812 41.964844 25.792969 C 41.964844 28.199219 40.019531 30.152344 37.613281 30.152344 C 35.210938 30.152344 33.261719 28.199219 33.261719 25.792969 C 33.261719 23.382812 35.210938 21.429688 37.613281 21.429688 Z M 37.613281 21.429688 " fill-opacity="1" fill-rule="nonzero"/></g><g fill="#000000" fill-opacity="1"><g transform="translate(12.990235, 63.122941)"><g><path d="M 11 -12.71875 C 11.457031 -12.351562 11.789062 -11.914062 12 -11.40625 C 12.21875 -10.894531 12.328125 -10.367188 12.328125 -9.828125 C 12.328125 -8.835938 12.015625 -8.023438 11.390625 -7.390625 C 10.765625 -6.753906 9.804688 -6.34375 8.515625 -6.15625 C 9.003906 -5.925781 9.441406 -5.617188 9.828125 -5.234375 C 10.222656 -4.859375 10.644531 -4.328125 11.09375 -3.640625 L 13.4375 0 L 11.1875 0 L 9.4375 -2.71875 C 8.832031 -3.664062 8.351562 -4.351562 8 -4.78125 C 7.644531 -5.21875 7.273438 -5.523438 6.890625 -5.703125 C 6.515625 -5.890625 6.035156 -5.984375 5.453125 -5.984375 L 3.3125 -5.984375 L 3.3125 0 L 1.515625 0 L 1.515625 -13.53125 L 7.71875 -13.53125 C 8.519531 -13.53125 9.164062 -13.46875 9.65625 -13.34375 C 10.15625 -13.226562 10.601562 -13.019531 11 -12.71875 Z M 9.6875 -8.15625 C 9.96875 -8.375 10.171875 -8.628906 10.296875 -8.921875 C 10.421875 -9.222656 10.484375 -9.523438 10.484375 -9.828125 C 10.484375 -10.617188 10.195312 -11.179688 9.625 -11.515625 C 9.0625 -11.859375 8.40625 -12.03125 7.65625 -12.03125 L 3.3125 -12.03125 L 3.3125 -7.578125 L 7.34375 -7.578125 C 7.976562 -7.578125 8.460938 -7.625 8.796875 -7.71875 C 9.128906 -7.8125 9.425781 -7.957031 9.6875 -8.15625 Z M 9.6875 -8.15625 "/></g></g></g><g fill="#000000" fill-opacity="1"><g transform="translate(26.289196, 63.122941)"><g><path d="M 5.3125 -10.015625 C 6.25 -10.015625 7.054688 -9.789062 7.734375 -9.34375 C 8.410156 -8.894531 8.914062 -8.289062 9.25 -7.53125 C 9.59375 -6.78125 9.765625 -5.9375 9.765625 -5 L 9.765625 -4.484375 L 2.453125 -4.484375 C 2.503906 -3.429688 2.800781 -2.613281 3.34375 -2.03125 C 3.882812 -1.445312 4.578125 -1.15625 5.421875 -1.15625 C 6.066406 -1.15625 6.597656 -1.320312 7.015625 -1.65625 C 7.441406 -2 7.765625 -2.5 7.984375 -3.15625 L 9.703125 -2.953125 C 9.441406 -1.960938 8.941406 -1.1875 8.203125 -0.625 C 7.472656 -0.0703125 6.570312 0.203125 5.5 0.203125 C 4 0.203125 2.828125 -0.234375 1.984375 -1.109375 C 1.148438 -1.992188 0.734375 -3.226562 0.734375 -4.8125 C 0.734375 -5.875 0.921875 -6.796875 1.296875 -7.578125 C 1.679688 -8.359375 2.210938 -8.957031 2.890625 -9.375 C 3.578125 -9.800781 4.382812 -10.015625 5.3125 -10.015625 Z M 2.546875 -5.859375 L 8.015625 -5.859375 C 7.972656 -6.785156 7.679688 -7.484375 7.140625 -7.953125 C 6.609375 -8.421875 6 -8.65625 5.3125 -8.65625 C 4.53125 -8.65625 3.890625 -8.390625 3.390625 -7.859375 C 2.890625 -7.328125 2.609375 -6.660156 2.546875 -5.859375 Z M 2.546875 -5.859375 "/></g></g></g><g fill="#000000" fill-opacity="1"><g transform="translate(36.792376, 63.122941)"><g><path d="M 5.359375 -10.015625 C 6.171875 -10.015625 6.820312 -9.9375 7.3125 -9.78125 C 7.8125 -9.625 8.207031 -9.394531 8.5 -9.09375 C 8.78125 -8.800781 8.96875 -8.476562 9.0625 -8.125 C 9.164062 -7.769531 9.21875 -7.300781 9.21875 -6.71875 L 9.21875 -2.78125 C 9.21875 -1.507812 9.394531 -0.582031 9.75 0 L 8.015625 0 C 7.847656 -0.34375 7.734375 -0.742188 7.671875 -1.203125 C 7.066406 -0.703125 6.476562 -0.335938 5.90625 -0.109375 C 5.332031 0.117188 4.738281 0.234375 4.125 0.234375 C 3.0625 0.234375 2.226562 -0.0234375 1.625 -0.546875 C 1.019531 -1.066406 0.71875 -1.75 0.71875 -2.59375 C 0.71875 -3.03125 0.816406 -3.453125 1.015625 -3.859375 C 1.222656 -4.273438 1.5 -4.59375 1.84375 -4.8125 C 2.226562 -5.0625 2.613281 -5.242188 3 -5.359375 C 3.394531 -5.472656 3.875 -5.5625 4.4375 -5.625 C 5.039062 -5.6875 5.640625 -5.769531 6.234375 -5.875 C 6.835938 -5.988281 7.28125 -6.101562 7.5625 -6.21875 L 7.5625 -6.625 C 7.5625 -7.289062 7.378906 -7.796875 7.015625 -8.140625 C 6.660156 -8.484375 6.046875 -8.65625 5.171875 -8.65625 C 4.359375 -8.65625 3.769531 -8.507812 3.40625 -8.21875 C 3.050781 -7.925781 2.789062 -7.445312 2.625 -6.78125 L 1 -6.984375 C 1.226562 -8.046875 1.703125 -8.816406 2.421875 -9.296875 C 3.148438 -9.773438 4.128906 -10.015625 5.359375 -10.015625 Z M 5.171875 -4.34375 C 4.535156 -4.238281 4.039062 -4.140625 3.6875 -4.046875 C 3.34375 -3.953125 3.054688 -3.796875 2.828125 -3.578125 C 2.609375 -3.359375 2.5 -3.039062 2.5 -2.625 C 2.5 -2.132812 2.675781 -1.753906 3.03125 -1.484375 C 3.394531 -1.210938 3.898438 -1.078125 4.546875 -1.078125 C 4.929688 -1.078125 5.34375 -1.15625 5.78125 -1.3125 C 6.21875 -1.46875 6.601562 -1.742188 6.9375 -2.140625 C 7.144531 -2.390625 7.300781 -2.671875 7.40625 -2.984375 C 7.507812 -3.296875 7.5625 -3.695312 7.5625 -4.1875 L 7.5625 -4.90625 C 7.050781 -4.707031 6.253906 -4.519531 5.171875 -4.34375 Z M 5.171875 -4.34375 "/></g></g></g><g fill="#000000" fill-opacity="1"><g transform="translate(47.295557, 63.122941)"><g><path d="M 5.359375 -10.015625 C 6.328125 -10.015625 7.144531 -9.742188 7.8125 -9.203125 C 8.488281 -8.671875 8.921875 -7.90625 9.109375 -6.90625 L 7.5 -6.671875 C 7.363281 -7.265625 7.113281 -7.742188 6.75 -8.109375 C 6.382812 -8.472656 5.890625 -8.65625 5.265625 -8.65625 C 4.390625 -8.65625 3.695312 -8.335938 3.1875 -7.703125 C 2.6875 -7.078125 2.4375 -6.160156 2.4375 -4.953125 C 2.4375 -3.710938 2.671875 -2.769531 3.140625 -2.125 C 3.617188 -1.476562 4.296875 -1.15625 5.171875 -1.15625 C 5.890625 -1.15625 6.453125 -1.367188 6.859375 -1.796875 C 7.265625 -2.234375 7.519531 -2.832031 7.625 -3.59375 L 9.28125 -3.375 C 9.101562 -2.25 8.644531 -1.367188 7.90625 -0.734375 C 7.164062 -0.109375 6.253906 0.203125 5.171875 0.203125 C 3.773438 0.203125 2.6875 -0.25 1.90625 -1.15625 C 1.125 -2.070312 0.734375 -3.363281 0.734375 -5.03125 C 0.734375 -6.59375 1.144531 -7.8125 1.96875 -8.6875 C 2.800781 -9.570312 3.929688 -10.015625 5.359375 -10.015625 Z M 5.359375 -10.015625 "/></g></g></g><g fill="#000000" fill-opacity="1"><g transform="translate(56.740868, 63.122941)"><g><path d="M 3.1875 -9.78125 L 4.859375 -9.78125 L 4.859375 -8.53125 L 3.1875 -8.53125 L 3.1875 -2.46875 C 3.1875 -2.039062 3.242188 -1.738281 3.359375 -1.5625 C 3.484375 -1.382812 3.738281 -1.296875 4.125 -1.296875 C 4.207031 -1.296875 4.453125 -1.328125 4.859375 -1.390625 L 5.09375 0.078125 C 4.59375 0.179688 4.1875 0.234375 3.875 0.234375 C 3.226562 0.234375 2.734375 0.128906 2.390625 -0.078125 C 2.054688 -0.285156 1.828125 -0.578125 1.703125 -0.953125 C 1.585938 -1.328125 1.53125 -1.8125 1.53125 -2.40625 L 1.53125 -8.53125 L 0.328125 -8.53125 L 0.328125 -9.78125 L 1.53125 -9.78125 L 1.53125 -12.21875 L 3.1875 -13.21875 Z M 3.1875 -9.78125 "/></g></g></g></svg>