<?xml version="1.0" encoding="utf-8"?>
<!-- Generator: Adobe Illustrator 28.1.0, SVG Export Plug-In . SVG Version: 6.00 Build 0)  -->
<svg version="1.1" id="Layer_1" xmlns="http://www.w3.org/2000/svg" xmlns:xlink="http://www.w3.org/1999/xlink" x="0px" y="0px"
	 viewBox="0 0 16 16" style="enable-background:new 0 0 16 16;" xml:space="preserve">
<style type="text/css">
	.st0{fill-rule:evenodd;clip-rule:evenodd;fill:#FFFFFF;}
</style>
<path class="st0" d="M7.5,1.8C7.8,2,8,2.3,8,2.7v10.7c0,0.4-0.2,0.7-0.5,0.8s-0.7,0.1-1-0.2l-3.3-3.3H0.9C0.4,10.7,0,10.3,0,9.8V6.2
	c0-0.5,0.4-0.9,0.9-0.9h2.3L6.5,2C6.7,1.8,7.1,1.7,7.5,1.8z"/>
<path class="st0" d="M12.1,1.7c0.3-0.3,0.9-0.3,1.3,0C15,3.3,16,5.5,16,8s-1,4.7-2.6,6.3c-0.3,0.3-0.9,0.3-1.3,0
	c-0.3-0.3-0.3-0.9,0-1.3c1.3-1.3,2.1-3.1,2.1-5s-0.8-3.7-2.1-5C11.8,2.6,11.8,2.1,12.1,1.7z M9.6,4.2c0.3-0.3,0.9-0.3,1.3,0
	c0.5,0.5,0.8,1,1.1,1.6c0.3,0.7,0.4,1.4,0.4,2.1c0,1.5-0.6,2.8-1.6,3.8c-0.3,0.3-0.9,0.3-1.3,0c-0.3-0.3-0.3-0.9,0-1.3
	c0.6-0.6,1-1.5,1-2.5c0-0.5-0.1-1-0.3-1.4S9.8,5.7,9.5,5.4C9.3,5.1,9.3,4.6,9.6,4.2z"/>
</svg>