<svg xmlns="http://www.w3.org/2000/svg" xmlns:xlink="http://www.w3.org/1999/xlink" width="100" zoomAndPan="magnify" viewBox="0 0 75 74.999997" height="100" preserveAspectRatio="xMidYMid meet" version="1.0"><defs><clipPath id="b8a8e7eba7"><path d="M 0 1.40625 L 75 1.40625 L 75 73.40625 L 0 73.40625 Z M 0 1.40625 " clip-rule="nonzero"/></clipPath><clipPath id="ab64886787"><path d="M 6.601562 12.523438 L 69.601562 12.523438 L 69.601562 59.324219 L 6.601562 59.324219 Z M 6.601562 12.523438 " clip-rule="nonzero"/></clipPath><clipPath id="6d16f3b368"><path d="M 0.238281 1.40625 L 13.296875 1.40625 L 13.296875 63.65625 L 0.238281 63.65625 Z M 0.238281 1.40625 " clip-rule="nonzero"/></clipPath><clipPath id="3e8d0a91f6"><path d="M 25.425781 56 L 74.175781 56 L 74.175781 60.488281 L 25.425781 60.488281 Z M 25.425781 56 " clip-rule="nonzero"/></clipPath><clipPath id="c43e07edd9"><path d="M 39 11.738281 L 49 11.738281 L 49 16 L 39 16 Z M 39 11.738281 " clip-rule="nonzero"/></clipPath><clipPath id="bb78cc36c0"><path d="M 14.347656 56 L 27.847656 56 L 27.847656 59.851562 L 14.347656 59.851562 Z M 14.347656 56 " clip-rule="nonzero"/></clipPath></defs><g clip-path="url(#b8a8e7eba7)"><path fill="#000000" d="M 4.183594 1.40625 C 1.882812 1.40625 0.0195312 3.265625 0.0195312 5.558594 L 0.0195312 69.253906 C 0.0195312 71.546875 1.882812 73.40625 4.183594 73.40625 L 70.816406 73.40625 C 73.117188 73.40625 74.980469 71.546875 74.980469 69.253906 L 74.980469 5.558594 C 74.980469 3.265625 73.117188 1.40625 70.816406 1.40625 Z M 4.183594 4.175781 L 70.816406 4.175781 C 71.582031 4.175781 72.207031 4.796875 72.207031 5.558594 L 72.207031 62.328125 C 71.4375 62.328125 70.816406 62.949219 70.816406 63.714844 L 70.816406 66.484375 C 70.816406 67.246094 71.4375 67.867188 72.207031 67.867188 L 72.207031 69.253906 C 72.207031 70.015625 71.582031 70.636719 70.816406 70.636719 L 4.183594 70.636719 C 3.417969 70.636719 2.792969 70.015625 2.792969 69.253906 L 2.792969 67.867188 C 3.5625 67.867188 4.183594 67.246094 4.183594 66.484375 L 4.183594 63.714844 C 4.183594 62.949219 3.5625 62.328125 2.792969 62.328125 L 2.792969 5.558594 C 2.792969 4.796875 3.417969 4.175781 4.183594 4.175781 Z M 23.617188 12.484375 C 22.851562 12.484375 22.230469 13.101562 22.230469 13.867188 L 22.230469 55.40625 C 22.230469 56.171875 22.851562 56.789062 23.617188 56.789062 C 24.386719 56.789062 25.007812 56.171875 25.007812 55.40625 L 25.007812 13.867188 C 25.007812 13.101562 24.386719 12.484375 23.617188 12.484375 Z M 51.382812 12.484375 C 50.613281 12.484375 49.992188 13.101562 49.992188 13.867188 L 49.992188 55.40625 C 49.992188 56.171875 50.613281 56.789062 51.382812 56.789062 C 52.148438 56.789062 52.769531 56.171875 52.769531 55.40625 L 52.769531 13.867188 C 52.769531 13.101562 52.148438 12.484375 51.382812 12.484375 Z M 16.675781 20.789062 C 15.910156 20.789062 15.289062 21.410156 15.289062 22.175781 L 15.289062 47.097656 C 15.289062 47.863281 15.910156 48.484375 16.675781 48.484375 C 17.445312 48.484375 18.066406 47.863281 18.066406 47.097656 L 18.066406 22.175781 C 18.066406 21.410156 17.445312 20.789062 16.675781 20.789062 Z M 30.558594 20.789062 C 29.792969 20.789062 29.171875 21.410156 29.171875 22.175781 L 29.171875 47.097656 C 29.171875 47.863281 29.792969 48.484375 30.558594 48.484375 C 31.328125 48.484375 31.945312 47.863281 31.945312 47.097656 L 31.945312 22.175781 C 31.945312 21.410156 31.328125 20.789062 30.558594 20.789062 Z M 44.441406 20.789062 C 43.671875 20.789062 43.054688 21.410156 43.054688 22.175781 L 43.054688 47.097656 C 43.054688 47.863281 43.671875 48.484375 44.441406 48.484375 C 45.207031 48.484375 45.828125 47.863281 45.828125 47.097656 L 45.828125 22.175781 C 45.828125 21.410156 45.207031 20.789062 44.441406 20.789062 Z M 58.324219 20.789062 C 57.554688 20.789062 56.933594 21.410156 56.933594 22.175781 L 56.933594 47.097656 C 56.933594 47.863281 57.554688 48.484375 58.324219 48.484375 C 59.089844 48.484375 59.710938 47.863281 59.710938 47.097656 L 59.710938 22.175781 C 59.710938 21.410156 59.089844 20.789062 58.324219 20.789062 Z M 9.734375 29.097656 C 8.96875 29.097656 8.347656 29.71875 8.347656 30.484375 L 8.347656 38.789062 C 8.347656 39.554688 8.96875 40.175781 9.734375 40.175781 C 10.503906 40.175781 11.125 39.554688 11.125 38.789062 L 11.125 30.484375 C 11.125 29.71875 10.503906 29.097656 9.734375 29.097656 Z M 37.5 29.097656 C 36.730469 29.097656 36.113281 29.71875 36.113281 30.484375 L 36.113281 38.789062 C 36.113281 39.554688 36.730469 40.175781 37.5 40.175781 C 38.269531 40.175781 38.886719 39.554688 38.886719 38.789062 L 38.886719 30.484375 C 38.886719 29.71875 38.269531 29.097656 37.5 29.097656 Z M 65.265625 29.097656 C 64.496094 29.097656 63.875 29.71875 63.875 30.484375 L 63.875 38.789062 C 63.875 39.554688 64.496094 40.175781 65.265625 40.175781 C 66.03125 40.175781 66.652344 39.554688 66.652344 38.789062 L 66.652344 30.484375 C 66.652344 29.71875 66.03125 29.097656 65.265625 29.097656 Z M 9.734375 62.328125 C 8.96875 62.328125 8.347656 62.949219 8.347656 63.714844 L 8.347656 66.484375 C 8.347656 67.246094 8.96875 67.867188 9.734375 67.867188 C 10.5 67.867188 11.125 67.246094 11.125 66.484375 L 11.125 63.714844 C 11.125 62.949219 10.5 62.328125 9.734375 62.328125 Z M 16.675781 62.328125 C 15.910156 62.328125 15.289062 62.949219 15.289062 63.714844 L 15.289062 66.484375 C 15.289062 67.246094 15.910156 67.867188 16.675781 67.867188 C 17.441406 67.867188 18.066406 67.246094 18.066406 66.484375 L 18.066406 63.714844 C 18.066406 62.949219 17.441406 62.328125 16.675781 62.328125 Z M 23.617188 62.328125 C 22.851562 62.328125 22.230469 62.949219 22.230469 63.714844 L 22.230469 66.484375 C 22.230469 67.246094 22.851562 67.867188 23.617188 67.867188 C 24.382812 67.867188 25.007812 67.246094 25.007812 66.484375 L 25.007812 63.714844 C 25.007812 62.949219 24.382812 62.328125 23.617188 62.328125 Z M 30.558594 62.328125 C 29.792969 62.328125 29.171875 62.949219 29.171875 63.714844 L 29.171875 66.484375 C 29.171875 67.246094 29.792969 67.867188 30.558594 67.867188 C 31.324219 67.867188 31.945312 67.246094 31.945312 66.484375 L 31.945312 63.714844 C 31.945312 62.949219 31.324219 62.328125 30.558594 62.328125 Z M 37.5 62.328125 C 36.734375 62.328125 36.113281 62.949219 36.113281 63.714844 L 36.113281 66.484375 C 36.113281 67.246094 36.734375 67.867188 37.5 67.867188 C 38.265625 67.867188 38.886719 67.246094 38.886719 66.484375 L 38.886719 63.714844 C 38.886719 62.949219 38.265625 62.328125 37.5 62.328125 Z M 44.441406 62.328125 C 43.675781 62.328125 43.054688 62.949219 43.054688 63.714844 L 43.054688 66.484375 C 43.054688 67.246094 43.675781 67.867188 44.441406 67.867188 C 45.207031 67.867188 45.828125 67.246094 45.828125 66.484375 L 45.828125 63.714844 C 45.828125 62.949219 45.207031 62.328125 44.441406 62.328125 Z M 51.382812 62.328125 C 50.617188 62.328125 49.992188 62.949219 49.992188 63.714844 L 49.992188 66.484375 C 49.992188 67.246094 50.617188 67.867188 51.382812 67.867188 C 52.148438 67.867188 52.769531 67.246094 52.769531 66.484375 L 52.769531 63.714844 C 52.769531 62.949219 52.148438 62.328125 51.382812 62.328125 Z M 58.324219 62.328125 C 57.558594 62.328125 56.933594 62.949219 56.933594 63.714844 L 56.933594 66.484375 C 56.933594 67.246094 57.558594 67.867188 58.324219 67.867188 C 59.089844 67.867188 59.710938 67.246094 59.710938 66.484375 L 59.710938 63.714844 C 59.710938 62.949219 59.089844 62.328125 58.324219 62.328125 Z M 65.265625 62.328125 C 64.5 62.328125 63.875 62.949219 63.875 63.714844 L 63.875 66.484375 C 63.875 67.246094 64.5 67.867188 65.265625 67.867188 C 66.03125 67.867188 66.652344 67.246094 66.652344 66.484375 L 66.652344 63.714844 C 66.652344 62.949219 66.03125 62.328125 65.265625 62.328125 Z M 65.265625 62.328125 " fill-opacity="1" fill-rule="nonzero"/></g><g clip-path="url(#ab64886787)"><path fill="#ffffff" d="M 6.601562 12.523438 L 69.671875 12.523438 L 69.671875 59.324219 L 6.601562 59.324219 Z M 6.601562 12.523438 " fill-opacity="1" fill-rule="nonzero"/></g><g clip-path="url(#6d16f3b368)"><path fill="#000000" d="M 72.238281 5.585938 C 72.238281 3.289062 70.378906 1.421875 68.085938 1.421875 L 4.394531 1.421875 C 2.101562 1.421875 0.238281 3.289062 0.238281 5.585938 L 0.238281 72.222656 C 0.238281 74.523438 2.101562 76.386719 4.394531 76.386719 L 68.085938 76.386719 C 70.378906 76.386719 72.238281 74.523438 72.238281 72.222656 Z M 69.472656 5.585938 L 69.472656 72.222656 C 69.472656 72.988281 68.851562 73.609375 68.085938 73.609375 L 11.316406 73.609375 C 11.316406 72.84375 10.695312 72.222656 9.933594 72.222656 L 7.164062 72.222656 C 6.398438 72.222656 5.777344 72.84375 5.777344 73.609375 L 4.394531 73.609375 C 3.628906 73.609375 3.007812 72.988281 3.007812 72.222656 L 3.007812 5.585938 C 3.007812 4.820312 3.628906 4.199219 4.394531 4.199219 L 5.777344 4.199219 C 5.777344 4.964844 6.398438 5.585938 7.164062 5.585938 L 9.933594 5.585938 C 10.695312 5.585938 11.316406 4.964844 11.316406 4.199219 L 68.085938 4.199219 C 68.851562 4.199219 69.472656 4.820312 69.472656 5.585938 Z M 61.164062 25.023438 C 61.164062 24.253906 60.542969 23.632812 59.777344 23.632812 L 18.238281 23.632812 C 17.472656 23.632812 16.855469 24.253906 16.855469 25.023438 C 16.855469 25.789062 17.472656 26.410156 18.238281 26.410156 L 59.777344 26.410156 C 60.542969 26.410156 61.164062 25.789062 61.164062 25.023438 Z M 61.164062 52.789062 C 61.164062 52.019531 60.542969 51.398438 59.777344 51.398438 L 18.238281 51.398438 C 17.472656 51.398438 16.855469 52.019531 16.855469 52.789062 C 16.855469 53.554688 17.472656 54.175781 18.238281 54.175781 L 59.777344 54.175781 C 60.542969 54.175781 61.164062 53.554688 61.164062 52.789062 Z M 52.855469 18.082031 C 52.855469 17.3125 52.234375 16.695312 51.472656 16.695312 L 26.546875 16.695312 C 25.78125 16.695312 25.164062 17.3125 25.164062 18.082031 C 25.164062 18.847656 25.78125 19.46875 26.546875 19.46875 L 51.472656 19.46875 C 52.234375 19.46875 52.855469 18.847656 52.855469 18.082031 Z M 52.855469 31.964844 C 52.855469 31.195312 52.234375 30.574219 51.472656 30.574219 L 26.546875 30.574219 C 25.78125 30.574219 25.164062 31.195312 25.164062 31.964844 C 25.164062 32.730469 25.78125 33.351562 26.546875 33.351562 L 51.472656 33.351562 C 52.234375 33.351562 52.855469 32.730469 52.855469 31.964844 Z M 52.855469 45.847656 C 52.855469 45.078125 52.234375 44.457031 51.472656 44.457031 L 26.546875 44.457031 C 25.78125 44.457031 25.164062 45.078125 25.164062 45.847656 C 25.164062 46.613281 25.78125 47.234375 26.546875 47.234375 L 51.472656 47.234375 C 52.234375 47.234375 52.855469 46.613281 52.855469 45.847656 Z M 52.855469 59.726562 C 52.855469 58.960938 52.234375 58.339844 51.472656 58.339844 L 26.546875 58.339844 C 25.78125 58.339844 25.164062 58.960938 25.164062 59.726562 C 25.164062 60.496094 25.78125 61.117188 26.546875 61.117188 L 51.472656 61.117188 C 52.234375 61.117188 52.855469 60.496094 52.855469 59.726562 Z M 44.546875 11.140625 C 44.546875 10.371094 43.925781 9.753906 43.164062 9.753906 L 34.855469 9.753906 C 34.089844 9.753906 33.472656 10.371094 33.472656 11.140625 C 33.472656 11.910156 34.089844 12.527344 34.855469 12.527344 L 43.164062 12.527344 C 43.925781 12.527344 44.546875 11.910156 44.546875 11.140625 Z M 44.546875 38.90625 C 44.546875 38.136719 43.925781 37.515625 43.164062 37.515625 L 34.855469 37.515625 C 34.089844 37.515625 33.472656 38.136719 33.472656 38.90625 C 33.472656 39.671875 34.089844 40.292969 34.855469 40.292969 L 43.164062 40.292969 C 43.925781 40.292969 44.546875 39.671875 44.546875 38.90625 Z M 44.546875 66.667969 C 44.546875 65.902344 43.925781 65.28125 43.164062 65.28125 L 34.855469 65.28125 C 34.089844 65.28125 33.472656 65.902344 33.472656 66.667969 C 33.472656 67.4375 34.089844 68.058594 34.855469 68.058594 L 43.164062 68.058594 C 43.925781 68.058594 44.546875 67.4375 44.546875 66.667969 Z M 11.316406 11.140625 C 11.316406 10.375 10.695312 9.753906 9.933594 9.753906 L 7.164062 9.753906 C 6.398438 9.753906 5.777344 10.375 5.777344 11.140625 C 5.777344 11.90625 6.398438 12.527344 7.164062 12.527344 L 9.933594 12.527344 C 10.695312 12.527344 11.316406 11.90625 11.316406 11.140625 Z M 11.316406 18.082031 C 11.316406 17.316406 10.695312 16.695312 9.933594 16.695312 L 7.164062 16.695312 C 6.398438 16.695312 5.777344 17.316406 5.777344 18.082031 C 5.777344 18.847656 6.398438 19.46875 7.164062 19.46875 L 9.933594 19.46875 C 10.695312 19.46875 11.316406 18.847656 11.316406 18.082031 Z M 11.316406 25.023438 C 11.316406 24.257812 10.695312 23.632812 9.933594 23.632812 L 7.164062 23.632812 C 6.398438 23.632812 5.777344 24.257812 5.777344 25.023438 C 5.777344 25.789062 6.398438 26.410156 7.164062 26.410156 L 9.933594 26.410156 C 10.695312 26.410156 11.316406 25.789062 11.316406 25.023438 Z M 11.316406 31.964844 C 11.316406 31.199219 10.695312 30.574219 9.933594 30.574219 L 7.164062 30.574219 C 6.398438 30.574219 5.777344 31.199219 5.777344 31.964844 C 5.777344 32.730469 6.398438 33.351562 7.164062 33.351562 L 9.933594 33.351562 C 10.695312 33.351562 11.316406 32.730469 11.316406 31.964844 Z M 11.316406 38.90625 C 11.316406 38.140625 10.695312 37.515625 9.933594 37.515625 L 7.164062 37.515625 C 6.398438 37.515625 5.777344 38.140625 5.777344 38.90625 C 5.777344 39.671875 6.398438 40.292969 7.164062 40.292969 L 9.933594 40.292969 C 10.695312 40.292969 11.316406 39.671875 11.316406 38.90625 Z M 11.316406 45.847656 C 11.316406 45.078125 10.695312 44.457031 9.933594 44.457031 L 7.164062 44.457031 C 6.398438 44.457031 5.777344 45.078125 5.777344 45.847656 C 5.777344 46.613281 6.398438 47.234375 7.164062 47.234375 L 9.933594 47.234375 C 10.695312 47.234375 11.316406 46.613281 11.316406 45.847656 Z M 11.316406 52.789062 C 11.316406 52.019531 10.695312 51.398438 9.933594 51.398438 L 7.164062 51.398438 C 6.398438 51.398438 5.777344 52.019531 5.777344 52.789062 C 5.777344 53.554688 6.398438 54.175781 7.164062 54.175781 L 9.933594 54.175781 C 10.695312 54.175781 11.316406 53.554688 11.316406 52.789062 Z M 11.316406 59.726562 C 11.316406 58.960938 10.695312 58.339844 9.933594 58.339844 L 7.164062 58.339844 C 6.398438 58.339844 5.777344 58.960938 5.777344 59.726562 C 5.777344 60.496094 6.398438 61.117188 7.164062 61.117188 L 9.933594 61.117188 C 10.695312 61.117188 11.316406 60.496094 11.316406 59.726562 Z M 11.316406 66.667969 C 11.316406 65.902344 10.695312 65.28125 9.933594 65.28125 L 7.164062 65.28125 C 6.398438 65.28125 5.777344 65.902344 5.777344 66.667969 C 5.777344 67.4375 6.398438 68.058594 7.164062 68.058594 L 9.933594 68.058594 C 10.695312 68.058594 11.316406 67.4375 11.316406 66.667969 Z M 11.316406 66.667969 " fill-opacity="1" fill-rule="nonzero"/></g><g clip-path="url(#3e8d0a91f6)"><path fill="#000000" d="M 27.476562 60.402344 L 71.953125 60.402344 C 73.128906 60.402344 74.089844 59.441406 74.089844 58.265625 C 74.089844 57.085938 73.128906 56.125 71.953125 56.125 L 27.476562 56.125 C 26.300781 56.125 25.339844 57.085938 25.339844 58.265625 C 25.339844 59.441406 26.300781 60.402344 27.476562 60.402344 Z M 27.476562 60.402344 " fill-opacity="1" fill-rule="nonzero"/></g><path fill="#000000" d="M 31.171875 52.585938 L 35.761719 52.585938 C 36.941406 52.585938 37.902344 51.625 37.902344 50.445312 C 37.902344 49.269531 36.941406 48.308594 35.761719 48.308594 L 31.171875 48.308594 C 29.992188 48.308594 29.03125 49.269531 29.03125 50.445312 C 29.03125 51.625 29.992188 52.585938 31.171875 52.585938 Z M 31.171875 52.585938 " fill-opacity="1" fill-rule="nonzero"/><path fill="#000000" d="M 31.171875 43.417969 L 35.761719 43.417969 C 36.941406 43.417969 37.902344 42.460938 37.902344 41.28125 C 37.902344 40.101562 36.941406 39.144531 35.761719 39.144531 L 31.171875 39.144531 C 29.992188 39.144531 29.03125 40.101562 29.03125 41.28125 C 29.03125 42.460938 29.992188 43.417969 31.171875 43.417969 Z M 31.171875 43.417969 " fill-opacity="1" fill-rule="nonzero"/><path fill="#000000" d="M 31.171875 34.257812 L 35.761719 34.257812 C 36.941406 34.257812 37.902344 33.296875 37.902344 32.117188 C 37.902344 30.941406 36.941406 29.980469 35.761719 29.980469 L 31.171875 29.980469 C 29.992188 29.980469 29.03125 30.941406 29.03125 32.117188 C 29.03125 33.296875 29.992188 34.257812 31.171875 34.257812 Z M 31.171875 34.257812 " fill-opacity="1" fill-rule="nonzero"/><path fill="#000000" d="M 31.171875 25.089844 L 35.761719 25.089844 C 36.941406 25.089844 37.902344 24.132812 37.902344 22.953125 C 37.902344 21.773438 36.941406 20.816406 35.761719 20.816406 L 31.171875 20.816406 C 29.992188 20.816406 29.03125 21.773438 29.03125 22.953125 C 29.03125 24.132812 29.992188 25.089844 31.171875 25.089844 Z M 31.171875 25.089844 " fill-opacity="1" fill-rule="nonzero"/><path fill="#000000" d="M 42 52.585938 L 46.59375 52.585938 C 47.773438 52.585938 48.734375 51.625 48.734375 50.445312 C 48.734375 49.269531 47.773438 48.308594 46.59375 48.308594 L 42 48.308594 C 40.824219 48.308594 39.863281 49.269531 39.863281 50.445312 C 39.863281 51.625 40.824219 52.585938 42 52.585938 Z M 42 52.585938 " fill-opacity="1" fill-rule="nonzero"/><path fill="#000000" d="M 42 43.417969 L 46.59375 43.417969 C 47.773438 43.417969 48.734375 42.460938 48.734375 41.28125 C 48.734375 40.101562 47.773438 39.144531 46.59375 39.144531 L 42 39.144531 C 40.824219 39.144531 39.863281 40.101562 39.863281 41.28125 C 39.863281 42.460938 40.824219 43.417969 42 43.417969 Z M 42 43.417969 " fill-opacity="1" fill-rule="nonzero"/><path fill="#000000" d="M 42 34.257812 L 46.59375 34.257812 C 47.773438 34.257812 48.734375 33.296875 48.734375 32.117188 C 48.734375 30.941406 47.773438 29.980469 46.59375 29.980469 L 42 29.980469 C 40.824219 29.980469 39.863281 30.941406 39.863281 32.117188 C 39.863281 33.296875 40.824219 34.257812 42 34.257812 Z M 42 34.257812 " fill-opacity="1" fill-rule="nonzero"/><path fill="#000000" d="M 42 25.089844 L 46.59375 25.089844 C 47.773438 25.089844 48.734375 24.132812 48.734375 22.953125 C 48.734375 21.773438 47.773438 20.816406 46.59375 20.816406 L 42 20.816406 C 40.824219 20.816406 39.863281 21.773438 39.863281 22.953125 C 39.863281 24.132812 40.824219 25.089844 42 25.089844 Z M 42 25.089844 " fill-opacity="1" fill-rule="nonzero"/><g clip-path="url(#c43e07edd9)"><path fill="#000000" d="M 42 15.929688 L 46.59375 15.929688 C 47.773438 15.929688 48.734375 14.96875 48.734375 13.789062 C 48.734375 12.613281 47.773438 11.652344 46.59375 11.652344 L 42 11.652344 C 40.824219 11.652344 39.863281 12.613281 39.863281 13.789062 C 39.863281 14.96875 40.824219 15.929688 42 15.929688 Z M 42 15.929688 " fill-opacity="1" fill-rule="nonzero"/></g><path fill="#000000" d="M 52.832031 52.585938 L 57.425781 52.585938 C 58.605469 52.585938 59.5625 51.625 59.5625 50.445312 C 59.5625 49.269531 58.605469 48.308594 57.425781 48.308594 L 52.832031 48.308594 C 51.652344 48.308594 50.695312 49.269531 50.695312 50.445312 C 50.695312 51.625 51.652344 52.585938 52.832031 52.585938 Z M 52.832031 52.585938 " fill-opacity="1" fill-rule="nonzero"/><path fill="#000000" d="M 52.832031 43.417969 L 57.425781 43.417969 C 58.605469 43.417969 59.5625 42.460938 59.5625 41.28125 C 59.5625 40.101562 58.605469 39.144531 57.425781 39.144531 L 52.832031 39.144531 C 51.652344 39.144531 50.695312 40.101562 50.695312 41.28125 C 50.695312 42.460938 51.652344 43.417969 52.832031 43.417969 Z M 52.832031 43.417969 " fill-opacity="1" fill-rule="nonzero"/><path fill="#000000" d="M 52.832031 34.257812 L 57.425781 34.257812 C 58.605469 34.257812 59.5625 33.296875 59.5625 32.117188 C 59.5625 30.941406 58.605469 29.980469 57.425781 29.980469 L 52.832031 29.980469 C 51.652344 29.980469 50.695312 30.941406 50.695312 32.117188 C 50.695312 33.296875 51.652344 34.257812 52.832031 34.257812 Z M 52.832031 34.257812 " fill-opacity="1" fill-rule="nonzero"/><path fill="#000000" d="M 63.664062 52.585938 L 68.257812 52.585938 C 69.433594 52.585938 70.394531 51.625 70.394531 50.445312 C 70.394531 49.269531 69.433594 48.308594 68.257812 48.308594 L 63.664062 48.308594 C 62.484375 48.308594 61.527344 49.269531 61.527344 50.445312 C 61.527344 51.625 62.484375 52.585938 63.664062 52.585938 Z M 63.664062 52.585938 " fill-opacity="1" fill-rule="nonzero"/><path fill="#000000" d="M 63.664062 43.417969 L 68.257812 43.417969 C 69.433594 43.417969 70.394531 42.460938 70.394531 41.28125 C 70.394531 40.101562 69.433594 39.144531 68.257812 39.144531 L 63.664062 39.144531 C 62.484375 39.144531 61.527344 40.101562 61.527344 41.28125 C 61.527344 42.460938 62.484375 43.417969 63.664062 43.417969 Z M 63.664062 43.417969 " fill-opacity="1" fill-rule="nonzero"/><path fill="#000000" d="M 63.664062 34.257812 L 68.257812 34.257812 C 69.433594 34.257812 70.394531 33.296875 70.394531 32.117188 C 70.394531 30.941406 69.433594 29.980469 68.257812 29.980469 L 63.664062 29.980469 C 62.484375 29.980469 61.527344 30.941406 61.527344 32.117188 C 61.527344 33.296875 62.484375 34.257812 63.664062 34.257812 Z M 63.664062 34.257812 " fill-opacity="1" fill-rule="nonzero"/><path fill="#000000" d="M 63.664062 25.089844 L 68.257812 25.089844 C 69.433594 25.089844 70.394531 24.132812 70.394531 22.953125 C 70.394531 21.773438 69.433594 20.816406 68.257812 20.816406 L 63.664062 20.816406 C 62.484375 20.816406 61.527344 21.773438 61.527344 22.953125 C 61.527344 24.132812 62.484375 25.089844 63.664062 25.089844 Z M 63.664062 25.089844 " fill-opacity="1" fill-rule="nonzero"/><g clip-path="url(#bb78cc36c0)"><path fill="#000000" d="M 16.402344 60.402344 L 60.875 60.402344 C 62.054688 60.402344 63.011719 59.441406 63.011719 58.265625 C 63.011719 57.085938 62.054688 56.125 60.875 56.125 L 16.402344 56.125 C 15.222656 56.125 14.261719 57.085938 14.261719 58.265625 C 14.261719 59.441406 15.222656 60.402344 16.402344 60.402344 Z M 16.402344 60.402344 " fill-opacity="1" fill-rule="nonzero"/></g><path fill="#000000" d="M 20.09375 52.585938 L 24.6875 52.585938 C 25.867188 52.585938 26.824219 51.625 26.824219 50.445312 C 26.824219 49.269531 25.867188 48.308594 24.6875 48.308594 L 20.09375 48.308594 C 18.914062 48.308594 17.957031 49.269531 17.957031 50.445312 C 17.957031 51.625 18.914062 52.585938 20.09375 52.585938 Z M 20.09375 52.585938 " fill-opacity="1" fill-rule="nonzero"/><path fill="#000000" d="M 20.09375 43.417969 L 24.6875 43.417969 C 25.867188 43.417969 26.824219 42.460938 26.824219 41.28125 C 26.824219 40.101562 25.867188 39.144531 24.6875 39.144531 L 20.09375 39.144531 C 18.914062 39.144531 17.957031 40.101562 17.957031 41.28125 C 17.957031 42.460938 18.914062 43.417969 20.09375 43.417969 Z M 20.09375 43.417969 " fill-opacity="1" fill-rule="nonzero"/></svg>