<svg xmlns="http://www.w3.org/2000/svg" xmlns:xlink="http://www.w3.org/1999/xlink" width="250" zoomAndPan="magnify" viewBox="0 0 187.5 112.499997" height="150" preserveAspectRatio="xMidYMid meet" version="1.0"><defs><clipPath id="4335a283ad"><path d="M 28.097656 0 L 158.769531 0 L 158.769531 112.003906 L 28.097656 112.003906 Z M 28.097656 0 " clip-rule="nonzero"/></clipPath></defs><g clip-path="url(#4335a283ad)"><path fill="currentColor" d="M 35.15625 0 C 31.304688 0 28.164062 3.144531 28.164062 7 L 28.164062 105.003906 C 28.164062 108.859375 31.304688 112.003906 35.15625 112.003906 L 151.710938 112.003906 C 155.5625 112.003906 158.703125 108.859375 158.703125 105.003906 L 158.703125 7 C 158.703125 3.144531 155.5625 0 151.710938 0 Z M 35.15625 4.667969 L 151.710938 4.667969 C 152.996094 4.667969 154.042969 5.714844 154.042969 7 L 154.042969 105.003906 C 154.042969 106.289062 152.996094 107.335938 151.710938 107.335938 L 35.15625 107.335938 C 33.871094 107.335938 32.824219 106.289062 32.824219 105.003906 L 32.824219 28 L 128.398438 28 C 129.691406 28 130.730469 26.960938 130.730469 25.667969 C 130.730469 24.371094 129.691406 23.332031 128.398438 23.332031 L 32.824219 23.332031 L 32.824219 7 C 32.824219 5.714844 33.871094 4.667969 35.15625 4.667969 Z M 42.148438 9.332031 C 40.855469 9.332031 39.816406 10.371094 39.816406 11.667969 L 39.816406 16.332031 C 39.816406 17.628906 40.855469 18.667969 42.148438 18.667969 C 43.441406 18.667969 44.480469 17.628906 44.480469 16.332031 L 44.480469 11.667969 C 44.480469 10.371094 43.441406 9.332031 42.148438 9.332031 Z M 53.804688 9.332031 C 52.511719 9.332031 51.472656 10.371094 51.472656 11.667969 L 51.472656 16.332031 C 51.472656 17.628906 52.511719 18.667969 53.804688 18.667969 C 55.097656 18.667969 56.136719 17.628906 56.136719 16.332031 L 56.136719 11.667969 C 56.136719 10.371094 55.097656 9.332031 53.804688 9.332031 Z M 65.460938 9.332031 C 64.167969 9.332031 63.128906 10.371094 63.128906 11.667969 L 63.128906 16.332031 C 63.128906 17.628906 64.167969 18.667969 65.460938 18.667969 C 66.753906 18.667969 67.789062 17.628906 67.789062 16.332031 L 67.789062 11.667969 C 67.789062 10.371094 66.753906 9.332031 65.460938 9.332031 Z M 77.117188 9.332031 C 75.824219 9.332031 74.785156 10.371094 74.785156 11.667969 L 74.785156 16.332031 C 74.785156 17.628906 75.824219 18.667969 77.117188 18.667969 C 78.410156 18.667969 79.445312 17.628906 79.445312 16.332031 L 79.445312 11.667969 C 79.445312 10.371094 78.410156 9.332031 77.117188 9.332031 Z M 88.769531 9.332031 C 87.476562 9.332031 86.441406 10.371094 86.441406 11.667969 L 86.441406 16.332031 C 86.441406 17.628906 87.476562 18.667969 88.769531 18.667969 C 90.0625 18.667969 91.101562 17.628906 91.101562 16.332031 L 91.101562 11.667969 C 91.101562 10.371094 90.0625 9.332031 88.769531 9.332031 Z M 100.425781 9.332031 C 99.132812 9.332031 98.09375 10.371094 98.09375 11.667969 L 98.09375 16.332031 C 98.09375 17.628906 99.132812 18.667969 100.425781 18.667969 C 101.71875 18.667969 102.757812 17.628906 102.757812 16.332031 L 102.757812 11.667969 C 102.757812 10.371094 101.71875 9.332031 100.425781 9.332031 Z M 112.082031 9.332031 C 110.789062 9.332031 109.75 10.371094 109.75 11.667969 L 109.75 16.332031 C 109.75 17.628906 110.789062 18.667969 112.082031 18.667969 C 113.375 18.667969 114.414062 17.628906 114.414062 16.332031 L 114.414062 11.667969 C 114.414062 10.371094 113.375 9.332031 112.082031 9.332031 Z M 123.738281 9.332031 C 122.445312 9.332031 121.40625 10.371094 121.40625 11.667969 L 121.40625 16.332031 C 121.40625 17.628906 122.445312 18.667969 123.738281 18.667969 C 125.03125 18.667969 126.066406 17.628906 126.066406 16.332031 L 126.066406 11.667969 C 126.066406 10.371094 125.03125 9.332031 123.738281 9.332031 Z M 135.394531 9.332031 C 134.097656 9.332031 133.0625 10.371094 133.0625 11.667969 L 133.0625 16.332031 C 133.0625 17.628906 134.097656 18.667969 135.394531 18.667969 C 136.6875 18.667969 137.722656 17.628906 137.722656 16.332031 L 137.722656 11.667969 C 137.722656 10.371094 136.6875 9.332031 135.394531 9.332031 Z M 147.046875 9.332031 C 145.753906 9.332031 144.71875 10.371094 144.71875 11.667969 L 144.71875 16.332031 C 144.71875 17.628906 145.753906 18.667969 147.046875 18.667969 C 148.339844 18.667969 149.378906 17.628906 149.378906 16.332031 L 149.378906 11.667969 C 149.378906 10.371094 148.339844 9.332031 147.046875 9.332031 Z M 137.722656 23.332031 C 136.429688 23.332031 135.394531 24.371094 135.394531 25.667969 C 135.394531 26.960938 136.429688 28 137.722656 28 L 147.046875 28 C 148.339844 28 149.378906 26.960938 149.378906 25.667969 C 149.378906 24.371094 148.339844 23.332031 147.046875 23.332031 Z M 88.589844 36.679688 C 86.257812 36.679688 84.371094 38.292969 84 40.605469 L 76.96875 84.15625 L 71.714844 55.164062 C 71.324219 53.039062 69.613281 51.5 67.453125 51.34375 C 65.324219 51.1875 63.382812 52.464844 62.699219 54.523438 L 57.582031 69.917969 L 50.707031 61.652344 C 49.742188 60.496094 48.257812 59.875 46.765625 59.984375 C 45.261719 60.101562 43.90625 60.941406 43.132812 62.234375 L 37.824219 71.09375 C 37.160156 72.199219 37.515625 73.628906 38.617188 74.292969 C 39.726562 74.960938 41.15625 74.59375 41.820312 73.492188 L 47.128906 64.640625 L 53.996094 72.898438 C 55.089844 74.203125 56.792969 74.8125 58.449219 74.496094 C 60.105469 74.183594 61.472656 72.992188 62 71.386719 L 67.125 56 L 72.390625 84.996094 C 72.808594 87.253906 74.683594 88.824219 76.96875 88.824219 C 76.988281 88.824219 77.007812 88.824219 77.023438 88.824219 C 79.335938 88.804688 81.214844 87.191406 81.585938 84.902344 L 88.597656 41.34375 L 95.984375 94.546875 C 96.308594 96.890625 98.1875 98.546875 100.542969 98.574219 L 100.609375 98.574219 C 102.9375 98.574219 104.824219 96.960938 105.199219 94.648438 L 112.15625 51.507812 L 117.234375 81.15625 C 117.609375 83.363281 119.429688 84.957031 121.660156 85.03125 C 123.910156 85.160156 125.832031 83.65625 126.359375 81.476562 L 131.375 60.832031 L 136.101562 71.46875 C 136.8125 73.074219 138.332031 74.128906 140.082031 74.230469 C 141.847656 74.367188 143.460938 73.484375 144.363281 71.980469 L 149.050781 64.160156 C 149.707031 63.054688 149.351562 61.625 148.25 60.960938 C 147.148438 60.292969 145.710938 60.660156 145.042969 61.761719 L 140.363281 69.574219 L 135.636719 58.9375 C 134.808594 57.085938 132.960938 56.011719 130.957031 56.183594 C 128.945312 56.367188 127.332031 57.761719 126.851562 59.730469 L 121.835938 80.375 L 116.742188 50.714844 C 116.363281 48.4375 114.46875 46.839844 112.15625 46.839844 L 112.128906 46.839844 C 109.804688 46.851562 107.921875 48.472656 107.546875 50.769531 L 100.597656 93.910156 L 93.214844 40.707031 C 92.886719 38.363281 91.011719 36.707031 88.652344 36.679688 Z M 88.589844 36.679688 " fill-opacity="1" fill-rule="nonzero"/></g></svg>