<svg xmlns="http://www.w3.org/2000/svg" xmlns:xlink="http://www.w3.org/1999/xlink" width="240" zoomAndPan="magnify" viewBox="0 0 180 179.999997" height="240" preserveAspectRatio="xMidYMid meet" version="1.0"><defs><clipPath id="a1cb69dbe2"><path d="M 41 51.277344 L 46 51.277344 L 46 128.527344 L 41 128.527344 Z M 41 51.277344 " clip-rule="nonzero"/></clipPath></defs><path fill="currentColor" d="M 2.09375 96.835938 C 0.9375 96.835938 0 95.898438 0 94.742188 L 0 85.25 C 0 84.09375 0.9375 83.15625 2.09375 83.15625 C 3.25 83.15625 4.1875 84.09375 4.1875 85.25 L 4.1875 94.742188 C 4.1875 95.898438 3.25 96.835938 2.09375 96.835938 Z M 2.09375 96.835938 " fill-opacity="1" fill-rule="nonzero"/><path fill="currentColor" d="M 12.433594 110.027344 C 11.277344 110.027344 10.339844 109.089844 10.339844 107.933594 L 10.339844 72.058594 C 10.339844 70.902344 11.277344 69.964844 12.433594 69.964844 C 13.589844 69.964844 14.527344 70.902344 14.527344 72.058594 L 14.527344 107.933594 C 14.527344 109.089844 13.589844 110.027344 12.433594 110.027344 Z M 12.433594 110.027344 " fill-opacity="1" fill-rule="nonzero"/><path fill="currentColor" d="M 22.777344 107.785156 C 21.621094 107.785156 20.683594 106.847656 20.683594 105.691406 L 20.683594 74.300781 C 20.683594 73.144531 21.621094 72.207031 22.777344 72.207031 C 23.933594 72.207031 24.867188 73.144531 24.867188 74.300781 L 24.867188 105.691406 C 24.867188 106.847656 23.933594 107.785156 22.777344 107.785156 Z M 22.777344 107.785156 " fill-opacity="1" fill-rule="nonzero"/><path fill="currentColor" d="M 33.117188 112.214844 C 31.960938 112.214844 31.023438 111.277344 31.023438 110.121094 L 31.023438 69.871094 C 31.023438 68.714844 31.960938 67.777344 33.117188 67.777344 C 34.273438 67.777344 35.210938 68.714844 35.210938 69.871094 L 35.210938 110.121094 C 35.210938 111.277344 34.273438 112.214844 33.117188 112.214844 Z M 33.117188 112.214844 " fill-opacity="1" fill-rule="nonzero"/><g clip-path="url(#a1cb69dbe2)"><path fill="currentColor" d="M 43.460938 128.640625 C 42.304688 128.640625 41.367188 127.703125 41.367188 126.546875 L 41.367188 53.445312 C 41.367188 52.289062 42.304688 51.351562 43.460938 51.351562 C 44.613281 51.351562 45.550781 52.289062 45.550781 53.445312 L 45.550781 126.546875 C 45.550781 127.703125 44.613281 128.640625 43.460938 128.640625 Z M 43.460938 128.640625 " fill-opacity="1" fill-rule="nonzero"/></g><path fill="currentColor" d="M 53.800781 122.363281 C 52.644531 122.363281 51.707031 121.425781 51.707031 120.269531 L 51.707031 59.722656 C 51.707031 58.566406 52.644531 57.628906 53.800781 57.628906 C 54.957031 57.628906 55.894531 58.566406 55.894531 59.722656 L 55.894531 120.269531 C 55.894531 121.425781 54.957031 122.363281 53.800781 122.363281 Z M 53.800781 122.363281 " fill-opacity="1" fill-rule="nonzero"/><path fill="currentColor" d="M 64.140625 119.558594 C 62.984375 119.558594 62.050781 118.621094 62.050781 117.464844 L 62.050781 62.527344 C 62.050781 61.371094 62.984375 60.433594 64.140625 60.433594 C 65.296875 60.433594 66.234375 61.371094 66.234375 62.527344 L 66.234375 117.464844 C 66.234375 118.621094 65.296875 119.558594 64.140625 119.558594 Z M 64.140625 119.558594 " fill-opacity="1" fill-rule="nonzero"/><path fill="currentColor" d="M 74.484375 110.140625 C 73.328125 110.140625 72.390625 109.203125 72.390625 108.046875 L 72.390625 71.945312 C 72.390625 70.789062 73.328125 69.851562 74.484375 69.851562 C 75.640625 69.851562 76.578125 70.789062 76.578125 71.945312 L 76.578125 108.046875 C 76.578125 109.203125 75.640625 110.140625 74.484375 110.140625 Z M 74.484375 110.140625 " fill-opacity="1" fill-rule="nonzero"/><path fill="currentColor" d="M 84.824219 102.066406 C 83.667969 102.066406 82.730469 101.128906 82.730469 99.976562 L 82.730469 80.015625 C 82.730469 78.859375 83.667969 77.925781 84.824219 77.925781 C 85.980469 77.925781 86.917969 78.859375 86.917969 80.015625 L 86.917969 99.976562 C 86.917969 101.128906 85.980469 102.066406 84.824219 102.066406 Z M 84.824219 102.066406 " fill-opacity="1" fill-rule="nonzero"/><path fill="currentColor" d="M 95.167969 98.3125 C 94.011719 98.3125 93.074219 97.375 93.074219 96.21875 L 93.074219 83.773438 C 93.074219 82.617188 94.011719 81.679688 95.167969 81.679688 C 96.324219 81.679688 97.257812 82.617188 97.257812 83.773438 L 97.257812 96.21875 C 97.257812 97.375 96.324219 98.3125 95.167969 98.3125 Z M 95.167969 98.3125 " fill-opacity="1" fill-rule="nonzero"/><path fill="currentColor" d="M 105.507812 98.3125 C 104.351562 98.3125 103.414062 97.375 103.414062 96.21875 L 103.414062 83.773438 C 103.414062 82.617188 104.351562 81.679688 105.507812 81.679688 C 106.664062 81.679688 107.601562 82.617188 107.601562 83.773438 L 107.601562 96.21875 C 107.601562 97.375 106.664062 98.3125 105.507812 98.3125 Z M 105.507812 98.3125 " fill-opacity="1" fill-rule="nonzero"/><path fill="currentColor" d="M 115.847656 118.214844 C 114.691406 118.214844 113.757812 117.277344 113.757812 116.121094 L 113.757812 63.871094 C 113.757812 62.714844 114.691406 61.777344 115.847656 61.777344 C 117.003906 61.777344 117.941406 62.714844 117.941406 63.871094 L 117.941406 116.121094 C 117.941406 117.277344 117.003906 118.214844 115.847656 118.214844 Z M 115.847656 118.214844 " fill-opacity="1" fill-rule="nonzero"/><path fill="currentColor" d="M 126.191406 125.21875 C 125.035156 125.21875 124.097656 124.285156 124.097656 123.128906 L 124.097656 56.863281 C 124.097656 55.707031 125.035156 54.769531 126.191406 54.769531 C 127.347656 54.769531 128.285156 55.707031 128.285156 56.863281 L 128.285156 123.128906 C 128.285156 124.285156 127.347656 125.21875 126.191406 125.21875 Z M 126.191406 125.21875 " fill-opacity="1" fill-rule="nonzero"/><path fill="currentColor" d="M 136.53125 120.988281 C 135.375 120.988281 134.4375 120.050781 134.4375 118.894531 L 134.4375 61.097656 C 134.4375 59.941406 135.375 59.003906 136.53125 59.003906 C 137.6875 59.003906 138.625 59.941406 138.625 61.097656 L 138.625 118.894531 C 138.625 120.050781 137.6875 120.988281 136.53125 120.988281 Z M 136.53125 120.988281 " fill-opacity="1" fill-rule="nonzero"/><path fill="currentColor" d="M 146.875 114.667969 C 145.71875 114.667969 144.78125 113.730469 144.78125 112.574219 L 144.78125 67.417969 C 144.78125 66.261719 145.71875 65.324219 146.875 65.324219 C 148.03125 65.324219 148.96875 66.261719 148.96875 67.417969 L 148.96875 112.574219 C 148.96875 113.730469 148.03125 114.667969 146.875 114.667969 Z M 146.875 114.667969 " fill-opacity="1" fill-rule="nonzero"/><path fill="currentColor" d="M 157.214844 127.148438 C 156.058594 127.148438 155.121094 126.210938 155.121094 125.054688 L 155.121094 54.9375 C 155.121094 53.78125 156.058594 52.84375 157.214844 52.84375 C 158.371094 52.84375 159.308594 53.78125 159.308594 54.9375 L 159.308594 125.054688 C 159.308594 126.210938 158.371094 127.148438 157.214844 127.148438 Z M 157.214844 127.148438 " fill-opacity="1" fill-rule="nonzero"/><path fill="currentColor" d="M 167.558594 108.527344 C 166.402344 108.527344 165.464844 107.589844 165.464844 106.433594 L 165.464844 73.558594 C 165.464844 72.402344 166.402344 71.464844 167.558594 71.464844 C 168.710938 71.464844 169.648438 72.402344 169.648438 73.558594 L 169.648438 106.433594 C 169.648438 107.589844 168.710938 108.527344 167.558594 108.527344 Z M 167.558594 108.527344 " fill-opacity="1" fill-rule="nonzero"/><path fill="currentColor" d="M 177.898438 101.640625 C 176.742188 101.640625 175.804688 100.703125 175.804688 99.546875 L 175.804688 80.445312 C 175.804688 79.289062 176.742188 78.351562 177.898438 78.351562 C 179.054688 78.351562 179.992188 79.289062 179.992188 80.445312 L 179.992188 99.546875 C 179.992188 100.703125 179.054688 101.640625 177.898438 101.640625 Z M 177.898438 101.640625 " fill-opacity="1" fill-rule="nonzero"/></svg>