<svg xmlns="http://www.w3.org/2000/svg" xmlns:xlink="http://www.w3.org/1999/xlink" width="240" zoomAndPan="magnify" viewBox="0 0 180 179.999997" height="240" preserveAspectRatio="xMidYMid meet" version="1.0"><defs><clipPath id="f97f00959e"><path d="M 0 3.109375 L 180 3.109375 L 180 177 L 0 177 Z M 0 3.109375 " clip-rule="nonzero"/></clipPath></defs><g clip-path="url(#f97f00959e)"><path fill="#085085" d="M 14.546875 18.6875 L 14.546875 18.4375 C 14.546875 16.84375 15.839844 15.550781 17.433594 15.550781 C 19.03125 15.550781 20.324219 16.84375 20.324219 18.4375 L 20.324219 18.6875 C 20.324219 20.28125 19.03125 21.574219 17.433594 21.574219 C 15.839844 21.574219 14.546875 20.28125 14.546875 18.6875 Z M 29.953125 21.320312 C 31.546875 21.320312 32.839844 20.027344 32.839844 18.433594 L 32.839844 18.1875 C 32.839844 16.59375 31.546875 15.300781 29.953125 15.300781 C 28.359375 15.300781 27.066406 16.59375 27.066406 18.1875 L 27.066406 18.433594 C 27.066406 20.027344 28.359375 21.320312 29.953125 21.320312 Z M 42.46875 21.320312 C 44.066406 21.320312 45.359375 20.027344 45.359375 18.433594 L 45.359375 18.1875 C 45.359375 16.59375 44.066406 15.300781 42.46875 15.300781 C 40.875 15.300781 39.582031 16.59375 39.582031 18.1875 L 39.582031 18.433594 C 39.582031 20.027344 40.875 21.320312 42.46875 21.320312 Z M 57.765625 68.140625 C 56.257812 67.640625 54.625 68.453125 54.121094 69.957031 L 48.726562 86.027344 L 43.332031 69.960938 C 43.054688 69.132812 42.40625 68.441406 41.519531 68.144531 C 40.015625 67.644531 38.378906 68.457031 37.875 69.960938 L 32.480469 86.03125 L 27.085938 69.960938 C 26.585938 68.453125 24.949219 67.640625 23.445312 68.144531 C 21.941406 68.648438 21.121094 70.285156 21.628906 71.789062 L 29.753906 95.992188 C 30.257812 97.503906 31.894531 98.316406 33.398438 97.808594 C 34.285156 97.511719 34.933594 96.820312 35.210938 95.992188 L 40.605469 79.921875 L 46 95.992188 C 46.503906 97.503906 48.140625 98.316406 49.644531 97.808594 C 50.53125 97.511719 51.179688 96.820312 51.457031 95.992188 L 59.578125 71.789062 C 60.085938 70.28125 59.269531 68.648438 57.765625 68.140625 Z M 99.058594 68.140625 C 97.554688 67.640625 95.917969 68.453125 95.417969 69.957031 L 90.023438 86.027344 L 84.628906 69.957031 C 84.351562 69.128906 83.703125 68.4375 82.8125 68.140625 C 81.308594 67.640625 79.675781 68.453125 79.171875 69.957031 L 73.777344 86.027344 L 68.382812 69.957031 C 67.878906 68.449219 66.246094 67.632812 64.738281 68.140625 C 63.234375 68.644531 62.417969 70.28125 62.925781 71.785156 L 71.050781 95.988281 C 71.554688 97.5 73.1875 98.3125 74.691406 97.804688 C 75.582031 97.507812 76.230469 96.816406 76.507812 95.988281 L 81.902344 79.917969 L 87.296875 95.988281 C 87.800781 97.5 89.433594 98.3125 90.9375 97.804688 C 91.828125 97.507812 92.476562 96.816406 92.753906 95.988281 L 100.875 71.785156 C 101.382812 70.28125 100.5625 68.648438 99.058594 68.140625 Z M 115.984375 97.808594 C 116.871094 97.511719 117.519531 96.820312 117.796875 95.992188 L 123.191406 79.921875 L 128.585938 95.992188 C 129.089844 97.503906 130.726562 98.316406 132.230469 97.808594 C 133.117188 97.511719 133.765625 96.820312 134.042969 95.992188 L 142.164062 71.789062 C 142.667969 70.285156 141.855469 68.648438 140.351562 68.144531 C 138.84375 67.644531 137.210938 68.457031 136.707031 69.960938 L 131.3125 86.03125 L 125.917969 69.960938 C 125.640625 69.132812 124.992188 68.441406 124.105469 68.144531 C 122.597656 67.644531 120.964844 68.457031 120.460938 69.960938 L 115.066406 86.03125 L 109.671875 69.960938 C 109.167969 68.453125 107.535156 67.640625 106.03125 68.144531 C 104.527344 68.648438 103.707031 70.285156 104.214844 71.789062 L 112.339844 95.992188 C 112.84375 97.5 114.480469 98.3125 115.984375 97.808594 Z M 178.851562 161.21875 L 164.308594 175.761719 C 163.179688 176.890625 161.351562 176.890625 160.226562 175.761719 L 145.527344 161.066406 L 134.042969 172.550781 C 132.917969 173.679688 131.089844 173.679688 129.960938 172.550781 C 129.605469 172.195312 129.363281 171.773438 129.234375 171.332031 L 120.597656 142.816406 L 2.921875 142.816406 C 1.328125 142.816406 0.0351562 141.523438 0.0351562 139.929688 L 0.0351562 31.039062 C 0.0351562 31.039062 0.0351562 31.03125 0.0351562 31.03125 C 0.0351562 31.03125 0.0351562 31.027344 0.0351562 31.027344 L 0.0351562 5.996094 C 0.0351562 4.402344 1.328125 3.109375 2.921875 3.109375 L 160.875 3.109375 C 162.472656 3.109375 163.765625 4.402344 163.765625 5.996094 L 163.765625 122.921875 L 174.4375 126.15625 C 175.964844 126.613281 176.824219 128.226562 176.363281 129.753906 C 176.214844 130.242188 175.949219 130.660156 175.609375 130.992188 L 164.15625 142.445312 L 178.851562 157.140625 C 179.980469 158.265625 179.980469 160.097656 178.851562 161.21875 Z M 5.8125 8.886719 L 5.8125 28.144531 L 157.988281 28.144531 L 157.988281 8.886719 Z M 118.847656 137.039062 L 111.164062 111.675781 C 110.707031 110.148438 111.566406 108.535156 113.089844 108.074219 C 113.65625 107.90625 114.230469 107.917969 114.761719 108.074219 L 157.984375 121.167969 L 157.984375 33.921875 L 5.8125 33.921875 L 5.8125 137.042969 L 118.847656 137.042969 Z M 172.726562 159.179688 L 158.027344 144.484375 C 156.902344 143.355469 156.902344 141.527344 158.027344 140.402344 L 168.148438 130.28125 L 160.050781 127.828125 C 160.03125 127.824219 160.007812 127.816406 159.992188 127.8125 L 118.257812 115.167969 L 125.492188 139.058594 C 125.496094 139.066406 125.496094 139.078125 125.5 139.085938 L 133.371094 165.058594 L 143.488281 154.941406 C 144.617188 153.8125 146.445312 153.8125 147.574219 154.941406 L 162.269531 169.636719 Z M 172.726562 159.179688 " fill-opacity="1" fill-rule="nonzero"/></g></svg>